%TF.GenerationSoftware,KiCad,Pcbnew,9.0.7*%
%TF.CreationDate,2026-03-02T13:39:43+02:00*%
%TF.ProjectId,Stopwatch_Timer,53746f70-7761-4746-9368-5f54696d6572,rev?*%
%TF.SameCoordinates,Original*%
%TF.FileFunction,Legend,Top*%
%TF.FilePolarity,Positive*%
%FSLAX46Y46*%
G04 Gerber Fmt 4.6, Leading zero omitted, Abs format (unit mm)*
G04 Created by KiCad (PCBNEW 9.0.7) date 2026-03-02 13:39:43*
%MOMM*%
%LPD*%
G01*
G04 APERTURE LIST*
%ADD10C,0.150000*%
%ADD11C,0.120000*%
%ADD12C,0.127000*%
%ADD13C,0.200000*%
G04 APERTURE END LIST*
D10*
X94551019Y-11763333D02*
X95265304Y-11763333D01*
X95265304Y-11763333D02*
X95408161Y-11810952D01*
X95408161Y-11810952D02*
X95503400Y-11906190D01*
X95503400Y-11906190D02*
X95551019Y-12049047D01*
X95551019Y-12049047D02*
X95551019Y-12144285D01*
X94646257Y-11334761D02*
X94598638Y-11287142D01*
X94598638Y-11287142D02*
X94551019Y-11191904D01*
X94551019Y-11191904D02*
X94551019Y-10953809D01*
X94551019Y-10953809D02*
X94598638Y-10858571D01*
X94598638Y-10858571D02*
X94646257Y-10810952D01*
X94646257Y-10810952D02*
X94741495Y-10763333D01*
X94741495Y-10763333D02*
X94836733Y-10763333D01*
X94836733Y-10763333D02*
X94979590Y-10810952D01*
X94979590Y-10810952D02*
X95551019Y-11382380D01*
X95551019Y-11382380D02*
X95551019Y-10763333D01*
X253850971Y-139582704D02*
X254327161Y-139582704D01*
X253755733Y-139868419D02*
X254089066Y-138868419D01*
X254089066Y-138868419D02*
X254422399Y-139868419D01*
X255089066Y-139344609D02*
X254755733Y-139344609D01*
X254755733Y-139868419D02*
X254755733Y-138868419D01*
X254755733Y-138868419D02*
X255231923Y-138868419D01*
X255946209Y-139344609D02*
X255612876Y-139344609D01*
X255612876Y-139868419D02*
X255612876Y-138868419D01*
X255612876Y-138868419D02*
X256089066Y-138868419D01*
X256898590Y-139201752D02*
X256898590Y-139868419D01*
X256660495Y-138820800D02*
X256422400Y-139535085D01*
X256422400Y-139535085D02*
X257041447Y-139535085D01*
X51489995Y-133432200D02*
X51632852Y-133479819D01*
X51632852Y-133479819D02*
X51870947Y-133479819D01*
X51870947Y-133479819D02*
X51966185Y-133432200D01*
X51966185Y-133432200D02*
X52013804Y-133384580D01*
X52013804Y-133384580D02*
X52061423Y-133289342D01*
X52061423Y-133289342D02*
X52061423Y-133194104D01*
X52061423Y-133194104D02*
X52013804Y-133098866D01*
X52013804Y-133098866D02*
X51966185Y-133051247D01*
X51966185Y-133051247D02*
X51870947Y-133003628D01*
X51870947Y-133003628D02*
X51680471Y-132956009D01*
X51680471Y-132956009D02*
X51585233Y-132908390D01*
X51585233Y-132908390D02*
X51537614Y-132860771D01*
X51537614Y-132860771D02*
X51489995Y-132765533D01*
X51489995Y-132765533D02*
X51489995Y-132670295D01*
X51489995Y-132670295D02*
X51537614Y-132575057D01*
X51537614Y-132575057D02*
X51585233Y-132527438D01*
X51585233Y-132527438D02*
X51680471Y-132479819D01*
X51680471Y-132479819D02*
X51918566Y-132479819D01*
X51918566Y-132479819D02*
X52061423Y-132527438D01*
X52918566Y-132813152D02*
X52918566Y-133479819D01*
X52680471Y-132432200D02*
X52442376Y-133146485D01*
X52442376Y-133146485D02*
X53061423Y-133146485D01*
X121678867Y-86389819D02*
X121678867Y-85389819D01*
X121678867Y-85389819D02*
X122012200Y-86104104D01*
X122012200Y-86104104D02*
X122345533Y-85389819D01*
X122345533Y-85389819D02*
X122345533Y-86389819D01*
X122821724Y-85389819D02*
X122821724Y-86199342D01*
X122821724Y-86199342D02*
X122869343Y-86294580D01*
X122869343Y-86294580D02*
X122916962Y-86342200D01*
X122916962Y-86342200D02*
X123012200Y-86389819D01*
X123012200Y-86389819D02*
X123202676Y-86389819D01*
X123202676Y-86389819D02*
X123297914Y-86342200D01*
X123297914Y-86342200D02*
X123345533Y-86294580D01*
X123345533Y-86294580D02*
X123393152Y-86199342D01*
X123393152Y-86199342D02*
X123393152Y-85389819D01*
X124393152Y-86389819D02*
X123821724Y-86389819D01*
X124107438Y-86389819D02*
X124107438Y-85389819D01*
X124107438Y-85389819D02*
X124012200Y-85532676D01*
X124012200Y-85532676D02*
X123916962Y-85627914D01*
X123916962Y-85627914D02*
X123821724Y-85675533D01*
X51092267Y-99252800D02*
X51235124Y-99300419D01*
X51235124Y-99300419D02*
X51473219Y-99300419D01*
X51473219Y-99300419D02*
X51568457Y-99252800D01*
X51568457Y-99252800D02*
X51616076Y-99205180D01*
X51616076Y-99205180D02*
X51663695Y-99109942D01*
X51663695Y-99109942D02*
X51663695Y-99014704D01*
X51663695Y-99014704D02*
X51616076Y-98919466D01*
X51616076Y-98919466D02*
X51568457Y-98871847D01*
X51568457Y-98871847D02*
X51473219Y-98824228D01*
X51473219Y-98824228D02*
X51282743Y-98776609D01*
X51282743Y-98776609D02*
X51187505Y-98728990D01*
X51187505Y-98728990D02*
X51139886Y-98681371D01*
X51139886Y-98681371D02*
X51092267Y-98586133D01*
X51092267Y-98586133D02*
X51092267Y-98490895D01*
X51092267Y-98490895D02*
X51139886Y-98395657D01*
X51139886Y-98395657D02*
X51187505Y-98348038D01*
X51187505Y-98348038D02*
X51282743Y-98300419D01*
X51282743Y-98300419D02*
X51520838Y-98300419D01*
X51520838Y-98300419D02*
X51663695Y-98348038D01*
X51997029Y-98300419D02*
X52235124Y-99300419D01*
X52235124Y-99300419D02*
X52425600Y-98586133D01*
X52425600Y-98586133D02*
X52616076Y-99300419D01*
X52616076Y-99300419D02*
X52854172Y-98300419D01*
X53758933Y-99300419D02*
X53187505Y-99300419D01*
X53473219Y-99300419D02*
X53473219Y-98300419D01*
X53473219Y-98300419D02*
X53377981Y-98443276D01*
X53377981Y-98443276D02*
X53282743Y-98538514D01*
X53282743Y-98538514D02*
X53187505Y-98586133D01*
X60194819Y-173762381D02*
X59718628Y-174095714D01*
X60194819Y-174333809D02*
X59194819Y-174333809D01*
X59194819Y-174333809D02*
X59194819Y-173952857D01*
X59194819Y-173952857D02*
X59242438Y-173857619D01*
X59242438Y-173857619D02*
X59290057Y-173810000D01*
X59290057Y-173810000D02*
X59385295Y-173762381D01*
X59385295Y-173762381D02*
X59528152Y-173762381D01*
X59528152Y-173762381D02*
X59623390Y-173810000D01*
X59623390Y-173810000D02*
X59671009Y-173857619D01*
X59671009Y-173857619D02*
X59718628Y-173952857D01*
X59718628Y-173952857D02*
X59718628Y-174333809D01*
X60290057Y-173571905D02*
X60290057Y-172810000D01*
X60194819Y-172571904D02*
X59194819Y-172571904D01*
X59194819Y-172571904D02*
X59909104Y-172238571D01*
X59909104Y-172238571D02*
X59194819Y-171905238D01*
X59194819Y-171905238D02*
X60194819Y-171905238D01*
X60194819Y-171286190D02*
X60147200Y-171381428D01*
X60147200Y-171381428D02*
X60099580Y-171429047D01*
X60099580Y-171429047D02*
X60004342Y-171476666D01*
X60004342Y-171476666D02*
X59718628Y-171476666D01*
X59718628Y-171476666D02*
X59623390Y-171429047D01*
X59623390Y-171429047D02*
X59575771Y-171381428D01*
X59575771Y-171381428D02*
X59528152Y-171286190D01*
X59528152Y-171286190D02*
X59528152Y-171143333D01*
X59528152Y-171143333D02*
X59575771Y-171048095D01*
X59575771Y-171048095D02*
X59623390Y-171000476D01*
X59623390Y-171000476D02*
X59718628Y-170952857D01*
X59718628Y-170952857D02*
X60004342Y-170952857D01*
X60004342Y-170952857D02*
X60099580Y-171000476D01*
X60099580Y-171000476D02*
X60147200Y-171048095D01*
X60147200Y-171048095D02*
X60194819Y-171143333D01*
X60194819Y-171143333D02*
X60194819Y-171286190D01*
X60194819Y-170095714D02*
X59194819Y-170095714D01*
X60147200Y-170095714D02*
X60194819Y-170190952D01*
X60194819Y-170190952D02*
X60194819Y-170381428D01*
X60194819Y-170381428D02*
X60147200Y-170476666D01*
X60147200Y-170476666D02*
X60099580Y-170524285D01*
X60099580Y-170524285D02*
X60004342Y-170571904D01*
X60004342Y-170571904D02*
X59718628Y-170571904D01*
X59718628Y-170571904D02*
X59623390Y-170524285D01*
X59623390Y-170524285D02*
X59575771Y-170476666D01*
X59575771Y-170476666D02*
X59528152Y-170381428D01*
X59528152Y-170381428D02*
X59528152Y-170190952D01*
X59528152Y-170190952D02*
X59575771Y-170095714D01*
X60147200Y-169238571D02*
X60194819Y-169333809D01*
X60194819Y-169333809D02*
X60194819Y-169524285D01*
X60194819Y-169524285D02*
X60147200Y-169619523D01*
X60147200Y-169619523D02*
X60051961Y-169667142D01*
X60051961Y-169667142D02*
X59671009Y-169667142D01*
X59671009Y-169667142D02*
X59575771Y-169619523D01*
X59575771Y-169619523D02*
X59528152Y-169524285D01*
X59528152Y-169524285D02*
X59528152Y-169333809D01*
X59528152Y-169333809D02*
X59575771Y-169238571D01*
X59575771Y-169238571D02*
X59671009Y-169190952D01*
X59671009Y-169190952D02*
X59766247Y-169190952D01*
X59766247Y-169190952D02*
X59861485Y-169667142D01*
X60194819Y-168238571D02*
X60194819Y-168809999D01*
X60194819Y-168524285D02*
X59194819Y-168524285D01*
X59194819Y-168524285D02*
X59337676Y-168619523D01*
X59337676Y-168619523D02*
X59432914Y-168714761D01*
X59432914Y-168714761D02*
X59480533Y-168809999D01*
X34144142Y-183373419D02*
X33810809Y-182897228D01*
X33572714Y-183373419D02*
X33572714Y-182373419D01*
X33572714Y-182373419D02*
X33953666Y-182373419D01*
X33953666Y-182373419D02*
X34048904Y-182421038D01*
X34048904Y-182421038D02*
X34096523Y-182468657D01*
X34096523Y-182468657D02*
X34144142Y-182563895D01*
X34144142Y-182563895D02*
X34144142Y-182706752D01*
X34144142Y-182706752D02*
X34096523Y-182801990D01*
X34096523Y-182801990D02*
X34048904Y-182849609D01*
X34048904Y-182849609D02*
X33953666Y-182897228D01*
X33953666Y-182897228D02*
X33572714Y-182897228D01*
X34477476Y-182373419D02*
X35096523Y-182373419D01*
X35096523Y-182373419D02*
X34763190Y-182754371D01*
X34763190Y-182754371D02*
X34906047Y-182754371D01*
X34906047Y-182754371D02*
X35001285Y-182801990D01*
X35001285Y-182801990D02*
X35048904Y-182849609D01*
X35048904Y-182849609D02*
X35096523Y-182944847D01*
X35096523Y-182944847D02*
X35096523Y-183182942D01*
X35096523Y-183182942D02*
X35048904Y-183278180D01*
X35048904Y-183278180D02*
X35001285Y-183325800D01*
X35001285Y-183325800D02*
X34906047Y-183373419D01*
X34906047Y-183373419D02*
X34620333Y-183373419D01*
X34620333Y-183373419D02*
X34525095Y-183325800D01*
X34525095Y-183325800D02*
X34477476Y-183278180D01*
X35572714Y-183373419D02*
X35763190Y-183373419D01*
X35763190Y-183373419D02*
X35858428Y-183325800D01*
X35858428Y-183325800D02*
X35906047Y-183278180D01*
X35906047Y-183278180D02*
X36001285Y-183135323D01*
X36001285Y-183135323D02*
X36048904Y-182944847D01*
X36048904Y-182944847D02*
X36048904Y-182563895D01*
X36048904Y-182563895D02*
X36001285Y-182468657D01*
X36001285Y-182468657D02*
X35953666Y-182421038D01*
X35953666Y-182421038D02*
X35858428Y-182373419D01*
X35858428Y-182373419D02*
X35667952Y-182373419D01*
X35667952Y-182373419D02*
X35572714Y-182421038D01*
X35572714Y-182421038D02*
X35525095Y-182468657D01*
X35525095Y-182468657D02*
X35477476Y-182563895D01*
X35477476Y-182563895D02*
X35477476Y-182801990D01*
X35477476Y-182801990D02*
X35525095Y-182897228D01*
X35525095Y-182897228D02*
X35572714Y-182944847D01*
X35572714Y-182944847D02*
X35667952Y-182992466D01*
X35667952Y-182992466D02*
X35858428Y-182992466D01*
X35858428Y-182992466D02*
X35953666Y-182944847D01*
X35953666Y-182944847D02*
X36001285Y-182897228D01*
X36001285Y-182897228D02*
X36048904Y-182801990D01*
X63657142Y-151744819D02*
X63323809Y-151268628D01*
X63085714Y-151744819D02*
X63085714Y-150744819D01*
X63085714Y-150744819D02*
X63466666Y-150744819D01*
X63466666Y-150744819D02*
X63561904Y-150792438D01*
X63561904Y-150792438D02*
X63609523Y-150840057D01*
X63609523Y-150840057D02*
X63657142Y-150935295D01*
X63657142Y-150935295D02*
X63657142Y-151078152D01*
X63657142Y-151078152D02*
X63609523Y-151173390D01*
X63609523Y-151173390D02*
X63561904Y-151221009D01*
X63561904Y-151221009D02*
X63466666Y-151268628D01*
X63466666Y-151268628D02*
X63085714Y-151268628D01*
X64514285Y-151078152D02*
X64514285Y-151744819D01*
X64276190Y-150697200D02*
X64038095Y-151411485D01*
X64038095Y-151411485D02*
X64657142Y-151411485D01*
X65085714Y-151744819D02*
X65276190Y-151744819D01*
X65276190Y-151744819D02*
X65371428Y-151697200D01*
X65371428Y-151697200D02*
X65419047Y-151649580D01*
X65419047Y-151649580D02*
X65514285Y-151506723D01*
X65514285Y-151506723D02*
X65561904Y-151316247D01*
X65561904Y-151316247D02*
X65561904Y-150935295D01*
X65561904Y-150935295D02*
X65514285Y-150840057D01*
X65514285Y-150840057D02*
X65466666Y-150792438D01*
X65466666Y-150792438D02*
X65371428Y-150744819D01*
X65371428Y-150744819D02*
X65180952Y-150744819D01*
X65180952Y-150744819D02*
X65085714Y-150792438D01*
X65085714Y-150792438D02*
X65038095Y-150840057D01*
X65038095Y-150840057D02*
X64990476Y-150935295D01*
X64990476Y-150935295D02*
X64990476Y-151173390D01*
X64990476Y-151173390D02*
X65038095Y-151268628D01*
X65038095Y-151268628D02*
X65085714Y-151316247D01*
X65085714Y-151316247D02*
X65180952Y-151363866D01*
X65180952Y-151363866D02*
X65371428Y-151363866D01*
X65371428Y-151363866D02*
X65466666Y-151316247D01*
X65466666Y-151316247D02*
X65514285Y-151268628D01*
X65514285Y-151268628D02*
X65561904Y-151173390D01*
X96044219Y-95649894D02*
X96853742Y-95649894D01*
X96853742Y-95649894D02*
X96948980Y-95602275D01*
X96948980Y-95602275D02*
X96996600Y-95554656D01*
X96996600Y-95554656D02*
X97044219Y-95459418D01*
X97044219Y-95459418D02*
X97044219Y-95268942D01*
X97044219Y-95268942D02*
X96996600Y-95173704D01*
X96996600Y-95173704D02*
X96948980Y-95126085D01*
X96948980Y-95126085D02*
X96853742Y-95078466D01*
X96853742Y-95078466D02*
X96044219Y-95078466D01*
X96139457Y-94649894D02*
X96091838Y-94602275D01*
X96091838Y-94602275D02*
X96044219Y-94507037D01*
X96044219Y-94507037D02*
X96044219Y-94268942D01*
X96044219Y-94268942D02*
X96091838Y-94173704D01*
X96091838Y-94173704D02*
X96139457Y-94126085D01*
X96139457Y-94126085D02*
X96234695Y-94078466D01*
X96234695Y-94078466D02*
X96329933Y-94078466D01*
X96329933Y-94078466D02*
X96472790Y-94126085D01*
X96472790Y-94126085D02*
X97044219Y-94697513D01*
X97044219Y-94697513D02*
X97044219Y-94078466D01*
X96044219Y-93745132D02*
X96044219Y-93126085D01*
X96044219Y-93126085D02*
X96425171Y-93459418D01*
X96425171Y-93459418D02*
X96425171Y-93316561D01*
X96425171Y-93316561D02*
X96472790Y-93221323D01*
X96472790Y-93221323D02*
X96520409Y-93173704D01*
X96520409Y-93173704D02*
X96615647Y-93126085D01*
X96615647Y-93126085D02*
X96853742Y-93126085D01*
X96853742Y-93126085D02*
X96948980Y-93173704D01*
X96948980Y-93173704D02*
X96996600Y-93221323D01*
X96996600Y-93221323D02*
X97044219Y-93316561D01*
X97044219Y-93316561D02*
X97044219Y-93602275D01*
X97044219Y-93602275D02*
X96996600Y-93697513D01*
X96996600Y-93697513D02*
X96948980Y-93745132D01*
X35520219Y-125094619D02*
X35044028Y-125427952D01*
X35520219Y-125666047D02*
X34520219Y-125666047D01*
X34520219Y-125666047D02*
X34520219Y-125285095D01*
X34520219Y-125285095D02*
X34567838Y-125189857D01*
X34567838Y-125189857D02*
X34615457Y-125142238D01*
X34615457Y-125142238D02*
X34710695Y-125094619D01*
X34710695Y-125094619D02*
X34853552Y-125094619D01*
X34853552Y-125094619D02*
X34948790Y-125142238D01*
X34948790Y-125142238D02*
X34996409Y-125189857D01*
X34996409Y-125189857D02*
X35044028Y-125285095D01*
X35044028Y-125285095D02*
X35044028Y-125666047D01*
X34853552Y-124237476D02*
X35520219Y-124237476D01*
X34472600Y-124475571D02*
X35186885Y-124713666D01*
X35186885Y-124713666D02*
X35186885Y-124094619D01*
X35615457Y-123951762D02*
X35615457Y-123189857D01*
X34520219Y-123094618D02*
X34520219Y-122523190D01*
X35520219Y-122808904D02*
X34520219Y-122808904D01*
X35520219Y-122189856D02*
X34853552Y-122189856D01*
X34520219Y-122189856D02*
X34567838Y-122237475D01*
X34567838Y-122237475D02*
X34615457Y-122189856D01*
X34615457Y-122189856D02*
X34567838Y-122142237D01*
X34567838Y-122142237D02*
X34520219Y-122189856D01*
X34520219Y-122189856D02*
X34615457Y-122189856D01*
X35520219Y-121713666D02*
X34853552Y-121713666D01*
X34948790Y-121713666D02*
X34901171Y-121666047D01*
X34901171Y-121666047D02*
X34853552Y-121570809D01*
X34853552Y-121570809D02*
X34853552Y-121427952D01*
X34853552Y-121427952D02*
X34901171Y-121332714D01*
X34901171Y-121332714D02*
X34996409Y-121285095D01*
X34996409Y-121285095D02*
X35520219Y-121285095D01*
X34996409Y-121285095D02*
X34901171Y-121237476D01*
X34901171Y-121237476D02*
X34853552Y-121142238D01*
X34853552Y-121142238D02*
X34853552Y-120999381D01*
X34853552Y-120999381D02*
X34901171Y-120904142D01*
X34901171Y-120904142D02*
X34996409Y-120856523D01*
X34996409Y-120856523D02*
X35520219Y-120856523D01*
X35472600Y-119999381D02*
X35520219Y-120094619D01*
X35520219Y-120094619D02*
X35520219Y-120285095D01*
X35520219Y-120285095D02*
X35472600Y-120380333D01*
X35472600Y-120380333D02*
X35377361Y-120427952D01*
X35377361Y-120427952D02*
X34996409Y-120427952D01*
X34996409Y-120427952D02*
X34901171Y-120380333D01*
X34901171Y-120380333D02*
X34853552Y-120285095D01*
X34853552Y-120285095D02*
X34853552Y-120094619D01*
X34853552Y-120094619D02*
X34901171Y-119999381D01*
X34901171Y-119999381D02*
X34996409Y-119951762D01*
X34996409Y-119951762D02*
X35091647Y-119951762D01*
X35091647Y-119951762D02*
X35186885Y-120427952D01*
X35520219Y-119523190D02*
X34853552Y-119523190D01*
X35044028Y-119523190D02*
X34948790Y-119475571D01*
X34948790Y-119475571D02*
X34901171Y-119427952D01*
X34901171Y-119427952D02*
X34853552Y-119332714D01*
X34853552Y-119332714D02*
X34853552Y-119237476D01*
X35520219Y-118380333D02*
X35520219Y-118951761D01*
X35520219Y-118666047D02*
X34520219Y-118666047D01*
X34520219Y-118666047D02*
X34663076Y-118761285D01*
X34663076Y-118761285D02*
X34758314Y-118856523D01*
X34758314Y-118856523D02*
X34805933Y-118951761D01*
X122171295Y-202621800D02*
X122314152Y-202669419D01*
X122314152Y-202669419D02*
X122552247Y-202669419D01*
X122552247Y-202669419D02*
X122647485Y-202621800D01*
X122647485Y-202621800D02*
X122695104Y-202574180D01*
X122695104Y-202574180D02*
X122742723Y-202478942D01*
X122742723Y-202478942D02*
X122742723Y-202383704D01*
X122742723Y-202383704D02*
X122695104Y-202288466D01*
X122695104Y-202288466D02*
X122647485Y-202240847D01*
X122647485Y-202240847D02*
X122552247Y-202193228D01*
X122552247Y-202193228D02*
X122361771Y-202145609D01*
X122361771Y-202145609D02*
X122266533Y-202097990D01*
X122266533Y-202097990D02*
X122218914Y-202050371D01*
X122218914Y-202050371D02*
X122171295Y-201955133D01*
X122171295Y-201955133D02*
X122171295Y-201859895D01*
X122171295Y-201859895D02*
X122218914Y-201764657D01*
X122218914Y-201764657D02*
X122266533Y-201717038D01*
X122266533Y-201717038D02*
X122361771Y-201669419D01*
X122361771Y-201669419D02*
X122599866Y-201669419D01*
X122599866Y-201669419D02*
X122742723Y-201717038D01*
X123076057Y-201669419D02*
X123695104Y-201669419D01*
X123695104Y-201669419D02*
X123361771Y-202050371D01*
X123361771Y-202050371D02*
X123504628Y-202050371D01*
X123504628Y-202050371D02*
X123599866Y-202097990D01*
X123599866Y-202097990D02*
X123647485Y-202145609D01*
X123647485Y-202145609D02*
X123695104Y-202240847D01*
X123695104Y-202240847D02*
X123695104Y-202478942D01*
X123695104Y-202478942D02*
X123647485Y-202574180D01*
X123647485Y-202574180D02*
X123599866Y-202621800D01*
X123599866Y-202621800D02*
X123504628Y-202669419D01*
X123504628Y-202669419D02*
X123218914Y-202669419D01*
X123218914Y-202669419D02*
X123123676Y-202621800D01*
X123123676Y-202621800D02*
X123076057Y-202574180D01*
X27444867Y-53659800D02*
X27587724Y-53707419D01*
X27587724Y-53707419D02*
X27825819Y-53707419D01*
X27825819Y-53707419D02*
X27921057Y-53659800D01*
X27921057Y-53659800D02*
X27968676Y-53612180D01*
X27968676Y-53612180D02*
X28016295Y-53516942D01*
X28016295Y-53516942D02*
X28016295Y-53421704D01*
X28016295Y-53421704D02*
X27968676Y-53326466D01*
X27968676Y-53326466D02*
X27921057Y-53278847D01*
X27921057Y-53278847D02*
X27825819Y-53231228D01*
X27825819Y-53231228D02*
X27635343Y-53183609D01*
X27635343Y-53183609D02*
X27540105Y-53135990D01*
X27540105Y-53135990D02*
X27492486Y-53088371D01*
X27492486Y-53088371D02*
X27444867Y-52993133D01*
X27444867Y-52993133D02*
X27444867Y-52897895D01*
X27444867Y-52897895D02*
X27492486Y-52802657D01*
X27492486Y-52802657D02*
X27540105Y-52755038D01*
X27540105Y-52755038D02*
X27635343Y-52707419D01*
X27635343Y-52707419D02*
X27873438Y-52707419D01*
X27873438Y-52707419D02*
X28016295Y-52755038D01*
X28349629Y-52707419D02*
X28587724Y-53707419D01*
X28587724Y-53707419D02*
X28778200Y-52993133D01*
X28778200Y-52993133D02*
X28968676Y-53707419D01*
X28968676Y-53707419D02*
X29206772Y-52707419D01*
X29492486Y-52707419D02*
X30111533Y-52707419D01*
X30111533Y-52707419D02*
X29778200Y-53088371D01*
X29778200Y-53088371D02*
X29921057Y-53088371D01*
X29921057Y-53088371D02*
X30016295Y-53135990D01*
X30016295Y-53135990D02*
X30063914Y-53183609D01*
X30063914Y-53183609D02*
X30111533Y-53278847D01*
X30111533Y-53278847D02*
X30111533Y-53516942D01*
X30111533Y-53516942D02*
X30063914Y-53612180D01*
X30063914Y-53612180D02*
X30016295Y-53659800D01*
X30016295Y-53659800D02*
X29921057Y-53707419D01*
X29921057Y-53707419D02*
X29635343Y-53707419D01*
X29635343Y-53707419D02*
X29540105Y-53659800D01*
X29540105Y-53659800D02*
X29492486Y-53612180D01*
X253977971Y-117867904D02*
X254454161Y-117867904D01*
X253882733Y-118153619D02*
X254216066Y-117153619D01*
X254216066Y-117153619D02*
X254549399Y-118153619D01*
X255216066Y-117629809D02*
X254882733Y-117629809D01*
X254882733Y-118153619D02*
X254882733Y-117153619D01*
X254882733Y-117153619D02*
X255358923Y-117153619D01*
X256073209Y-117629809D02*
X255739876Y-117629809D01*
X255739876Y-118153619D02*
X255739876Y-117153619D01*
X255739876Y-117153619D02*
X256216066Y-117153619D01*
X256501781Y-117153619D02*
X257120828Y-117153619D01*
X257120828Y-117153619D02*
X256787495Y-117534571D01*
X256787495Y-117534571D02*
X256930352Y-117534571D01*
X256930352Y-117534571D02*
X257025590Y-117582190D01*
X257025590Y-117582190D02*
X257073209Y-117629809D01*
X257073209Y-117629809D02*
X257120828Y-117725047D01*
X257120828Y-117725047D02*
X257120828Y-117963142D01*
X257120828Y-117963142D02*
X257073209Y-118058380D01*
X257073209Y-118058380D02*
X257025590Y-118106000D01*
X257025590Y-118106000D02*
X256930352Y-118153619D01*
X256930352Y-118153619D02*
X256644638Y-118153619D01*
X256644638Y-118153619D02*
X256549400Y-118106000D01*
X256549400Y-118106000D02*
X256501781Y-118058380D01*
X155043419Y-154247694D02*
X155852942Y-154247694D01*
X155852942Y-154247694D02*
X155948180Y-154200075D01*
X155948180Y-154200075D02*
X155995800Y-154152456D01*
X155995800Y-154152456D02*
X156043419Y-154057218D01*
X156043419Y-154057218D02*
X156043419Y-153866742D01*
X156043419Y-153866742D02*
X155995800Y-153771504D01*
X155995800Y-153771504D02*
X155948180Y-153723885D01*
X155948180Y-153723885D02*
X155852942Y-153676266D01*
X155852942Y-153676266D02*
X155043419Y-153676266D01*
X156043419Y-152676266D02*
X156043419Y-153247694D01*
X156043419Y-152961980D02*
X155043419Y-152961980D01*
X155043419Y-152961980D02*
X155186276Y-153057218D01*
X155186276Y-153057218D02*
X155281514Y-153152456D01*
X155281514Y-153152456D02*
X155329133Y-153247694D01*
X156043419Y-151723885D02*
X156043419Y-152295313D01*
X156043419Y-152009599D02*
X155043419Y-152009599D01*
X155043419Y-152009599D02*
X155186276Y-152104837D01*
X155186276Y-152104837D02*
X155281514Y-152200075D01*
X155281514Y-152200075D02*
X155329133Y-152295313D01*
X121186724Y-51058419D02*
X121186724Y-50058419D01*
X121186724Y-50058419D02*
X121520057Y-50772704D01*
X121520057Y-50772704D02*
X121853390Y-50058419D01*
X121853390Y-50058419D02*
X121853390Y-51058419D01*
X122186724Y-50058419D02*
X122758152Y-50058419D01*
X122472438Y-51058419D02*
X122472438Y-50058419D01*
X123615295Y-51058419D02*
X123043867Y-51058419D01*
X123329581Y-51058419D02*
X123329581Y-50058419D01*
X123329581Y-50058419D02*
X123234343Y-50201276D01*
X123234343Y-50201276D02*
X123139105Y-50296514D01*
X123139105Y-50296514D02*
X123043867Y-50344133D01*
X25110419Y-158775019D02*
X24634228Y-159108352D01*
X25110419Y-159346447D02*
X24110419Y-159346447D01*
X24110419Y-159346447D02*
X24110419Y-158965495D01*
X24110419Y-158965495D02*
X24158038Y-158870257D01*
X24158038Y-158870257D02*
X24205657Y-158822638D01*
X24205657Y-158822638D02*
X24300895Y-158775019D01*
X24300895Y-158775019D02*
X24443752Y-158775019D01*
X24443752Y-158775019D02*
X24538990Y-158822638D01*
X24538990Y-158822638D02*
X24586609Y-158870257D01*
X24586609Y-158870257D02*
X24634228Y-158965495D01*
X24634228Y-158965495D02*
X24634228Y-159346447D01*
X25110419Y-157822638D02*
X25110419Y-158394066D01*
X25110419Y-158108352D02*
X24110419Y-158108352D01*
X24110419Y-158108352D02*
X24253276Y-158203590D01*
X24253276Y-158203590D02*
X24348514Y-158298828D01*
X24348514Y-158298828D02*
X24396133Y-158394066D01*
X25205657Y-157632162D02*
X25205657Y-156870257D01*
X24110419Y-156775018D02*
X24110419Y-156203590D01*
X25110419Y-156489304D02*
X24110419Y-156489304D01*
X25110419Y-155870256D02*
X24443752Y-155870256D01*
X24110419Y-155870256D02*
X24158038Y-155917875D01*
X24158038Y-155917875D02*
X24205657Y-155870256D01*
X24205657Y-155870256D02*
X24158038Y-155822637D01*
X24158038Y-155822637D02*
X24110419Y-155870256D01*
X24110419Y-155870256D02*
X24205657Y-155870256D01*
X25110419Y-155394066D02*
X24443752Y-155394066D01*
X24538990Y-155394066D02*
X24491371Y-155346447D01*
X24491371Y-155346447D02*
X24443752Y-155251209D01*
X24443752Y-155251209D02*
X24443752Y-155108352D01*
X24443752Y-155108352D02*
X24491371Y-155013114D01*
X24491371Y-155013114D02*
X24586609Y-154965495D01*
X24586609Y-154965495D02*
X25110419Y-154965495D01*
X24586609Y-154965495D02*
X24491371Y-154917876D01*
X24491371Y-154917876D02*
X24443752Y-154822638D01*
X24443752Y-154822638D02*
X24443752Y-154679781D01*
X24443752Y-154679781D02*
X24491371Y-154584542D01*
X24491371Y-154584542D02*
X24586609Y-154536923D01*
X24586609Y-154536923D02*
X25110419Y-154536923D01*
X25062800Y-153679781D02*
X25110419Y-153775019D01*
X25110419Y-153775019D02*
X25110419Y-153965495D01*
X25110419Y-153965495D02*
X25062800Y-154060733D01*
X25062800Y-154060733D02*
X24967561Y-154108352D01*
X24967561Y-154108352D02*
X24586609Y-154108352D01*
X24586609Y-154108352D02*
X24491371Y-154060733D01*
X24491371Y-154060733D02*
X24443752Y-153965495D01*
X24443752Y-153965495D02*
X24443752Y-153775019D01*
X24443752Y-153775019D02*
X24491371Y-153679781D01*
X24491371Y-153679781D02*
X24586609Y-153632162D01*
X24586609Y-153632162D02*
X24681847Y-153632162D01*
X24681847Y-153632162D02*
X24777085Y-154108352D01*
X25110419Y-153203590D02*
X24443752Y-153203590D01*
X24634228Y-153203590D02*
X24538990Y-153155971D01*
X24538990Y-153155971D02*
X24491371Y-153108352D01*
X24491371Y-153108352D02*
X24443752Y-153013114D01*
X24443752Y-153013114D02*
X24443752Y-152917876D01*
X25110419Y-152060733D02*
X25110419Y-152632161D01*
X25110419Y-152346447D02*
X24110419Y-152346447D01*
X24110419Y-152346447D02*
X24253276Y-152441685D01*
X24253276Y-152441685D02*
X24348514Y-152536923D01*
X24348514Y-152536923D02*
X24396133Y-152632161D01*
X123707686Y-183610600D02*
X123850543Y-183658219D01*
X123850543Y-183658219D02*
X124088638Y-183658219D01*
X124088638Y-183658219D02*
X124183876Y-183610600D01*
X124183876Y-183610600D02*
X124231495Y-183562980D01*
X124231495Y-183562980D02*
X124279114Y-183467742D01*
X124279114Y-183467742D02*
X124279114Y-183372504D01*
X124279114Y-183372504D02*
X124231495Y-183277266D01*
X124231495Y-183277266D02*
X124183876Y-183229647D01*
X124183876Y-183229647D02*
X124088638Y-183182028D01*
X124088638Y-183182028D02*
X123898162Y-183134409D01*
X123898162Y-183134409D02*
X123802924Y-183086790D01*
X123802924Y-183086790D02*
X123755305Y-183039171D01*
X123755305Y-183039171D02*
X123707686Y-182943933D01*
X123707686Y-182943933D02*
X123707686Y-182848695D01*
X123707686Y-182848695D02*
X123755305Y-182753457D01*
X123755305Y-182753457D02*
X123802924Y-182705838D01*
X123802924Y-182705838D02*
X123898162Y-182658219D01*
X123898162Y-182658219D02*
X124136257Y-182658219D01*
X124136257Y-182658219D02*
X124279114Y-182705838D01*
X124707686Y-182658219D02*
X124707686Y-183467742D01*
X124707686Y-183467742D02*
X124755305Y-183562980D01*
X124755305Y-183562980D02*
X124802924Y-183610600D01*
X124802924Y-183610600D02*
X124898162Y-183658219D01*
X124898162Y-183658219D02*
X125088638Y-183658219D01*
X125088638Y-183658219D02*
X125183876Y-183610600D01*
X125183876Y-183610600D02*
X125231495Y-183562980D01*
X125231495Y-183562980D02*
X125279114Y-183467742D01*
X125279114Y-183467742D02*
X125279114Y-182658219D01*
X126279114Y-183658219D02*
X125707686Y-183658219D01*
X125993400Y-183658219D02*
X125993400Y-182658219D01*
X125993400Y-182658219D02*
X125898162Y-182801076D01*
X125898162Y-182801076D02*
X125802924Y-182896314D01*
X125802924Y-182896314D02*
X125707686Y-182943933D01*
X157359819Y-81400494D02*
X158169342Y-81400494D01*
X158169342Y-81400494D02*
X158264580Y-81352875D01*
X158264580Y-81352875D02*
X158312200Y-81305256D01*
X158312200Y-81305256D02*
X158359819Y-81210018D01*
X158359819Y-81210018D02*
X158359819Y-81019542D01*
X158359819Y-81019542D02*
X158312200Y-80924304D01*
X158312200Y-80924304D02*
X158264580Y-80876685D01*
X158264580Y-80876685D02*
X158169342Y-80829066D01*
X158169342Y-80829066D02*
X157359819Y-80829066D01*
X157455057Y-80400494D02*
X157407438Y-80352875D01*
X157407438Y-80352875D02*
X157359819Y-80257637D01*
X157359819Y-80257637D02*
X157359819Y-80019542D01*
X157359819Y-80019542D02*
X157407438Y-79924304D01*
X157407438Y-79924304D02*
X157455057Y-79876685D01*
X157455057Y-79876685D02*
X157550295Y-79829066D01*
X157550295Y-79829066D02*
X157645533Y-79829066D01*
X157645533Y-79829066D02*
X157788390Y-79876685D01*
X157788390Y-79876685D02*
X158359819Y-80448113D01*
X158359819Y-80448113D02*
X158359819Y-79829066D01*
X157455057Y-79448113D02*
X157407438Y-79400494D01*
X157407438Y-79400494D02*
X157359819Y-79305256D01*
X157359819Y-79305256D02*
X157359819Y-79067161D01*
X157359819Y-79067161D02*
X157407438Y-78971923D01*
X157407438Y-78971923D02*
X157455057Y-78924304D01*
X157455057Y-78924304D02*
X157550295Y-78876685D01*
X157550295Y-78876685D02*
X157645533Y-78876685D01*
X157645533Y-78876685D02*
X157788390Y-78924304D01*
X157788390Y-78924304D02*
X158359819Y-79495732D01*
X158359819Y-79495732D02*
X158359819Y-78876685D01*
X52534819Y-159648094D02*
X53344342Y-159648094D01*
X53344342Y-159648094D02*
X53439580Y-159600475D01*
X53439580Y-159600475D02*
X53487200Y-159552856D01*
X53487200Y-159552856D02*
X53534819Y-159457618D01*
X53534819Y-159457618D02*
X53534819Y-159267142D01*
X53534819Y-159267142D02*
X53487200Y-159171904D01*
X53487200Y-159171904D02*
X53439580Y-159124285D01*
X53439580Y-159124285D02*
X53344342Y-159076666D01*
X53344342Y-159076666D02*
X52534819Y-159076666D01*
X52630057Y-158648094D02*
X52582438Y-158600475D01*
X52582438Y-158600475D02*
X52534819Y-158505237D01*
X52534819Y-158505237D02*
X52534819Y-158267142D01*
X52534819Y-158267142D02*
X52582438Y-158171904D01*
X52582438Y-158171904D02*
X52630057Y-158124285D01*
X52630057Y-158124285D02*
X52725295Y-158076666D01*
X52725295Y-158076666D02*
X52820533Y-158076666D01*
X52820533Y-158076666D02*
X52963390Y-158124285D01*
X52963390Y-158124285D02*
X53534819Y-158695713D01*
X53534819Y-158695713D02*
X53534819Y-158076666D01*
X52534819Y-157457618D02*
X52534819Y-157362380D01*
X52534819Y-157362380D02*
X52582438Y-157267142D01*
X52582438Y-157267142D02*
X52630057Y-157219523D01*
X52630057Y-157219523D02*
X52725295Y-157171904D01*
X52725295Y-157171904D02*
X52915771Y-157124285D01*
X52915771Y-157124285D02*
X53153866Y-157124285D01*
X53153866Y-157124285D02*
X53344342Y-157171904D01*
X53344342Y-157171904D02*
X53439580Y-157219523D01*
X53439580Y-157219523D02*
X53487200Y-157267142D01*
X53487200Y-157267142D02*
X53534819Y-157362380D01*
X53534819Y-157362380D02*
X53534819Y-157457618D01*
X53534819Y-157457618D02*
X53487200Y-157552856D01*
X53487200Y-157552856D02*
X53439580Y-157600475D01*
X53439580Y-157600475D02*
X53344342Y-157648094D01*
X53344342Y-157648094D02*
X53153866Y-157695713D01*
X53153866Y-157695713D02*
X52915771Y-157695713D01*
X52915771Y-157695713D02*
X52725295Y-157648094D01*
X52725295Y-157648094D02*
X52630057Y-157600475D01*
X52630057Y-157600475D02*
X52582438Y-157552856D01*
X52582438Y-157552856D02*
X52534819Y-157457618D01*
X106966219Y-128034894D02*
X107775742Y-128034894D01*
X107775742Y-128034894D02*
X107870980Y-127987275D01*
X107870980Y-127987275D02*
X107918600Y-127939656D01*
X107918600Y-127939656D02*
X107966219Y-127844418D01*
X107966219Y-127844418D02*
X107966219Y-127653942D01*
X107966219Y-127653942D02*
X107918600Y-127558704D01*
X107918600Y-127558704D02*
X107870980Y-127511085D01*
X107870980Y-127511085D02*
X107775742Y-127463466D01*
X107775742Y-127463466D02*
X106966219Y-127463466D01*
X107966219Y-126463466D02*
X107966219Y-127034894D01*
X107966219Y-126749180D02*
X106966219Y-126749180D01*
X106966219Y-126749180D02*
X107109076Y-126844418D01*
X107109076Y-126844418D02*
X107204314Y-126939656D01*
X107204314Y-126939656D02*
X107251933Y-127034894D01*
X106966219Y-125844418D02*
X106966219Y-125749180D01*
X106966219Y-125749180D02*
X107013838Y-125653942D01*
X107013838Y-125653942D02*
X107061457Y-125606323D01*
X107061457Y-125606323D02*
X107156695Y-125558704D01*
X107156695Y-125558704D02*
X107347171Y-125511085D01*
X107347171Y-125511085D02*
X107585266Y-125511085D01*
X107585266Y-125511085D02*
X107775742Y-125558704D01*
X107775742Y-125558704D02*
X107870980Y-125606323D01*
X107870980Y-125606323D02*
X107918600Y-125653942D01*
X107918600Y-125653942D02*
X107966219Y-125749180D01*
X107966219Y-125749180D02*
X107966219Y-125844418D01*
X107966219Y-125844418D02*
X107918600Y-125939656D01*
X107918600Y-125939656D02*
X107870980Y-125987275D01*
X107870980Y-125987275D02*
X107775742Y-126034894D01*
X107775742Y-126034894D02*
X107585266Y-126082513D01*
X107585266Y-126082513D02*
X107347171Y-126082513D01*
X107347171Y-126082513D02*
X107156695Y-126034894D01*
X107156695Y-126034894D02*
X107061457Y-125987275D01*
X107061457Y-125987275D02*
X107013838Y-125939656D01*
X107013838Y-125939656D02*
X106966219Y-125844418D01*
X173945705Y-189758419D02*
X173945705Y-190567942D01*
X173945705Y-190567942D02*
X173993324Y-190663180D01*
X173993324Y-190663180D02*
X174040943Y-190710800D01*
X174040943Y-190710800D02*
X174136181Y-190758419D01*
X174136181Y-190758419D02*
X174326657Y-190758419D01*
X174326657Y-190758419D02*
X174421895Y-190710800D01*
X174421895Y-190710800D02*
X174469514Y-190663180D01*
X174469514Y-190663180D02*
X174517133Y-190567942D01*
X174517133Y-190567942D02*
X174517133Y-189758419D01*
X175517133Y-190758419D02*
X174945705Y-190758419D01*
X175231419Y-190758419D02*
X175231419Y-189758419D01*
X175231419Y-189758419D02*
X175136181Y-189901276D01*
X175136181Y-189901276D02*
X175040943Y-189996514D01*
X175040943Y-189996514D02*
X174945705Y-190044133D01*
X175993324Y-190758419D02*
X176183800Y-190758419D01*
X176183800Y-190758419D02*
X176279038Y-190710800D01*
X176279038Y-190710800D02*
X176326657Y-190663180D01*
X176326657Y-190663180D02*
X176421895Y-190520323D01*
X176421895Y-190520323D02*
X176469514Y-190329847D01*
X176469514Y-190329847D02*
X176469514Y-189948895D01*
X176469514Y-189948895D02*
X176421895Y-189853657D01*
X176421895Y-189853657D02*
X176374276Y-189806038D01*
X176374276Y-189806038D02*
X176279038Y-189758419D01*
X176279038Y-189758419D02*
X176088562Y-189758419D01*
X176088562Y-189758419D02*
X175993324Y-189806038D01*
X175993324Y-189806038D02*
X175945705Y-189853657D01*
X175945705Y-189853657D02*
X175898086Y-189948895D01*
X175898086Y-189948895D02*
X175898086Y-190186990D01*
X175898086Y-190186990D02*
X175945705Y-190282228D01*
X175945705Y-190282228D02*
X175993324Y-190329847D01*
X175993324Y-190329847D02*
X176088562Y-190377466D01*
X176088562Y-190377466D02*
X176279038Y-190377466D01*
X176279038Y-190377466D02*
X176374276Y-190329847D01*
X176374276Y-190329847D02*
X176421895Y-190282228D01*
X176421895Y-190282228D02*
X176469514Y-190186990D01*
X42056580Y-174755266D02*
X42104200Y-174802885D01*
X42104200Y-174802885D02*
X42151819Y-174945742D01*
X42151819Y-174945742D02*
X42151819Y-175040980D01*
X42151819Y-175040980D02*
X42104200Y-175183837D01*
X42104200Y-175183837D02*
X42008961Y-175279075D01*
X42008961Y-175279075D02*
X41913723Y-175326694D01*
X41913723Y-175326694D02*
X41723247Y-175374313D01*
X41723247Y-175374313D02*
X41580390Y-175374313D01*
X41580390Y-175374313D02*
X41389914Y-175326694D01*
X41389914Y-175326694D02*
X41294676Y-175279075D01*
X41294676Y-175279075D02*
X41199438Y-175183837D01*
X41199438Y-175183837D02*
X41151819Y-175040980D01*
X41151819Y-175040980D02*
X41151819Y-174945742D01*
X41151819Y-174945742D02*
X41199438Y-174802885D01*
X41199438Y-174802885D02*
X41247057Y-174755266D01*
X41247057Y-174374313D02*
X41199438Y-174326694D01*
X41199438Y-174326694D02*
X41151819Y-174231456D01*
X41151819Y-174231456D02*
X41151819Y-173993361D01*
X41151819Y-173993361D02*
X41199438Y-173898123D01*
X41199438Y-173898123D02*
X41247057Y-173850504D01*
X41247057Y-173850504D02*
X41342295Y-173802885D01*
X41342295Y-173802885D02*
X41437533Y-173802885D01*
X41437533Y-173802885D02*
X41580390Y-173850504D01*
X41580390Y-173850504D02*
X42151819Y-174421932D01*
X42151819Y-174421932D02*
X42151819Y-173802885D01*
X192557495Y-119171819D02*
X192557495Y-119981342D01*
X192557495Y-119981342D02*
X192605114Y-120076580D01*
X192605114Y-120076580D02*
X192652733Y-120124200D01*
X192652733Y-120124200D02*
X192747971Y-120171819D01*
X192747971Y-120171819D02*
X192938447Y-120171819D01*
X192938447Y-120171819D02*
X193033685Y-120124200D01*
X193033685Y-120124200D02*
X193081304Y-120076580D01*
X193081304Y-120076580D02*
X193128923Y-119981342D01*
X193128923Y-119981342D02*
X193128923Y-119171819D01*
X193509876Y-119171819D02*
X194176542Y-119171819D01*
X194176542Y-119171819D02*
X193747971Y-120171819D01*
X24856419Y-143281019D02*
X24380228Y-143614352D01*
X24856419Y-143852447D02*
X23856419Y-143852447D01*
X23856419Y-143852447D02*
X23856419Y-143471495D01*
X23856419Y-143471495D02*
X23904038Y-143376257D01*
X23904038Y-143376257D02*
X23951657Y-143328638D01*
X23951657Y-143328638D02*
X24046895Y-143281019D01*
X24046895Y-143281019D02*
X24189752Y-143281019D01*
X24189752Y-143281019D02*
X24284990Y-143328638D01*
X24284990Y-143328638D02*
X24332609Y-143376257D01*
X24332609Y-143376257D02*
X24380228Y-143471495D01*
X24380228Y-143471495D02*
X24380228Y-143852447D01*
X23951657Y-142900066D02*
X23904038Y-142852447D01*
X23904038Y-142852447D02*
X23856419Y-142757209D01*
X23856419Y-142757209D02*
X23856419Y-142519114D01*
X23856419Y-142519114D02*
X23904038Y-142423876D01*
X23904038Y-142423876D02*
X23951657Y-142376257D01*
X23951657Y-142376257D02*
X24046895Y-142328638D01*
X24046895Y-142328638D02*
X24142133Y-142328638D01*
X24142133Y-142328638D02*
X24284990Y-142376257D01*
X24284990Y-142376257D02*
X24856419Y-142947685D01*
X24856419Y-142947685D02*
X24856419Y-142328638D01*
X24951657Y-142138162D02*
X24951657Y-141376257D01*
X23856419Y-141281018D02*
X23856419Y-140709590D01*
X24856419Y-140995304D02*
X23856419Y-140995304D01*
X24856419Y-140376256D02*
X24189752Y-140376256D01*
X23856419Y-140376256D02*
X23904038Y-140423875D01*
X23904038Y-140423875D02*
X23951657Y-140376256D01*
X23951657Y-140376256D02*
X23904038Y-140328637D01*
X23904038Y-140328637D02*
X23856419Y-140376256D01*
X23856419Y-140376256D02*
X23951657Y-140376256D01*
X24856419Y-139900066D02*
X24189752Y-139900066D01*
X24284990Y-139900066D02*
X24237371Y-139852447D01*
X24237371Y-139852447D02*
X24189752Y-139757209D01*
X24189752Y-139757209D02*
X24189752Y-139614352D01*
X24189752Y-139614352D02*
X24237371Y-139519114D01*
X24237371Y-139519114D02*
X24332609Y-139471495D01*
X24332609Y-139471495D02*
X24856419Y-139471495D01*
X24332609Y-139471495D02*
X24237371Y-139423876D01*
X24237371Y-139423876D02*
X24189752Y-139328638D01*
X24189752Y-139328638D02*
X24189752Y-139185781D01*
X24189752Y-139185781D02*
X24237371Y-139090542D01*
X24237371Y-139090542D02*
X24332609Y-139042923D01*
X24332609Y-139042923D02*
X24856419Y-139042923D01*
X24808800Y-138185781D02*
X24856419Y-138281019D01*
X24856419Y-138281019D02*
X24856419Y-138471495D01*
X24856419Y-138471495D02*
X24808800Y-138566733D01*
X24808800Y-138566733D02*
X24713561Y-138614352D01*
X24713561Y-138614352D02*
X24332609Y-138614352D01*
X24332609Y-138614352D02*
X24237371Y-138566733D01*
X24237371Y-138566733D02*
X24189752Y-138471495D01*
X24189752Y-138471495D02*
X24189752Y-138281019D01*
X24189752Y-138281019D02*
X24237371Y-138185781D01*
X24237371Y-138185781D02*
X24332609Y-138138162D01*
X24332609Y-138138162D02*
X24427847Y-138138162D01*
X24427847Y-138138162D02*
X24523085Y-138614352D01*
X24856419Y-137709590D02*
X24189752Y-137709590D01*
X24380228Y-137709590D02*
X24284990Y-137661971D01*
X24284990Y-137661971D02*
X24237371Y-137614352D01*
X24237371Y-137614352D02*
X24189752Y-137519114D01*
X24189752Y-137519114D02*
X24189752Y-137423876D01*
X24856419Y-136566733D02*
X24856419Y-137138161D01*
X24856419Y-136852447D02*
X23856419Y-136852447D01*
X23856419Y-136852447D02*
X23999276Y-136947685D01*
X23999276Y-136947685D02*
X24094514Y-137042923D01*
X24094514Y-137042923D02*
X24142133Y-137138161D01*
X194030695Y-161183419D02*
X194030695Y-161992942D01*
X194030695Y-161992942D02*
X194078314Y-162088180D01*
X194078314Y-162088180D02*
X194125933Y-162135800D01*
X194125933Y-162135800D02*
X194221171Y-162183419D01*
X194221171Y-162183419D02*
X194411647Y-162183419D01*
X194411647Y-162183419D02*
X194506885Y-162135800D01*
X194506885Y-162135800D02*
X194554504Y-162088180D01*
X194554504Y-162088180D02*
X194602123Y-161992942D01*
X194602123Y-161992942D02*
X194602123Y-161183419D01*
X195125933Y-162183419D02*
X195316409Y-162183419D01*
X195316409Y-162183419D02*
X195411647Y-162135800D01*
X195411647Y-162135800D02*
X195459266Y-162088180D01*
X195459266Y-162088180D02*
X195554504Y-161945323D01*
X195554504Y-161945323D02*
X195602123Y-161754847D01*
X195602123Y-161754847D02*
X195602123Y-161373895D01*
X195602123Y-161373895D02*
X195554504Y-161278657D01*
X195554504Y-161278657D02*
X195506885Y-161231038D01*
X195506885Y-161231038D02*
X195411647Y-161183419D01*
X195411647Y-161183419D02*
X195221171Y-161183419D01*
X195221171Y-161183419D02*
X195125933Y-161231038D01*
X195125933Y-161231038D02*
X195078314Y-161278657D01*
X195078314Y-161278657D02*
X195030695Y-161373895D01*
X195030695Y-161373895D02*
X195030695Y-161611990D01*
X195030695Y-161611990D02*
X195078314Y-161707228D01*
X195078314Y-161707228D02*
X195125933Y-161754847D01*
X195125933Y-161754847D02*
X195221171Y-161802466D01*
X195221171Y-161802466D02*
X195411647Y-161802466D01*
X195411647Y-161802466D02*
X195506885Y-161754847D01*
X195506885Y-161754847D02*
X195554504Y-161707228D01*
X195554504Y-161707228D02*
X195602123Y-161611990D01*
X28330333Y-184148180D02*
X28282714Y-184195800D01*
X28282714Y-184195800D02*
X28139857Y-184243419D01*
X28139857Y-184243419D02*
X28044619Y-184243419D01*
X28044619Y-184243419D02*
X27901762Y-184195800D01*
X27901762Y-184195800D02*
X27806524Y-184100561D01*
X27806524Y-184100561D02*
X27758905Y-184005323D01*
X27758905Y-184005323D02*
X27711286Y-183814847D01*
X27711286Y-183814847D02*
X27711286Y-183671990D01*
X27711286Y-183671990D02*
X27758905Y-183481514D01*
X27758905Y-183481514D02*
X27806524Y-183386276D01*
X27806524Y-183386276D02*
X27901762Y-183291038D01*
X27901762Y-183291038D02*
X28044619Y-183243419D01*
X28044619Y-183243419D02*
X28139857Y-183243419D01*
X28139857Y-183243419D02*
X28282714Y-183291038D01*
X28282714Y-183291038D02*
X28330333Y-183338657D01*
X29282714Y-184243419D02*
X28711286Y-184243419D01*
X28997000Y-184243419D02*
X28997000Y-183243419D01*
X28997000Y-183243419D02*
X28901762Y-183386276D01*
X28901762Y-183386276D02*
X28806524Y-183481514D01*
X28806524Y-183481514D02*
X28711286Y-183529133D01*
X193421095Y-83535619D02*
X193421095Y-84345142D01*
X193421095Y-84345142D02*
X193468714Y-84440380D01*
X193468714Y-84440380D02*
X193516333Y-84488000D01*
X193516333Y-84488000D02*
X193611571Y-84535619D01*
X193611571Y-84535619D02*
X193802047Y-84535619D01*
X193802047Y-84535619D02*
X193897285Y-84488000D01*
X193897285Y-84488000D02*
X193944904Y-84440380D01*
X193944904Y-84440380D02*
X193992523Y-84345142D01*
X193992523Y-84345142D02*
X193992523Y-83535619D01*
X194897285Y-83868952D02*
X194897285Y-84535619D01*
X194659190Y-83488000D02*
X194421095Y-84202285D01*
X194421095Y-84202285D02*
X195040142Y-84202285D01*
X158128619Y-113379094D02*
X158938142Y-113379094D01*
X158938142Y-113379094D02*
X159033380Y-113331475D01*
X159033380Y-113331475D02*
X159081000Y-113283856D01*
X159081000Y-113283856D02*
X159128619Y-113188618D01*
X159128619Y-113188618D02*
X159128619Y-112998142D01*
X159128619Y-112998142D02*
X159081000Y-112902904D01*
X159081000Y-112902904D02*
X159033380Y-112855285D01*
X159033380Y-112855285D02*
X158938142Y-112807666D01*
X158938142Y-112807666D02*
X158128619Y-112807666D01*
X158223857Y-112379094D02*
X158176238Y-112331475D01*
X158176238Y-112331475D02*
X158128619Y-112236237D01*
X158128619Y-112236237D02*
X158128619Y-111998142D01*
X158128619Y-111998142D02*
X158176238Y-111902904D01*
X158176238Y-111902904D02*
X158223857Y-111855285D01*
X158223857Y-111855285D02*
X158319095Y-111807666D01*
X158319095Y-111807666D02*
X158414333Y-111807666D01*
X158414333Y-111807666D02*
X158557190Y-111855285D01*
X158557190Y-111855285D02*
X159128619Y-112426713D01*
X159128619Y-112426713D02*
X159128619Y-111807666D01*
X158461952Y-110950523D02*
X159128619Y-110950523D01*
X158081000Y-111188618D02*
X158795285Y-111426713D01*
X158795285Y-111426713D02*
X158795285Y-110807666D01*
X121513743Y-120479800D02*
X121656600Y-120527419D01*
X121656600Y-120527419D02*
X121894695Y-120527419D01*
X121894695Y-120527419D02*
X121989933Y-120479800D01*
X121989933Y-120479800D02*
X122037552Y-120432180D01*
X122037552Y-120432180D02*
X122085171Y-120336942D01*
X122085171Y-120336942D02*
X122085171Y-120241704D01*
X122085171Y-120241704D02*
X122037552Y-120146466D01*
X122037552Y-120146466D02*
X121989933Y-120098847D01*
X121989933Y-120098847D02*
X121894695Y-120051228D01*
X121894695Y-120051228D02*
X121704219Y-120003609D01*
X121704219Y-120003609D02*
X121608981Y-119955990D01*
X121608981Y-119955990D02*
X121561362Y-119908371D01*
X121561362Y-119908371D02*
X121513743Y-119813133D01*
X121513743Y-119813133D02*
X121513743Y-119717895D01*
X121513743Y-119717895D02*
X121561362Y-119622657D01*
X121561362Y-119622657D02*
X121608981Y-119575038D01*
X121608981Y-119575038D02*
X121704219Y-119527419D01*
X121704219Y-119527419D02*
X121942314Y-119527419D01*
X121942314Y-119527419D02*
X122085171Y-119575038D01*
X122370886Y-119527419D02*
X122942314Y-119527419D01*
X122656600Y-120527419D02*
X122656600Y-119527419D01*
X123799457Y-120527419D02*
X123228029Y-120527419D01*
X123513743Y-120527419D02*
X123513743Y-119527419D01*
X123513743Y-119527419D02*
X123418505Y-119670276D01*
X123418505Y-119670276D02*
X123323267Y-119765514D01*
X123323267Y-119765514D02*
X123228029Y-119813133D01*
X254079571Y-73491904D02*
X254555761Y-73491904D01*
X253984333Y-73777619D02*
X254317666Y-72777619D01*
X254317666Y-72777619D02*
X254650999Y-73777619D01*
X255317666Y-73253809D02*
X254984333Y-73253809D01*
X254984333Y-73777619D02*
X254984333Y-72777619D01*
X254984333Y-72777619D02*
X255460523Y-72777619D01*
X256174809Y-73253809D02*
X255841476Y-73253809D01*
X255841476Y-73777619D02*
X255841476Y-72777619D01*
X255841476Y-72777619D02*
X256317666Y-72777619D01*
X257222428Y-73777619D02*
X256651000Y-73777619D01*
X256936714Y-73777619D02*
X256936714Y-72777619D01*
X256936714Y-72777619D02*
X256841476Y-72920476D01*
X256841476Y-72920476D02*
X256746238Y-73015714D01*
X256746238Y-73015714D02*
X256651000Y-73063333D01*
X35650419Y-158785019D02*
X35174228Y-159118352D01*
X35650419Y-159356447D02*
X34650419Y-159356447D01*
X34650419Y-159356447D02*
X34650419Y-158975495D01*
X34650419Y-158975495D02*
X34698038Y-158880257D01*
X34698038Y-158880257D02*
X34745657Y-158832638D01*
X34745657Y-158832638D02*
X34840895Y-158785019D01*
X34840895Y-158785019D02*
X34983752Y-158785019D01*
X34983752Y-158785019D02*
X35078990Y-158832638D01*
X35078990Y-158832638D02*
X35126609Y-158880257D01*
X35126609Y-158880257D02*
X35174228Y-158975495D01*
X35174228Y-158975495D02*
X35174228Y-159356447D01*
X34650419Y-157927876D02*
X34650419Y-158118352D01*
X34650419Y-158118352D02*
X34698038Y-158213590D01*
X34698038Y-158213590D02*
X34745657Y-158261209D01*
X34745657Y-158261209D02*
X34888514Y-158356447D01*
X34888514Y-158356447D02*
X35078990Y-158404066D01*
X35078990Y-158404066D02*
X35459942Y-158404066D01*
X35459942Y-158404066D02*
X35555180Y-158356447D01*
X35555180Y-158356447D02*
X35602800Y-158308828D01*
X35602800Y-158308828D02*
X35650419Y-158213590D01*
X35650419Y-158213590D02*
X35650419Y-158023114D01*
X35650419Y-158023114D02*
X35602800Y-157927876D01*
X35602800Y-157927876D02*
X35555180Y-157880257D01*
X35555180Y-157880257D02*
X35459942Y-157832638D01*
X35459942Y-157832638D02*
X35221847Y-157832638D01*
X35221847Y-157832638D02*
X35126609Y-157880257D01*
X35126609Y-157880257D02*
X35078990Y-157927876D01*
X35078990Y-157927876D02*
X35031371Y-158023114D01*
X35031371Y-158023114D02*
X35031371Y-158213590D01*
X35031371Y-158213590D02*
X35078990Y-158308828D01*
X35078990Y-158308828D02*
X35126609Y-158356447D01*
X35126609Y-158356447D02*
X35221847Y-158404066D01*
X35745657Y-157642162D02*
X35745657Y-156880257D01*
X34650419Y-156785018D02*
X34650419Y-156213590D01*
X35650419Y-156499304D02*
X34650419Y-156499304D01*
X35650419Y-155880256D02*
X34983752Y-155880256D01*
X34650419Y-155880256D02*
X34698038Y-155927875D01*
X34698038Y-155927875D02*
X34745657Y-155880256D01*
X34745657Y-155880256D02*
X34698038Y-155832637D01*
X34698038Y-155832637D02*
X34650419Y-155880256D01*
X34650419Y-155880256D02*
X34745657Y-155880256D01*
X35650419Y-155404066D02*
X34983752Y-155404066D01*
X35078990Y-155404066D02*
X35031371Y-155356447D01*
X35031371Y-155356447D02*
X34983752Y-155261209D01*
X34983752Y-155261209D02*
X34983752Y-155118352D01*
X34983752Y-155118352D02*
X35031371Y-155023114D01*
X35031371Y-155023114D02*
X35126609Y-154975495D01*
X35126609Y-154975495D02*
X35650419Y-154975495D01*
X35126609Y-154975495D02*
X35031371Y-154927876D01*
X35031371Y-154927876D02*
X34983752Y-154832638D01*
X34983752Y-154832638D02*
X34983752Y-154689781D01*
X34983752Y-154689781D02*
X35031371Y-154594542D01*
X35031371Y-154594542D02*
X35126609Y-154546923D01*
X35126609Y-154546923D02*
X35650419Y-154546923D01*
X35602800Y-153689781D02*
X35650419Y-153785019D01*
X35650419Y-153785019D02*
X35650419Y-153975495D01*
X35650419Y-153975495D02*
X35602800Y-154070733D01*
X35602800Y-154070733D02*
X35507561Y-154118352D01*
X35507561Y-154118352D02*
X35126609Y-154118352D01*
X35126609Y-154118352D02*
X35031371Y-154070733D01*
X35031371Y-154070733D02*
X34983752Y-153975495D01*
X34983752Y-153975495D02*
X34983752Y-153785019D01*
X34983752Y-153785019D02*
X35031371Y-153689781D01*
X35031371Y-153689781D02*
X35126609Y-153642162D01*
X35126609Y-153642162D02*
X35221847Y-153642162D01*
X35221847Y-153642162D02*
X35317085Y-154118352D01*
X35650419Y-153213590D02*
X34983752Y-153213590D01*
X35174228Y-153213590D02*
X35078990Y-153165971D01*
X35078990Y-153165971D02*
X35031371Y-153118352D01*
X35031371Y-153118352D02*
X34983752Y-153023114D01*
X34983752Y-153023114D02*
X34983752Y-152927876D01*
X35650419Y-152070733D02*
X35650419Y-152642161D01*
X35650419Y-152356447D02*
X34650419Y-152356447D01*
X34650419Y-152356447D02*
X34793276Y-152451685D01*
X34793276Y-152451685D02*
X34888514Y-152546923D01*
X34888514Y-152546923D02*
X34936133Y-152642161D01*
X91981905Y-172244819D02*
X91981905Y-173054342D01*
X91981905Y-173054342D02*
X92029524Y-173149580D01*
X92029524Y-173149580D02*
X92077143Y-173197200D01*
X92077143Y-173197200D02*
X92172381Y-173244819D01*
X92172381Y-173244819D02*
X92362857Y-173244819D01*
X92362857Y-173244819D02*
X92458095Y-173197200D01*
X92458095Y-173197200D02*
X92505714Y-173149580D01*
X92505714Y-173149580D02*
X92553333Y-173054342D01*
X92553333Y-173054342D02*
X92553333Y-172244819D01*
X93553333Y-173244819D02*
X92981905Y-173244819D01*
X93267619Y-173244819D02*
X93267619Y-172244819D01*
X93267619Y-172244819D02*
X93172381Y-172387676D01*
X93172381Y-172387676D02*
X93077143Y-172482914D01*
X93077143Y-172482914D02*
X92981905Y-172530533D01*
X93886667Y-172244819D02*
X94505714Y-172244819D01*
X94505714Y-172244819D02*
X94172381Y-172625771D01*
X94172381Y-172625771D02*
X94315238Y-172625771D01*
X94315238Y-172625771D02*
X94410476Y-172673390D01*
X94410476Y-172673390D02*
X94458095Y-172721009D01*
X94458095Y-172721009D02*
X94505714Y-172816247D01*
X94505714Y-172816247D02*
X94505714Y-173054342D01*
X94505714Y-173054342D02*
X94458095Y-173149580D01*
X94458095Y-173149580D02*
X94410476Y-173197200D01*
X94410476Y-173197200D02*
X94315238Y-173244819D01*
X94315238Y-173244819D02*
X94029524Y-173244819D01*
X94029524Y-173244819D02*
X93934286Y-173197200D01*
X93934286Y-173197200D02*
X93886667Y-173149580D01*
X21411819Y-176650504D02*
X22221342Y-176650504D01*
X22221342Y-176650504D02*
X22316580Y-176602885D01*
X22316580Y-176602885D02*
X22364200Y-176555266D01*
X22364200Y-176555266D02*
X22411819Y-176460028D01*
X22411819Y-176460028D02*
X22411819Y-176269552D01*
X22411819Y-176269552D02*
X22364200Y-176174314D01*
X22364200Y-176174314D02*
X22316580Y-176126695D01*
X22316580Y-176126695D02*
X22221342Y-176079076D01*
X22221342Y-176079076D02*
X21411819Y-176079076D01*
X22411819Y-175079076D02*
X22411819Y-175650504D01*
X22411819Y-175364790D02*
X21411819Y-175364790D01*
X21411819Y-175364790D02*
X21554676Y-175460028D01*
X21554676Y-175460028D02*
X21649914Y-175555266D01*
X21649914Y-175555266D02*
X21697533Y-175650504D01*
X92686419Y-42589294D02*
X93495942Y-42589294D01*
X93495942Y-42589294D02*
X93591180Y-42541675D01*
X93591180Y-42541675D02*
X93638800Y-42494056D01*
X93638800Y-42494056D02*
X93686419Y-42398818D01*
X93686419Y-42398818D02*
X93686419Y-42208342D01*
X93686419Y-42208342D02*
X93638800Y-42113104D01*
X93638800Y-42113104D02*
X93591180Y-42065485D01*
X93591180Y-42065485D02*
X93495942Y-42017866D01*
X93495942Y-42017866D02*
X92686419Y-42017866D01*
X92781657Y-41589294D02*
X92734038Y-41541675D01*
X92734038Y-41541675D02*
X92686419Y-41446437D01*
X92686419Y-41446437D02*
X92686419Y-41208342D01*
X92686419Y-41208342D02*
X92734038Y-41113104D01*
X92734038Y-41113104D02*
X92781657Y-41065485D01*
X92781657Y-41065485D02*
X92876895Y-41017866D01*
X92876895Y-41017866D02*
X92972133Y-41017866D01*
X92972133Y-41017866D02*
X93114990Y-41065485D01*
X93114990Y-41065485D02*
X93686419Y-41636913D01*
X93686419Y-41636913D02*
X93686419Y-41017866D01*
X93686419Y-40065485D02*
X93686419Y-40636913D01*
X93686419Y-40351199D02*
X92686419Y-40351199D01*
X92686419Y-40351199D02*
X92829276Y-40446437D01*
X92829276Y-40446437D02*
X92924514Y-40541675D01*
X92924514Y-40541675D02*
X92972133Y-40636913D01*
X137497019Y-25952294D02*
X138306542Y-25952294D01*
X138306542Y-25952294D02*
X138401780Y-25904675D01*
X138401780Y-25904675D02*
X138449400Y-25857056D01*
X138449400Y-25857056D02*
X138497019Y-25761818D01*
X138497019Y-25761818D02*
X138497019Y-25571342D01*
X138497019Y-25571342D02*
X138449400Y-25476104D01*
X138449400Y-25476104D02*
X138401780Y-25428485D01*
X138401780Y-25428485D02*
X138306542Y-25380866D01*
X138306542Y-25380866D02*
X137497019Y-25380866D01*
X138497019Y-24380866D02*
X138497019Y-24952294D01*
X138497019Y-24666580D02*
X137497019Y-24666580D01*
X137497019Y-24666580D02*
X137639876Y-24761818D01*
X137639876Y-24761818D02*
X137735114Y-24857056D01*
X137735114Y-24857056D02*
X137782733Y-24952294D01*
X137925590Y-23809437D02*
X137877971Y-23904675D01*
X137877971Y-23904675D02*
X137830352Y-23952294D01*
X137830352Y-23952294D02*
X137735114Y-23999913D01*
X137735114Y-23999913D02*
X137687495Y-23999913D01*
X137687495Y-23999913D02*
X137592257Y-23952294D01*
X137592257Y-23952294D02*
X137544638Y-23904675D01*
X137544638Y-23904675D02*
X137497019Y-23809437D01*
X137497019Y-23809437D02*
X137497019Y-23618961D01*
X137497019Y-23618961D02*
X137544638Y-23523723D01*
X137544638Y-23523723D02*
X137592257Y-23476104D01*
X137592257Y-23476104D02*
X137687495Y-23428485D01*
X137687495Y-23428485D02*
X137735114Y-23428485D01*
X137735114Y-23428485D02*
X137830352Y-23476104D01*
X137830352Y-23476104D02*
X137877971Y-23523723D01*
X137877971Y-23523723D02*
X137925590Y-23618961D01*
X137925590Y-23618961D02*
X137925590Y-23809437D01*
X137925590Y-23809437D02*
X137973209Y-23904675D01*
X137973209Y-23904675D02*
X138020828Y-23952294D01*
X138020828Y-23952294D02*
X138116066Y-23999913D01*
X138116066Y-23999913D02*
X138306542Y-23999913D01*
X138306542Y-23999913D02*
X138401780Y-23952294D01*
X138401780Y-23952294D02*
X138449400Y-23904675D01*
X138449400Y-23904675D02*
X138497019Y-23809437D01*
X138497019Y-23809437D02*
X138497019Y-23618961D01*
X138497019Y-23618961D02*
X138449400Y-23523723D01*
X138449400Y-23523723D02*
X138401780Y-23476104D01*
X138401780Y-23476104D02*
X138306542Y-23428485D01*
X138306542Y-23428485D02*
X138116066Y-23428485D01*
X138116066Y-23428485D02*
X138020828Y-23476104D01*
X138020828Y-23476104D02*
X137973209Y-23523723D01*
X137973209Y-23523723D02*
X137925590Y-23618961D01*
X24780219Y-125094619D02*
X24304028Y-125427952D01*
X24780219Y-125666047D02*
X23780219Y-125666047D01*
X23780219Y-125666047D02*
X23780219Y-125285095D01*
X23780219Y-125285095D02*
X23827838Y-125189857D01*
X23827838Y-125189857D02*
X23875457Y-125142238D01*
X23875457Y-125142238D02*
X23970695Y-125094619D01*
X23970695Y-125094619D02*
X24113552Y-125094619D01*
X24113552Y-125094619D02*
X24208790Y-125142238D01*
X24208790Y-125142238D02*
X24256409Y-125189857D01*
X24256409Y-125189857D02*
X24304028Y-125285095D01*
X24304028Y-125285095D02*
X24304028Y-125666047D01*
X23780219Y-124761285D02*
X23780219Y-124142238D01*
X23780219Y-124142238D02*
X24161171Y-124475571D01*
X24161171Y-124475571D02*
X24161171Y-124332714D01*
X24161171Y-124332714D02*
X24208790Y-124237476D01*
X24208790Y-124237476D02*
X24256409Y-124189857D01*
X24256409Y-124189857D02*
X24351647Y-124142238D01*
X24351647Y-124142238D02*
X24589742Y-124142238D01*
X24589742Y-124142238D02*
X24684980Y-124189857D01*
X24684980Y-124189857D02*
X24732600Y-124237476D01*
X24732600Y-124237476D02*
X24780219Y-124332714D01*
X24780219Y-124332714D02*
X24780219Y-124618428D01*
X24780219Y-124618428D02*
X24732600Y-124713666D01*
X24732600Y-124713666D02*
X24684980Y-124761285D01*
X24875457Y-123951762D02*
X24875457Y-123189857D01*
X23780219Y-123094618D02*
X23780219Y-122523190D01*
X24780219Y-122808904D02*
X23780219Y-122808904D01*
X24780219Y-122189856D02*
X24113552Y-122189856D01*
X23780219Y-122189856D02*
X23827838Y-122237475D01*
X23827838Y-122237475D02*
X23875457Y-122189856D01*
X23875457Y-122189856D02*
X23827838Y-122142237D01*
X23827838Y-122142237D02*
X23780219Y-122189856D01*
X23780219Y-122189856D02*
X23875457Y-122189856D01*
X24780219Y-121713666D02*
X24113552Y-121713666D01*
X24208790Y-121713666D02*
X24161171Y-121666047D01*
X24161171Y-121666047D02*
X24113552Y-121570809D01*
X24113552Y-121570809D02*
X24113552Y-121427952D01*
X24113552Y-121427952D02*
X24161171Y-121332714D01*
X24161171Y-121332714D02*
X24256409Y-121285095D01*
X24256409Y-121285095D02*
X24780219Y-121285095D01*
X24256409Y-121285095D02*
X24161171Y-121237476D01*
X24161171Y-121237476D02*
X24113552Y-121142238D01*
X24113552Y-121142238D02*
X24113552Y-120999381D01*
X24113552Y-120999381D02*
X24161171Y-120904142D01*
X24161171Y-120904142D02*
X24256409Y-120856523D01*
X24256409Y-120856523D02*
X24780219Y-120856523D01*
X24732600Y-119999381D02*
X24780219Y-120094619D01*
X24780219Y-120094619D02*
X24780219Y-120285095D01*
X24780219Y-120285095D02*
X24732600Y-120380333D01*
X24732600Y-120380333D02*
X24637361Y-120427952D01*
X24637361Y-120427952D02*
X24256409Y-120427952D01*
X24256409Y-120427952D02*
X24161171Y-120380333D01*
X24161171Y-120380333D02*
X24113552Y-120285095D01*
X24113552Y-120285095D02*
X24113552Y-120094619D01*
X24113552Y-120094619D02*
X24161171Y-119999381D01*
X24161171Y-119999381D02*
X24256409Y-119951762D01*
X24256409Y-119951762D02*
X24351647Y-119951762D01*
X24351647Y-119951762D02*
X24446885Y-120427952D01*
X24780219Y-119523190D02*
X24113552Y-119523190D01*
X24304028Y-119523190D02*
X24208790Y-119475571D01*
X24208790Y-119475571D02*
X24161171Y-119427952D01*
X24161171Y-119427952D02*
X24113552Y-119332714D01*
X24113552Y-119332714D02*
X24113552Y-119237476D01*
X24780219Y-118380333D02*
X24780219Y-118951761D01*
X24780219Y-118666047D02*
X23780219Y-118666047D01*
X23780219Y-118666047D02*
X23923076Y-118761285D01*
X23923076Y-118761285D02*
X24018314Y-118856523D01*
X24018314Y-118856523D02*
X24065933Y-118951761D01*
X35396419Y-143291019D02*
X34920228Y-143624352D01*
X35396419Y-143862447D02*
X34396419Y-143862447D01*
X34396419Y-143862447D02*
X34396419Y-143481495D01*
X34396419Y-143481495D02*
X34444038Y-143386257D01*
X34444038Y-143386257D02*
X34491657Y-143338638D01*
X34491657Y-143338638D02*
X34586895Y-143291019D01*
X34586895Y-143291019D02*
X34729752Y-143291019D01*
X34729752Y-143291019D02*
X34824990Y-143338638D01*
X34824990Y-143338638D02*
X34872609Y-143386257D01*
X34872609Y-143386257D02*
X34920228Y-143481495D01*
X34920228Y-143481495D02*
X34920228Y-143862447D01*
X34396419Y-142386257D02*
X34396419Y-142862447D01*
X34396419Y-142862447D02*
X34872609Y-142910066D01*
X34872609Y-142910066D02*
X34824990Y-142862447D01*
X34824990Y-142862447D02*
X34777371Y-142767209D01*
X34777371Y-142767209D02*
X34777371Y-142529114D01*
X34777371Y-142529114D02*
X34824990Y-142433876D01*
X34824990Y-142433876D02*
X34872609Y-142386257D01*
X34872609Y-142386257D02*
X34967847Y-142338638D01*
X34967847Y-142338638D02*
X35205942Y-142338638D01*
X35205942Y-142338638D02*
X35301180Y-142386257D01*
X35301180Y-142386257D02*
X35348800Y-142433876D01*
X35348800Y-142433876D02*
X35396419Y-142529114D01*
X35396419Y-142529114D02*
X35396419Y-142767209D01*
X35396419Y-142767209D02*
X35348800Y-142862447D01*
X35348800Y-142862447D02*
X35301180Y-142910066D01*
X35491657Y-142148162D02*
X35491657Y-141386257D01*
X34396419Y-141291018D02*
X34396419Y-140719590D01*
X35396419Y-141005304D02*
X34396419Y-141005304D01*
X35396419Y-140386256D02*
X34729752Y-140386256D01*
X34396419Y-140386256D02*
X34444038Y-140433875D01*
X34444038Y-140433875D02*
X34491657Y-140386256D01*
X34491657Y-140386256D02*
X34444038Y-140338637D01*
X34444038Y-140338637D02*
X34396419Y-140386256D01*
X34396419Y-140386256D02*
X34491657Y-140386256D01*
X35396419Y-139910066D02*
X34729752Y-139910066D01*
X34824990Y-139910066D02*
X34777371Y-139862447D01*
X34777371Y-139862447D02*
X34729752Y-139767209D01*
X34729752Y-139767209D02*
X34729752Y-139624352D01*
X34729752Y-139624352D02*
X34777371Y-139529114D01*
X34777371Y-139529114D02*
X34872609Y-139481495D01*
X34872609Y-139481495D02*
X35396419Y-139481495D01*
X34872609Y-139481495D02*
X34777371Y-139433876D01*
X34777371Y-139433876D02*
X34729752Y-139338638D01*
X34729752Y-139338638D02*
X34729752Y-139195781D01*
X34729752Y-139195781D02*
X34777371Y-139100542D01*
X34777371Y-139100542D02*
X34872609Y-139052923D01*
X34872609Y-139052923D02*
X35396419Y-139052923D01*
X35348800Y-138195781D02*
X35396419Y-138291019D01*
X35396419Y-138291019D02*
X35396419Y-138481495D01*
X35396419Y-138481495D02*
X35348800Y-138576733D01*
X35348800Y-138576733D02*
X35253561Y-138624352D01*
X35253561Y-138624352D02*
X34872609Y-138624352D01*
X34872609Y-138624352D02*
X34777371Y-138576733D01*
X34777371Y-138576733D02*
X34729752Y-138481495D01*
X34729752Y-138481495D02*
X34729752Y-138291019D01*
X34729752Y-138291019D02*
X34777371Y-138195781D01*
X34777371Y-138195781D02*
X34872609Y-138148162D01*
X34872609Y-138148162D02*
X34967847Y-138148162D01*
X34967847Y-138148162D02*
X35063085Y-138624352D01*
X35396419Y-137719590D02*
X34729752Y-137719590D01*
X34920228Y-137719590D02*
X34824990Y-137671971D01*
X34824990Y-137671971D02*
X34777371Y-137624352D01*
X34777371Y-137624352D02*
X34729752Y-137529114D01*
X34729752Y-137529114D02*
X34729752Y-137433876D01*
X35396419Y-136576733D02*
X35396419Y-137148161D01*
X35396419Y-136862447D02*
X34396419Y-136862447D01*
X34396419Y-136862447D02*
X34539276Y-136957685D01*
X34539276Y-136957685D02*
X34634514Y-137052923D01*
X34634514Y-137052923D02*
X34682133Y-137148161D01*
X62707200Y-185943332D02*
X62754819Y-185800475D01*
X62754819Y-185800475D02*
X62754819Y-185562380D01*
X62754819Y-185562380D02*
X62707200Y-185467142D01*
X62707200Y-185467142D02*
X62659580Y-185419523D01*
X62659580Y-185419523D02*
X62564342Y-185371904D01*
X62564342Y-185371904D02*
X62469104Y-185371904D01*
X62469104Y-185371904D02*
X62373866Y-185419523D01*
X62373866Y-185419523D02*
X62326247Y-185467142D01*
X62326247Y-185467142D02*
X62278628Y-185562380D01*
X62278628Y-185562380D02*
X62231009Y-185752856D01*
X62231009Y-185752856D02*
X62183390Y-185848094D01*
X62183390Y-185848094D02*
X62135771Y-185895713D01*
X62135771Y-185895713D02*
X62040533Y-185943332D01*
X62040533Y-185943332D02*
X61945295Y-185943332D01*
X61945295Y-185943332D02*
X61850057Y-185895713D01*
X61850057Y-185895713D02*
X61802438Y-185848094D01*
X61802438Y-185848094D02*
X61754819Y-185752856D01*
X61754819Y-185752856D02*
X61754819Y-185514761D01*
X61754819Y-185514761D02*
X61802438Y-185371904D01*
X61754819Y-185038570D02*
X62754819Y-184800475D01*
X62754819Y-184800475D02*
X62040533Y-184609999D01*
X62040533Y-184609999D02*
X62754819Y-184419523D01*
X62754819Y-184419523D02*
X61754819Y-184181428D01*
X61850057Y-183848094D02*
X61802438Y-183800475D01*
X61802438Y-183800475D02*
X61754819Y-183705237D01*
X61754819Y-183705237D02*
X61754819Y-183467142D01*
X61754819Y-183467142D02*
X61802438Y-183371904D01*
X61802438Y-183371904D02*
X61850057Y-183324285D01*
X61850057Y-183324285D02*
X61945295Y-183276666D01*
X61945295Y-183276666D02*
X62040533Y-183276666D01*
X62040533Y-183276666D02*
X62183390Y-183324285D01*
X62183390Y-183324285D02*
X62754819Y-183895713D01*
X62754819Y-183895713D02*
X62754819Y-183276666D01*
X145838942Y-193080619D02*
X145505609Y-192604428D01*
X145267514Y-193080619D02*
X145267514Y-192080619D01*
X145267514Y-192080619D02*
X145648466Y-192080619D01*
X145648466Y-192080619D02*
X145743704Y-192128238D01*
X145743704Y-192128238D02*
X145791323Y-192175857D01*
X145791323Y-192175857D02*
X145838942Y-192271095D01*
X145838942Y-192271095D02*
X145838942Y-192413952D01*
X145838942Y-192413952D02*
X145791323Y-192509190D01*
X145791323Y-192509190D02*
X145743704Y-192556809D01*
X145743704Y-192556809D02*
X145648466Y-192604428D01*
X145648466Y-192604428D02*
X145267514Y-192604428D01*
X146743704Y-192080619D02*
X146267514Y-192080619D01*
X146267514Y-192080619D02*
X146219895Y-192556809D01*
X146219895Y-192556809D02*
X146267514Y-192509190D01*
X146267514Y-192509190D02*
X146362752Y-192461571D01*
X146362752Y-192461571D02*
X146600847Y-192461571D01*
X146600847Y-192461571D02*
X146696085Y-192509190D01*
X146696085Y-192509190D02*
X146743704Y-192556809D01*
X146743704Y-192556809D02*
X146791323Y-192652047D01*
X146791323Y-192652047D02*
X146791323Y-192890142D01*
X146791323Y-192890142D02*
X146743704Y-192985380D01*
X146743704Y-192985380D02*
X146696085Y-193033000D01*
X146696085Y-193033000D02*
X146600847Y-193080619D01*
X146600847Y-193080619D02*
X146362752Y-193080619D01*
X146362752Y-193080619D02*
X146267514Y-193033000D01*
X146267514Y-193033000D02*
X146219895Y-192985380D01*
X147410371Y-192080619D02*
X147505609Y-192080619D01*
X147505609Y-192080619D02*
X147600847Y-192128238D01*
X147600847Y-192128238D02*
X147648466Y-192175857D01*
X147648466Y-192175857D02*
X147696085Y-192271095D01*
X147696085Y-192271095D02*
X147743704Y-192461571D01*
X147743704Y-192461571D02*
X147743704Y-192699666D01*
X147743704Y-192699666D02*
X147696085Y-192890142D01*
X147696085Y-192890142D02*
X147648466Y-192985380D01*
X147648466Y-192985380D02*
X147600847Y-193033000D01*
X147600847Y-193033000D02*
X147505609Y-193080619D01*
X147505609Y-193080619D02*
X147410371Y-193080619D01*
X147410371Y-193080619D02*
X147315133Y-193033000D01*
X147315133Y-193033000D02*
X147267514Y-192985380D01*
X147267514Y-192985380D02*
X147219895Y-192890142D01*
X147219895Y-192890142D02*
X147172276Y-192699666D01*
X147172276Y-192699666D02*
X147172276Y-192461571D01*
X147172276Y-192461571D02*
X147219895Y-192271095D01*
X147219895Y-192271095D02*
X147267514Y-192175857D01*
X147267514Y-192175857D02*
X147315133Y-192128238D01*
X147315133Y-192128238D02*
X147410371Y-192080619D01*
X253850971Y-95158104D02*
X254327161Y-95158104D01*
X253755733Y-95443819D02*
X254089066Y-94443819D01*
X254089066Y-94443819D02*
X254422399Y-95443819D01*
X255089066Y-94920009D02*
X254755733Y-94920009D01*
X254755733Y-95443819D02*
X254755733Y-94443819D01*
X254755733Y-94443819D02*
X255231923Y-94443819D01*
X255946209Y-94920009D02*
X255612876Y-94920009D01*
X255612876Y-95443819D02*
X255612876Y-94443819D01*
X255612876Y-94443819D02*
X256089066Y-94443819D01*
X256422400Y-94539057D02*
X256470019Y-94491438D01*
X256470019Y-94491438D02*
X256565257Y-94443819D01*
X256565257Y-94443819D02*
X256803352Y-94443819D01*
X256803352Y-94443819D02*
X256898590Y-94491438D01*
X256898590Y-94491438D02*
X256946209Y-94539057D01*
X256946209Y-94539057D02*
X256993828Y-94634295D01*
X256993828Y-94634295D02*
X256993828Y-94729533D01*
X256993828Y-94729533D02*
X256946209Y-94872390D01*
X256946209Y-94872390D02*
X256374781Y-95443819D01*
X256374781Y-95443819D02*
X256993828Y-95443819D01*
X193141695Y-49271019D02*
X193141695Y-50080542D01*
X193141695Y-50080542D02*
X193189314Y-50175780D01*
X193189314Y-50175780D02*
X193236933Y-50223400D01*
X193236933Y-50223400D02*
X193332171Y-50271019D01*
X193332171Y-50271019D02*
X193522647Y-50271019D01*
X193522647Y-50271019D02*
X193617885Y-50223400D01*
X193617885Y-50223400D02*
X193665504Y-50175780D01*
X193665504Y-50175780D02*
X193713123Y-50080542D01*
X193713123Y-50080542D02*
X193713123Y-49271019D01*
X194617885Y-49271019D02*
X194427409Y-49271019D01*
X194427409Y-49271019D02*
X194332171Y-49318638D01*
X194332171Y-49318638D02*
X194284552Y-49366257D01*
X194284552Y-49366257D02*
X194189314Y-49509114D01*
X194189314Y-49509114D02*
X194141695Y-49699590D01*
X194141695Y-49699590D02*
X194141695Y-50080542D01*
X194141695Y-50080542D02*
X194189314Y-50175780D01*
X194189314Y-50175780D02*
X194236933Y-50223400D01*
X194236933Y-50223400D02*
X194332171Y-50271019D01*
X194332171Y-50271019D02*
X194522647Y-50271019D01*
X194522647Y-50271019D02*
X194617885Y-50223400D01*
X194617885Y-50223400D02*
X194665504Y-50175780D01*
X194665504Y-50175780D02*
X194713123Y-50080542D01*
X194713123Y-50080542D02*
X194713123Y-49842447D01*
X194713123Y-49842447D02*
X194665504Y-49747209D01*
X194665504Y-49747209D02*
X194617885Y-49699590D01*
X194617885Y-49699590D02*
X194522647Y-49651971D01*
X194522647Y-49651971D02*
X194332171Y-49651971D01*
X194332171Y-49651971D02*
X194236933Y-49699590D01*
X194236933Y-49699590D02*
X194189314Y-49747209D01*
X194189314Y-49747209D02*
X194141695Y-49842447D01*
X169831219Y-42386094D02*
X170640742Y-42386094D01*
X170640742Y-42386094D02*
X170735980Y-42338475D01*
X170735980Y-42338475D02*
X170783600Y-42290856D01*
X170783600Y-42290856D02*
X170831219Y-42195618D01*
X170831219Y-42195618D02*
X170831219Y-42005142D01*
X170831219Y-42005142D02*
X170783600Y-41909904D01*
X170783600Y-41909904D02*
X170735980Y-41862285D01*
X170735980Y-41862285D02*
X170640742Y-41814666D01*
X170640742Y-41814666D02*
X169831219Y-41814666D01*
X170831219Y-40814666D02*
X170831219Y-41386094D01*
X170831219Y-41100380D02*
X169831219Y-41100380D01*
X169831219Y-41100380D02*
X169974076Y-41195618D01*
X169974076Y-41195618D02*
X170069314Y-41290856D01*
X170069314Y-41290856D02*
X170116933Y-41386094D01*
X169926457Y-40433713D02*
X169878838Y-40386094D01*
X169878838Y-40386094D02*
X169831219Y-40290856D01*
X169831219Y-40290856D02*
X169831219Y-40052761D01*
X169831219Y-40052761D02*
X169878838Y-39957523D01*
X169878838Y-39957523D02*
X169926457Y-39909904D01*
X169926457Y-39909904D02*
X170021695Y-39862285D01*
X170021695Y-39862285D02*
X170116933Y-39862285D01*
X170116933Y-39862285D02*
X170259790Y-39909904D01*
X170259790Y-39909904D02*
X170831219Y-40481332D01*
X170831219Y-40481332D02*
X170831219Y-39862285D01*
X61541200Y-199083904D02*
X61588819Y-198941047D01*
X61588819Y-198941047D02*
X61588819Y-198702952D01*
X61588819Y-198702952D02*
X61541200Y-198607714D01*
X61541200Y-198607714D02*
X61493580Y-198560095D01*
X61493580Y-198560095D02*
X61398342Y-198512476D01*
X61398342Y-198512476D02*
X61303104Y-198512476D01*
X61303104Y-198512476D02*
X61207866Y-198560095D01*
X61207866Y-198560095D02*
X61160247Y-198607714D01*
X61160247Y-198607714D02*
X61112628Y-198702952D01*
X61112628Y-198702952D02*
X61065009Y-198893428D01*
X61065009Y-198893428D02*
X61017390Y-198988666D01*
X61017390Y-198988666D02*
X60969771Y-199036285D01*
X60969771Y-199036285D02*
X60874533Y-199083904D01*
X60874533Y-199083904D02*
X60779295Y-199083904D01*
X60779295Y-199083904D02*
X60684057Y-199036285D01*
X60684057Y-199036285D02*
X60636438Y-198988666D01*
X60636438Y-198988666D02*
X60588819Y-198893428D01*
X60588819Y-198893428D02*
X60588819Y-198655333D01*
X60588819Y-198655333D02*
X60636438Y-198512476D01*
X60588819Y-197607714D02*
X60588819Y-198083904D01*
X60588819Y-198083904D02*
X61065009Y-198131523D01*
X61065009Y-198131523D02*
X61017390Y-198083904D01*
X61017390Y-198083904D02*
X60969771Y-197988666D01*
X60969771Y-197988666D02*
X60969771Y-197750571D01*
X60969771Y-197750571D02*
X61017390Y-197655333D01*
X61017390Y-197655333D02*
X61065009Y-197607714D01*
X61065009Y-197607714D02*
X61160247Y-197560095D01*
X61160247Y-197560095D02*
X61398342Y-197560095D01*
X61398342Y-197560095D02*
X61493580Y-197607714D01*
X61493580Y-197607714D02*
X61541200Y-197655333D01*
X61541200Y-197655333D02*
X61588819Y-197750571D01*
X61588819Y-197750571D02*
X61588819Y-197988666D01*
X61588819Y-197988666D02*
X61541200Y-198083904D01*
X61541200Y-198083904D02*
X61493580Y-198131523D01*
X12787333Y-166451619D02*
X12454000Y-165975428D01*
X12215905Y-166451619D02*
X12215905Y-165451619D01*
X12215905Y-165451619D02*
X12596857Y-165451619D01*
X12596857Y-165451619D02*
X12692095Y-165499238D01*
X12692095Y-165499238D02*
X12739714Y-165546857D01*
X12739714Y-165546857D02*
X12787333Y-165642095D01*
X12787333Y-165642095D02*
X12787333Y-165784952D01*
X12787333Y-165784952D02*
X12739714Y-165880190D01*
X12739714Y-165880190D02*
X12692095Y-165927809D01*
X12692095Y-165927809D02*
X12596857Y-165975428D01*
X12596857Y-165975428D02*
X12215905Y-165975428D01*
X13739714Y-166451619D02*
X13168286Y-166451619D01*
X13454000Y-166451619D02*
X13454000Y-165451619D01*
X13454000Y-165451619D02*
X13358762Y-165594476D01*
X13358762Y-165594476D02*
X13263524Y-165689714D01*
X13263524Y-165689714D02*
X13168286Y-165737333D01*
D11*
%TO.C,R46*%
X45028200Y-80362600D02*
X45798200Y-80362600D01*
X53108200Y-80362600D02*
X52338200Y-80362600D01*
X45798200Y-78992600D02*
X52338200Y-78992600D01*
X52338200Y-81732600D01*
X45798200Y-81732600D01*
X45798200Y-78992600D01*
%TO.C,J2*%
X96536200Y-10100000D02*
X97866200Y-10100000D01*
X96536200Y-11430000D02*
X96536200Y-10100000D01*
X99136200Y-10100000D02*
X104276200Y-10100000D01*
X99136200Y-12760000D02*
X99136200Y-10100000D01*
X99136200Y-12760000D02*
X104276200Y-12760000D01*
X104276200Y-12760000D02*
X104276200Y-10100000D01*
%TO.C,R24*%
X221596200Y-122796600D02*
X228136200Y-122796600D01*
X221596200Y-123126600D02*
X221596200Y-122796600D01*
X221596200Y-125206600D02*
X221596200Y-125536600D01*
X221596200Y-125536600D02*
X228136200Y-125536600D01*
X228136200Y-122796600D02*
X228136200Y-123126600D01*
X228136200Y-125536600D02*
X228136200Y-125206600D01*
%TO.C,R40*%
X45028200Y-56362600D02*
X45798200Y-56362600D01*
X53108200Y-56362600D02*
X52338200Y-56362600D01*
X45798200Y-54992600D02*
X52338200Y-54992600D01*
X52338200Y-57732600D01*
X45798200Y-57732600D01*
X45798200Y-54992600D01*
%TO.C,AFF4*%
X245787400Y-141613600D02*
X245787400Y-153213600D01*
X249707400Y-140503600D02*
X261137400Y-140503600D01*
X249707400Y-153323600D02*
X261137400Y-153323600D01*
X250422400Y-141913600D02*
X250422400Y-148913600D01*
X250422400Y-148913600D02*
X255422400Y-149913600D01*
X255422400Y-142913600D02*
X250422400Y-141913600D01*
X255422400Y-149913600D02*
X255422400Y-142913600D01*
X260422400Y-143913600D02*
X255422400Y-142913600D01*
X260422400Y-143913600D02*
X260422400Y-150913600D01*
X260422400Y-150913600D02*
X255422400Y-149913600D01*
X265057400Y-153213600D02*
X265057400Y-140613600D01*
X250869614Y-150913600D02*
G75*
G02*
X249975186Y-150913600I-447214J0D01*
G01*
X249975186Y-150913600D02*
G75*
G02*
X250869614Y-150913600I447214J0D01*
G01*
%TO.C,R25*%
X221128200Y-167161000D02*
X227668200Y-167161000D01*
X221128200Y-167491000D02*
X221128200Y-167161000D01*
X221128200Y-169571000D02*
X221128200Y-169901000D01*
X221128200Y-169901000D02*
X227668200Y-169901000D01*
X227668200Y-167161000D02*
X227668200Y-167491000D01*
X227668200Y-169901000D02*
X227668200Y-169571000D01*
%TO.C,R29*%
X221088200Y-183161000D02*
X227628200Y-183161000D01*
X221088200Y-183491000D02*
X221088200Y-183161000D01*
X221088200Y-185571000D02*
X221088200Y-185901000D01*
X221088200Y-185901000D02*
X227628200Y-185901000D01*
X227628200Y-183161000D02*
X227628200Y-183491000D01*
X227628200Y-185901000D02*
X227628200Y-185571000D01*
D12*
%TO.C,S4*%
X49076900Y-134160000D02*
X55076900Y-134160000D01*
X49076900Y-136085000D02*
X49076900Y-134160000D01*
X49076900Y-140160000D02*
X49076900Y-138235000D01*
X55076900Y-134160000D02*
X55076900Y-136085000D01*
X55076900Y-138235000D02*
X55076900Y-140160000D01*
X55076900Y-140160000D02*
X49076900Y-140160000D01*
D13*
X48376900Y-137160000D02*
G75*
G02*
X48176900Y-137160000I-100000J0D01*
G01*
X48176900Y-137160000D02*
G75*
G02*
X48376900Y-137160000I100000J0D01*
G01*
D11*
%TO.C,MU1*%
X120362200Y-86935000D02*
X120362200Y-107375000D01*
X120362200Y-107375000D02*
X125662200Y-107375000D01*
X122012200Y-86935000D02*
X120362200Y-86935000D01*
X125662200Y-86935000D02*
X124012200Y-86935000D01*
X125662200Y-107375000D02*
X125662200Y-86935000D01*
X117872200Y-86875000D02*
X128152200Y-86875000D01*
X128152200Y-107435000D01*
X117872200Y-107435000D01*
X117872200Y-86875000D01*
X124012200Y-86935000D02*
G75*
G02*
X122012200Y-86935000I-1000000J0D01*
G01*
%TO.C,SW1*%
X48775600Y-99605600D02*
X48775600Y-100915600D01*
X48775600Y-99605600D02*
X50158600Y-99605600D01*
X49015600Y-99845600D02*
X49015600Y-100915600D01*
X49015600Y-99845600D02*
X55835600Y-99845600D01*
X49015600Y-102995600D02*
X49015600Y-103535600D01*
X49015600Y-105455600D02*
X49015600Y-106075600D01*
X49015600Y-107995600D02*
X49015600Y-108615600D01*
X49015600Y-110535600D02*
X49015600Y-111155600D01*
X49015600Y-113075600D02*
X49015600Y-113695600D01*
X49015600Y-115615600D02*
X49015600Y-116235600D01*
X49015600Y-118155600D02*
X49015600Y-118775600D01*
X49015600Y-120695600D02*
X49015600Y-121845600D01*
X49015600Y-121845600D02*
X55835600Y-121845600D01*
X51822267Y-101320600D02*
X51822267Y-102590600D01*
X51822267Y-103860600D02*
X51822267Y-105130600D01*
X51822267Y-106400600D02*
X51822267Y-107670600D01*
X51822267Y-108940600D02*
X51822267Y-110210600D01*
X51822267Y-111480600D02*
X51822267Y-112750600D01*
X51822267Y-114020600D02*
X51822267Y-115290600D01*
X51822267Y-116560600D02*
X51822267Y-117830600D01*
X51822267Y-119100600D02*
X51822267Y-120370600D01*
X55835600Y-99845600D02*
X55835600Y-100995600D01*
X55835600Y-102915600D02*
X55835600Y-103535600D01*
X55835600Y-105455600D02*
X55835600Y-106075600D01*
X55835600Y-107995600D02*
X55835600Y-108615600D01*
X55835600Y-110535600D02*
X55835600Y-111155600D01*
X55835600Y-113075600D02*
X55835600Y-113695600D01*
X55835600Y-115615600D02*
X55835600Y-116235600D01*
X55835600Y-118155600D02*
X55835600Y-118775600D01*
X55835600Y-120695600D02*
X55835600Y-121845600D01*
X50615600Y-101320600D02*
X51822267Y-101320600D01*
X51822267Y-102590600D01*
X50615600Y-102590600D01*
X50615600Y-101320600D01*
G36*
X50615600Y-101320600D02*
G01*
X51822267Y-101320600D01*
X51822267Y-102590600D01*
X50615600Y-102590600D01*
X50615600Y-101320600D01*
G37*
X50615600Y-101320600D02*
X54235600Y-101320600D01*
X54235600Y-102590600D01*
X50615600Y-102590600D01*
X50615600Y-101320600D01*
X50615600Y-103860600D02*
X51822267Y-103860600D01*
X51822267Y-105130600D01*
X50615600Y-105130600D01*
X50615600Y-103860600D01*
G36*
X50615600Y-103860600D02*
G01*
X51822267Y-103860600D01*
X51822267Y-105130600D01*
X50615600Y-105130600D01*
X50615600Y-103860600D01*
G37*
X50615600Y-103860600D02*
X54235600Y-103860600D01*
X54235600Y-105130600D01*
X50615600Y-105130600D01*
X50615600Y-103860600D01*
X50615600Y-106400600D02*
X51822267Y-106400600D01*
X51822267Y-107670600D01*
X50615600Y-107670600D01*
X50615600Y-106400600D01*
G36*
X50615600Y-106400600D02*
G01*
X51822267Y-106400600D01*
X51822267Y-107670600D01*
X50615600Y-107670600D01*
X50615600Y-106400600D01*
G37*
X50615600Y-106400600D02*
X54235600Y-106400600D01*
X54235600Y-107670600D01*
X50615600Y-107670600D01*
X50615600Y-106400600D01*
X50615600Y-108940600D02*
X51822267Y-108940600D01*
X51822267Y-110210600D01*
X50615600Y-110210600D01*
X50615600Y-108940600D01*
G36*
X50615600Y-108940600D02*
G01*
X51822267Y-108940600D01*
X51822267Y-110210600D01*
X50615600Y-110210600D01*
X50615600Y-108940600D01*
G37*
X50615600Y-108940600D02*
X54235600Y-108940600D01*
X54235600Y-110210600D01*
X50615600Y-110210600D01*
X50615600Y-108940600D01*
X50615600Y-111480600D02*
X51822267Y-111480600D01*
X51822267Y-112750600D01*
X50615600Y-112750600D01*
X50615600Y-111480600D01*
G36*
X50615600Y-111480600D02*
G01*
X51822267Y-111480600D01*
X51822267Y-112750600D01*
X50615600Y-112750600D01*
X50615600Y-111480600D01*
G37*
X50615600Y-111480600D02*
X54235600Y-111480600D01*
X54235600Y-112750600D01*
X50615600Y-112750600D01*
X50615600Y-111480600D01*
X50615600Y-114020600D02*
X51822267Y-114020600D01*
X51822267Y-115290600D01*
X50615600Y-115290600D01*
X50615600Y-114020600D01*
G36*
X50615600Y-114020600D02*
G01*
X51822267Y-114020600D01*
X51822267Y-115290600D01*
X50615600Y-115290600D01*
X50615600Y-114020600D01*
G37*
X50615600Y-114020600D02*
X54235600Y-114020600D01*
X54235600Y-115290600D01*
X50615600Y-115290600D01*
X50615600Y-114020600D01*
X50615600Y-116560600D02*
X51822267Y-116560600D01*
X51822267Y-117830600D01*
X50615600Y-117830600D01*
X50615600Y-116560600D01*
G36*
X50615600Y-116560600D02*
G01*
X51822267Y-116560600D01*
X51822267Y-117830600D01*
X50615600Y-117830600D01*
X50615600Y-116560600D01*
G37*
X50615600Y-116560600D02*
X54235600Y-116560600D01*
X54235600Y-117830600D01*
X50615600Y-117830600D01*
X50615600Y-116560600D01*
X50615600Y-119100600D02*
X51822267Y-119100600D01*
X51822267Y-120370600D01*
X50615600Y-120370600D01*
X50615600Y-119100600D01*
G36*
X50615600Y-119100600D02*
G01*
X51822267Y-119100600D01*
X51822267Y-120370600D01*
X50615600Y-120370600D01*
X50615600Y-119100600D01*
G37*
X50615600Y-119100600D02*
X54235600Y-119100600D01*
X54235600Y-120370600D01*
X50615600Y-120370600D01*
X50615600Y-119100600D01*
%TO.C,R_Mode1*%
X60740000Y-168040000D02*
X61070000Y-168040000D01*
X60740000Y-174580000D02*
X60740000Y-168040000D01*
X61070000Y-174580000D02*
X60740000Y-174580000D01*
X63150000Y-174580000D02*
X63480000Y-174580000D01*
X63480000Y-168040000D02*
X63150000Y-168040000D01*
X63480000Y-174580000D02*
X63480000Y-168040000D01*
%TO.C,R14*%
X220554800Y-102880400D02*
X227094800Y-102880400D01*
X220554800Y-103210400D02*
X220554800Y-102880400D01*
X220554800Y-105290400D02*
X220554800Y-105620400D01*
X220554800Y-105620400D02*
X227094800Y-105620400D01*
X227094800Y-102880400D02*
X227094800Y-103210400D01*
X227094800Y-105620400D02*
X227094800Y-105290400D01*
%TO.C,R18*%
X221520000Y-127678600D02*
X228060000Y-127678600D01*
X221520000Y-128008600D02*
X221520000Y-127678600D01*
X221520000Y-130088600D02*
X221520000Y-130418600D01*
X221520000Y-130418600D02*
X228060000Y-130418600D01*
X228060000Y-127678600D02*
X228060000Y-128008600D01*
X228060000Y-130418600D02*
X228060000Y-130088600D01*
%TO.C,R39*%
X31517000Y-183918600D02*
X38057000Y-183918600D01*
X31517000Y-184248600D02*
X31517000Y-183918600D01*
X31517000Y-186328600D02*
X31517000Y-186658600D01*
X31517000Y-186658600D02*
X38057000Y-186658600D01*
X38057000Y-183918600D02*
X38057000Y-184248600D01*
X38057000Y-186658600D02*
X38057000Y-186328600D01*
%TO.C,R49*%
X61030000Y-147550000D02*
X61030000Y-147880000D01*
X61030000Y-150290000D02*
X61030000Y-149960000D01*
X67570000Y-147550000D02*
X61030000Y-147550000D01*
X67570000Y-147880000D02*
X67570000Y-147550000D01*
X67570000Y-149960000D02*
X67570000Y-150290000D01*
X67570000Y-150290000D02*
X61030000Y-150290000D01*
%TO.C,R47*%
X45028200Y-84362600D02*
X45798200Y-84362600D01*
X53108200Y-84362600D02*
X52338200Y-84362600D01*
X45798200Y-82992600D02*
X52338200Y-82992600D01*
X52338200Y-85732600D01*
X45798200Y-85732600D01*
X45798200Y-82992600D01*
%TO.C,R16*%
X220580200Y-82805600D02*
X227120200Y-82805600D01*
X220580200Y-83135600D02*
X220580200Y-82805600D01*
X220580200Y-85215600D02*
X220580200Y-85545600D01*
X220580200Y-85545600D02*
X227120200Y-85545600D01*
X227120200Y-82805600D02*
X227120200Y-83135600D01*
X227120200Y-85545600D02*
X227120200Y-85215600D01*
%TO.C,R33*%
X101867200Y-106729400D02*
X101867200Y-107499400D01*
X101867200Y-114809400D02*
X101867200Y-114039400D01*
X100497200Y-114039400D02*
X103237200Y-114039400D01*
X103237200Y-107499400D01*
X100497200Y-107499400D01*
X100497200Y-114039400D01*
%TO.C,R26*%
X221128200Y-171161000D02*
X227668200Y-171161000D01*
X221128200Y-171491000D02*
X221128200Y-171161000D01*
X221128200Y-173571000D02*
X221128200Y-173901000D01*
X221128200Y-173901000D02*
X227668200Y-173901000D01*
X227668200Y-171161000D02*
X227668200Y-171491000D01*
X227668200Y-173901000D02*
X227668200Y-173571000D01*
%TO.C,U23*%
X77689400Y-91761800D02*
X77689400Y-97061800D01*
X77689400Y-97061800D02*
X95589400Y-97061800D01*
X95589400Y-91761800D02*
X77689400Y-91761800D01*
X95589400Y-93411800D02*
X95589400Y-91761800D01*
X95589400Y-97061800D02*
X95589400Y-95411800D01*
X95649400Y-89271800D02*
X77629400Y-89271800D01*
X77629400Y-99551800D01*
X95649400Y-99551800D01*
X95649400Y-89271800D01*
X95589400Y-95411800D02*
G75*
G02*
X95589400Y-93411800I0J1000000D01*
G01*
%TO.C,R4_Timer1*%
X31325400Y-118777000D02*
X31325400Y-125317000D01*
X31325400Y-125317000D02*
X31655400Y-125317000D01*
X31655400Y-118777000D02*
X31325400Y-118777000D01*
X33735400Y-118777000D02*
X34065400Y-118777000D01*
X34065400Y-118777000D02*
X34065400Y-125317000D01*
X34065400Y-125317000D02*
X33735400Y-125317000D01*
%TO.C,R36*%
X67638800Y-119989600D02*
X68408800Y-119989600D01*
X75718800Y-119989600D02*
X74948800Y-119989600D01*
X68408800Y-118619600D02*
X74948800Y-118619600D01*
X74948800Y-121359600D01*
X68408800Y-121359600D01*
X68408800Y-118619600D01*
D12*
%TO.C,S3*%
X119758200Y-203349600D02*
X125758200Y-203349600D01*
X119758200Y-205274600D02*
X119758200Y-203349600D01*
X119758200Y-209349600D02*
X119758200Y-207424600D01*
X125758200Y-203349600D02*
X125758200Y-205274600D01*
X125758200Y-207424600D02*
X125758200Y-209349600D01*
X125758200Y-209349600D02*
X119758200Y-209349600D01*
D13*
X119058200Y-206349600D02*
G75*
G02*
X118858200Y-206349600I-100000J0D01*
G01*
X118858200Y-206349600D02*
G75*
G02*
X119058200Y-206349600I100000J0D01*
G01*
D11*
%TO.C,R34*%
X105867200Y-106729400D02*
X105867200Y-107499400D01*
X105867200Y-114809400D02*
X105867200Y-114039400D01*
X104497200Y-114039400D02*
X107237200Y-114039400D01*
X107237200Y-107499400D01*
X104497200Y-107499400D01*
X104497200Y-114039400D01*
%TO.C,SW3*%
X25128200Y-54012600D02*
X25128200Y-55322600D01*
X25128200Y-54012600D02*
X26511200Y-54012600D01*
X25368200Y-54252600D02*
X25368200Y-55322600D01*
X25368200Y-54252600D02*
X32188200Y-54252600D01*
X25368200Y-57402600D02*
X25368200Y-57942600D01*
X25368200Y-59862600D02*
X25368200Y-60482600D01*
X25368200Y-62402600D02*
X25368200Y-63022600D01*
X25368200Y-64942600D02*
X25368200Y-65562600D01*
X25368200Y-67482600D02*
X25368200Y-68102600D01*
X25368200Y-70022600D02*
X25368200Y-70642600D01*
X25368200Y-72562600D02*
X25368200Y-73182600D01*
X25368200Y-75102600D02*
X25368200Y-76252600D01*
X25368200Y-76252600D02*
X32188200Y-76252600D01*
X28174867Y-55727600D02*
X28174867Y-56997600D01*
X28174867Y-58267600D02*
X28174867Y-59537600D01*
X28174867Y-60807600D02*
X28174867Y-62077600D01*
X28174867Y-63347600D02*
X28174867Y-64617600D01*
X28174867Y-65887600D02*
X28174867Y-67157600D01*
X28174867Y-68427600D02*
X28174867Y-69697600D01*
X28174867Y-70967600D02*
X28174867Y-72237600D01*
X28174867Y-73507600D02*
X28174867Y-74777600D01*
X32188200Y-54252600D02*
X32188200Y-55402600D01*
X32188200Y-57322600D02*
X32188200Y-57942600D01*
X32188200Y-59862600D02*
X32188200Y-60482600D01*
X32188200Y-62402600D02*
X32188200Y-63022600D01*
X32188200Y-64942600D02*
X32188200Y-65562600D01*
X32188200Y-67482600D02*
X32188200Y-68102600D01*
X32188200Y-70022600D02*
X32188200Y-70642600D01*
X32188200Y-72562600D02*
X32188200Y-73182600D01*
X32188200Y-75102600D02*
X32188200Y-76252600D01*
X26968200Y-55727600D02*
X28174867Y-55727600D01*
X28174867Y-56997600D01*
X26968200Y-56997600D01*
X26968200Y-55727600D01*
G36*
X26968200Y-55727600D02*
G01*
X28174867Y-55727600D01*
X28174867Y-56997600D01*
X26968200Y-56997600D01*
X26968200Y-55727600D01*
G37*
X26968200Y-55727600D02*
X30588200Y-55727600D01*
X30588200Y-56997600D01*
X26968200Y-56997600D01*
X26968200Y-55727600D01*
X26968200Y-58267600D02*
X28174867Y-58267600D01*
X28174867Y-59537600D01*
X26968200Y-59537600D01*
X26968200Y-58267600D01*
G36*
X26968200Y-58267600D02*
G01*
X28174867Y-58267600D01*
X28174867Y-59537600D01*
X26968200Y-59537600D01*
X26968200Y-58267600D01*
G37*
X26968200Y-58267600D02*
X30588200Y-58267600D01*
X30588200Y-59537600D01*
X26968200Y-59537600D01*
X26968200Y-58267600D01*
X26968200Y-60807600D02*
X28174867Y-60807600D01*
X28174867Y-62077600D01*
X26968200Y-62077600D01*
X26968200Y-60807600D01*
G36*
X26968200Y-60807600D02*
G01*
X28174867Y-60807600D01*
X28174867Y-62077600D01*
X26968200Y-62077600D01*
X26968200Y-60807600D01*
G37*
X26968200Y-60807600D02*
X30588200Y-60807600D01*
X30588200Y-62077600D01*
X26968200Y-62077600D01*
X26968200Y-60807600D01*
X26968200Y-63347600D02*
X28174867Y-63347600D01*
X28174867Y-64617600D01*
X26968200Y-64617600D01*
X26968200Y-63347600D01*
G36*
X26968200Y-63347600D02*
G01*
X28174867Y-63347600D01*
X28174867Y-64617600D01*
X26968200Y-64617600D01*
X26968200Y-63347600D01*
G37*
X26968200Y-63347600D02*
X30588200Y-63347600D01*
X30588200Y-64617600D01*
X26968200Y-64617600D01*
X26968200Y-63347600D01*
X26968200Y-65887600D02*
X28174867Y-65887600D01*
X28174867Y-67157600D01*
X26968200Y-67157600D01*
X26968200Y-65887600D01*
G36*
X26968200Y-65887600D02*
G01*
X28174867Y-65887600D01*
X28174867Y-67157600D01*
X26968200Y-67157600D01*
X26968200Y-65887600D01*
G37*
X26968200Y-65887600D02*
X30588200Y-65887600D01*
X30588200Y-67157600D01*
X26968200Y-67157600D01*
X26968200Y-65887600D01*
X26968200Y-68427600D02*
X28174867Y-68427600D01*
X28174867Y-69697600D01*
X26968200Y-69697600D01*
X26968200Y-68427600D01*
G36*
X26968200Y-68427600D02*
G01*
X28174867Y-68427600D01*
X28174867Y-69697600D01*
X26968200Y-69697600D01*
X26968200Y-68427600D01*
G37*
X26968200Y-68427600D02*
X30588200Y-68427600D01*
X30588200Y-69697600D01*
X26968200Y-69697600D01*
X26968200Y-68427600D01*
X26968200Y-70967600D02*
X28174867Y-70967600D01*
X28174867Y-72237600D01*
X26968200Y-72237600D01*
X26968200Y-70967600D01*
G36*
X26968200Y-70967600D02*
G01*
X28174867Y-70967600D01*
X28174867Y-72237600D01*
X26968200Y-72237600D01*
X26968200Y-70967600D01*
G37*
X26968200Y-70967600D02*
X30588200Y-70967600D01*
X30588200Y-72237600D01*
X26968200Y-72237600D01*
X26968200Y-70967600D01*
X26968200Y-73507600D02*
X28174867Y-73507600D01*
X28174867Y-74777600D01*
X26968200Y-74777600D01*
X26968200Y-73507600D01*
G36*
X26968200Y-73507600D02*
G01*
X28174867Y-73507600D01*
X28174867Y-74777600D01*
X26968200Y-74777600D01*
X26968200Y-73507600D01*
G37*
X26968200Y-73507600D02*
X30588200Y-73507600D01*
X30588200Y-74777600D01*
X26968200Y-74777600D01*
X26968200Y-73507600D01*
%TO.C,R32*%
X97867200Y-106729400D02*
X97867200Y-107499400D01*
X97867200Y-114809400D02*
X97867200Y-114039400D01*
X96497200Y-114039400D02*
X99237200Y-114039400D01*
X99237200Y-107499400D01*
X96497200Y-107499400D01*
X96497200Y-114039400D01*
%TO.C,R3*%
X93867200Y-106729400D02*
X93867200Y-107499400D01*
X93867200Y-114809400D02*
X93867200Y-114039400D01*
X92497200Y-114039400D02*
X95237200Y-114039400D01*
X95237200Y-107499400D01*
X92497200Y-107499400D01*
X92497200Y-114039400D01*
%TO.C,R6*%
X220021400Y-63956200D02*
X226561400Y-63956200D01*
X220021400Y-64286200D02*
X220021400Y-63956200D01*
X220021400Y-66366200D02*
X220021400Y-66696200D01*
X220021400Y-66696200D02*
X226561400Y-66696200D01*
X226561400Y-63956200D02*
X226561400Y-64286200D01*
X226561400Y-66696200D02*
X226561400Y-66366200D01*
%TO.C,R37*%
X67638800Y-123989600D02*
X68408800Y-123989600D01*
X75718800Y-123989600D02*
X74948800Y-123989600D01*
X68408800Y-122619600D02*
X74948800Y-122619600D01*
X74948800Y-125359600D01*
X68408800Y-125359600D01*
X68408800Y-122619600D01*
%TO.C,R13*%
X220554800Y-98830400D02*
X227094800Y-98830400D01*
X220554800Y-99160400D02*
X220554800Y-98830400D01*
X220554800Y-101240400D02*
X220554800Y-101570400D01*
X220554800Y-101570400D02*
X227094800Y-101570400D01*
X227094800Y-98830400D02*
X227094800Y-99160400D01*
X227094800Y-101570400D02*
X227094800Y-101240400D01*
%TO.C,J1*%
X11067000Y-178418600D02*
X11067000Y-181018600D01*
X11067000Y-178418600D02*
X13727000Y-178418600D01*
X11067000Y-181018600D02*
X13727000Y-181018600D01*
X12397000Y-175818600D02*
X13727000Y-175818600D01*
X13727000Y-175818600D02*
X13727000Y-177148600D01*
X13727000Y-178418600D02*
X13727000Y-181018600D01*
%TO.C,AFF3*%
X245914400Y-119898800D02*
X245914400Y-131498800D01*
X249834400Y-118788800D02*
X261264400Y-118788800D01*
X249834400Y-131608800D02*
X261264400Y-131608800D01*
X250549400Y-120198800D02*
X250549400Y-127198800D01*
X250549400Y-127198800D02*
X255549400Y-128198800D01*
X255549400Y-121198800D02*
X250549400Y-120198800D01*
X255549400Y-128198800D02*
X255549400Y-121198800D01*
X260549400Y-122198800D02*
X255549400Y-121198800D01*
X260549400Y-122198800D02*
X260549400Y-129198800D01*
X260549400Y-129198800D02*
X255549400Y-128198800D01*
X265184400Y-131498800D02*
X265184400Y-118898800D01*
X250996614Y-129198800D02*
G75*
G02*
X250102186Y-129198800I-447214J0D01*
G01*
X250102186Y-129198800D02*
G75*
G02*
X250996614Y-129198800I447214J0D01*
G01*
%TO.C,U11*%
X136688600Y-150359600D02*
X136688600Y-155659600D01*
X136688600Y-155659600D02*
X154588600Y-155659600D01*
X154588600Y-150359600D02*
X136688600Y-150359600D01*
X154588600Y-152009600D02*
X154588600Y-150359600D01*
X154588600Y-155659600D02*
X154588600Y-154009600D01*
X154648600Y-147869600D02*
X136628600Y-147869600D01*
X136628600Y-158149600D01*
X154648600Y-158149600D01*
X154648600Y-147869600D01*
X154588600Y-154009600D02*
G75*
G02*
X154588600Y-152009600I0J1000000D01*
G01*
%TO.C,MT1*%
X119727200Y-51603600D02*
X119727200Y-72043600D01*
X119727200Y-72043600D02*
X125027200Y-72043600D01*
X121377200Y-51603600D02*
X119727200Y-51603600D01*
X125027200Y-51603600D02*
X123377200Y-51603600D01*
X125027200Y-72043600D02*
X125027200Y-51603600D01*
X117237200Y-51543600D02*
X127517200Y-51543600D01*
X127517200Y-72103600D01*
X117237200Y-72103600D01*
X117237200Y-51543600D01*
X123377200Y-51603600D02*
G75*
G02*
X121377200Y-51603600I-1000000J0D01*
G01*
%TO.C,R7*%
X220021400Y-68006200D02*
X226561400Y-68006200D01*
X220021400Y-68336200D02*
X220021400Y-68006200D01*
X220021400Y-70416200D02*
X220021400Y-70746200D01*
X220021400Y-70746200D02*
X226561400Y-70746200D01*
X226561400Y-68006200D02*
X226561400Y-68336200D01*
X226561400Y-70746200D02*
X226561400Y-70416200D01*
%TO.C,R1_Timer1*%
X25655600Y-152457400D02*
X25985600Y-152457400D01*
X25655600Y-158997400D02*
X25655600Y-152457400D01*
X25985600Y-158997400D02*
X25655600Y-158997400D01*
X28065600Y-158997400D02*
X28395600Y-158997400D01*
X28395600Y-152457400D02*
X28065600Y-152457400D01*
X28395600Y-158997400D02*
X28395600Y-152457400D01*
%TO.C,SU1*%
X122343400Y-161763400D02*
X122343400Y-182203400D01*
X122343400Y-182203400D02*
X123993400Y-182203400D01*
X125993400Y-182203400D02*
X127643400Y-182203400D01*
X127643400Y-161763400D02*
X122343400Y-161763400D01*
X127643400Y-182203400D02*
X127643400Y-161763400D01*
X130133400Y-182263400D02*
X119853400Y-182263400D01*
X119853400Y-161703400D01*
X130133400Y-161703400D01*
X130133400Y-182263400D01*
X123993400Y-182203400D02*
G75*
G02*
X125993400Y-182203400I1000000J0D01*
G01*
%TO.C,R8*%
X220021400Y-72056200D02*
X226561400Y-72056200D01*
X220021400Y-72386200D02*
X220021400Y-72056200D01*
X220021400Y-74466200D02*
X220021400Y-74796200D01*
X220021400Y-74796200D02*
X226561400Y-74796200D01*
X226561400Y-72056200D02*
X226561400Y-72386200D01*
X226561400Y-74796200D02*
X226561400Y-74466200D01*
%TO.C,R23*%
X221596200Y-118746600D02*
X228136200Y-118746600D01*
X221596200Y-119076600D02*
X221596200Y-118746600D01*
X221596200Y-121156600D02*
X221596200Y-121486600D01*
X221596200Y-121486600D02*
X228136200Y-121486600D01*
X228136200Y-118746600D02*
X228136200Y-119076600D01*
X228136200Y-121486600D02*
X228136200Y-121156600D01*
%TO.C,R4*%
X220021400Y-55856200D02*
X226561400Y-55856200D01*
X220021400Y-56186200D02*
X220021400Y-55856200D01*
X220021400Y-58266200D02*
X220021400Y-58596200D01*
X220021400Y-58596200D02*
X226561400Y-58596200D01*
X226561400Y-55856200D02*
X226561400Y-56186200D01*
X226561400Y-58596200D02*
X226561400Y-58266200D01*
%TO.C,R31*%
X221128200Y-163161000D02*
X227668200Y-163161000D01*
X221128200Y-163491000D02*
X221128200Y-163161000D01*
X221128200Y-165571000D02*
X221128200Y-165901000D01*
X221128200Y-165901000D02*
X227668200Y-165901000D01*
X227668200Y-163161000D02*
X227668200Y-163491000D01*
X227668200Y-165901000D02*
X227668200Y-165571000D01*
%TO.C,U22*%
X139005000Y-77512400D02*
X139005000Y-82812400D01*
X139005000Y-82812400D02*
X156905000Y-82812400D01*
X156905000Y-77512400D02*
X139005000Y-77512400D01*
X156905000Y-79162400D02*
X156905000Y-77512400D01*
X156905000Y-82812400D02*
X156905000Y-81162400D01*
X156965000Y-75022400D02*
X138945000Y-75022400D01*
X138945000Y-85302400D01*
X156965000Y-85302400D01*
X156965000Y-75022400D01*
X156905000Y-81162400D02*
G75*
G02*
X156905000Y-79162400I0J1000000D01*
G01*
%TO.C,U20*%
X54080000Y-155760000D02*
X54080000Y-157410000D01*
X54080000Y-159410000D02*
X54080000Y-161060000D01*
X54080000Y-161060000D02*
X71980000Y-161060000D01*
X71980000Y-155760000D02*
X54080000Y-155760000D01*
X71980000Y-161060000D02*
X71980000Y-155760000D01*
X54020000Y-163550000D02*
X72040000Y-163550000D01*
X72040000Y-153270000D01*
X54020000Y-153270000D01*
X54020000Y-163550000D01*
X54080000Y-157410000D02*
G75*
G02*
X54080000Y-159410000I0J-1000000D01*
G01*
%TO.C,R41*%
X45028200Y-60362600D02*
X45798200Y-60362600D01*
X53108200Y-60362600D02*
X52338200Y-60362600D01*
X45798200Y-58992600D02*
X52338200Y-58992600D01*
X52338200Y-61732600D01*
X45798200Y-61732600D01*
X45798200Y-58992600D01*
%TO.C,R12*%
X220554800Y-94780400D02*
X227094800Y-94780400D01*
X220554800Y-95110400D02*
X220554800Y-94780400D01*
X220554800Y-97190400D02*
X220554800Y-97520400D01*
X220554800Y-97520400D02*
X227094800Y-97520400D01*
X227094800Y-94780400D02*
X227094800Y-95110400D01*
X227094800Y-97520400D02*
X227094800Y-97190400D01*
%TO.C,U10*%
X86071400Y-124146800D02*
X86071400Y-129446800D01*
X86071400Y-129446800D02*
X106511400Y-129446800D01*
X106511400Y-124146800D02*
X86071400Y-124146800D01*
X106511400Y-125796800D02*
X106511400Y-124146800D01*
X106511400Y-129446800D02*
X106511400Y-127796800D01*
X106571400Y-121656800D02*
X86011400Y-121656800D01*
X86011400Y-131936800D01*
X106571400Y-131936800D01*
X106571400Y-121656800D01*
X106511400Y-127796800D02*
G75*
G02*
X106511400Y-125796800I0J1000000D01*
G01*
%TO.C,U19*%
X172533800Y-191303600D02*
X172533800Y-209203600D01*
X172533800Y-209203600D02*
X177833800Y-209203600D01*
X174183800Y-191303600D02*
X172533800Y-191303600D01*
X177833800Y-191303600D02*
X176183800Y-191303600D01*
X177833800Y-209203600D02*
X177833800Y-191303600D01*
X170043800Y-191243600D02*
X180323800Y-191243600D01*
X180323800Y-209263600D01*
X170043800Y-209263600D01*
X170043800Y-191243600D01*
X176183800Y-191303600D02*
G75*
G02*
X174183800Y-191303600I-1000000J0D01*
G01*
%TO.C,R20*%
X221672400Y-136374200D02*
X228212400Y-136374200D01*
X221672400Y-136704200D02*
X221672400Y-136374200D01*
X221672400Y-138784200D02*
X221672400Y-139114200D01*
X221672400Y-139114200D02*
X228212400Y-139114200D01*
X228212400Y-136374200D02*
X228212400Y-136704200D01*
X228212400Y-139114200D02*
X228212400Y-138784200D01*
%TO.C,R11*%
X220554800Y-90730400D02*
X227094800Y-90730400D01*
X220554800Y-91060400D02*
X220554800Y-90730400D01*
X220554800Y-93140400D02*
X220554800Y-93470400D01*
X220554800Y-93470400D02*
X227094800Y-93470400D01*
X227094800Y-90730400D02*
X227094800Y-91060400D01*
X227094800Y-93470400D02*
X227094800Y-93140400D01*
%TO.C,C2*%
X37827000Y-171968600D02*
X38164000Y-171968600D01*
X37827000Y-177208600D02*
X37827000Y-171968600D01*
X38164000Y-177208600D02*
X37827000Y-177208600D01*
X40230000Y-171968600D02*
X40567000Y-171968600D01*
X40567000Y-171968600D02*
X40567000Y-177208600D01*
X40567000Y-177208600D02*
X40230000Y-177208600D01*
%TO.C,U7*%
X190669400Y-120717000D02*
X190669400Y-141157000D01*
X190669400Y-141157000D02*
X195969400Y-141157000D01*
X192319400Y-120717000D02*
X190669400Y-120717000D01*
X195969400Y-120717000D02*
X194319400Y-120717000D01*
X195969400Y-141157000D02*
X195969400Y-120717000D01*
X188179400Y-120657000D02*
X198459400Y-120657000D01*
X198459400Y-141217000D01*
X188179400Y-141217000D01*
X188179400Y-120657000D01*
X194319400Y-120717000D02*
G75*
G02*
X192319400Y-120717000I-1000000J0D01*
G01*
%TO.C,R2_Timer1*%
X25401600Y-136963400D02*
X25731600Y-136963400D01*
X25401600Y-143503400D02*
X25401600Y-136963400D01*
X25731600Y-143503400D02*
X25401600Y-143503400D01*
X27811600Y-143503400D02*
X28141600Y-143503400D01*
X28141600Y-136963400D02*
X27811600Y-136963400D01*
X28141600Y-143503400D02*
X28141600Y-136963400D01*
%TO.C,U9*%
X192142600Y-162728600D02*
X192142600Y-183168600D01*
X192142600Y-183168600D02*
X197442600Y-183168600D01*
X193792600Y-162728600D02*
X192142600Y-162728600D01*
X197442600Y-162728600D02*
X195792600Y-162728600D01*
X197442600Y-183168600D02*
X197442600Y-162728600D01*
X189652600Y-162668600D02*
X199932600Y-162668600D01*
X199932600Y-183228600D01*
X189652600Y-183228600D01*
X189652600Y-162668600D01*
X195792600Y-162728600D02*
G75*
G02*
X193792600Y-162728600I-1000000J0D01*
G01*
%TO.C,R5*%
X220021400Y-59906200D02*
X226561400Y-59906200D01*
X220021400Y-60236200D02*
X220021400Y-59906200D01*
X220021400Y-62316200D02*
X220021400Y-62646200D01*
X220021400Y-62646200D02*
X226561400Y-62646200D01*
X226561400Y-59906200D02*
X226561400Y-60236200D01*
X226561400Y-62646200D02*
X226561400Y-62316200D01*
%TO.C,C1*%
X27917000Y-185988600D02*
G75*
G02*
X22677000Y-185988600I-2620000J0D01*
G01*
X22677000Y-185988600D02*
G75*
G02*
X27917000Y-185988600I2620000J0D01*
G01*
%TO.C,R21*%
X221672400Y-140424200D02*
X228212400Y-140424200D01*
X221672400Y-140754200D02*
X221672400Y-140424200D01*
X221672400Y-142834200D02*
X221672400Y-143164200D01*
X221672400Y-143164200D02*
X228212400Y-143164200D01*
X228212400Y-140424200D02*
X228212400Y-140754200D01*
X228212400Y-143164200D02*
X228212400Y-142834200D01*
%TO.C,R17*%
X220580200Y-86855600D02*
X227120200Y-86855600D01*
X220580200Y-87185600D02*
X220580200Y-86855600D01*
X220580200Y-89265600D02*
X220580200Y-89595600D01*
X220580200Y-89595600D02*
X227120200Y-89595600D01*
X227120200Y-86855600D02*
X227120200Y-87185600D01*
X227120200Y-89595600D02*
X227120200Y-89265600D01*
%TO.C,R35*%
X67638800Y-115989600D02*
X68408800Y-115989600D01*
X75718800Y-115989600D02*
X74948800Y-115989600D01*
X68408800Y-114619600D02*
X74948800Y-114619600D01*
X74948800Y-117359600D01*
X68408800Y-117359600D01*
X68408800Y-114619600D01*
%TO.C,U4*%
X191533000Y-85080800D02*
X191533000Y-105520800D01*
X191533000Y-105520800D02*
X196833000Y-105520800D01*
X193183000Y-85080800D02*
X191533000Y-85080800D01*
X196833000Y-85080800D02*
X195183000Y-85080800D01*
X196833000Y-105520800D02*
X196833000Y-85080800D01*
X189043000Y-85020800D02*
X199323000Y-85020800D01*
X199323000Y-105580800D01*
X189043000Y-105580800D01*
X189043000Y-85020800D01*
X195183000Y-85080800D02*
G75*
G02*
X193183000Y-85080800I-1000000J0D01*
G01*
%TO.C,U24*%
X139030400Y-111624600D02*
X139030400Y-116924600D01*
X139030400Y-116924600D02*
X156930400Y-116924600D01*
X156930400Y-111624600D02*
X139030400Y-111624600D01*
X156930400Y-113274600D02*
X156930400Y-111624600D01*
X156930400Y-116924600D02*
X156930400Y-115274600D01*
X156990400Y-109134600D02*
X138970400Y-109134600D01*
X138970400Y-119414600D01*
X156990400Y-119414600D01*
X156990400Y-109134600D01*
X156930400Y-115274600D02*
G75*
G02*
X156930400Y-113274600I0J1000000D01*
G01*
%TO.C,R44*%
X45048200Y-72362600D02*
X45818200Y-72362600D01*
X53128200Y-72362600D02*
X52358200Y-72362600D01*
X45818200Y-70992600D02*
X52358200Y-70992600D01*
X52358200Y-73732600D01*
X45818200Y-73732600D01*
X45818200Y-70992600D01*
%TO.C,ST1*%
X120006600Y-121072600D02*
X120006600Y-141512600D01*
X120006600Y-141512600D02*
X125306600Y-141512600D01*
X121656600Y-121072600D02*
X120006600Y-121072600D01*
X125306600Y-121072600D02*
X123656600Y-121072600D01*
X125306600Y-141512600D02*
X125306600Y-121072600D01*
X117516600Y-121012600D02*
X127796600Y-121012600D01*
X127796600Y-141572600D01*
X117516600Y-141572600D01*
X117516600Y-121012600D01*
X123656600Y-121072600D02*
G75*
G02*
X121656600Y-121072600I-1000000J0D01*
G01*
%TO.C,AFF1*%
X246016000Y-75522800D02*
X246016000Y-87122800D01*
X249936000Y-74412800D02*
X261366000Y-74412800D01*
X249936000Y-87232800D02*
X261366000Y-87232800D01*
X250651000Y-75822800D02*
X250651000Y-82822800D01*
X250651000Y-82822800D02*
X255651000Y-83822800D01*
X255651000Y-76822800D02*
X250651000Y-75822800D01*
X255651000Y-83822800D02*
X255651000Y-76822800D01*
X260651000Y-77822800D02*
X255651000Y-76822800D01*
X260651000Y-77822800D02*
X260651000Y-84822800D01*
X260651000Y-84822800D02*
X255651000Y-83822800D01*
X265286000Y-87122800D02*
X265286000Y-74522800D01*
X251098214Y-84822800D02*
G75*
G02*
X250203786Y-84822800I-447214J0D01*
G01*
X250203786Y-84822800D02*
G75*
G02*
X251098214Y-84822800I447214J0D01*
G01*
%TO.C,R19*%
X221520000Y-131728600D02*
X228060000Y-131728600D01*
X221520000Y-132058600D02*
X221520000Y-131728600D01*
X221520000Y-134138600D02*
X221520000Y-134468600D01*
X221520000Y-134468600D02*
X228060000Y-134468600D01*
X228060000Y-131728600D02*
X228060000Y-132058600D01*
X228060000Y-134468600D02*
X228060000Y-134138600D01*
%TO.C,R6_Timer1*%
X31455600Y-152467400D02*
X31455600Y-159007400D01*
X31455600Y-159007400D02*
X31785600Y-159007400D01*
X31785600Y-152467400D02*
X31455600Y-152467400D01*
X33865600Y-152467400D02*
X34195600Y-152467400D01*
X34195600Y-152467400D02*
X34195600Y-159007400D01*
X34195600Y-159007400D02*
X33865600Y-159007400D01*
%TO.C,R30*%
X221128200Y-159161000D02*
X227668200Y-159161000D01*
X221128200Y-159491000D02*
X221128200Y-159161000D01*
X221128200Y-161571000D02*
X221128200Y-161901000D01*
X221128200Y-161901000D02*
X227668200Y-161901000D01*
X227668200Y-159161000D02*
X227668200Y-159491000D01*
X227668200Y-161901000D02*
X227668200Y-161571000D01*
%TO.C,U13*%
X90570000Y-173790000D02*
X90570000Y-191690000D01*
X90570000Y-191690000D02*
X95870000Y-191690000D01*
X92220000Y-173790000D02*
X90570000Y-173790000D01*
X95870000Y-173790000D02*
X94220000Y-173790000D01*
X95870000Y-191690000D02*
X95870000Y-173790000D01*
X88080000Y-173730000D02*
X98360000Y-173730000D01*
X98360000Y-191750000D01*
X88080000Y-191750000D01*
X88080000Y-173730000D01*
X94220000Y-173790000D02*
G75*
G02*
X92220000Y-173790000I-1000000J0D01*
G01*
%TO.C,U1*%
X22957000Y-173238600D02*
X22957000Y-174888600D01*
X22957000Y-176888600D02*
X22957000Y-178538600D01*
X22957000Y-178538600D02*
X33237000Y-178538600D01*
X33237000Y-173238600D02*
X22957000Y-173238600D01*
X33237000Y-178538600D02*
X33237000Y-173238600D01*
X22897000Y-181028600D02*
X33297000Y-181028600D01*
X33297000Y-170748600D01*
X22897000Y-170748600D01*
X22897000Y-181028600D01*
X22957000Y-174888600D02*
G75*
G02*
X22957000Y-176888600I0J-1000000D01*
G01*
%TO.C,R9*%
X220275400Y-47017000D02*
X226815400Y-47017000D01*
X220275400Y-47347000D02*
X220275400Y-47017000D01*
X220275400Y-49427000D02*
X220275400Y-49757000D01*
X220275400Y-49757000D02*
X226815400Y-49757000D01*
X226815400Y-47017000D02*
X226815400Y-47347000D01*
X226815400Y-49757000D02*
X226815400Y-49427000D01*
%TO.C,U21*%
X74331600Y-38701200D02*
X74331600Y-44001200D01*
X74331600Y-44001200D02*
X92231600Y-44001200D01*
X92231600Y-38701200D02*
X74331600Y-38701200D01*
X92231600Y-40351200D02*
X92231600Y-38701200D01*
X92231600Y-44001200D02*
X92231600Y-42351200D01*
X92291600Y-36211200D02*
X74271600Y-36211200D01*
X74271600Y-46491200D01*
X92291600Y-46491200D01*
X92291600Y-36211200D01*
X92231600Y-42351200D02*
G75*
G02*
X92231600Y-40351200I0J1000000D01*
G01*
%TO.C,U18*%
X119142200Y-22064200D02*
X119142200Y-27364200D01*
X119142200Y-27364200D02*
X137042200Y-27364200D01*
X137042200Y-22064200D02*
X119142200Y-22064200D01*
X137042200Y-23714200D02*
X137042200Y-22064200D01*
X137042200Y-27364200D02*
X137042200Y-25714200D01*
X137102200Y-19574200D02*
X119082200Y-19574200D01*
X119082200Y-29854200D01*
X137102200Y-29854200D01*
X137102200Y-19574200D01*
X137042200Y-25714200D02*
G75*
G02*
X137042200Y-23714200I0J1000000D01*
G01*
%TO.C,R3_Timer1*%
X25325400Y-118777000D02*
X25655400Y-118777000D01*
X25325400Y-125317000D02*
X25325400Y-118777000D01*
X25655400Y-125317000D02*
X25325400Y-125317000D01*
X27735400Y-125317000D02*
X28065400Y-125317000D01*
X28065400Y-118777000D02*
X27735400Y-118777000D01*
X28065400Y-125317000D02*
X28065400Y-118777000D01*
%TO.C,R10*%
X220275400Y-51067000D02*
X226815400Y-51067000D01*
X220275400Y-51397000D02*
X220275400Y-51067000D01*
X220275400Y-53477000D02*
X220275400Y-53807000D01*
X220275400Y-53807000D02*
X226815400Y-53807000D01*
X226815400Y-51067000D02*
X226815400Y-51397000D01*
X226815400Y-53807000D02*
X226815400Y-53477000D01*
%TO.C,R5_Timer1*%
X31201600Y-136973400D02*
X31201600Y-143513400D01*
X31201600Y-143513400D02*
X31531600Y-143513400D01*
X31531600Y-136973400D02*
X31201600Y-136973400D01*
X33611600Y-136973400D02*
X33941600Y-136973400D01*
X33941600Y-136973400D02*
X33941600Y-143513400D01*
X33941600Y-143513400D02*
X33611600Y-143513400D01*
%TO.C,SW2*%
X63060000Y-188260000D02*
X63060000Y-186877000D01*
X63060000Y-188260000D02*
X64370000Y-188260000D01*
X63300000Y-181200000D02*
X64450000Y-181200000D01*
X63300000Y-188020000D02*
X63300000Y-181200000D01*
X63300000Y-188020000D02*
X64370000Y-188020000D01*
X64775000Y-185213333D02*
X66045000Y-185213333D01*
X66370000Y-181200000D02*
X66990000Y-181200000D01*
X66450000Y-188020000D02*
X66990000Y-188020000D01*
X67315000Y-185213333D02*
X68585000Y-185213333D01*
X68910000Y-181200000D02*
X69530000Y-181200000D01*
X68910000Y-188020000D02*
X69530000Y-188020000D01*
X69855000Y-185213333D02*
X71125000Y-185213333D01*
X71450000Y-181200000D02*
X72070000Y-181200000D01*
X71450000Y-188020000D02*
X72070000Y-188020000D01*
X72395000Y-185213333D02*
X73665000Y-185213333D01*
X73990000Y-181200000D02*
X75140000Y-181200000D01*
X73990000Y-188020000D02*
X75140000Y-188020000D01*
X75140000Y-188020000D02*
X75140000Y-181200000D01*
X64775000Y-186420000D02*
X66045000Y-186420000D01*
X66045000Y-182800000D01*
X64775000Y-182800000D01*
X64775000Y-186420000D01*
X64775000Y-186420000D02*
X66045000Y-186420000D01*
X66045000Y-185213333D01*
X64775000Y-185213333D01*
X64775000Y-186420000D01*
G36*
X64775000Y-186420000D02*
G01*
X66045000Y-186420000D01*
X66045000Y-185213333D01*
X64775000Y-185213333D01*
X64775000Y-186420000D01*
G37*
X67315000Y-186420000D02*
X68585000Y-186420000D01*
X68585000Y-182800000D01*
X67315000Y-182800000D01*
X67315000Y-186420000D01*
X67315000Y-186420000D02*
X68585000Y-186420000D01*
X68585000Y-185213333D01*
X67315000Y-185213333D01*
X67315000Y-186420000D01*
G36*
X67315000Y-186420000D02*
G01*
X68585000Y-186420000D01*
X68585000Y-185213333D01*
X67315000Y-185213333D01*
X67315000Y-186420000D01*
G37*
X69855000Y-186420000D02*
X71125000Y-186420000D01*
X71125000Y-182800000D01*
X69855000Y-182800000D01*
X69855000Y-186420000D01*
X69855000Y-186420000D02*
X71125000Y-186420000D01*
X71125000Y-185213333D01*
X69855000Y-185213333D01*
X69855000Y-186420000D01*
G36*
X69855000Y-186420000D02*
G01*
X71125000Y-186420000D01*
X71125000Y-185213333D01*
X69855000Y-185213333D01*
X69855000Y-186420000D01*
G37*
X72395000Y-186420000D02*
X73665000Y-186420000D01*
X73665000Y-182800000D01*
X72395000Y-182800000D01*
X72395000Y-186420000D01*
X72395000Y-186420000D02*
X73665000Y-186420000D01*
X73665000Y-185213333D01*
X72395000Y-185213333D01*
X72395000Y-186420000D01*
G36*
X72395000Y-186420000D02*
G01*
X73665000Y-186420000D01*
X73665000Y-185213333D01*
X72395000Y-185213333D01*
X72395000Y-186420000D01*
G37*
%TO.C,R43*%
X45048200Y-68362600D02*
X45818200Y-68362600D01*
X53128200Y-68362600D02*
X52358200Y-68362600D01*
X45818200Y-66992600D02*
X52358200Y-66992600D01*
X52358200Y-69732600D01*
X45818200Y-69732600D01*
X45818200Y-66992600D01*
%TO.C,R50*%
X143211800Y-193625800D02*
X149751800Y-193625800D01*
X143211800Y-193955800D02*
X143211800Y-193625800D01*
X143211800Y-196035800D02*
X143211800Y-196365800D01*
X143211800Y-196365800D02*
X149751800Y-196365800D01*
X149751800Y-193625800D02*
X149751800Y-193955800D01*
X149751800Y-196365800D02*
X149751800Y-196035800D01*
%TO.C,AFF2*%
X245787400Y-97189000D02*
X245787400Y-108789000D01*
X249707400Y-96079000D02*
X261137400Y-96079000D01*
X249707400Y-108899000D02*
X261137400Y-108899000D01*
X250422400Y-97489000D02*
X250422400Y-104489000D01*
X250422400Y-104489000D02*
X255422400Y-105489000D01*
X255422400Y-98489000D02*
X250422400Y-97489000D01*
X255422400Y-105489000D02*
X255422400Y-98489000D01*
X260422400Y-99489000D02*
X255422400Y-98489000D01*
X260422400Y-99489000D02*
X260422400Y-106489000D01*
X260422400Y-106489000D02*
X255422400Y-105489000D01*
X265057400Y-108789000D02*
X265057400Y-96189000D01*
X250869614Y-106489000D02*
G75*
G02*
X249975186Y-106489000I-447214J0D01*
G01*
X249975186Y-106489000D02*
G75*
G02*
X250869614Y-106489000I447214J0D01*
G01*
%TO.C,R45*%
X45028200Y-76362600D02*
X45798200Y-76362600D01*
X53108200Y-76362600D02*
X52338200Y-76362600D01*
X45798200Y-74992600D02*
X52338200Y-74992600D01*
X52338200Y-77732600D01*
X45798200Y-77732600D01*
X45798200Y-74992600D01*
%TO.C,U6*%
X191253600Y-50816200D02*
X191253600Y-71256200D01*
X191253600Y-71256200D02*
X196553600Y-71256200D01*
X192903600Y-50816200D02*
X191253600Y-50816200D01*
X196553600Y-50816200D02*
X194903600Y-50816200D01*
X196553600Y-71256200D02*
X196553600Y-50816200D01*
X188763600Y-50756200D02*
X199043600Y-50756200D01*
X199043600Y-71316200D01*
X188763600Y-71316200D01*
X188763600Y-50756200D01*
X194903600Y-50816200D02*
G75*
G02*
X192903600Y-50816200I-1000000J0D01*
G01*
%TO.C,R27*%
X221088200Y-175161000D02*
X227628200Y-175161000D01*
X221088200Y-175491000D02*
X221088200Y-175161000D01*
X221088200Y-177571000D02*
X221088200Y-177901000D01*
X221088200Y-177901000D02*
X227628200Y-177901000D01*
X227628200Y-175161000D02*
X227628200Y-175491000D01*
X227628200Y-177901000D02*
X227628200Y-177571000D01*
%TO.C,U12*%
X151476400Y-38498000D02*
X151476400Y-43798000D01*
X151476400Y-43798000D02*
X169376400Y-43798000D01*
X169376400Y-38498000D02*
X151476400Y-38498000D01*
X169376400Y-40148000D02*
X169376400Y-38498000D01*
X169376400Y-43798000D02*
X169376400Y-42148000D01*
X169436400Y-36008000D02*
X151416400Y-36008000D01*
X151416400Y-46288000D01*
X169436400Y-46288000D01*
X169436400Y-36008000D01*
X169376400Y-42148000D02*
G75*
G02*
X169376400Y-40148000I0J1000000D01*
G01*
%TO.C,R42*%
X45048200Y-64362600D02*
X45818200Y-64362600D01*
X53128200Y-64362600D02*
X52358200Y-64362600D01*
X45818200Y-62992600D02*
X52358200Y-62992600D01*
X52358200Y-65732600D01*
X45818200Y-65732600D01*
X45818200Y-62992600D01*
D12*
%TO.C,S5*%
X52499000Y-195247000D02*
X54424000Y-195247000D01*
X52499000Y-201247000D02*
X52499000Y-195247000D01*
X54424000Y-201247000D02*
X52499000Y-201247000D01*
X56574000Y-195247000D02*
X58499000Y-195247000D01*
X58499000Y-195247000D02*
X58499000Y-201247000D01*
X58499000Y-201247000D02*
X56574000Y-201247000D01*
D13*
X55599000Y-194447000D02*
G75*
G02*
X55399000Y-194447000I-100000J0D01*
G01*
X55399000Y-194447000D02*
G75*
G02*
X55599000Y-194447000I100000J0D01*
G01*
D11*
%TO.C,R1*%
X9684000Y-162256800D02*
X9684000Y-162586800D01*
X9684000Y-164996800D02*
X9684000Y-164666800D01*
X16224000Y-162256800D02*
X9684000Y-162256800D01*
X16224000Y-162586800D02*
X16224000Y-162256800D01*
X16224000Y-164666800D02*
X16224000Y-164996800D01*
X16224000Y-164996800D02*
X9684000Y-164996800D01*
%TO.C,R15*%
X220554800Y-106930400D02*
X227094800Y-106930400D01*
X220554800Y-107260400D02*
X220554800Y-106930400D01*
X220554800Y-109340400D02*
X220554800Y-109670400D01*
X220554800Y-109670400D02*
X227094800Y-109670400D01*
X227094800Y-106930400D02*
X227094800Y-107260400D01*
X227094800Y-109670400D02*
X227094800Y-109340400D01*
%TO.C,R38*%
X67638800Y-127989600D02*
X68408800Y-127989600D01*
X75718800Y-127989600D02*
X74948800Y-127989600D01*
X68408800Y-126619600D02*
X74948800Y-126619600D01*
X74948800Y-129359600D01*
X68408800Y-129359600D01*
X68408800Y-126619600D01*
%TO.C,R22*%
X221672400Y-144474200D02*
X228212400Y-144474200D01*
X221672400Y-144804200D02*
X221672400Y-144474200D01*
X221672400Y-146884200D02*
X221672400Y-147214200D01*
X221672400Y-147214200D02*
X228212400Y-147214200D01*
X228212400Y-144474200D02*
X228212400Y-144804200D01*
X228212400Y-147214200D02*
X228212400Y-146884200D01*
%TO.C,R28*%
X221088200Y-179161000D02*
X227628200Y-179161000D01*
X221088200Y-179491000D02*
X221088200Y-179161000D01*
X221088200Y-181571000D02*
X221088200Y-181901000D01*
X221088200Y-181901000D02*
X227628200Y-181901000D01*
X227628200Y-179161000D02*
X227628200Y-179491000D01*
X227628200Y-181901000D02*
X227628200Y-181571000D01*
%TD*%
M02*
