%TF.GenerationSoftware,KiCad,Pcbnew,9.0.7*%
%TF.CreationDate,2026-03-05T14:01:35+02:00*%
%TF.ProjectId,Stopwatch_Timer,53746f70-7761-4746-9368-5f54696d6572,rev?*%
%TF.SameCoordinates,Original*%
%TF.FileFunction,Copper,L1,Top*%
%TF.FilePolarity,Positive*%
%FSLAX46Y46*%
G04 Gerber Fmt 4.6, Leading zero omitted, Abs format (unit mm)*
G04 Created by KiCad (PCBNEW 9.0.7) date 2026-03-05 14:01:35*
%MOMM*%
%LPD*%
G01*
G04 APERTURE LIST*
G04 Aperture macros list*
%AMRoundRect*
0 Rectangle with rounded corners*
0 $1 Rounding radius*
0 $2 $3 $4 $5 $6 $7 $8 $9 X,Y pos of 4 corners*
0 Add a 4 corners polygon primitive as box body*
4,1,4,$2,$3,$4,$5,$6,$7,$8,$9,$2,$3,0*
0 Add four circle primitives for the rounded corners*
1,1,$1+$1,$2,$3*
1,1,$1+$1,$4,$5*
1,1,$1+$1,$6,$7*
1,1,$1+$1,$8,$9*
0 Add four rect primitives between the rounded corners*
20,1,$1+$1,$2,$3,$4,$5,0*
20,1,$1+$1,$4,$5,$6,$7,0*
20,1,$1+$1,$6,$7,$8,$9,0*
20,1,$1+$1,$8,$9,$2,$3,0*%
G04 Aperture macros list end*
%ADD10C,0.300000*%
%TA.AperFunction,NonConductor*%
%ADD11C,0.300000*%
%TD*%
%TA.AperFunction,ComponentPad*%
%ADD12C,1.600000*%
%TD*%
%TA.AperFunction,ComponentPad*%
%ADD13R,2.524000X1.524000*%
%TD*%
%TA.AperFunction,ComponentPad*%
%ADD14O,2.524000X1.524000*%
%TD*%
%TA.AperFunction,ComponentPad*%
%ADD15C,2.000000*%
%TD*%
%TA.AperFunction,ComponentPad*%
%ADD16RoundRect,0.250000X-0.550000X-0.550000X0.550000X-0.550000X0.550000X0.550000X-0.550000X0.550000X0*%
%TD*%
%TA.AperFunction,ComponentPad*%
%ADD17R,1.700000X1.700000*%
%TD*%
%TA.AperFunction,ComponentPad*%
%ADD18C,1.700000*%
%TD*%
%TA.AperFunction,ComponentPad*%
%ADD19RoundRect,0.250000X-0.550000X0.550000X-0.550000X-0.550000X0.550000X-0.550000X0.550000X0.550000X0*%
%TD*%
%TA.AperFunction,ComponentPad*%
%ADD20RoundRect,0.250000X0.550000X0.550000X-0.550000X0.550000X-0.550000X-0.550000X0.550000X-0.550000X0*%
%TD*%
%TA.AperFunction,ComponentPad*%
%ADD21RoundRect,0.250000X0.550000X-0.550000X0.550000X0.550000X-0.550000X0.550000X-0.550000X-0.550000X0*%
%TD*%
%TA.AperFunction,ViaPad*%
%ADD22C,1.000000*%
%TD*%
%TA.AperFunction,Conductor*%
%ADD23C,0.300000*%
%TD*%
%TA.AperFunction,Conductor*%
%ADD24C,0.500000*%
%TD*%
G04 APERTURE END LIST*
D10*
D11*
X253971430Y-169541164D02*
X253685715Y-169541164D01*
X253685715Y-169541164D02*
X253542858Y-169612593D01*
X253542858Y-169612593D02*
X253471430Y-169684021D01*
X253471430Y-169684021D02*
X253328572Y-169898307D01*
X253328572Y-169898307D02*
X253257144Y-170184021D01*
X253257144Y-170184021D02*
X253257144Y-170755450D01*
X253257144Y-170755450D02*
X253328572Y-170898307D01*
X253328572Y-170898307D02*
X253400001Y-170969736D01*
X253400001Y-170969736D02*
X253542858Y-171041164D01*
X253542858Y-171041164D02*
X253828572Y-171041164D01*
X253828572Y-171041164D02*
X253971430Y-170969736D01*
X253971430Y-170969736D02*
X254042858Y-170898307D01*
X254042858Y-170898307D02*
X254114287Y-170755450D01*
X254114287Y-170755450D02*
X254114287Y-170398307D01*
X254114287Y-170398307D02*
X254042858Y-170255450D01*
X254042858Y-170255450D02*
X253971430Y-170184021D01*
X253971430Y-170184021D02*
X253828572Y-170112593D01*
X253828572Y-170112593D02*
X253542858Y-170112593D01*
X253542858Y-170112593D02*
X253400001Y-170184021D01*
X253400001Y-170184021D02*
X253328572Y-170255450D01*
X253328572Y-170255450D02*
X253257144Y-170398307D01*
X255542858Y-171041164D02*
X254685715Y-171041164D01*
X255114286Y-171041164D02*
X255114286Y-169541164D01*
X255114286Y-169541164D02*
X254971429Y-169755450D01*
X254971429Y-169755450D02*
X254828572Y-169898307D01*
X254828572Y-169898307D02*
X254685715Y-169969736D01*
X256185714Y-170469736D02*
X257328572Y-170469736D01*
X257900000Y-169541164D02*
X258828572Y-169541164D01*
X258828572Y-169541164D02*
X258328572Y-170112593D01*
X258328572Y-170112593D02*
X258542857Y-170112593D01*
X258542857Y-170112593D02*
X258685715Y-170184021D01*
X258685715Y-170184021D02*
X258757143Y-170255450D01*
X258757143Y-170255450D02*
X258828572Y-170398307D01*
X258828572Y-170398307D02*
X258828572Y-170755450D01*
X258828572Y-170755450D02*
X258757143Y-170898307D01*
X258757143Y-170898307D02*
X258685715Y-170969736D01*
X258685715Y-170969736D02*
X258542857Y-171041164D01*
X258542857Y-171041164D02*
X258114286Y-171041164D01*
X258114286Y-171041164D02*
X257971429Y-170969736D01*
X257971429Y-170969736D02*
X257900000Y-170898307D01*
X259328571Y-169541164D02*
X260257143Y-169541164D01*
X260257143Y-169541164D02*
X259757143Y-170112593D01*
X259757143Y-170112593D02*
X259971428Y-170112593D01*
X259971428Y-170112593D02*
X260114286Y-170184021D01*
X260114286Y-170184021D02*
X260185714Y-170255450D01*
X260185714Y-170255450D02*
X260257143Y-170398307D01*
X260257143Y-170398307D02*
X260257143Y-170755450D01*
X260257143Y-170755450D02*
X260185714Y-170898307D01*
X260185714Y-170898307D02*
X260114286Y-170969736D01*
X260114286Y-170969736D02*
X259971428Y-171041164D01*
X259971428Y-171041164D02*
X259542857Y-171041164D01*
X259542857Y-171041164D02*
X259400000Y-170969736D01*
X259400000Y-170969736D02*
X259328571Y-170898307D01*
X260971428Y-171041164D02*
X261257142Y-171041164D01*
X261257142Y-171041164D02*
X261399999Y-170969736D01*
X261399999Y-170969736D02*
X261471428Y-170898307D01*
X261471428Y-170898307D02*
X261614285Y-170684021D01*
X261614285Y-170684021D02*
X261685714Y-170398307D01*
X261685714Y-170398307D02*
X261685714Y-169826878D01*
X261685714Y-169826878D02*
X261614285Y-169684021D01*
X261614285Y-169684021D02*
X261542857Y-169612593D01*
X261542857Y-169612593D02*
X261399999Y-169541164D01*
X261399999Y-169541164D02*
X261114285Y-169541164D01*
X261114285Y-169541164D02*
X260971428Y-169612593D01*
X260971428Y-169612593D02*
X260899999Y-169684021D01*
X260899999Y-169684021D02*
X260828571Y-169826878D01*
X260828571Y-169826878D02*
X260828571Y-170184021D01*
X260828571Y-170184021D02*
X260899999Y-170326878D01*
X260899999Y-170326878D02*
X260971428Y-170398307D01*
X260971428Y-170398307D02*
X261114285Y-170469736D01*
X261114285Y-170469736D02*
X261399999Y-170469736D01*
X261399999Y-170469736D02*
X261542857Y-170398307D01*
X261542857Y-170398307D02*
X261614285Y-170326878D01*
X261614285Y-170326878D02*
X261685714Y-170184021D01*
X262971428Y-169541164D02*
X262685713Y-169541164D01*
X262685713Y-169541164D02*
X262542856Y-169612593D01*
X262542856Y-169612593D02*
X262471428Y-169684021D01*
X262471428Y-169684021D02*
X262328570Y-169898307D01*
X262328570Y-169898307D02*
X262257142Y-170184021D01*
X262257142Y-170184021D02*
X262257142Y-170755450D01*
X262257142Y-170755450D02*
X262328570Y-170898307D01*
X262328570Y-170898307D02*
X262399999Y-170969736D01*
X262399999Y-170969736D02*
X262542856Y-171041164D01*
X262542856Y-171041164D02*
X262828570Y-171041164D01*
X262828570Y-171041164D02*
X262971428Y-170969736D01*
X262971428Y-170969736D02*
X263042856Y-170898307D01*
X263042856Y-170898307D02*
X263114285Y-170755450D01*
X263114285Y-170755450D02*
X263114285Y-170398307D01*
X263114285Y-170398307D02*
X263042856Y-170255450D01*
X263042856Y-170255450D02*
X262971428Y-170184021D01*
X262971428Y-170184021D02*
X262828570Y-170112593D01*
X262828570Y-170112593D02*
X262542856Y-170112593D01*
X262542856Y-170112593D02*
X262399999Y-170184021D01*
X262399999Y-170184021D02*
X262328570Y-170255450D01*
X262328570Y-170255450D02*
X262257142Y-170398307D01*
X264042856Y-169541164D02*
X264185713Y-169541164D01*
X264185713Y-169541164D02*
X264328570Y-169612593D01*
X264328570Y-169612593D02*
X264399999Y-169684021D01*
X264399999Y-169684021D02*
X264471427Y-169826878D01*
X264471427Y-169826878D02*
X264542856Y-170112593D01*
X264542856Y-170112593D02*
X264542856Y-170469736D01*
X264542856Y-170469736D02*
X264471427Y-170755450D01*
X264471427Y-170755450D02*
X264399999Y-170898307D01*
X264399999Y-170898307D02*
X264328570Y-170969736D01*
X264328570Y-170969736D02*
X264185713Y-171041164D01*
X264185713Y-171041164D02*
X264042856Y-171041164D01*
X264042856Y-171041164D02*
X263899999Y-170969736D01*
X263899999Y-170969736D02*
X263828570Y-170898307D01*
X263828570Y-170898307D02*
X263757141Y-170755450D01*
X263757141Y-170755450D02*
X263685713Y-170469736D01*
X263685713Y-170469736D02*
X263685713Y-170112593D01*
X263685713Y-170112593D02*
X263757141Y-169826878D01*
X263757141Y-169826878D02*
X263828570Y-169684021D01*
X263828570Y-169684021D02*
X263899999Y-169612593D01*
X263899999Y-169612593D02*
X264042856Y-169541164D01*
X253971430Y-171956080D02*
X253685715Y-171956080D01*
X253685715Y-171956080D02*
X253542858Y-172027509D01*
X253542858Y-172027509D02*
X253471430Y-172098937D01*
X253471430Y-172098937D02*
X253328572Y-172313223D01*
X253328572Y-172313223D02*
X253257144Y-172598937D01*
X253257144Y-172598937D02*
X253257144Y-173170366D01*
X253257144Y-173170366D02*
X253328572Y-173313223D01*
X253328572Y-173313223D02*
X253400001Y-173384652D01*
X253400001Y-173384652D02*
X253542858Y-173456080D01*
X253542858Y-173456080D02*
X253828572Y-173456080D01*
X253828572Y-173456080D02*
X253971430Y-173384652D01*
X253971430Y-173384652D02*
X254042858Y-173313223D01*
X254042858Y-173313223D02*
X254114287Y-173170366D01*
X254114287Y-173170366D02*
X254114287Y-172813223D01*
X254114287Y-172813223D02*
X254042858Y-172670366D01*
X254042858Y-172670366D02*
X253971430Y-172598937D01*
X253971430Y-172598937D02*
X253828572Y-172527509D01*
X253828572Y-172527509D02*
X253542858Y-172527509D01*
X253542858Y-172527509D02*
X253400001Y-172598937D01*
X253400001Y-172598937D02*
X253328572Y-172670366D01*
X253328572Y-172670366D02*
X253257144Y-172813223D01*
X255542858Y-173456080D02*
X254685715Y-173456080D01*
X255114286Y-173456080D02*
X255114286Y-171956080D01*
X255114286Y-171956080D02*
X254971429Y-172170366D01*
X254971429Y-172170366D02*
X254828572Y-172313223D01*
X254828572Y-172313223D02*
X254685715Y-172384652D01*
X256185714Y-172884652D02*
X257328572Y-172884652D01*
X257900000Y-171956080D02*
X258828572Y-171956080D01*
X258828572Y-171956080D02*
X258328572Y-172527509D01*
X258328572Y-172527509D02*
X258542857Y-172527509D01*
X258542857Y-172527509D02*
X258685715Y-172598937D01*
X258685715Y-172598937D02*
X258757143Y-172670366D01*
X258757143Y-172670366D02*
X258828572Y-172813223D01*
X258828572Y-172813223D02*
X258828572Y-173170366D01*
X258828572Y-173170366D02*
X258757143Y-173313223D01*
X258757143Y-173313223D02*
X258685715Y-173384652D01*
X258685715Y-173384652D02*
X258542857Y-173456080D01*
X258542857Y-173456080D02*
X258114286Y-173456080D01*
X258114286Y-173456080D02*
X257971429Y-173384652D01*
X257971429Y-173384652D02*
X257900000Y-173313223D01*
X259328571Y-171956080D02*
X260328571Y-171956080D01*
X260328571Y-171956080D02*
X259685714Y-173456080D01*
X261185714Y-171956080D02*
X261328571Y-171956080D01*
X261328571Y-171956080D02*
X261471428Y-172027509D01*
X261471428Y-172027509D02*
X261542857Y-172098937D01*
X261542857Y-172098937D02*
X261614285Y-172241794D01*
X261614285Y-172241794D02*
X261685714Y-172527509D01*
X261685714Y-172527509D02*
X261685714Y-172884652D01*
X261685714Y-172884652D02*
X261614285Y-173170366D01*
X261614285Y-173170366D02*
X261542857Y-173313223D01*
X261542857Y-173313223D02*
X261471428Y-173384652D01*
X261471428Y-173384652D02*
X261328571Y-173456080D01*
X261328571Y-173456080D02*
X261185714Y-173456080D01*
X261185714Y-173456080D02*
X261042857Y-173384652D01*
X261042857Y-173384652D02*
X260971428Y-173313223D01*
X260971428Y-173313223D02*
X260899999Y-173170366D01*
X260899999Y-173170366D02*
X260828571Y-172884652D01*
X260828571Y-172884652D02*
X260828571Y-172527509D01*
X260828571Y-172527509D02*
X260899999Y-172241794D01*
X260899999Y-172241794D02*
X260971428Y-172098937D01*
X260971428Y-172098937D02*
X261042857Y-172027509D01*
X261042857Y-172027509D02*
X261185714Y-171956080D01*
X262614285Y-171956080D02*
X262757142Y-171956080D01*
X262757142Y-171956080D02*
X262899999Y-172027509D01*
X262899999Y-172027509D02*
X262971428Y-172098937D01*
X262971428Y-172098937D02*
X263042856Y-172241794D01*
X263042856Y-172241794D02*
X263114285Y-172527509D01*
X263114285Y-172527509D02*
X263114285Y-172884652D01*
X263114285Y-172884652D02*
X263042856Y-173170366D01*
X263042856Y-173170366D02*
X262971428Y-173313223D01*
X262971428Y-173313223D02*
X262899999Y-173384652D01*
X262899999Y-173384652D02*
X262757142Y-173456080D01*
X262757142Y-173456080D02*
X262614285Y-173456080D01*
X262614285Y-173456080D02*
X262471428Y-173384652D01*
X262471428Y-173384652D02*
X262399999Y-173313223D01*
X262399999Y-173313223D02*
X262328570Y-173170366D01*
X262328570Y-173170366D02*
X262257142Y-172884652D01*
X262257142Y-172884652D02*
X262257142Y-172527509D01*
X262257142Y-172527509D02*
X262328570Y-172241794D01*
X262328570Y-172241794D02*
X262399999Y-172098937D01*
X262399999Y-172098937D02*
X262471428Y-172027509D01*
X262471428Y-172027509D02*
X262614285Y-171956080D01*
X264542856Y-173456080D02*
X263685713Y-173456080D01*
X264114284Y-173456080D02*
X264114284Y-171956080D01*
X264114284Y-171956080D02*
X263971427Y-172170366D01*
X263971427Y-172170366D02*
X263828570Y-172313223D01*
X263828570Y-172313223D02*
X263685713Y-172384652D01*
X253971430Y-174370996D02*
X253685715Y-174370996D01*
X253685715Y-174370996D02*
X253542858Y-174442425D01*
X253542858Y-174442425D02*
X253471430Y-174513853D01*
X253471430Y-174513853D02*
X253328572Y-174728139D01*
X253328572Y-174728139D02*
X253257144Y-175013853D01*
X253257144Y-175013853D02*
X253257144Y-175585282D01*
X253257144Y-175585282D02*
X253328572Y-175728139D01*
X253328572Y-175728139D02*
X253400001Y-175799568D01*
X253400001Y-175799568D02*
X253542858Y-175870996D01*
X253542858Y-175870996D02*
X253828572Y-175870996D01*
X253828572Y-175870996D02*
X253971430Y-175799568D01*
X253971430Y-175799568D02*
X254042858Y-175728139D01*
X254042858Y-175728139D02*
X254114287Y-175585282D01*
X254114287Y-175585282D02*
X254114287Y-175228139D01*
X254114287Y-175228139D02*
X254042858Y-175085282D01*
X254042858Y-175085282D02*
X253971430Y-175013853D01*
X253971430Y-175013853D02*
X253828572Y-174942425D01*
X253828572Y-174942425D02*
X253542858Y-174942425D01*
X253542858Y-174942425D02*
X253400001Y-175013853D01*
X253400001Y-175013853D02*
X253328572Y-175085282D01*
X253328572Y-175085282D02*
X253257144Y-175228139D01*
X255542858Y-175870996D02*
X254685715Y-175870996D01*
X255114286Y-175870996D02*
X255114286Y-174370996D01*
X255114286Y-174370996D02*
X254971429Y-174585282D01*
X254971429Y-174585282D02*
X254828572Y-174728139D01*
X254828572Y-174728139D02*
X254685715Y-174799568D01*
X256185714Y-175299568D02*
X257328572Y-175299568D01*
X257971429Y-174513853D02*
X258042857Y-174442425D01*
X258042857Y-174442425D02*
X258185715Y-174370996D01*
X258185715Y-174370996D02*
X258542857Y-174370996D01*
X258542857Y-174370996D02*
X258685715Y-174442425D01*
X258685715Y-174442425D02*
X258757143Y-174513853D01*
X258757143Y-174513853D02*
X258828572Y-174656710D01*
X258828572Y-174656710D02*
X258828572Y-174799568D01*
X258828572Y-174799568D02*
X258757143Y-175013853D01*
X258757143Y-175013853D02*
X257900000Y-175870996D01*
X257900000Y-175870996D02*
X258828572Y-175870996D01*
X259542857Y-175870996D02*
X259828571Y-175870996D01*
X259828571Y-175870996D02*
X259971428Y-175799568D01*
X259971428Y-175799568D02*
X260042857Y-175728139D01*
X260042857Y-175728139D02*
X260185714Y-175513853D01*
X260185714Y-175513853D02*
X260257143Y-175228139D01*
X260257143Y-175228139D02*
X260257143Y-174656710D01*
X260257143Y-174656710D02*
X260185714Y-174513853D01*
X260185714Y-174513853D02*
X260114286Y-174442425D01*
X260114286Y-174442425D02*
X259971428Y-174370996D01*
X259971428Y-174370996D02*
X259685714Y-174370996D01*
X259685714Y-174370996D02*
X259542857Y-174442425D01*
X259542857Y-174442425D02*
X259471428Y-174513853D01*
X259471428Y-174513853D02*
X259400000Y-174656710D01*
X259400000Y-174656710D02*
X259400000Y-175013853D01*
X259400000Y-175013853D02*
X259471428Y-175156710D01*
X259471428Y-175156710D02*
X259542857Y-175228139D01*
X259542857Y-175228139D02*
X259685714Y-175299568D01*
X259685714Y-175299568D02*
X259971428Y-175299568D01*
X259971428Y-175299568D02*
X260114286Y-175228139D01*
X260114286Y-175228139D02*
X260185714Y-175156710D01*
X260185714Y-175156710D02*
X260257143Y-175013853D01*
X261542857Y-174370996D02*
X261257142Y-174370996D01*
X261257142Y-174370996D02*
X261114285Y-174442425D01*
X261114285Y-174442425D02*
X261042857Y-174513853D01*
X261042857Y-174513853D02*
X260899999Y-174728139D01*
X260899999Y-174728139D02*
X260828571Y-175013853D01*
X260828571Y-175013853D02*
X260828571Y-175585282D01*
X260828571Y-175585282D02*
X260899999Y-175728139D01*
X260899999Y-175728139D02*
X260971428Y-175799568D01*
X260971428Y-175799568D02*
X261114285Y-175870996D01*
X261114285Y-175870996D02*
X261399999Y-175870996D01*
X261399999Y-175870996D02*
X261542857Y-175799568D01*
X261542857Y-175799568D02*
X261614285Y-175728139D01*
X261614285Y-175728139D02*
X261685714Y-175585282D01*
X261685714Y-175585282D02*
X261685714Y-175228139D01*
X261685714Y-175228139D02*
X261614285Y-175085282D01*
X261614285Y-175085282D02*
X261542857Y-175013853D01*
X261542857Y-175013853D02*
X261399999Y-174942425D01*
X261399999Y-174942425D02*
X261114285Y-174942425D01*
X261114285Y-174942425D02*
X260971428Y-175013853D01*
X260971428Y-175013853D02*
X260899999Y-175085282D01*
X260899999Y-175085282D02*
X260828571Y-175228139D01*
X262257142Y-174513853D02*
X262328570Y-174442425D01*
X262328570Y-174442425D02*
X262471428Y-174370996D01*
X262471428Y-174370996D02*
X262828570Y-174370996D01*
X262828570Y-174370996D02*
X262971428Y-174442425D01*
X262971428Y-174442425D02*
X263042856Y-174513853D01*
X263042856Y-174513853D02*
X263114285Y-174656710D01*
X263114285Y-174656710D02*
X263114285Y-174799568D01*
X263114285Y-174799568D02*
X263042856Y-175013853D01*
X263042856Y-175013853D02*
X262185713Y-175870996D01*
X262185713Y-175870996D02*
X263114285Y-175870996D01*
X263614284Y-174370996D02*
X264614284Y-174370996D01*
X264614284Y-174370996D02*
X263971427Y-175870996D01*
X253971430Y-176785912D02*
X253685715Y-176785912D01*
X253685715Y-176785912D02*
X253542858Y-176857341D01*
X253542858Y-176857341D02*
X253471430Y-176928769D01*
X253471430Y-176928769D02*
X253328572Y-177143055D01*
X253328572Y-177143055D02*
X253257144Y-177428769D01*
X253257144Y-177428769D02*
X253257144Y-178000198D01*
X253257144Y-178000198D02*
X253328572Y-178143055D01*
X253328572Y-178143055D02*
X253400001Y-178214484D01*
X253400001Y-178214484D02*
X253542858Y-178285912D01*
X253542858Y-178285912D02*
X253828572Y-178285912D01*
X253828572Y-178285912D02*
X253971430Y-178214484D01*
X253971430Y-178214484D02*
X254042858Y-178143055D01*
X254042858Y-178143055D02*
X254114287Y-178000198D01*
X254114287Y-178000198D02*
X254114287Y-177643055D01*
X254114287Y-177643055D02*
X254042858Y-177500198D01*
X254042858Y-177500198D02*
X253971430Y-177428769D01*
X253971430Y-177428769D02*
X253828572Y-177357341D01*
X253828572Y-177357341D02*
X253542858Y-177357341D01*
X253542858Y-177357341D02*
X253400001Y-177428769D01*
X253400001Y-177428769D02*
X253328572Y-177500198D01*
X253328572Y-177500198D02*
X253257144Y-177643055D01*
X255542858Y-178285912D02*
X254685715Y-178285912D01*
X255114286Y-178285912D02*
X255114286Y-176785912D01*
X255114286Y-176785912D02*
X254971429Y-177000198D01*
X254971429Y-177000198D02*
X254828572Y-177143055D01*
X254828572Y-177143055D02*
X254685715Y-177214484D01*
X256185714Y-177714484D02*
X257328572Y-177714484D01*
X258828572Y-178285912D02*
X257971429Y-178285912D01*
X258400000Y-178285912D02*
X258400000Y-176785912D01*
X258400000Y-176785912D02*
X258257143Y-177000198D01*
X258257143Y-177000198D02*
X258114286Y-177143055D01*
X258114286Y-177143055D02*
X257971429Y-177214484D01*
X260114286Y-177285912D02*
X260114286Y-178285912D01*
X259757143Y-176714484D02*
X259400000Y-177785912D01*
X259400000Y-177785912D02*
X260328571Y-177785912D01*
X261542857Y-177285912D02*
X261542857Y-178285912D01*
X261185714Y-176714484D02*
X260828571Y-177785912D01*
X260828571Y-177785912D02*
X261757142Y-177785912D01*
X262971428Y-177285912D02*
X262971428Y-178285912D01*
X262614285Y-176714484D02*
X262257142Y-177785912D01*
X262257142Y-177785912D02*
X263185713Y-177785912D01*
X264399999Y-177285912D02*
X264399999Y-178285912D01*
X264042856Y-176714484D02*
X263685713Y-177785912D01*
X263685713Y-177785912D02*
X264614284Y-177785912D01*
X253971430Y-179200828D02*
X253685715Y-179200828D01*
X253685715Y-179200828D02*
X253542858Y-179272257D01*
X253542858Y-179272257D02*
X253471430Y-179343685D01*
X253471430Y-179343685D02*
X253328572Y-179557971D01*
X253328572Y-179557971D02*
X253257144Y-179843685D01*
X253257144Y-179843685D02*
X253257144Y-180415114D01*
X253257144Y-180415114D02*
X253328572Y-180557971D01*
X253328572Y-180557971D02*
X253400001Y-180629400D01*
X253400001Y-180629400D02*
X253542858Y-180700828D01*
X253542858Y-180700828D02*
X253828572Y-180700828D01*
X253828572Y-180700828D02*
X253971430Y-180629400D01*
X253971430Y-180629400D02*
X254042858Y-180557971D01*
X254042858Y-180557971D02*
X254114287Y-180415114D01*
X254114287Y-180415114D02*
X254114287Y-180057971D01*
X254114287Y-180057971D02*
X254042858Y-179915114D01*
X254042858Y-179915114D02*
X253971430Y-179843685D01*
X253971430Y-179843685D02*
X253828572Y-179772257D01*
X253828572Y-179772257D02*
X253542858Y-179772257D01*
X253542858Y-179772257D02*
X253400001Y-179843685D01*
X253400001Y-179843685D02*
X253328572Y-179915114D01*
X253328572Y-179915114D02*
X253257144Y-180057971D01*
X255542858Y-180700828D02*
X254685715Y-180700828D01*
X255114286Y-180700828D02*
X255114286Y-179200828D01*
X255114286Y-179200828D02*
X254971429Y-179415114D01*
X254971429Y-179415114D02*
X254828572Y-179557971D01*
X254828572Y-179557971D02*
X254685715Y-179629400D01*
X256185714Y-180129400D02*
X257328572Y-180129400D01*
X257900000Y-179200828D02*
X258828572Y-179200828D01*
X258828572Y-179200828D02*
X258328572Y-179772257D01*
X258328572Y-179772257D02*
X258542857Y-179772257D01*
X258542857Y-179772257D02*
X258685715Y-179843685D01*
X258685715Y-179843685D02*
X258757143Y-179915114D01*
X258757143Y-179915114D02*
X258828572Y-180057971D01*
X258828572Y-180057971D02*
X258828572Y-180415114D01*
X258828572Y-180415114D02*
X258757143Y-180557971D01*
X258757143Y-180557971D02*
X258685715Y-180629400D01*
X258685715Y-180629400D02*
X258542857Y-180700828D01*
X258542857Y-180700828D02*
X258114286Y-180700828D01*
X258114286Y-180700828D02*
X257971429Y-180629400D01*
X257971429Y-180629400D02*
X257900000Y-180557971D01*
X260114286Y-179700828D02*
X260114286Y-180700828D01*
X259757143Y-179129400D02*
X259400000Y-180200828D01*
X259400000Y-180200828D02*
X260328571Y-180200828D01*
X261685714Y-180700828D02*
X260828571Y-180700828D01*
X261257142Y-180700828D02*
X261257142Y-179200828D01*
X261257142Y-179200828D02*
X261114285Y-179415114D01*
X261114285Y-179415114D02*
X260971428Y-179557971D01*
X260971428Y-179557971D02*
X260828571Y-179629400D01*
X263042856Y-179200828D02*
X262328570Y-179200828D01*
X262328570Y-179200828D02*
X262257142Y-179915114D01*
X262257142Y-179915114D02*
X262328570Y-179843685D01*
X262328570Y-179843685D02*
X262471428Y-179772257D01*
X262471428Y-179772257D02*
X262828570Y-179772257D01*
X262828570Y-179772257D02*
X262971428Y-179843685D01*
X262971428Y-179843685D02*
X263042856Y-179915114D01*
X263042856Y-179915114D02*
X263114285Y-180057971D01*
X263114285Y-180057971D02*
X263114285Y-180415114D01*
X263114285Y-180415114D02*
X263042856Y-180557971D01*
X263042856Y-180557971D02*
X262971428Y-180629400D01*
X262971428Y-180629400D02*
X262828570Y-180700828D01*
X262828570Y-180700828D02*
X262471428Y-180700828D01*
X262471428Y-180700828D02*
X262328570Y-180629400D01*
X262328570Y-180629400D02*
X262257142Y-180557971D01*
X264399999Y-179200828D02*
X264114284Y-179200828D01*
X264114284Y-179200828D02*
X263971427Y-179272257D01*
X263971427Y-179272257D02*
X263899999Y-179343685D01*
X263899999Y-179343685D02*
X263757141Y-179557971D01*
X263757141Y-179557971D02*
X263685713Y-179843685D01*
X263685713Y-179843685D02*
X263685713Y-180415114D01*
X263685713Y-180415114D02*
X263757141Y-180557971D01*
X263757141Y-180557971D02*
X263828570Y-180629400D01*
X263828570Y-180629400D02*
X263971427Y-180700828D01*
X263971427Y-180700828D02*
X264257141Y-180700828D01*
X264257141Y-180700828D02*
X264399999Y-180629400D01*
X264399999Y-180629400D02*
X264471427Y-180557971D01*
X264471427Y-180557971D02*
X264542856Y-180415114D01*
X264542856Y-180415114D02*
X264542856Y-180057971D01*
X264542856Y-180057971D02*
X264471427Y-179915114D01*
X264471427Y-179915114D02*
X264399999Y-179843685D01*
X264399999Y-179843685D02*
X264257141Y-179772257D01*
X264257141Y-179772257D02*
X263971427Y-179772257D01*
X263971427Y-179772257D02*
X263828570Y-179843685D01*
X263828570Y-179843685D02*
X263757141Y-179915114D01*
X263757141Y-179915114D02*
X263685713Y-180057971D01*
D10*
D11*
X248699999Y-48972131D02*
X249366666Y-48972131D01*
X249652380Y-50019750D02*
X248699999Y-50019750D01*
X248699999Y-50019750D02*
X248699999Y-48019750D01*
X248699999Y-48019750D02*
X249652380Y-48019750D01*
X251461904Y-50019750D02*
X250509523Y-50019750D01*
X250509523Y-50019750D02*
X250509523Y-48019750D01*
X253271428Y-49829273D02*
X253176190Y-49924512D01*
X253176190Y-49924512D02*
X252890476Y-50019750D01*
X252890476Y-50019750D02*
X252700000Y-50019750D01*
X252700000Y-50019750D02*
X252414285Y-49924512D01*
X252414285Y-49924512D02*
X252223809Y-49734035D01*
X252223809Y-49734035D02*
X252128571Y-49543559D01*
X252128571Y-49543559D02*
X252033333Y-49162607D01*
X252033333Y-49162607D02*
X252033333Y-48876892D01*
X252033333Y-48876892D02*
X252128571Y-48495940D01*
X252128571Y-48495940D02*
X252223809Y-48305464D01*
X252223809Y-48305464D02*
X252414285Y-48114988D01*
X252414285Y-48114988D02*
X252700000Y-48019750D01*
X252700000Y-48019750D02*
X252890476Y-48019750D01*
X252890476Y-48019750D02*
X253176190Y-48114988D01*
X253176190Y-48114988D02*
X253271428Y-48210226D01*
X253842857Y-48019750D02*
X254985714Y-48019750D01*
X254414285Y-50019750D02*
X254414285Y-48019750D01*
X244699999Y-53049161D02*
X244604761Y-53144400D01*
X244604761Y-53144400D02*
X244319047Y-53239638D01*
X244319047Y-53239638D02*
X244128571Y-53239638D01*
X244128571Y-53239638D02*
X243842856Y-53144400D01*
X243842856Y-53144400D02*
X243652380Y-52953923D01*
X243652380Y-52953923D02*
X243557142Y-52763447D01*
X243557142Y-52763447D02*
X243461904Y-52382495D01*
X243461904Y-52382495D02*
X243461904Y-52096780D01*
X243461904Y-52096780D02*
X243557142Y-51715828D01*
X243557142Y-51715828D02*
X243652380Y-51525352D01*
X243652380Y-51525352D02*
X243842856Y-51334876D01*
X243842856Y-51334876D02*
X244128571Y-51239638D01*
X244128571Y-51239638D02*
X244319047Y-51239638D01*
X244319047Y-51239638D02*
X244604761Y-51334876D01*
X244604761Y-51334876D02*
X244699999Y-51430114D01*
X245842856Y-53239638D02*
X245652380Y-53144400D01*
X245652380Y-53144400D02*
X245557142Y-52953923D01*
X245557142Y-52953923D02*
X245557142Y-51239638D01*
X247461904Y-53239638D02*
X247461904Y-52192019D01*
X247461904Y-52192019D02*
X247366666Y-52001542D01*
X247366666Y-52001542D02*
X247176190Y-51906304D01*
X247176190Y-51906304D02*
X246795237Y-51906304D01*
X246795237Y-51906304D02*
X246604761Y-52001542D01*
X247461904Y-53144400D02*
X247271428Y-53239638D01*
X247271428Y-53239638D02*
X246795237Y-53239638D01*
X246795237Y-53239638D02*
X246604761Y-53144400D01*
X246604761Y-53144400D02*
X246509523Y-52953923D01*
X246509523Y-52953923D02*
X246509523Y-52763447D01*
X246509523Y-52763447D02*
X246604761Y-52572971D01*
X246604761Y-52572971D02*
X246795237Y-52477733D01*
X246795237Y-52477733D02*
X247271428Y-52477733D01*
X247271428Y-52477733D02*
X247461904Y-52382495D01*
X248319047Y-53144400D02*
X248509523Y-53239638D01*
X248509523Y-53239638D02*
X248890475Y-53239638D01*
X248890475Y-53239638D02*
X249080952Y-53144400D01*
X249080952Y-53144400D02*
X249176190Y-52953923D01*
X249176190Y-52953923D02*
X249176190Y-52858685D01*
X249176190Y-52858685D02*
X249080952Y-52668209D01*
X249080952Y-52668209D02*
X248890475Y-52572971D01*
X248890475Y-52572971D02*
X248604761Y-52572971D01*
X248604761Y-52572971D02*
X248414285Y-52477733D01*
X248414285Y-52477733D02*
X248319047Y-52287257D01*
X248319047Y-52287257D02*
X248319047Y-52192019D01*
X248319047Y-52192019D02*
X248414285Y-52001542D01*
X248414285Y-52001542D02*
X248604761Y-51906304D01*
X248604761Y-51906304D02*
X248890475Y-51906304D01*
X248890475Y-51906304D02*
X249080952Y-52001542D01*
X249938095Y-53144400D02*
X250128571Y-53239638D01*
X250128571Y-53239638D02*
X250509523Y-53239638D01*
X250509523Y-53239638D02*
X250700000Y-53144400D01*
X250700000Y-53144400D02*
X250795238Y-52953923D01*
X250795238Y-52953923D02*
X250795238Y-52858685D01*
X250795238Y-52858685D02*
X250700000Y-52668209D01*
X250700000Y-52668209D02*
X250509523Y-52572971D01*
X250509523Y-52572971D02*
X250223809Y-52572971D01*
X250223809Y-52572971D02*
X250033333Y-52477733D01*
X250033333Y-52477733D02*
X249938095Y-52287257D01*
X249938095Y-52287257D02*
X249938095Y-52192019D01*
X249938095Y-52192019D02*
X250033333Y-52001542D01*
X250033333Y-52001542D02*
X250223809Y-51906304D01*
X250223809Y-51906304D02*
X250509523Y-51906304D01*
X250509523Y-51906304D02*
X250700000Y-52001542D01*
X253080953Y-51430114D02*
X253176191Y-51334876D01*
X253176191Y-51334876D02*
X253366667Y-51239638D01*
X253366667Y-51239638D02*
X253842858Y-51239638D01*
X253842858Y-51239638D02*
X254033334Y-51334876D01*
X254033334Y-51334876D02*
X254128572Y-51430114D01*
X254128572Y-51430114D02*
X254223810Y-51620590D01*
X254223810Y-51620590D02*
X254223810Y-51811066D01*
X254223810Y-51811066D02*
X254128572Y-52096780D01*
X254128572Y-52096780D02*
X252985715Y-53239638D01*
X252985715Y-53239638D02*
X254223810Y-53239638D01*
X255461905Y-51239638D02*
X255652382Y-51239638D01*
X255652382Y-51239638D02*
X255842858Y-51334876D01*
X255842858Y-51334876D02*
X255938096Y-51430114D01*
X255938096Y-51430114D02*
X256033334Y-51620590D01*
X256033334Y-51620590D02*
X256128572Y-52001542D01*
X256128572Y-52001542D02*
X256128572Y-52477733D01*
X256128572Y-52477733D02*
X256033334Y-52858685D01*
X256033334Y-52858685D02*
X255938096Y-53049161D01*
X255938096Y-53049161D02*
X255842858Y-53144400D01*
X255842858Y-53144400D02*
X255652382Y-53239638D01*
X255652382Y-53239638D02*
X255461905Y-53239638D01*
X255461905Y-53239638D02*
X255271429Y-53144400D01*
X255271429Y-53144400D02*
X255176191Y-53049161D01*
X255176191Y-53049161D02*
X255080953Y-52858685D01*
X255080953Y-52858685D02*
X254985715Y-52477733D01*
X254985715Y-52477733D02*
X254985715Y-52001542D01*
X254985715Y-52001542D02*
X255080953Y-51620590D01*
X255080953Y-51620590D02*
X255176191Y-51430114D01*
X255176191Y-51430114D02*
X255271429Y-51334876D01*
X255271429Y-51334876D02*
X255461905Y-51239638D01*
X256890477Y-51430114D02*
X256985715Y-51334876D01*
X256985715Y-51334876D02*
X257176191Y-51239638D01*
X257176191Y-51239638D02*
X257652382Y-51239638D01*
X257652382Y-51239638D02*
X257842858Y-51334876D01*
X257842858Y-51334876D02*
X257938096Y-51430114D01*
X257938096Y-51430114D02*
X258033334Y-51620590D01*
X258033334Y-51620590D02*
X258033334Y-51811066D01*
X258033334Y-51811066D02*
X257938096Y-52096780D01*
X257938096Y-52096780D02*
X256795239Y-53239638D01*
X256795239Y-53239638D02*
X258033334Y-53239638D01*
X259176191Y-52096780D02*
X258985715Y-52001542D01*
X258985715Y-52001542D02*
X258890477Y-51906304D01*
X258890477Y-51906304D02*
X258795239Y-51715828D01*
X258795239Y-51715828D02*
X258795239Y-51620590D01*
X258795239Y-51620590D02*
X258890477Y-51430114D01*
X258890477Y-51430114D02*
X258985715Y-51334876D01*
X258985715Y-51334876D02*
X259176191Y-51239638D01*
X259176191Y-51239638D02*
X259557144Y-51239638D01*
X259557144Y-51239638D02*
X259747620Y-51334876D01*
X259747620Y-51334876D02*
X259842858Y-51430114D01*
X259842858Y-51430114D02*
X259938096Y-51620590D01*
X259938096Y-51620590D02*
X259938096Y-51715828D01*
X259938096Y-51715828D02*
X259842858Y-51906304D01*
X259842858Y-51906304D02*
X259747620Y-52001542D01*
X259747620Y-52001542D02*
X259557144Y-52096780D01*
X259557144Y-52096780D02*
X259176191Y-52096780D01*
X259176191Y-52096780D02*
X258985715Y-52192019D01*
X258985715Y-52192019D02*
X258890477Y-52287257D01*
X258890477Y-52287257D02*
X258795239Y-52477733D01*
X258795239Y-52477733D02*
X258795239Y-52858685D01*
X258795239Y-52858685D02*
X258890477Y-53049161D01*
X258890477Y-53049161D02*
X258985715Y-53144400D01*
X258985715Y-53144400D02*
X259176191Y-53239638D01*
X259176191Y-53239638D02*
X259557144Y-53239638D01*
X259557144Y-53239638D02*
X259747620Y-53144400D01*
X259747620Y-53144400D02*
X259842858Y-53049161D01*
X259842858Y-53049161D02*
X259938096Y-52858685D01*
X259938096Y-52858685D02*
X259938096Y-52477733D01*
X259938096Y-52477733D02*
X259842858Y-52287257D01*
X259842858Y-52287257D02*
X259747620Y-52192019D01*
X259747620Y-52192019D02*
X259557144Y-52096780D01*
D10*
D11*
X41299171Y-132842857D02*
X42013457Y-132342857D01*
X41299171Y-131985714D02*
X42799171Y-131985714D01*
X42799171Y-131985714D02*
X42799171Y-132557143D01*
X42799171Y-132557143D02*
X42727742Y-132700000D01*
X42727742Y-132700000D02*
X42656314Y-132771429D01*
X42656314Y-132771429D02*
X42513457Y-132842857D01*
X42513457Y-132842857D02*
X42299171Y-132842857D01*
X42299171Y-132842857D02*
X42156314Y-132771429D01*
X42156314Y-132771429D02*
X42084885Y-132700000D01*
X42084885Y-132700000D02*
X42013457Y-132557143D01*
X42013457Y-132557143D02*
X42013457Y-131985714D01*
X41370600Y-134057143D02*
X41299171Y-133914286D01*
X41299171Y-133914286D02*
X41299171Y-133628572D01*
X41299171Y-133628572D02*
X41370600Y-133485714D01*
X41370600Y-133485714D02*
X41513457Y-133414286D01*
X41513457Y-133414286D02*
X42084885Y-133414286D01*
X42084885Y-133414286D02*
X42227742Y-133485714D01*
X42227742Y-133485714D02*
X42299171Y-133628572D01*
X42299171Y-133628572D02*
X42299171Y-133914286D01*
X42299171Y-133914286D02*
X42227742Y-134057143D01*
X42227742Y-134057143D02*
X42084885Y-134128572D01*
X42084885Y-134128572D02*
X41942028Y-134128572D01*
X41942028Y-134128572D02*
X41799171Y-133414286D01*
X41370600Y-134700000D02*
X41299171Y-134842857D01*
X41299171Y-134842857D02*
X41299171Y-135128571D01*
X41299171Y-135128571D02*
X41370600Y-135271428D01*
X41370600Y-135271428D02*
X41513457Y-135342857D01*
X41513457Y-135342857D02*
X41584885Y-135342857D01*
X41584885Y-135342857D02*
X41727742Y-135271428D01*
X41727742Y-135271428D02*
X41799171Y-135128571D01*
X41799171Y-135128571D02*
X41799171Y-134914286D01*
X41799171Y-134914286D02*
X41870600Y-134771428D01*
X41870600Y-134771428D02*
X42013457Y-134700000D01*
X42013457Y-134700000D02*
X42084885Y-134700000D01*
X42084885Y-134700000D02*
X42227742Y-134771428D01*
X42227742Y-134771428D02*
X42299171Y-134914286D01*
X42299171Y-134914286D02*
X42299171Y-135128571D01*
X42299171Y-135128571D02*
X42227742Y-135271428D01*
X41370600Y-136557143D02*
X41299171Y-136414286D01*
X41299171Y-136414286D02*
X41299171Y-136128572D01*
X41299171Y-136128572D02*
X41370600Y-135985714D01*
X41370600Y-135985714D02*
X41513457Y-135914286D01*
X41513457Y-135914286D02*
X42084885Y-135914286D01*
X42084885Y-135914286D02*
X42227742Y-135985714D01*
X42227742Y-135985714D02*
X42299171Y-136128572D01*
X42299171Y-136128572D02*
X42299171Y-136414286D01*
X42299171Y-136414286D02*
X42227742Y-136557143D01*
X42227742Y-136557143D02*
X42084885Y-136628572D01*
X42084885Y-136628572D02*
X41942028Y-136628572D01*
X41942028Y-136628572D02*
X41799171Y-135914286D01*
X42299171Y-137057143D02*
X42299171Y-137628571D01*
X42799171Y-137271428D02*
X41513457Y-137271428D01*
X41513457Y-137271428D02*
X41370600Y-137342857D01*
X41370600Y-137342857D02*
X41299171Y-137485714D01*
X41299171Y-137485714D02*
X41299171Y-137628571D01*
D10*
D11*
X41299171Y-160899999D02*
X42799171Y-160899999D01*
X42799171Y-160899999D02*
X42799171Y-161471428D01*
X42799171Y-161471428D02*
X42727742Y-161614285D01*
X42727742Y-161614285D02*
X42656314Y-161685714D01*
X42656314Y-161685714D02*
X42513457Y-161757142D01*
X42513457Y-161757142D02*
X42299171Y-161757142D01*
X42299171Y-161757142D02*
X42156314Y-161685714D01*
X42156314Y-161685714D02*
X42084885Y-161614285D01*
X42084885Y-161614285D02*
X42013457Y-161471428D01*
X42013457Y-161471428D02*
X42013457Y-160899999D01*
X41299171Y-163042857D02*
X42084885Y-163042857D01*
X42084885Y-163042857D02*
X42227742Y-162971428D01*
X42227742Y-162971428D02*
X42299171Y-162828571D01*
X42299171Y-162828571D02*
X42299171Y-162542857D01*
X42299171Y-162542857D02*
X42227742Y-162399999D01*
X41370600Y-163042857D02*
X41299171Y-162899999D01*
X41299171Y-162899999D02*
X41299171Y-162542857D01*
X41299171Y-162542857D02*
X41370600Y-162399999D01*
X41370600Y-162399999D02*
X41513457Y-162328571D01*
X41513457Y-162328571D02*
X41656314Y-162328571D01*
X41656314Y-162328571D02*
X41799171Y-162399999D01*
X41799171Y-162399999D02*
X41870600Y-162542857D01*
X41870600Y-162542857D02*
X41870600Y-162899999D01*
X41870600Y-162899999D02*
X41942028Y-163042857D01*
X42299171Y-164400000D02*
X41299171Y-164400000D01*
X42299171Y-163757142D02*
X41513457Y-163757142D01*
X41513457Y-163757142D02*
X41370600Y-163828571D01*
X41370600Y-163828571D02*
X41299171Y-163971428D01*
X41299171Y-163971428D02*
X41299171Y-164185714D01*
X41299171Y-164185714D02*
X41370600Y-164328571D01*
X41370600Y-164328571D02*
X41442028Y-164400000D01*
X41370600Y-165042857D02*
X41299171Y-165185714D01*
X41299171Y-165185714D02*
X41299171Y-165471428D01*
X41299171Y-165471428D02*
X41370600Y-165614285D01*
X41370600Y-165614285D02*
X41513457Y-165685714D01*
X41513457Y-165685714D02*
X41584885Y-165685714D01*
X41584885Y-165685714D02*
X41727742Y-165614285D01*
X41727742Y-165614285D02*
X41799171Y-165471428D01*
X41799171Y-165471428D02*
X41799171Y-165257143D01*
X41799171Y-165257143D02*
X41870600Y-165114285D01*
X41870600Y-165114285D02*
X42013457Y-165042857D01*
X42013457Y-165042857D02*
X42084885Y-165042857D01*
X42084885Y-165042857D02*
X42227742Y-165114285D01*
X42227742Y-165114285D02*
X42299171Y-165257143D01*
X42299171Y-165257143D02*
X42299171Y-165471428D01*
X42299171Y-165471428D02*
X42227742Y-165614285D01*
X41370600Y-166900000D02*
X41299171Y-166757143D01*
X41299171Y-166757143D02*
X41299171Y-166471429D01*
X41299171Y-166471429D02*
X41370600Y-166328571D01*
X41370600Y-166328571D02*
X41513457Y-166257143D01*
X41513457Y-166257143D02*
X42084885Y-166257143D01*
X42084885Y-166257143D02*
X42227742Y-166328571D01*
X42227742Y-166328571D02*
X42299171Y-166471429D01*
X42299171Y-166471429D02*
X42299171Y-166757143D01*
X42299171Y-166757143D02*
X42227742Y-166900000D01*
X42227742Y-166900000D02*
X42084885Y-166971429D01*
X42084885Y-166971429D02*
X41942028Y-166971429D01*
X41942028Y-166971429D02*
X41799171Y-166257143D01*
D10*
D11*
X244235714Y-57957341D02*
X244950000Y-57957341D01*
X244092857Y-58385912D02*
X244592857Y-56885912D01*
X244592857Y-56885912D02*
X245092857Y-58385912D01*
X245807142Y-58385912D02*
X245664285Y-58314484D01*
X245664285Y-58314484D02*
X245592856Y-58171626D01*
X245592856Y-58171626D02*
X245592856Y-56885912D01*
X246592856Y-58385912D02*
X246449999Y-58314484D01*
X246449999Y-58314484D02*
X246378570Y-58171626D01*
X246378570Y-58171626D02*
X246378570Y-56885912D01*
X248307141Y-58385912D02*
X248307141Y-56885912D01*
X248307141Y-57600198D02*
X249164284Y-57600198D01*
X249164284Y-58385912D02*
X249164284Y-56885912D01*
X250521428Y-58385912D02*
X250521428Y-57600198D01*
X250521428Y-57600198D02*
X250449999Y-57457341D01*
X250449999Y-57457341D02*
X250307142Y-57385912D01*
X250307142Y-57385912D02*
X250021428Y-57385912D01*
X250021428Y-57385912D02*
X249878570Y-57457341D01*
X250521428Y-58314484D02*
X250378570Y-58385912D01*
X250378570Y-58385912D02*
X250021428Y-58385912D01*
X250021428Y-58385912D02*
X249878570Y-58314484D01*
X249878570Y-58314484D02*
X249807142Y-58171626D01*
X249807142Y-58171626D02*
X249807142Y-58028769D01*
X249807142Y-58028769D02*
X249878570Y-57885912D01*
X249878570Y-57885912D02*
X250021428Y-57814484D01*
X250021428Y-57814484D02*
X250378570Y-57814484D01*
X250378570Y-57814484D02*
X250521428Y-57743055D01*
X251235713Y-58385912D02*
X251235713Y-57385912D01*
X251235713Y-56885912D02*
X251164285Y-56957341D01*
X251164285Y-56957341D02*
X251235713Y-57028769D01*
X251235713Y-57028769D02*
X251307142Y-56957341D01*
X251307142Y-56957341D02*
X251235713Y-56885912D01*
X251235713Y-56885912D02*
X251235713Y-57028769D01*
X252164285Y-58385912D02*
X252021428Y-58314484D01*
X252021428Y-58314484D02*
X251949999Y-58171626D01*
X251949999Y-58171626D02*
X251949999Y-56885912D01*
X253878570Y-58385912D02*
X253878570Y-56885912D01*
X254735713Y-58385912D02*
X254092856Y-57528769D01*
X254735713Y-56885912D02*
X253878570Y-57743055D01*
X255378570Y-58385912D02*
X255378570Y-57385912D01*
X255378570Y-56885912D02*
X255307142Y-56957341D01*
X255307142Y-56957341D02*
X255378570Y-57028769D01*
X255378570Y-57028769D02*
X255449999Y-56957341D01*
X255449999Y-56957341D02*
X255378570Y-56885912D01*
X255378570Y-56885912D02*
X255378570Y-57028769D01*
X256092856Y-57385912D02*
X256092856Y-58385912D01*
X256092856Y-57528769D02*
X256164285Y-57457341D01*
X256164285Y-57457341D02*
X256307142Y-57385912D01*
X256307142Y-57385912D02*
X256521428Y-57385912D01*
X256521428Y-57385912D02*
X256664285Y-57457341D01*
X256664285Y-57457341D02*
X256735714Y-57600198D01*
X256735714Y-57600198D02*
X256735714Y-58385912D01*
X258092857Y-57385912D02*
X258092857Y-58600198D01*
X258092857Y-58600198D02*
X258021428Y-58743055D01*
X258021428Y-58743055D02*
X257949999Y-58814484D01*
X257949999Y-58814484D02*
X257807142Y-58885912D01*
X257807142Y-58885912D02*
X257592857Y-58885912D01*
X257592857Y-58885912D02*
X257449999Y-58814484D01*
X258092857Y-58314484D02*
X257949999Y-58385912D01*
X257949999Y-58385912D02*
X257664285Y-58385912D01*
X257664285Y-58385912D02*
X257521428Y-58314484D01*
X257521428Y-58314484D02*
X257449999Y-58243055D01*
X257449999Y-58243055D02*
X257378571Y-58100198D01*
X257378571Y-58100198D02*
X257378571Y-57671626D01*
X257378571Y-57671626D02*
X257449999Y-57528769D01*
X257449999Y-57528769D02*
X257521428Y-57457341D01*
X257521428Y-57457341D02*
X257664285Y-57385912D01*
X257664285Y-57385912D02*
X257949999Y-57385912D01*
X257949999Y-57385912D02*
X258092857Y-57457341D01*
X241735714Y-60800828D02*
X241735714Y-59300828D01*
X241735714Y-59300828D02*
X242092857Y-59300828D01*
X242092857Y-59300828D02*
X242307143Y-59372257D01*
X242307143Y-59372257D02*
X242450000Y-59515114D01*
X242450000Y-59515114D02*
X242521429Y-59657971D01*
X242521429Y-59657971D02*
X242592857Y-59943685D01*
X242592857Y-59943685D02*
X242592857Y-60157971D01*
X242592857Y-60157971D02*
X242521429Y-60443685D01*
X242521429Y-60443685D02*
X242450000Y-60586542D01*
X242450000Y-60586542D02*
X242307143Y-60729400D01*
X242307143Y-60729400D02*
X242092857Y-60800828D01*
X242092857Y-60800828D02*
X241735714Y-60800828D01*
X243235714Y-60800828D02*
X243235714Y-59800828D01*
X243235714Y-60086542D02*
X243307143Y-59943685D01*
X243307143Y-59943685D02*
X243378572Y-59872257D01*
X243378572Y-59872257D02*
X243521429Y-59800828D01*
X243521429Y-59800828D02*
X243664286Y-59800828D01*
X244164285Y-60657971D02*
X244235714Y-60729400D01*
X244235714Y-60729400D02*
X244164285Y-60800828D01*
X244164285Y-60800828D02*
X244092857Y-60729400D01*
X244092857Y-60729400D02*
X244164285Y-60657971D01*
X244164285Y-60657971D02*
X244164285Y-60800828D01*
X245950000Y-60372257D02*
X246664286Y-60372257D01*
X245807143Y-60800828D02*
X246307143Y-59300828D01*
X246307143Y-59300828D02*
X246807143Y-60800828D01*
X247307142Y-60800828D02*
X247307142Y-59300828D01*
X247307142Y-59872257D02*
X247450000Y-59800828D01*
X247450000Y-59800828D02*
X247735714Y-59800828D01*
X247735714Y-59800828D02*
X247878571Y-59872257D01*
X247878571Y-59872257D02*
X247950000Y-59943685D01*
X247950000Y-59943685D02*
X248021428Y-60086542D01*
X248021428Y-60086542D02*
X248021428Y-60515114D01*
X248021428Y-60515114D02*
X247950000Y-60657971D01*
X247950000Y-60657971D02*
X247878571Y-60729400D01*
X247878571Y-60729400D02*
X247735714Y-60800828D01*
X247735714Y-60800828D02*
X247450000Y-60800828D01*
X247450000Y-60800828D02*
X247307142Y-60729400D01*
X249307143Y-60800828D02*
X249307143Y-59300828D01*
X249307143Y-60729400D02*
X249164285Y-60800828D01*
X249164285Y-60800828D02*
X248878571Y-60800828D01*
X248878571Y-60800828D02*
X248735714Y-60729400D01*
X248735714Y-60729400D02*
X248664285Y-60657971D01*
X248664285Y-60657971D02*
X248592857Y-60515114D01*
X248592857Y-60515114D02*
X248592857Y-60086542D01*
X248592857Y-60086542D02*
X248664285Y-59943685D01*
X248664285Y-59943685D02*
X248735714Y-59872257D01*
X248735714Y-59872257D02*
X248878571Y-59800828D01*
X248878571Y-59800828D02*
X249164285Y-59800828D01*
X249164285Y-59800828D02*
X249307143Y-59872257D01*
X250592857Y-60729400D02*
X250450000Y-60800828D01*
X250450000Y-60800828D02*
X250164286Y-60800828D01*
X250164286Y-60800828D02*
X250021428Y-60729400D01*
X250021428Y-60729400D02*
X249950000Y-60586542D01*
X249950000Y-60586542D02*
X249950000Y-60015114D01*
X249950000Y-60015114D02*
X250021428Y-59872257D01*
X250021428Y-59872257D02*
X250164286Y-59800828D01*
X250164286Y-59800828D02*
X250450000Y-59800828D01*
X250450000Y-59800828D02*
X250592857Y-59872257D01*
X250592857Y-59872257D02*
X250664286Y-60015114D01*
X250664286Y-60015114D02*
X250664286Y-60157971D01*
X250664286Y-60157971D02*
X249950000Y-60300828D01*
X251521428Y-60800828D02*
X251378571Y-60729400D01*
X251378571Y-60729400D02*
X251307142Y-60586542D01*
X251307142Y-60586542D02*
X251307142Y-59300828D01*
X252878571Y-59372257D02*
X252735714Y-59300828D01*
X252735714Y-59300828D02*
X252521428Y-59300828D01*
X252521428Y-59300828D02*
X252307142Y-59372257D01*
X252307142Y-59372257D02*
X252164285Y-59515114D01*
X252164285Y-59515114D02*
X252092856Y-59657971D01*
X252092856Y-59657971D02*
X252021428Y-59943685D01*
X252021428Y-59943685D02*
X252021428Y-60157971D01*
X252021428Y-60157971D02*
X252092856Y-60443685D01*
X252092856Y-60443685D02*
X252164285Y-60586542D01*
X252164285Y-60586542D02*
X252307142Y-60729400D01*
X252307142Y-60729400D02*
X252521428Y-60800828D01*
X252521428Y-60800828D02*
X252664285Y-60800828D01*
X252664285Y-60800828D02*
X252878571Y-60729400D01*
X252878571Y-60729400D02*
X252949999Y-60657971D01*
X252949999Y-60657971D02*
X252949999Y-60157971D01*
X252949999Y-60157971D02*
X252664285Y-60157971D01*
X253592856Y-60800828D02*
X253592856Y-59300828D01*
X254235714Y-60800828D02*
X254235714Y-60015114D01*
X254235714Y-60015114D02*
X254164285Y-59872257D01*
X254164285Y-59872257D02*
X254021428Y-59800828D01*
X254021428Y-59800828D02*
X253807142Y-59800828D01*
X253807142Y-59800828D02*
X253664285Y-59872257D01*
X253664285Y-59872257D02*
X253592856Y-59943685D01*
X255592857Y-60800828D02*
X255592857Y-60015114D01*
X255592857Y-60015114D02*
X255521428Y-59872257D01*
X255521428Y-59872257D02*
X255378571Y-59800828D01*
X255378571Y-59800828D02*
X255092857Y-59800828D01*
X255092857Y-59800828D02*
X254949999Y-59872257D01*
X255592857Y-60729400D02*
X255449999Y-60800828D01*
X255449999Y-60800828D02*
X255092857Y-60800828D01*
X255092857Y-60800828D02*
X254949999Y-60729400D01*
X254949999Y-60729400D02*
X254878571Y-60586542D01*
X254878571Y-60586542D02*
X254878571Y-60443685D01*
X254878571Y-60443685D02*
X254949999Y-60300828D01*
X254949999Y-60300828D02*
X255092857Y-60229400D01*
X255092857Y-60229400D02*
X255449999Y-60229400D01*
X255449999Y-60229400D02*
X255592857Y-60157971D01*
X256307142Y-59800828D02*
X256307142Y-60800828D01*
X256307142Y-59943685D02*
X256378571Y-59872257D01*
X256378571Y-59872257D02*
X256521428Y-59800828D01*
X256521428Y-59800828D02*
X256735714Y-59800828D01*
X256735714Y-59800828D02*
X256878571Y-59872257D01*
X256878571Y-59872257D02*
X256950000Y-60015114D01*
X256950000Y-60015114D02*
X256950000Y-60800828D01*
X257521428Y-59800828D02*
X257878571Y-60800828D01*
X258235714Y-59800828D02*
X257878571Y-60800828D01*
X257878571Y-60800828D02*
X257735714Y-61157971D01*
X257735714Y-61157971D02*
X257664285Y-61229400D01*
X257664285Y-61229400D02*
X257521428Y-61300828D01*
X259949999Y-60657971D02*
X260021428Y-60729400D01*
X260021428Y-60729400D02*
X259949999Y-60800828D01*
X259949999Y-60800828D02*
X259878571Y-60729400D01*
X259878571Y-60729400D02*
X259949999Y-60657971D01*
X259949999Y-60657971D02*
X259949999Y-60800828D01*
X259949999Y-60229400D02*
X259878571Y-59372257D01*
X259878571Y-59372257D02*
X259949999Y-59300828D01*
X259949999Y-59300828D02*
X260021428Y-59372257D01*
X260021428Y-59372257D02*
X259949999Y-60229400D01*
X259949999Y-60229400D02*
X259949999Y-59300828D01*
X260664285Y-60657971D02*
X260735714Y-60729400D01*
X260735714Y-60729400D02*
X260664285Y-60800828D01*
X260664285Y-60800828D02*
X260592857Y-60729400D01*
X260592857Y-60729400D02*
X260664285Y-60657971D01*
X260664285Y-60657971D02*
X260664285Y-60800828D01*
X260664285Y-60229400D02*
X260592857Y-59372257D01*
X260592857Y-59372257D02*
X260664285Y-59300828D01*
X260664285Y-59300828D02*
X260735714Y-59372257D01*
X260735714Y-59372257D02*
X260664285Y-60229400D01*
X260664285Y-60229400D02*
X260664285Y-59300828D01*
D10*
D11*
X231264285Y-171041164D02*
X231264285Y-169541164D01*
X231264285Y-169541164D02*
X231764285Y-170612593D01*
X231764285Y-170612593D02*
X232264285Y-169541164D01*
X232264285Y-169541164D02*
X232264285Y-171041164D01*
X233192857Y-171041164D02*
X233050000Y-170969736D01*
X233050000Y-170969736D02*
X232978571Y-170898307D01*
X232978571Y-170898307D02*
X232907143Y-170755450D01*
X232907143Y-170755450D02*
X232907143Y-170326878D01*
X232907143Y-170326878D02*
X232978571Y-170184021D01*
X232978571Y-170184021D02*
X233050000Y-170112593D01*
X233050000Y-170112593D02*
X233192857Y-170041164D01*
X233192857Y-170041164D02*
X233407143Y-170041164D01*
X233407143Y-170041164D02*
X233550000Y-170112593D01*
X233550000Y-170112593D02*
X233621429Y-170184021D01*
X233621429Y-170184021D02*
X233692857Y-170326878D01*
X233692857Y-170326878D02*
X233692857Y-170755450D01*
X233692857Y-170755450D02*
X233621429Y-170898307D01*
X233621429Y-170898307D02*
X233550000Y-170969736D01*
X233550000Y-170969736D02*
X233407143Y-171041164D01*
X233407143Y-171041164D02*
X233192857Y-171041164D01*
X234335714Y-171041164D02*
X234335714Y-170041164D01*
X234335714Y-170326878D02*
X234407143Y-170184021D01*
X234407143Y-170184021D02*
X234478572Y-170112593D01*
X234478572Y-170112593D02*
X234621429Y-170041164D01*
X234621429Y-170041164D02*
X234764286Y-170041164D01*
X235264285Y-171041164D02*
X235264285Y-169541164D01*
X235407143Y-170469736D02*
X235835714Y-171041164D01*
X235835714Y-170041164D02*
X235264285Y-170612593D01*
X236692857Y-171041164D02*
X236550000Y-170969736D01*
X236550000Y-170969736D02*
X236478571Y-170898307D01*
X236478571Y-170898307D02*
X236407143Y-170755450D01*
X236407143Y-170755450D02*
X236407143Y-170326878D01*
X236407143Y-170326878D02*
X236478571Y-170184021D01*
X236478571Y-170184021D02*
X236550000Y-170112593D01*
X236550000Y-170112593D02*
X236692857Y-170041164D01*
X236692857Y-170041164D02*
X236907143Y-170041164D01*
X236907143Y-170041164D02*
X237050000Y-170112593D01*
X237050000Y-170112593D02*
X237121429Y-170184021D01*
X237121429Y-170184021D02*
X237192857Y-170326878D01*
X237192857Y-170326878D02*
X237192857Y-170755450D01*
X237192857Y-170755450D02*
X237121429Y-170898307D01*
X237121429Y-170898307D02*
X237050000Y-170969736D01*
X237050000Y-170969736D02*
X236907143Y-171041164D01*
X236907143Y-171041164D02*
X236692857Y-171041164D01*
X237764286Y-170969736D02*
X237907143Y-171041164D01*
X237907143Y-171041164D02*
X238192857Y-171041164D01*
X238192857Y-171041164D02*
X238335714Y-170969736D01*
X238335714Y-170969736D02*
X238407143Y-170826878D01*
X238407143Y-170826878D02*
X238407143Y-170755450D01*
X238407143Y-170755450D02*
X238335714Y-170612593D01*
X238335714Y-170612593D02*
X238192857Y-170541164D01*
X238192857Y-170541164D02*
X237978572Y-170541164D01*
X237978572Y-170541164D02*
X237835714Y-170469736D01*
X237835714Y-170469736D02*
X237764286Y-170326878D01*
X237764286Y-170326878D02*
X237764286Y-170255450D01*
X237764286Y-170255450D02*
X237835714Y-170112593D01*
X237835714Y-170112593D02*
X237978572Y-170041164D01*
X237978572Y-170041164D02*
X238192857Y-170041164D01*
X238192857Y-170041164D02*
X238335714Y-170112593D01*
X240121429Y-170969736D02*
X240335715Y-171041164D01*
X240335715Y-171041164D02*
X240692857Y-171041164D01*
X240692857Y-171041164D02*
X240835715Y-170969736D01*
X240835715Y-170969736D02*
X240907143Y-170898307D01*
X240907143Y-170898307D02*
X240978572Y-170755450D01*
X240978572Y-170755450D02*
X240978572Y-170612593D01*
X240978572Y-170612593D02*
X240907143Y-170469736D01*
X240907143Y-170469736D02*
X240835715Y-170398307D01*
X240835715Y-170398307D02*
X240692857Y-170326878D01*
X240692857Y-170326878D02*
X240407143Y-170255450D01*
X240407143Y-170255450D02*
X240264286Y-170184021D01*
X240264286Y-170184021D02*
X240192857Y-170112593D01*
X240192857Y-170112593D02*
X240121429Y-169969736D01*
X240121429Y-169969736D02*
X240121429Y-169826878D01*
X240121429Y-169826878D02*
X240192857Y-169684021D01*
X240192857Y-169684021D02*
X240264286Y-169612593D01*
X240264286Y-169612593D02*
X240407143Y-169541164D01*
X240407143Y-169541164D02*
X240764286Y-169541164D01*
X240764286Y-169541164D02*
X240978572Y-169612593D01*
X241621428Y-171041164D02*
X241621428Y-169541164D01*
X242264286Y-171041164D02*
X242264286Y-170255450D01*
X242264286Y-170255450D02*
X242192857Y-170112593D01*
X242192857Y-170112593D02*
X242050000Y-170041164D01*
X242050000Y-170041164D02*
X241835714Y-170041164D01*
X241835714Y-170041164D02*
X241692857Y-170112593D01*
X241692857Y-170112593D02*
X241621428Y-170184021D01*
X243550000Y-170969736D02*
X243407143Y-171041164D01*
X243407143Y-171041164D02*
X243121429Y-171041164D01*
X243121429Y-171041164D02*
X242978571Y-170969736D01*
X242978571Y-170969736D02*
X242907143Y-170826878D01*
X242907143Y-170826878D02*
X242907143Y-170255450D01*
X242907143Y-170255450D02*
X242978571Y-170112593D01*
X242978571Y-170112593D02*
X243121429Y-170041164D01*
X243121429Y-170041164D02*
X243407143Y-170041164D01*
X243407143Y-170041164D02*
X243550000Y-170112593D01*
X243550000Y-170112593D02*
X243621429Y-170255450D01*
X243621429Y-170255450D02*
X243621429Y-170398307D01*
X243621429Y-170398307D02*
X242907143Y-170541164D01*
X244264285Y-170041164D02*
X244264285Y-171041164D01*
X244264285Y-170184021D02*
X244335714Y-170112593D01*
X244335714Y-170112593D02*
X244478571Y-170041164D01*
X244478571Y-170041164D02*
X244692857Y-170041164D01*
X244692857Y-170041164D02*
X244835714Y-170112593D01*
X244835714Y-170112593D02*
X244907143Y-170255450D01*
X244907143Y-170255450D02*
X244907143Y-171041164D01*
X245835714Y-171041164D02*
X245692857Y-170969736D01*
X245692857Y-170969736D02*
X245621428Y-170898307D01*
X245621428Y-170898307D02*
X245550000Y-170755450D01*
X245550000Y-170755450D02*
X245550000Y-170326878D01*
X245550000Y-170326878D02*
X245621428Y-170184021D01*
X245621428Y-170184021D02*
X245692857Y-170112593D01*
X245692857Y-170112593D02*
X245835714Y-170041164D01*
X245835714Y-170041164D02*
X246050000Y-170041164D01*
X246050000Y-170041164D02*
X246192857Y-170112593D01*
X246192857Y-170112593D02*
X246264286Y-170184021D01*
X246264286Y-170184021D02*
X246335714Y-170326878D01*
X246335714Y-170326878D02*
X246335714Y-170755450D01*
X246335714Y-170755450D02*
X246264286Y-170898307D01*
X246264286Y-170898307D02*
X246192857Y-170969736D01*
X246192857Y-170969736D02*
X246050000Y-171041164D01*
X246050000Y-171041164D02*
X245835714Y-171041164D01*
X247621429Y-170041164D02*
X247621429Y-171041164D01*
X246978571Y-170041164D02*
X246978571Y-170826878D01*
X246978571Y-170826878D02*
X247050000Y-170969736D01*
X247050000Y-170969736D02*
X247192857Y-171041164D01*
X247192857Y-171041164D02*
X247407143Y-171041164D01*
X247407143Y-171041164D02*
X247550000Y-170969736D01*
X247550000Y-170969736D02*
X247621429Y-170898307D01*
X248978572Y-171041164D02*
X248978572Y-169541164D01*
X248978572Y-170969736D02*
X248835714Y-171041164D01*
X248835714Y-171041164D02*
X248550000Y-171041164D01*
X248550000Y-171041164D02*
X248407143Y-170969736D01*
X248407143Y-170969736D02*
X248335714Y-170898307D01*
X248335714Y-170898307D02*
X248264286Y-170755450D01*
X248264286Y-170755450D02*
X248264286Y-170326878D01*
X248264286Y-170326878D02*
X248335714Y-170184021D01*
X248335714Y-170184021D02*
X248407143Y-170112593D01*
X248407143Y-170112593D02*
X248550000Y-170041164D01*
X248550000Y-170041164D02*
X248835714Y-170041164D01*
X248835714Y-170041164D02*
X248978572Y-170112593D01*
X250335715Y-171041164D02*
X250335715Y-170255450D01*
X250335715Y-170255450D02*
X250264286Y-170112593D01*
X250264286Y-170112593D02*
X250121429Y-170041164D01*
X250121429Y-170041164D02*
X249835715Y-170041164D01*
X249835715Y-170041164D02*
X249692857Y-170112593D01*
X250335715Y-170969736D02*
X250192857Y-171041164D01*
X250192857Y-171041164D02*
X249835715Y-171041164D01*
X249835715Y-171041164D02*
X249692857Y-170969736D01*
X249692857Y-170969736D02*
X249621429Y-170826878D01*
X249621429Y-170826878D02*
X249621429Y-170684021D01*
X249621429Y-170684021D02*
X249692857Y-170541164D01*
X249692857Y-170541164D02*
X249835715Y-170469736D01*
X249835715Y-170469736D02*
X250192857Y-170469736D01*
X250192857Y-170469736D02*
X250335715Y-170398307D01*
X233621429Y-172741794D02*
X233621429Y-173456080D01*
X233121429Y-171956080D02*
X233621429Y-172741794D01*
X233621429Y-172741794D02*
X234121429Y-171956080D01*
X234835714Y-173456080D02*
X234692857Y-173384652D01*
X234692857Y-173384652D02*
X234621428Y-173313223D01*
X234621428Y-173313223D02*
X234550000Y-173170366D01*
X234550000Y-173170366D02*
X234550000Y-172741794D01*
X234550000Y-172741794D02*
X234621428Y-172598937D01*
X234621428Y-172598937D02*
X234692857Y-172527509D01*
X234692857Y-172527509D02*
X234835714Y-172456080D01*
X234835714Y-172456080D02*
X235050000Y-172456080D01*
X235050000Y-172456080D02*
X235192857Y-172527509D01*
X235192857Y-172527509D02*
X235264286Y-172598937D01*
X235264286Y-172598937D02*
X235335714Y-172741794D01*
X235335714Y-172741794D02*
X235335714Y-173170366D01*
X235335714Y-173170366D02*
X235264286Y-173313223D01*
X235264286Y-173313223D02*
X235192857Y-173384652D01*
X235192857Y-173384652D02*
X235050000Y-173456080D01*
X235050000Y-173456080D02*
X234835714Y-173456080D01*
X236621429Y-172456080D02*
X236621429Y-173456080D01*
X235978571Y-172456080D02*
X235978571Y-173241794D01*
X235978571Y-173241794D02*
X236050000Y-173384652D01*
X236050000Y-173384652D02*
X236192857Y-173456080D01*
X236192857Y-173456080D02*
X236407143Y-173456080D01*
X236407143Y-173456080D02*
X236550000Y-173384652D01*
X236550000Y-173384652D02*
X236621429Y-173313223D01*
X237264286Y-173384652D02*
X237407143Y-173456080D01*
X237407143Y-173456080D02*
X237692857Y-173456080D01*
X237692857Y-173456080D02*
X237835714Y-173384652D01*
X237835714Y-173384652D02*
X237907143Y-173241794D01*
X237907143Y-173241794D02*
X237907143Y-173170366D01*
X237907143Y-173170366D02*
X237835714Y-173027509D01*
X237835714Y-173027509D02*
X237692857Y-172956080D01*
X237692857Y-172956080D02*
X237478572Y-172956080D01*
X237478572Y-172956080D02*
X237335714Y-172884652D01*
X237335714Y-172884652D02*
X237264286Y-172741794D01*
X237264286Y-172741794D02*
X237264286Y-172670366D01*
X237264286Y-172670366D02*
X237335714Y-172527509D01*
X237335714Y-172527509D02*
X237478572Y-172456080D01*
X237478572Y-172456080D02*
X237692857Y-172456080D01*
X237692857Y-172456080D02*
X237835714Y-172527509D01*
X238478572Y-173384652D02*
X238621429Y-173456080D01*
X238621429Y-173456080D02*
X238907143Y-173456080D01*
X238907143Y-173456080D02*
X239050000Y-173384652D01*
X239050000Y-173384652D02*
X239121429Y-173241794D01*
X239121429Y-173241794D02*
X239121429Y-173170366D01*
X239121429Y-173170366D02*
X239050000Y-173027509D01*
X239050000Y-173027509D02*
X238907143Y-172956080D01*
X238907143Y-172956080D02*
X238692858Y-172956080D01*
X238692858Y-172956080D02*
X238550000Y-172884652D01*
X238550000Y-172884652D02*
X238478572Y-172741794D01*
X238478572Y-172741794D02*
X238478572Y-172670366D01*
X238478572Y-172670366D02*
X238550000Y-172527509D01*
X238550000Y-172527509D02*
X238692858Y-172456080D01*
X238692858Y-172456080D02*
X238907143Y-172456080D01*
X238907143Y-172456080D02*
X239050000Y-172527509D01*
X240335715Y-173384652D02*
X240192858Y-173456080D01*
X240192858Y-173456080D02*
X239907144Y-173456080D01*
X239907144Y-173456080D02*
X239764286Y-173384652D01*
X239764286Y-173384652D02*
X239692858Y-173241794D01*
X239692858Y-173241794D02*
X239692858Y-172670366D01*
X239692858Y-172670366D02*
X239764286Y-172527509D01*
X239764286Y-172527509D02*
X239907144Y-172456080D01*
X239907144Y-172456080D02*
X240192858Y-172456080D01*
X240192858Y-172456080D02*
X240335715Y-172527509D01*
X240335715Y-172527509D02*
X240407144Y-172670366D01*
X240407144Y-172670366D02*
X240407144Y-172813223D01*
X240407144Y-172813223D02*
X239692858Y-172956080D01*
X240835715Y-172456080D02*
X241407143Y-172456080D01*
X241050000Y-173456080D02*
X241050000Y-172170366D01*
X241050000Y-172170366D02*
X241121429Y-172027509D01*
X241121429Y-172027509D02*
X241264286Y-171956080D01*
X241264286Y-171956080D02*
X241407143Y-171956080D01*
X242835715Y-171956080D02*
X243692858Y-171956080D01*
X243264286Y-173456080D02*
X243264286Y-171956080D01*
X244835715Y-173456080D02*
X244835715Y-172670366D01*
X244835715Y-172670366D02*
X244764286Y-172527509D01*
X244764286Y-172527509D02*
X244621429Y-172456080D01*
X244621429Y-172456080D02*
X244335715Y-172456080D01*
X244335715Y-172456080D02*
X244192857Y-172527509D01*
X244835715Y-173384652D02*
X244692857Y-173456080D01*
X244692857Y-173456080D02*
X244335715Y-173456080D01*
X244335715Y-173456080D02*
X244192857Y-173384652D01*
X244192857Y-173384652D02*
X244121429Y-173241794D01*
X244121429Y-173241794D02*
X244121429Y-173098937D01*
X244121429Y-173098937D02*
X244192857Y-172956080D01*
X244192857Y-172956080D02*
X244335715Y-172884652D01*
X244335715Y-172884652D02*
X244692857Y-172884652D01*
X244692857Y-172884652D02*
X244835715Y-172813223D01*
X245550000Y-173456080D02*
X245550000Y-172456080D01*
X245550000Y-172741794D02*
X245621429Y-172598937D01*
X245621429Y-172598937D02*
X245692858Y-172527509D01*
X245692858Y-172527509D02*
X245835715Y-172456080D01*
X245835715Y-172456080D02*
X245978572Y-172456080D01*
X247050000Y-173384652D02*
X246907143Y-173456080D01*
X246907143Y-173456080D02*
X246621429Y-173456080D01*
X246621429Y-173456080D02*
X246478571Y-173384652D01*
X246478571Y-173384652D02*
X246407143Y-173241794D01*
X246407143Y-173241794D02*
X246407143Y-172670366D01*
X246407143Y-172670366D02*
X246478571Y-172527509D01*
X246478571Y-172527509D02*
X246621429Y-172456080D01*
X246621429Y-172456080D02*
X246907143Y-172456080D01*
X246907143Y-172456080D02*
X247050000Y-172527509D01*
X247050000Y-172527509D02*
X247121429Y-172670366D01*
X247121429Y-172670366D02*
X247121429Y-172813223D01*
X247121429Y-172813223D02*
X246407143Y-172956080D01*
X247764285Y-173456080D02*
X247764285Y-171956080D01*
X247907143Y-172884652D02*
X248335714Y-173456080D01*
X248335714Y-172456080D02*
X247764285Y-173027509D01*
X234157143Y-175442425D02*
X234871429Y-175442425D01*
X234014286Y-175870996D02*
X234514286Y-174370996D01*
X234514286Y-174370996D02*
X235014286Y-175870996D01*
X236014285Y-175085282D02*
X236228571Y-175156710D01*
X236228571Y-175156710D02*
X236300000Y-175228139D01*
X236300000Y-175228139D02*
X236371428Y-175370996D01*
X236371428Y-175370996D02*
X236371428Y-175585282D01*
X236371428Y-175585282D02*
X236300000Y-175728139D01*
X236300000Y-175728139D02*
X236228571Y-175799568D01*
X236228571Y-175799568D02*
X236085714Y-175870996D01*
X236085714Y-175870996D02*
X235514285Y-175870996D01*
X235514285Y-175870996D02*
X235514285Y-174370996D01*
X235514285Y-174370996D02*
X236014285Y-174370996D01*
X236014285Y-174370996D02*
X236157143Y-174442425D01*
X236157143Y-174442425D02*
X236228571Y-174513853D01*
X236228571Y-174513853D02*
X236300000Y-174656710D01*
X236300000Y-174656710D02*
X236300000Y-174799568D01*
X236300000Y-174799568D02*
X236228571Y-174942425D01*
X236228571Y-174942425D02*
X236157143Y-175013853D01*
X236157143Y-175013853D02*
X236014285Y-175085282D01*
X236014285Y-175085282D02*
X235514285Y-175085282D01*
X237014285Y-175870996D02*
X237014285Y-174370996D01*
X237014285Y-174370996D02*
X237371428Y-174370996D01*
X237371428Y-174370996D02*
X237585714Y-174442425D01*
X237585714Y-174442425D02*
X237728571Y-174585282D01*
X237728571Y-174585282D02*
X237800000Y-174728139D01*
X237800000Y-174728139D02*
X237871428Y-175013853D01*
X237871428Y-175013853D02*
X237871428Y-175228139D01*
X237871428Y-175228139D02*
X237800000Y-175513853D01*
X237800000Y-175513853D02*
X237728571Y-175656710D01*
X237728571Y-175656710D02*
X237585714Y-175799568D01*
X237585714Y-175799568D02*
X237371428Y-175870996D01*
X237371428Y-175870996D02*
X237014285Y-175870996D01*
X238800000Y-174370996D02*
X239085714Y-174370996D01*
X239085714Y-174370996D02*
X239228571Y-174442425D01*
X239228571Y-174442425D02*
X239371428Y-174585282D01*
X239371428Y-174585282D02*
X239442857Y-174870996D01*
X239442857Y-174870996D02*
X239442857Y-175370996D01*
X239442857Y-175370996D02*
X239371428Y-175656710D01*
X239371428Y-175656710D02*
X239228571Y-175799568D01*
X239228571Y-175799568D02*
X239085714Y-175870996D01*
X239085714Y-175870996D02*
X238800000Y-175870996D01*
X238800000Y-175870996D02*
X238657143Y-175799568D01*
X238657143Y-175799568D02*
X238514285Y-175656710D01*
X238514285Y-175656710D02*
X238442857Y-175370996D01*
X238442857Y-175370996D02*
X238442857Y-174870996D01*
X238442857Y-174870996D02*
X238514285Y-174585282D01*
X238514285Y-174585282D02*
X238657143Y-174442425D01*
X238657143Y-174442425D02*
X238800000Y-174370996D01*
X241728571Y-175085282D02*
X241228571Y-175085282D01*
X241228571Y-175870996D02*
X241228571Y-174370996D01*
X241228571Y-174370996D02*
X241942857Y-174370996D01*
X242442857Y-175442425D02*
X243157143Y-175442425D01*
X242300000Y-175870996D02*
X242800000Y-174370996D01*
X242800000Y-174370996D02*
X243300000Y-175870996D01*
X244657142Y-175870996D02*
X244157142Y-175156710D01*
X243799999Y-175870996D02*
X243799999Y-174370996D01*
X243799999Y-174370996D02*
X244371428Y-174370996D01*
X244371428Y-174370996D02*
X244514285Y-174442425D01*
X244514285Y-174442425D02*
X244585714Y-174513853D01*
X244585714Y-174513853D02*
X244657142Y-174656710D01*
X244657142Y-174656710D02*
X244657142Y-174870996D01*
X244657142Y-174870996D02*
X244585714Y-175013853D01*
X244585714Y-175013853D02*
X244514285Y-175085282D01*
X244514285Y-175085282D02*
X244371428Y-175156710D01*
X244371428Y-175156710D02*
X243799999Y-175156710D01*
X245228571Y-175442425D02*
X245942857Y-175442425D01*
X245085714Y-175870996D02*
X245585714Y-174370996D01*
X245585714Y-174370996D02*
X246085714Y-175870996D01*
X247371428Y-174442425D02*
X247228571Y-174370996D01*
X247228571Y-174370996D02*
X247014285Y-174370996D01*
X247014285Y-174370996D02*
X246799999Y-174442425D01*
X246799999Y-174442425D02*
X246657142Y-174585282D01*
X246657142Y-174585282D02*
X246585713Y-174728139D01*
X246585713Y-174728139D02*
X246514285Y-175013853D01*
X246514285Y-175013853D02*
X246514285Y-175228139D01*
X246514285Y-175228139D02*
X246585713Y-175513853D01*
X246585713Y-175513853D02*
X246657142Y-175656710D01*
X246657142Y-175656710D02*
X246799999Y-175799568D01*
X246799999Y-175799568D02*
X247014285Y-175870996D01*
X247014285Y-175870996D02*
X247157142Y-175870996D01*
X247157142Y-175870996D02*
X247371428Y-175799568D01*
X247371428Y-175799568D02*
X247442856Y-175728139D01*
X247442856Y-175728139D02*
X247442856Y-175228139D01*
X247442856Y-175228139D02*
X247157142Y-175228139D01*
X234407143Y-177857341D02*
X235121429Y-177857341D01*
X234264286Y-178285912D02*
X234764286Y-176785912D01*
X234764286Y-176785912D02*
X235264286Y-178285912D01*
X235764285Y-178285912D02*
X235764285Y-176785912D01*
X236407143Y-178285912D02*
X236407143Y-177500198D01*
X236407143Y-177500198D02*
X236335714Y-177357341D01*
X236335714Y-177357341D02*
X236192857Y-177285912D01*
X236192857Y-177285912D02*
X235978571Y-177285912D01*
X235978571Y-177285912D02*
X235835714Y-177357341D01*
X235835714Y-177357341D02*
X235764285Y-177428769D01*
X237121428Y-178285912D02*
X237121428Y-177285912D01*
X237121428Y-177428769D02*
X237192857Y-177357341D01*
X237192857Y-177357341D02*
X237335714Y-177285912D01*
X237335714Y-177285912D02*
X237550000Y-177285912D01*
X237550000Y-177285912D02*
X237692857Y-177357341D01*
X237692857Y-177357341D02*
X237764286Y-177500198D01*
X237764286Y-177500198D02*
X237764286Y-178285912D01*
X237764286Y-177500198D02*
X237835714Y-177357341D01*
X237835714Y-177357341D02*
X237978571Y-177285912D01*
X237978571Y-177285912D02*
X238192857Y-177285912D01*
X238192857Y-177285912D02*
X238335714Y-177357341D01*
X238335714Y-177357341D02*
X238407143Y-177500198D01*
X238407143Y-177500198D02*
X238407143Y-178285912D01*
X239692857Y-178214484D02*
X239550000Y-178285912D01*
X239550000Y-178285912D02*
X239264286Y-178285912D01*
X239264286Y-178285912D02*
X239121428Y-178214484D01*
X239121428Y-178214484D02*
X239050000Y-178071626D01*
X239050000Y-178071626D02*
X239050000Y-177500198D01*
X239050000Y-177500198D02*
X239121428Y-177357341D01*
X239121428Y-177357341D02*
X239264286Y-177285912D01*
X239264286Y-177285912D02*
X239550000Y-177285912D01*
X239550000Y-177285912D02*
X239692857Y-177357341D01*
X239692857Y-177357341D02*
X239764286Y-177500198D01*
X239764286Y-177500198D02*
X239764286Y-177643055D01*
X239764286Y-177643055D02*
X239050000Y-177785912D01*
X241050000Y-178285912D02*
X241050000Y-176785912D01*
X241050000Y-178214484D02*
X240907142Y-178285912D01*
X240907142Y-178285912D02*
X240621428Y-178285912D01*
X240621428Y-178285912D02*
X240478571Y-178214484D01*
X240478571Y-178214484D02*
X240407142Y-178143055D01*
X240407142Y-178143055D02*
X240335714Y-178000198D01*
X240335714Y-178000198D02*
X240335714Y-177571626D01*
X240335714Y-177571626D02*
X240407142Y-177428769D01*
X240407142Y-177428769D02*
X240478571Y-177357341D01*
X240478571Y-177357341D02*
X240621428Y-177285912D01*
X240621428Y-177285912D02*
X240907142Y-177285912D01*
X240907142Y-177285912D02*
X241050000Y-177357341D01*
X242907142Y-178285912D02*
X242907142Y-176785912D01*
X242907142Y-176785912D02*
X243264285Y-176785912D01*
X243264285Y-176785912D02*
X243478571Y-176857341D01*
X243478571Y-176857341D02*
X243621428Y-177000198D01*
X243621428Y-177000198D02*
X243692857Y-177143055D01*
X243692857Y-177143055D02*
X243764285Y-177428769D01*
X243764285Y-177428769D02*
X243764285Y-177643055D01*
X243764285Y-177643055D02*
X243692857Y-177928769D01*
X243692857Y-177928769D02*
X243621428Y-178071626D01*
X243621428Y-178071626D02*
X243478571Y-178214484D01*
X243478571Y-178214484D02*
X243264285Y-178285912D01*
X243264285Y-178285912D02*
X242907142Y-178285912D01*
X244407142Y-178285912D02*
X244407142Y-177285912D01*
X244407142Y-176785912D02*
X244335714Y-176857341D01*
X244335714Y-176857341D02*
X244407142Y-176928769D01*
X244407142Y-176928769D02*
X244478571Y-176857341D01*
X244478571Y-176857341D02*
X244407142Y-176785912D01*
X244407142Y-176785912D02*
X244407142Y-176928769D01*
X245764286Y-178285912D02*
X245764286Y-177500198D01*
X245764286Y-177500198D02*
X245692857Y-177357341D01*
X245692857Y-177357341D02*
X245550000Y-177285912D01*
X245550000Y-177285912D02*
X245264286Y-177285912D01*
X245264286Y-177285912D02*
X245121428Y-177357341D01*
X245764286Y-178214484D02*
X245621428Y-178285912D01*
X245621428Y-178285912D02*
X245264286Y-178285912D01*
X245264286Y-178285912D02*
X245121428Y-178214484D01*
X245121428Y-178214484D02*
X245050000Y-178071626D01*
X245050000Y-178071626D02*
X245050000Y-177928769D01*
X245050000Y-177928769D02*
X245121428Y-177785912D01*
X245121428Y-177785912D02*
X245264286Y-177714484D01*
X245264286Y-177714484D02*
X245621428Y-177714484D01*
X245621428Y-177714484D02*
X245764286Y-177643055D01*
X247121429Y-178285912D02*
X247121429Y-177500198D01*
X247121429Y-177500198D02*
X247050000Y-177357341D01*
X247050000Y-177357341D02*
X246907143Y-177285912D01*
X246907143Y-177285912D02*
X246621429Y-177285912D01*
X246621429Y-177285912D02*
X246478571Y-177357341D01*
X247121429Y-178214484D02*
X246978571Y-178285912D01*
X246978571Y-178285912D02*
X246621429Y-178285912D01*
X246621429Y-178285912D02*
X246478571Y-178214484D01*
X246478571Y-178214484D02*
X246407143Y-178071626D01*
X246407143Y-178071626D02*
X246407143Y-177928769D01*
X246407143Y-177928769D02*
X246478571Y-177785912D01*
X246478571Y-177785912D02*
X246621429Y-177714484D01*
X246621429Y-177714484D02*
X246978571Y-177714484D01*
X246978571Y-177714484D02*
X247121429Y-177643055D01*
X231371427Y-180700828D02*
X231371427Y-179200828D01*
X231371427Y-179200828D02*
X231871427Y-180272257D01*
X231871427Y-180272257D02*
X232371427Y-179200828D01*
X232371427Y-179200828D02*
X232371427Y-180700828D01*
X233728571Y-179700828D02*
X233728571Y-180700828D01*
X233085713Y-179700828D02*
X233085713Y-180486542D01*
X233085713Y-180486542D02*
X233157142Y-180629400D01*
X233157142Y-180629400D02*
X233299999Y-180700828D01*
X233299999Y-180700828D02*
X233514285Y-180700828D01*
X233514285Y-180700828D02*
X233657142Y-180629400D01*
X233657142Y-180629400D02*
X233728571Y-180557971D01*
X234442856Y-180700828D02*
X234442856Y-179200828D01*
X235085714Y-180700828D02*
X235085714Y-179915114D01*
X235085714Y-179915114D02*
X235014285Y-179772257D01*
X235014285Y-179772257D02*
X234871428Y-179700828D01*
X234871428Y-179700828D02*
X234657142Y-179700828D01*
X234657142Y-179700828D02*
X234514285Y-179772257D01*
X234514285Y-179772257D02*
X234442856Y-179843685D01*
X236442857Y-180700828D02*
X236442857Y-179915114D01*
X236442857Y-179915114D02*
X236371428Y-179772257D01*
X236371428Y-179772257D02*
X236228571Y-179700828D01*
X236228571Y-179700828D02*
X235942857Y-179700828D01*
X235942857Y-179700828D02*
X235799999Y-179772257D01*
X236442857Y-180629400D02*
X236299999Y-180700828D01*
X236299999Y-180700828D02*
X235942857Y-180700828D01*
X235942857Y-180700828D02*
X235799999Y-180629400D01*
X235799999Y-180629400D02*
X235728571Y-180486542D01*
X235728571Y-180486542D02*
X235728571Y-180343685D01*
X235728571Y-180343685D02*
X235799999Y-180200828D01*
X235799999Y-180200828D02*
X235942857Y-180129400D01*
X235942857Y-180129400D02*
X236299999Y-180129400D01*
X236299999Y-180129400D02*
X236442857Y-180057971D01*
X237157142Y-180700828D02*
X237157142Y-179700828D01*
X237157142Y-179843685D02*
X237228571Y-179772257D01*
X237228571Y-179772257D02*
X237371428Y-179700828D01*
X237371428Y-179700828D02*
X237585714Y-179700828D01*
X237585714Y-179700828D02*
X237728571Y-179772257D01*
X237728571Y-179772257D02*
X237800000Y-179915114D01*
X237800000Y-179915114D02*
X237800000Y-180700828D01*
X237800000Y-179915114D02*
X237871428Y-179772257D01*
X237871428Y-179772257D02*
X238014285Y-179700828D01*
X238014285Y-179700828D02*
X238228571Y-179700828D01*
X238228571Y-179700828D02*
X238371428Y-179772257D01*
X238371428Y-179772257D02*
X238442857Y-179915114D01*
X238442857Y-179915114D02*
X238442857Y-180700828D01*
X239157142Y-180700828D02*
X239157142Y-179700828D01*
X239157142Y-179843685D02*
X239228571Y-179772257D01*
X239228571Y-179772257D02*
X239371428Y-179700828D01*
X239371428Y-179700828D02*
X239585714Y-179700828D01*
X239585714Y-179700828D02*
X239728571Y-179772257D01*
X239728571Y-179772257D02*
X239800000Y-179915114D01*
X239800000Y-179915114D02*
X239800000Y-180700828D01*
X239800000Y-179915114D02*
X239871428Y-179772257D01*
X239871428Y-179772257D02*
X240014285Y-179700828D01*
X240014285Y-179700828D02*
X240228571Y-179700828D01*
X240228571Y-179700828D02*
X240371428Y-179772257D01*
X240371428Y-179772257D02*
X240442857Y-179915114D01*
X240442857Y-179915114D02*
X240442857Y-180700828D01*
X241800000Y-180700828D02*
X241800000Y-179915114D01*
X241800000Y-179915114D02*
X241728571Y-179772257D01*
X241728571Y-179772257D02*
X241585714Y-179700828D01*
X241585714Y-179700828D02*
X241300000Y-179700828D01*
X241300000Y-179700828D02*
X241157142Y-179772257D01*
X241800000Y-180629400D02*
X241657142Y-180700828D01*
X241657142Y-180700828D02*
X241300000Y-180700828D01*
X241300000Y-180700828D02*
X241157142Y-180629400D01*
X241157142Y-180629400D02*
X241085714Y-180486542D01*
X241085714Y-180486542D02*
X241085714Y-180343685D01*
X241085714Y-180343685D02*
X241157142Y-180200828D01*
X241157142Y-180200828D02*
X241300000Y-180129400D01*
X241300000Y-180129400D02*
X241657142Y-180129400D01*
X241657142Y-180129400D02*
X241800000Y-180057971D01*
X243157143Y-180700828D02*
X243157143Y-179200828D01*
X243157143Y-180629400D02*
X243014285Y-180700828D01*
X243014285Y-180700828D02*
X242728571Y-180700828D01*
X242728571Y-180700828D02*
X242585714Y-180629400D01*
X242585714Y-180629400D02*
X242514285Y-180557971D01*
X242514285Y-180557971D02*
X242442857Y-180415114D01*
X242442857Y-180415114D02*
X242442857Y-179986542D01*
X242442857Y-179986542D02*
X242514285Y-179843685D01*
X242514285Y-179843685D02*
X242585714Y-179772257D01*
X242585714Y-179772257D02*
X242728571Y-179700828D01*
X242728571Y-179700828D02*
X243014285Y-179700828D01*
X243014285Y-179700828D02*
X243157143Y-179772257D01*
X244871428Y-179200828D02*
X245228571Y-180700828D01*
X245228571Y-180700828D02*
X245514285Y-179629400D01*
X245514285Y-179629400D02*
X245800000Y-180700828D01*
X245800000Y-180700828D02*
X246157143Y-179200828D01*
X247371429Y-180700828D02*
X247371429Y-179915114D01*
X247371429Y-179915114D02*
X247300000Y-179772257D01*
X247300000Y-179772257D02*
X247157143Y-179700828D01*
X247157143Y-179700828D02*
X246871429Y-179700828D01*
X246871429Y-179700828D02*
X246728571Y-179772257D01*
X247371429Y-180629400D02*
X247228571Y-180700828D01*
X247228571Y-180700828D02*
X246871429Y-180700828D01*
X246871429Y-180700828D02*
X246728571Y-180629400D01*
X246728571Y-180629400D02*
X246657143Y-180486542D01*
X246657143Y-180486542D02*
X246657143Y-180343685D01*
X246657143Y-180343685D02*
X246728571Y-180200828D01*
X246728571Y-180200828D02*
X246871429Y-180129400D01*
X246871429Y-180129400D02*
X247228571Y-180129400D01*
X247228571Y-180129400D02*
X247371429Y-180057971D01*
X248300000Y-180700828D02*
X248157143Y-180629400D01*
X248157143Y-180629400D02*
X248085714Y-180486542D01*
X248085714Y-180486542D02*
X248085714Y-179200828D01*
X248871428Y-180700828D02*
X248871428Y-179700828D01*
X248871428Y-179200828D02*
X248800000Y-179272257D01*
X248800000Y-179272257D02*
X248871428Y-179343685D01*
X248871428Y-179343685D02*
X248942857Y-179272257D01*
X248942857Y-179272257D02*
X248871428Y-179200828D01*
X248871428Y-179200828D02*
X248871428Y-179343685D01*
X250228572Y-180700828D02*
X250228572Y-179200828D01*
X250228572Y-180629400D02*
X250085714Y-180700828D01*
X250085714Y-180700828D02*
X249800000Y-180700828D01*
X249800000Y-180700828D02*
X249657143Y-180629400D01*
X249657143Y-180629400D02*
X249585714Y-180557971D01*
X249585714Y-180557971D02*
X249514286Y-180415114D01*
X249514286Y-180415114D02*
X249514286Y-179986542D01*
X249514286Y-179986542D02*
X249585714Y-179843685D01*
X249585714Y-179843685D02*
X249657143Y-179772257D01*
X249657143Y-179772257D02*
X249800000Y-179700828D01*
X249800000Y-179700828D02*
X250085714Y-179700828D01*
X250085714Y-179700828D02*
X250228572Y-179772257D01*
D10*
D11*
X38399171Y-115557141D02*
X37184885Y-115557141D01*
X37184885Y-115557141D02*
X37042028Y-115628570D01*
X37042028Y-115628570D02*
X36970600Y-115699999D01*
X36970600Y-115699999D02*
X36899171Y-115842856D01*
X36899171Y-115842856D02*
X36899171Y-116128570D01*
X36899171Y-116128570D02*
X36970600Y-116271427D01*
X36970600Y-116271427D02*
X37042028Y-116342856D01*
X37042028Y-116342856D02*
X37184885Y-116414284D01*
X37184885Y-116414284D02*
X38399171Y-116414284D01*
X36899171Y-117128570D02*
X38399171Y-117128570D01*
X38399171Y-117128570D02*
X38399171Y-117699999D01*
X38399171Y-117699999D02*
X38327742Y-117842856D01*
X38327742Y-117842856D02*
X38256314Y-117914285D01*
X38256314Y-117914285D02*
X38113457Y-117985713D01*
X38113457Y-117985713D02*
X37899171Y-117985713D01*
X37899171Y-117985713D02*
X37756314Y-117914285D01*
X37756314Y-117914285D02*
X37684885Y-117842856D01*
X37684885Y-117842856D02*
X37613457Y-117699999D01*
X37613457Y-117699999D02*
X37613457Y-117128570D01*
X38470600Y-119699999D02*
X36542028Y-118414285D01*
X36899171Y-120199999D02*
X38399171Y-120199999D01*
X38399171Y-120199999D02*
X38399171Y-120557142D01*
X38399171Y-120557142D02*
X38327742Y-120771428D01*
X38327742Y-120771428D02*
X38184885Y-120914285D01*
X38184885Y-120914285D02*
X38042028Y-120985714D01*
X38042028Y-120985714D02*
X37756314Y-121057142D01*
X37756314Y-121057142D02*
X37542028Y-121057142D01*
X37542028Y-121057142D02*
X37256314Y-120985714D01*
X37256314Y-120985714D02*
X37113457Y-120914285D01*
X37113457Y-120914285D02*
X36970600Y-120771428D01*
X36970600Y-120771428D02*
X36899171Y-120557142D01*
X36899171Y-120557142D02*
X36899171Y-120199999D01*
X38399171Y-121985714D02*
X38399171Y-122271428D01*
X38399171Y-122271428D02*
X38327742Y-122414285D01*
X38327742Y-122414285D02*
X38184885Y-122557142D01*
X38184885Y-122557142D02*
X37899171Y-122628571D01*
X37899171Y-122628571D02*
X37399171Y-122628571D01*
X37399171Y-122628571D02*
X37113457Y-122557142D01*
X37113457Y-122557142D02*
X36970600Y-122414285D01*
X36970600Y-122414285D02*
X36899171Y-122271428D01*
X36899171Y-122271428D02*
X36899171Y-121985714D01*
X36899171Y-121985714D02*
X36970600Y-121842857D01*
X36970600Y-121842857D02*
X37113457Y-121699999D01*
X37113457Y-121699999D02*
X37399171Y-121628571D01*
X37399171Y-121628571D02*
X37899171Y-121628571D01*
X37899171Y-121628571D02*
X38184885Y-121699999D01*
X38184885Y-121699999D02*
X38327742Y-121842857D01*
X38327742Y-121842857D02*
X38399171Y-121985714D01*
X38399171Y-123128571D02*
X36899171Y-123485714D01*
X36899171Y-123485714D02*
X37970600Y-123771428D01*
X37970600Y-123771428D02*
X36899171Y-124057143D01*
X36899171Y-124057143D02*
X38399171Y-124414286D01*
X36899171Y-124985714D02*
X38399171Y-124985714D01*
X38399171Y-124985714D02*
X36899171Y-125842857D01*
X36899171Y-125842857D02*
X38399171Y-125842857D01*
D10*
D11*
X41370600Y-148500000D02*
X41299171Y-148714286D01*
X41299171Y-148714286D02*
X41299171Y-149071428D01*
X41299171Y-149071428D02*
X41370600Y-149214286D01*
X41370600Y-149214286D02*
X41442028Y-149285714D01*
X41442028Y-149285714D02*
X41584885Y-149357143D01*
X41584885Y-149357143D02*
X41727742Y-149357143D01*
X41727742Y-149357143D02*
X41870600Y-149285714D01*
X41870600Y-149285714D02*
X41942028Y-149214286D01*
X41942028Y-149214286D02*
X42013457Y-149071428D01*
X42013457Y-149071428D02*
X42084885Y-148785714D01*
X42084885Y-148785714D02*
X42156314Y-148642857D01*
X42156314Y-148642857D02*
X42227742Y-148571428D01*
X42227742Y-148571428D02*
X42370600Y-148500000D01*
X42370600Y-148500000D02*
X42513457Y-148500000D01*
X42513457Y-148500000D02*
X42656314Y-148571428D01*
X42656314Y-148571428D02*
X42727742Y-148642857D01*
X42727742Y-148642857D02*
X42799171Y-148785714D01*
X42799171Y-148785714D02*
X42799171Y-149142857D01*
X42799171Y-149142857D02*
X42727742Y-149357143D01*
X41370600Y-150571428D02*
X41299171Y-150428571D01*
X41299171Y-150428571D02*
X41299171Y-150142857D01*
X41299171Y-150142857D02*
X41370600Y-149999999D01*
X41370600Y-149999999D02*
X41513457Y-149928571D01*
X41513457Y-149928571D02*
X42084885Y-149928571D01*
X42084885Y-149928571D02*
X42227742Y-149999999D01*
X42227742Y-149999999D02*
X42299171Y-150142857D01*
X42299171Y-150142857D02*
X42299171Y-150428571D01*
X42299171Y-150428571D02*
X42227742Y-150571428D01*
X42227742Y-150571428D02*
X42084885Y-150642857D01*
X42084885Y-150642857D02*
X41942028Y-150642857D01*
X41942028Y-150642857D02*
X41799171Y-149928571D01*
X42299171Y-151071428D02*
X42299171Y-151642856D01*
X42799171Y-151285713D02*
X41513457Y-151285713D01*
X41513457Y-151285713D02*
X41370600Y-151357142D01*
X41370600Y-151357142D02*
X41299171Y-151499999D01*
X41299171Y-151499999D02*
X41299171Y-151642856D01*
D10*
D11*
X36899171Y-55092856D02*
X38399171Y-55092856D01*
X38399171Y-55092856D02*
X37327742Y-55592856D01*
X37327742Y-55592856D02*
X38399171Y-56092856D01*
X38399171Y-56092856D02*
X36899171Y-56092856D01*
X36899171Y-56807142D02*
X37899171Y-56807142D01*
X38399171Y-56807142D02*
X38327742Y-56735714D01*
X38327742Y-56735714D02*
X38256314Y-56807142D01*
X38256314Y-56807142D02*
X38327742Y-56878571D01*
X38327742Y-56878571D02*
X38399171Y-56807142D01*
X38399171Y-56807142D02*
X38256314Y-56807142D01*
X37899171Y-57521428D02*
X36899171Y-57521428D01*
X37756314Y-57521428D02*
X37827742Y-57592857D01*
X37827742Y-57592857D02*
X37899171Y-57735714D01*
X37899171Y-57735714D02*
X37899171Y-57950000D01*
X37899171Y-57950000D02*
X37827742Y-58092857D01*
X37827742Y-58092857D02*
X37684885Y-58164286D01*
X37684885Y-58164286D02*
X36899171Y-58164286D01*
X37899171Y-59521429D02*
X36899171Y-59521429D01*
X37899171Y-58878571D02*
X37113457Y-58878571D01*
X37113457Y-58878571D02*
X36970600Y-58950000D01*
X36970600Y-58950000D02*
X36899171Y-59092857D01*
X36899171Y-59092857D02*
X36899171Y-59307143D01*
X36899171Y-59307143D02*
X36970600Y-59450000D01*
X36970600Y-59450000D02*
X37042028Y-59521429D01*
X37899171Y-60021429D02*
X37899171Y-60592857D01*
X38399171Y-60235714D02*
X37113457Y-60235714D01*
X37113457Y-60235714D02*
X36970600Y-60307143D01*
X36970600Y-60307143D02*
X36899171Y-60450000D01*
X36899171Y-60450000D02*
X36899171Y-60592857D01*
X36970600Y-61664286D02*
X36899171Y-61521429D01*
X36899171Y-61521429D02*
X36899171Y-61235715D01*
X36899171Y-61235715D02*
X36970600Y-61092857D01*
X36970600Y-61092857D02*
X37113457Y-61021429D01*
X37113457Y-61021429D02*
X37684885Y-61021429D01*
X37684885Y-61021429D02*
X37827742Y-61092857D01*
X37827742Y-61092857D02*
X37899171Y-61235715D01*
X37899171Y-61235715D02*
X37899171Y-61521429D01*
X37899171Y-61521429D02*
X37827742Y-61664286D01*
X37827742Y-61664286D02*
X37684885Y-61735715D01*
X37684885Y-61735715D02*
X37542028Y-61735715D01*
X37542028Y-61735715D02*
X37399171Y-61021429D01*
X36970600Y-62307143D02*
X36899171Y-62450000D01*
X36899171Y-62450000D02*
X36899171Y-62735714D01*
X36899171Y-62735714D02*
X36970600Y-62878571D01*
X36970600Y-62878571D02*
X37113457Y-62950000D01*
X37113457Y-62950000D02*
X37184885Y-62950000D01*
X37184885Y-62950000D02*
X37327742Y-62878571D01*
X37327742Y-62878571D02*
X37399171Y-62735714D01*
X37399171Y-62735714D02*
X37399171Y-62521429D01*
X37399171Y-62521429D02*
X37470600Y-62378571D01*
X37470600Y-62378571D02*
X37613457Y-62307143D01*
X37613457Y-62307143D02*
X37684885Y-62307143D01*
X37684885Y-62307143D02*
X37827742Y-62378571D01*
X37827742Y-62378571D02*
X37899171Y-62521429D01*
X37899171Y-62521429D02*
X37899171Y-62735714D01*
X37899171Y-62735714D02*
X37827742Y-62878571D01*
X36756314Y-63235715D02*
X36756314Y-64378572D01*
X36899171Y-64735714D02*
X38399171Y-64735714D01*
X36899171Y-65450000D02*
X38399171Y-65450000D01*
X38399171Y-65450000D02*
X36899171Y-66307143D01*
X36899171Y-66307143D02*
X38399171Y-66307143D01*
D10*
D11*
X37070600Y-94428571D02*
X36999171Y-94642857D01*
X36999171Y-94642857D02*
X36999171Y-94999999D01*
X36999171Y-94999999D02*
X37070600Y-95142857D01*
X37070600Y-95142857D02*
X37142028Y-95214285D01*
X37142028Y-95214285D02*
X37284885Y-95285714D01*
X37284885Y-95285714D02*
X37427742Y-95285714D01*
X37427742Y-95285714D02*
X37570600Y-95214285D01*
X37570600Y-95214285D02*
X37642028Y-95142857D01*
X37642028Y-95142857D02*
X37713457Y-94999999D01*
X37713457Y-94999999D02*
X37784885Y-94714285D01*
X37784885Y-94714285D02*
X37856314Y-94571428D01*
X37856314Y-94571428D02*
X37927742Y-94499999D01*
X37927742Y-94499999D02*
X38070600Y-94428571D01*
X38070600Y-94428571D02*
X38213457Y-94428571D01*
X38213457Y-94428571D02*
X38356314Y-94499999D01*
X38356314Y-94499999D02*
X38427742Y-94571428D01*
X38427742Y-94571428D02*
X38499171Y-94714285D01*
X38499171Y-94714285D02*
X38499171Y-95071428D01*
X38499171Y-95071428D02*
X38427742Y-95285714D01*
X37070600Y-96499999D02*
X36999171Y-96357142D01*
X36999171Y-96357142D02*
X36999171Y-96071428D01*
X36999171Y-96071428D02*
X37070600Y-95928570D01*
X37070600Y-95928570D02*
X37213457Y-95857142D01*
X37213457Y-95857142D02*
X37784885Y-95857142D01*
X37784885Y-95857142D02*
X37927742Y-95928570D01*
X37927742Y-95928570D02*
X37999171Y-96071428D01*
X37999171Y-96071428D02*
X37999171Y-96357142D01*
X37999171Y-96357142D02*
X37927742Y-96499999D01*
X37927742Y-96499999D02*
X37784885Y-96571428D01*
X37784885Y-96571428D02*
X37642028Y-96571428D01*
X37642028Y-96571428D02*
X37499171Y-95857142D01*
X37070600Y-97857142D02*
X36999171Y-97714284D01*
X36999171Y-97714284D02*
X36999171Y-97428570D01*
X36999171Y-97428570D02*
X37070600Y-97285713D01*
X37070600Y-97285713D02*
X37142028Y-97214284D01*
X37142028Y-97214284D02*
X37284885Y-97142856D01*
X37284885Y-97142856D02*
X37713457Y-97142856D01*
X37713457Y-97142856D02*
X37856314Y-97214284D01*
X37856314Y-97214284D02*
X37927742Y-97285713D01*
X37927742Y-97285713D02*
X37999171Y-97428570D01*
X37999171Y-97428570D02*
X37999171Y-97714284D01*
X37999171Y-97714284D02*
X37927742Y-97857142D01*
X36999171Y-98714284D02*
X37070600Y-98571427D01*
X37070600Y-98571427D02*
X37142028Y-98499998D01*
X37142028Y-98499998D02*
X37284885Y-98428570D01*
X37284885Y-98428570D02*
X37713457Y-98428570D01*
X37713457Y-98428570D02*
X37856314Y-98499998D01*
X37856314Y-98499998D02*
X37927742Y-98571427D01*
X37927742Y-98571427D02*
X37999171Y-98714284D01*
X37999171Y-98714284D02*
X37999171Y-98928570D01*
X37999171Y-98928570D02*
X37927742Y-99071427D01*
X37927742Y-99071427D02*
X37856314Y-99142856D01*
X37856314Y-99142856D02*
X37713457Y-99214284D01*
X37713457Y-99214284D02*
X37284885Y-99214284D01*
X37284885Y-99214284D02*
X37142028Y-99142856D01*
X37142028Y-99142856D02*
X37070600Y-99071427D01*
X37070600Y-99071427D02*
X36999171Y-98928570D01*
X36999171Y-98928570D02*
X36999171Y-98714284D01*
X37999171Y-99857141D02*
X36999171Y-99857141D01*
X37856314Y-99857141D02*
X37927742Y-99928570D01*
X37927742Y-99928570D02*
X37999171Y-100071427D01*
X37999171Y-100071427D02*
X37999171Y-100285713D01*
X37999171Y-100285713D02*
X37927742Y-100428570D01*
X37927742Y-100428570D02*
X37784885Y-100499999D01*
X37784885Y-100499999D02*
X36999171Y-100499999D01*
X36999171Y-101857142D02*
X38499171Y-101857142D01*
X37070600Y-101857142D02*
X36999171Y-101714284D01*
X36999171Y-101714284D02*
X36999171Y-101428570D01*
X36999171Y-101428570D02*
X37070600Y-101285713D01*
X37070600Y-101285713D02*
X37142028Y-101214284D01*
X37142028Y-101214284D02*
X37284885Y-101142856D01*
X37284885Y-101142856D02*
X37713457Y-101142856D01*
X37713457Y-101142856D02*
X37856314Y-101214284D01*
X37856314Y-101214284D02*
X37927742Y-101285713D01*
X37927742Y-101285713D02*
X37999171Y-101428570D01*
X37999171Y-101428570D02*
X37999171Y-101714284D01*
X37999171Y-101714284D02*
X37927742Y-101857142D01*
X37070600Y-102499999D02*
X36999171Y-102642856D01*
X36999171Y-102642856D02*
X36999171Y-102928570D01*
X36999171Y-102928570D02*
X37070600Y-103071427D01*
X37070600Y-103071427D02*
X37213457Y-103142856D01*
X37213457Y-103142856D02*
X37284885Y-103142856D01*
X37284885Y-103142856D02*
X37427742Y-103071427D01*
X37427742Y-103071427D02*
X37499171Y-102928570D01*
X37499171Y-102928570D02*
X37499171Y-102714285D01*
X37499171Y-102714285D02*
X37570600Y-102571427D01*
X37570600Y-102571427D02*
X37713457Y-102499999D01*
X37713457Y-102499999D02*
X37784885Y-102499999D01*
X37784885Y-102499999D02*
X37927742Y-102571427D01*
X37927742Y-102571427D02*
X37999171Y-102714285D01*
X37999171Y-102714285D02*
X37999171Y-102928570D01*
X37999171Y-102928570D02*
X37927742Y-103071427D01*
X36856314Y-103428571D02*
X36856314Y-104571428D01*
X36999171Y-104928570D02*
X38499171Y-104928570D01*
X36999171Y-105642856D02*
X38499171Y-105642856D01*
X38499171Y-105642856D02*
X36999171Y-106499999D01*
X36999171Y-106499999D02*
X38499171Y-106499999D01*
D12*
%TO.P,R46,1*%
%TO.N,Net-(MU1-B)*%
X55190000Y-79278800D03*
%TO.P,R46,2*%
%TO.N,GND*%
X65350000Y-79278800D03*
%TD*%
%TO.P,R24,1*%
%TO.N,Net-(U7-g)*%
X219830000Y-126100000D03*
%TO.P,R24,2*%
%TO.N,Net-(AFF3-g)*%
X227450000Y-126100000D03*
%TD*%
%TO.P,R40,1*%
%TO.N,Net-(MT1-D)*%
X55190000Y-51850000D03*
%TO.P,R40,2*%
%TO.N,GND*%
X65350000Y-51850000D03*
%TD*%
D13*
%TO.P,AFF4,1,e*%
%TO.N,Net-(AFF4-e)*%
X247802400Y-141833600D03*
D14*
%TO.P,AFF4,2,d*%
%TO.N,Net-(AFF4-d)*%
X247802400Y-144373600D03*
%TO.P,AFF4,3,C.A.*%
%TO.N,+5V*%
X247802400Y-146913600D03*
%TO.P,AFF4,4,c*%
%TO.N,Net-(AFF4-c)*%
X247802400Y-149453600D03*
%TO.P,AFF4,5,DP*%
%TO.N,+5V*%
X247802400Y-151993600D03*
%TO.P,AFF4,6,b*%
%TO.N,Net-(AFF4-b)*%
X263042400Y-151993600D03*
%TO.P,AFF4,7,a*%
%TO.N,Net-(AFF4-a)*%
X263042400Y-149453600D03*
%TO.P,AFF4,8,C.A.*%
%TO.N,+5V*%
X263042400Y-146913600D03*
%TO.P,AFF4,9,f*%
%TO.N,Net-(AFF4-f)*%
X263042400Y-144373600D03*
%TO.P,AFF4,10,g*%
%TO.N,Net-(AFF4-g)*%
X263042400Y-141833600D03*
%TD*%
D12*
%TO.P,R25,1*%
%TO.N,Net-(U9-a)*%
X220120000Y-165950000D03*
%TO.P,R25,2*%
%TO.N,Net-(AFF4-a)*%
X227740000Y-165950000D03*
%TD*%
%TO.P,R29,1*%
%TO.N,Net-(U9-e)*%
X220080000Y-181950000D03*
%TO.P,R29,2*%
%TO.N,Net-(AFF4-e)*%
X227700000Y-181950000D03*
%TD*%
D15*
%TO.P,S4,1*%
%TO.N,+5V*%
X45900000Y-134600000D03*
%TO.P,S4,2*%
%TO.N,Net-(U20-3A)*%
X50900000Y-134600000D03*
%TD*%
D16*
%TO.P,MU1,1,B*%
%TO.N,Net-(MU1-B)*%
X121280000Y-86300000D03*
D12*
%TO.P,MU1,2,QB*%
%TO.N,Net-(MU1-QB)*%
X121280000Y-88840000D03*
%TO.P,MU1,3,QA*%
%TO.N,Net-(MU1-QA)*%
X121280000Y-91380000D03*
%TO.P,MU1,4,DOWN*%
%TO.N,Net-(MU1-DOWN)*%
X121280000Y-93920000D03*
%TO.P,MU1,5,UP*%
%TO.N,Net-(MU1-UP)*%
X121280000Y-96460000D03*
%TO.P,MU1,6,QC*%
%TO.N,Net-(MU1-QC)*%
X121280000Y-99000000D03*
%TO.P,MU1,7,QD*%
%TO.N,Net-(MU1-QD)*%
X121280000Y-101540000D03*
%TO.P,MU1,8,GND*%
%TO.N,GND*%
X121280000Y-104080000D03*
%TO.P,MU1,9,D*%
%TO.N,Net-(MU1-D)*%
X128900000Y-104080000D03*
%TO.P,MU1,10,C*%
%TO.N,Net-(MU1-C)*%
X128900000Y-101540000D03*
%TO.P,MU1,11,~{LOAD}*%
%TO.N,Net-(MT1-~{LOAD})*%
X128900000Y-99000000D03*
%TO.P,MU1,12,~{CO}*%
%TO.N,Net-(MT1-UP)*%
X128900000Y-96460000D03*
%TO.P,MU1,13,~{BO}*%
%TO.N,Net-(MT1-DOWN)*%
X128900000Y-93920000D03*
%TO.P,MU1,14,CLR*%
%TO.N,Net-(MT1-CLR)*%
X128900000Y-91380000D03*
%TO.P,MU1,15,A*%
%TO.N,Net-(MU1-A)*%
X128900000Y-88840000D03*
%TO.P,MU1,16,VCC*%
%TO.N,+5V*%
X128900000Y-86300000D03*
%TD*%
D17*
%TO.P,J3,1,Pin_1*%
%TO.N,+5V*%
X61375000Y-180175000D03*
D18*
%TO.P,J3,2,Pin_2*%
%TO.N,GND*%
X63915000Y-180175000D03*
%TO.P,J3,3,Pin_3*%
%TO.N,unconnected-(J3-Pin_3-Pad3)*%
X66455000Y-180175000D03*
%TO.P,J3,4,Pin_4*%
%TO.N,+5V*%
X68995000Y-180175000D03*
%TO.P,J3,5,Pin_5*%
%TO.N,Net-(J3-Pin_5)*%
X71535000Y-180175000D03*
%TO.P,J3,6,Pin_6*%
%TO.N,GND*%
X74075000Y-180175000D03*
%TD*%
D16*
%TO.P,SW1,1*%
%TO.N,+5V*%
X26000000Y-91600000D03*
D12*
%TO.P,SW1,2*%
X26000000Y-94140000D03*
%TO.P,SW1,3*%
X26000000Y-96680000D03*
%TO.P,SW1,4*%
X26000000Y-99220000D03*
%TO.P,SW1,5*%
X26000000Y-101760000D03*
%TO.P,SW1,6*%
X26000000Y-104300000D03*
%TO.P,SW1,7*%
X26000000Y-106840000D03*
%TO.P,SW1,8*%
X26000000Y-109380000D03*
%TO.P,SW1,9*%
%TO.N,Net-(SU1-A)*%
X33620000Y-109380000D03*
%TO.P,SW1,10*%
%TO.N,Net-(SU1-B)*%
X33620000Y-106840000D03*
%TO.P,SW1,11*%
%TO.N,Net-(SU1-C)*%
X33620000Y-104300000D03*
%TO.P,SW1,12*%
%TO.N,Net-(SU1-D)*%
X33620000Y-101760000D03*
%TO.P,SW1,13*%
%TO.N,Net-(U10-I0a)*%
X33620000Y-99220000D03*
%TO.P,SW1,14*%
%TO.N,Net-(U10-I0b)*%
X33620000Y-96680000D03*
%TO.P,SW1,15*%
%TO.N,Net-(U10-I0c)*%
X33620000Y-94140000D03*
%TO.P,SW1,16*%
%TO.N,Net-(U10-I0d)*%
X33620000Y-91600000D03*
%TD*%
%TO.P,R_Mode1,1*%
%TO.N,Net-(U11-3A)*%
X74000000Y-145550000D03*
%TO.P,R_Mode1,2*%
%TO.N,GND*%
X66380000Y-145550000D03*
%TD*%
%TO.P,R14,1*%
%TO.N,Net-(U4-d)*%
X219804600Y-106024800D03*
%TO.P,R14,2*%
%TO.N,Net-(AFF2-d)*%
X227424600Y-106024800D03*
%TD*%
%TO.P,R18,1*%
%TO.N,Net-(U7-a)*%
X219753800Y-130982000D03*
%TO.P,R18,2*%
%TO.N,Net-(AFF3-a)*%
X227373800Y-130982000D03*
%TD*%
%TO.P,R39,1*%
%TO.N,Net-(U1-OUT)*%
X66380000Y-155950000D03*
%TO.P,R39,2*%
%TO.N,Net-(U20-1A)*%
X74000000Y-155950000D03*
%TD*%
%TO.P,R49,1*%
%TO.N,Net-(U20-3A)*%
X74000000Y-134450000D03*
%TO.P,R49,2*%
%TO.N,GND*%
X66380000Y-134450000D03*
%TD*%
%TO.P,R47,1*%
%TO.N,Net-(MU1-A)*%
X55540000Y-83850300D03*
%TO.P,R47,2*%
%TO.N,GND*%
X65700000Y-83850300D03*
%TD*%
%TO.P,R16,1*%
%TO.N,Net-(U4-f)*%
X219830000Y-85950000D03*
%TO.P,R16,2*%
%TO.N,Net-(AFF2-f)*%
X227450000Y-85950000D03*
%TD*%
%TO.P,R33,1*%
%TO.N,Net-(U10-I0b)*%
X55500000Y-100758400D03*
%TO.P,R33,2*%
%TO.N,GND*%
X65660000Y-100758400D03*
%TD*%
%TO.P,R26,1*%
%TO.N,Net-(U9-b)*%
X220120000Y-169950000D03*
%TO.P,R26,2*%
%TO.N,Net-(AFF4-b)*%
X227740000Y-169950000D03*
%TD*%
D19*
%TO.P,U23,1,1A*%
%TO.N,Net-(U11-2A)*%
X107200000Y-96530000D03*
D12*
%TO.P,U23,2,1B*%
%TO.N,Net-(MT1-CLR)*%
X104660000Y-96530000D03*
%TO.P,U23,3,1Y*%
%TO.N,Net-(ST1-CLR)*%
X102120000Y-96530000D03*
%TO.P,U23,4,2A*%
%TO.N,unconnected-(U23-2A-Pad4)*%
X99580000Y-96530000D03*
%TO.P,U23,5,2B*%
%TO.N,unconnected-(U23-2B-Pad5)*%
X97040000Y-96530000D03*
%TO.P,U23,6,2Y*%
%TO.N,unconnected-(U23-2Y-Pad6)*%
X94500000Y-96530000D03*
%TO.P,U23,7,GND*%
%TO.N,GND*%
X91960000Y-96530000D03*
%TO.P,U23,8,3Y*%
%TO.N,unconnected-(U23-3Y-Pad8)*%
X91960000Y-104150000D03*
%TO.P,U23,9,3A*%
%TO.N,unconnected-(U23-3A-Pad9)*%
X94500000Y-104150000D03*
%TO.P,U23,10,3B*%
%TO.N,unconnected-(U23-3B-Pad10)*%
X97040000Y-104150000D03*
%TO.P,U23,11,4Y*%
%TO.N,unconnected-(U23-4Y-Pad11)*%
X99580000Y-104150000D03*
%TO.P,U23,12,4A*%
%TO.N,unconnected-(U23-4A-Pad12)*%
X102120000Y-104150000D03*
%TO.P,U23,13,4B*%
%TO.N,unconnected-(U23-4B-Pad13)*%
X104660000Y-104150000D03*
%TO.P,U23,14,VCC*%
%TO.N,unconnected-(U23-VCC-Pad14)*%
X107200000Y-104150000D03*
%TD*%
%TO.P,R4_Timer1,1*%
%TO.N,Net-(R3_Timer1-Pad2)*%
X32900000Y-137850000D03*
%TO.P,R4_Timer1,2*%
%TO.N,Net-(R4_Timer1-Pad2)*%
X32900000Y-145470000D03*
%TD*%
%TO.P,R36,1*%
%TO.N,Net-(SU1-C)*%
X55508800Y-114437100D03*
%TO.P,R36,2*%
%TO.N,GND*%
X65668800Y-114437100D03*
%TD*%
D15*
%TO.P,S3,1*%
%TO.N,GND*%
X45900000Y-149850000D03*
%TO.P,S3,2*%
%TO.N,Net-(MT1-~{LOAD})*%
X50900000Y-149850000D03*
%TD*%
D12*
%TO.P,R34,1*%
%TO.N,Net-(U10-I0a)*%
X55500000Y-105318000D03*
%TO.P,R34,2*%
%TO.N,GND*%
X65660000Y-105318000D03*
%TD*%
D16*
%TO.P,SW3,1*%
%TO.N,+5V*%
X25930000Y-51750000D03*
D12*
%TO.P,SW3,2*%
X25930000Y-54290000D03*
%TO.P,SW3,3*%
X25930000Y-56830000D03*
%TO.P,SW3,4*%
X25930000Y-59370000D03*
%TO.P,SW3,5*%
X25930000Y-61910000D03*
%TO.P,SW3,6*%
X25930000Y-64450000D03*
%TO.P,SW3,7*%
X25930000Y-66990000D03*
%TO.P,SW3,8*%
X25930000Y-69530000D03*
%TO.P,SW3,9*%
%TO.N,Net-(MU1-A)*%
X33550000Y-69530000D03*
%TO.P,SW3,10*%
%TO.N,Net-(MU1-B)*%
X33550000Y-66990000D03*
%TO.P,SW3,11*%
%TO.N,Net-(MU1-C)*%
X33550000Y-64450000D03*
%TO.P,SW3,12*%
%TO.N,Net-(MU1-D)*%
X33550000Y-61910000D03*
%TO.P,SW3,13*%
%TO.N,Net-(MT1-A)*%
X33550000Y-59370000D03*
%TO.P,SW3,14*%
%TO.N,Net-(MT1-B)*%
X33550000Y-56830000D03*
%TO.P,SW3,15*%
%TO.N,Net-(MT1-C)*%
X33550000Y-54290000D03*
%TO.P,SW3,16*%
%TO.N,Net-(MT1-D)*%
X33550000Y-51750000D03*
%TD*%
%TO.P,R32,1*%
%TO.N,Net-(U10-I0c)*%
X55500000Y-96198800D03*
%TO.P,R32,2*%
%TO.N,GND*%
X65660000Y-96198800D03*
%TD*%
%TO.P,R3,1*%
%TO.N,Net-(U10-I0d)*%
X55500000Y-91639300D03*
%TO.P,R3,2*%
%TO.N,GND*%
X65660000Y-91639300D03*
%TD*%
%TO.P,R6,1*%
%TO.N,Net-(U6-c)*%
X219826000Y-69039200D03*
%TO.P,R6,2*%
%TO.N,Net-(AFF1-c)*%
X227446000Y-69039200D03*
%TD*%
%TO.P,R37,1*%
%TO.N,Net-(SU1-B)*%
X55508800Y-118996700D03*
%TO.P,R37,2*%
%TO.N,GND*%
X65668800Y-118996700D03*
%TD*%
%TO.P,R13,1*%
%TO.N,Net-(U4-c)*%
X219804600Y-101974800D03*
%TO.P,R13,2*%
%TO.N,Net-(AFF2-c)*%
X227424600Y-101974800D03*
%TD*%
D13*
%TO.P,AFF3,1,e*%
%TO.N,Net-(AFF3-e)*%
X247929400Y-120118800D03*
D14*
%TO.P,AFF3,2,d*%
%TO.N,Net-(AFF3-d)*%
X247929400Y-122658800D03*
%TO.P,AFF3,3,C.A.*%
%TO.N,+5V*%
X247929400Y-125198800D03*
%TO.P,AFF3,4,c*%
%TO.N,Net-(AFF3-c)*%
X247929400Y-127738800D03*
%TO.P,AFF3,5,DP*%
%TO.N,+5V*%
X247929400Y-130278800D03*
%TO.P,AFF3,6,b*%
%TO.N,Net-(AFF3-b)*%
X263169400Y-130278800D03*
%TO.P,AFF3,7,a*%
%TO.N,Net-(AFF3-a)*%
X263169400Y-127738800D03*
%TO.P,AFF3,8,C.A.*%
%TO.N,+5V*%
X263169400Y-125198800D03*
%TO.P,AFF3,9,f*%
%TO.N,Net-(AFF3-f)*%
X263169400Y-122658800D03*
%TO.P,AFF3,10,g*%
%TO.N,Net-(AFF3-g)*%
X263169400Y-120118800D03*
%TD*%
D19*
%TO.P,U11,1,1A*%
%TO.N,Net-(U11-1A)*%
X168600000Y-149350000D03*
D12*
%TO.P,U11,2,1Y*%
%TO.N,Net-(U10-S)*%
X166060000Y-149350000D03*
%TO.P,U11,3,2A*%
%TO.N,Net-(U11-2A)*%
X163520000Y-149350000D03*
%TO.P,U11,4,2Y*%
%TO.N,Net-(MU1-UP)*%
X160980000Y-149350000D03*
%TO.P,U11,5,3A*%
%TO.N,Net-(U11-3A)*%
X158440000Y-149350000D03*
%TO.P,U11,6,3Y*%
%TO.N,Net-(U11-3Y)*%
X155900000Y-149350000D03*
%TO.P,U11,7,GND*%
%TO.N,GND*%
X153360000Y-149350000D03*
%TO.P,U11,8,4Y*%
%TO.N,unconnected-(U11-4Y-Pad8)*%
X153360000Y-156970000D03*
%TO.P,U11,9,4A*%
%TO.N,unconnected-(U11-4A-Pad9)*%
X155900000Y-156970000D03*
%TO.P,U11,10,5Y*%
%TO.N,unconnected-(U11-5Y-Pad10)*%
X158440000Y-156970000D03*
%TO.P,U11,11,5A*%
%TO.N,unconnected-(U11-5A-Pad11)*%
X160980000Y-156970000D03*
%TO.P,U11,12,6Y*%
%TO.N,unconnected-(U11-6Y-Pad12)*%
X163520000Y-156970000D03*
%TO.P,U11,13,6A*%
%TO.N,unconnected-(U11-6A-Pad13)*%
X166060000Y-156970000D03*
%TO.P,U11,14,VCC*%
%TO.N,+5V*%
X168600000Y-156970000D03*
%TD*%
D16*
%TO.P,MT1,1,B*%
%TO.N,Net-(MT1-B)*%
X121130000Y-52000000D03*
D12*
%TO.P,MT1,2,QB*%
%TO.N,Net-(MT1-QB)*%
X121130000Y-54540000D03*
%TO.P,MT1,3,QA*%
%TO.N,Net-(MT1-QA)*%
X121130000Y-57080000D03*
%TO.P,MT1,4,DOWN*%
%TO.N,Net-(MT1-DOWN)*%
X121130000Y-59620000D03*
%TO.P,MT1,5,UP*%
%TO.N,Net-(MT1-UP)*%
X121130000Y-62160000D03*
%TO.P,MT1,6,QC*%
%TO.N,Net-(MT1-QC)*%
X121130000Y-64700000D03*
%TO.P,MT1,7,QD*%
%TO.N,Net-(MT1-QD)*%
X121130000Y-67240000D03*
%TO.P,MT1,8,GND*%
%TO.N,GND*%
X121130000Y-69780000D03*
%TO.P,MT1,9,D*%
%TO.N,Net-(MT1-D)*%
X128750000Y-69780000D03*
%TO.P,MT1,10,C*%
%TO.N,Net-(MT1-C)*%
X128750000Y-67240000D03*
%TO.P,MT1,11,~{LOAD}*%
%TO.N,Net-(MT1-~{LOAD})*%
X128750000Y-64700000D03*
%TO.P,MT1,12,~{CO}*%
%TO.N,unconnected-(MT1-~{CO}-Pad12)*%
X128750000Y-62160000D03*
%TO.P,MT1,13,~{BO}*%
%TO.N,unconnected-(MT1-~{BO}-Pad13)*%
X128750000Y-59620000D03*
%TO.P,MT1,14,CLR*%
%TO.N,Net-(MT1-CLR)*%
X128750000Y-57080000D03*
%TO.P,MT1,15,A*%
%TO.N,Net-(MT1-A)*%
X128750000Y-54540000D03*
%TO.P,MT1,16,VCC*%
%TO.N,+5V*%
X128750000Y-52000000D03*
%TD*%
%TO.P,R7,1*%
%TO.N,Net-(U6-d)*%
X219826000Y-73089200D03*
%TO.P,R7,2*%
%TO.N,Net-(AFF1-d)*%
X227446000Y-73089200D03*
%TD*%
%TO.P,R1_Timer1,1*%
%TO.N,Net-(U1-DISCH)*%
X27125600Y-166487400D03*
%TO.P,R1_Timer1,2*%
%TO.N,Net-(R1_Timer1-Pad2)*%
X27125600Y-158867400D03*
%TD*%
D20*
%TO.P,SU1,1,B*%
%TO.N,Net-(SU1-B)*%
X129000000Y-181730000D03*
D12*
%TO.P,SU1,2,QB*%
%TO.N,Net-(SU1-QB)*%
X129000000Y-179190000D03*
%TO.P,SU1,3,QA*%
%TO.N,Net-(SU1-QA)*%
X129000000Y-176650000D03*
%TO.P,SU1,4,DOWN*%
%TO.N,Net-(SU1-DOWN)*%
X129000000Y-174110000D03*
%TO.P,SU1,5,UP*%
%TO.N,Net-(SU1-UP)*%
X129000000Y-171570000D03*
%TO.P,SU1,6,QC*%
%TO.N,Net-(SU1-QC)*%
X129000000Y-169030000D03*
%TO.P,SU1,7,QD*%
%TO.N,Net-(SU1-QD)*%
X129000000Y-166490000D03*
%TO.P,SU1,8,GND*%
%TO.N,GND*%
X129000000Y-163950000D03*
%TO.P,SU1,9,D*%
%TO.N,Net-(SU1-D)*%
X121380000Y-163950000D03*
%TO.P,SU1,10,C*%
%TO.N,Net-(SU1-C)*%
X121380000Y-166490000D03*
%TO.P,SU1,11,~{LOAD}*%
%TO.N,Net-(MT1-~{LOAD})*%
X121380000Y-169030000D03*
%TO.P,SU1,12,~{CO}*%
%TO.N,Net-(ST1-UP)*%
X121380000Y-171570000D03*
%TO.P,SU1,13,~{BO}*%
%TO.N,Net-(ST1-DOWN)*%
X121380000Y-174110000D03*
%TO.P,SU1,14,CLR*%
%TO.N,Net-(MT1-CLR)*%
X121380000Y-176650000D03*
%TO.P,SU1,15,A*%
%TO.N,Net-(SU1-A)*%
X121380000Y-179190000D03*
%TO.P,SU1,16,VCC*%
%TO.N,+5V*%
X121380000Y-181730000D03*
%TD*%
%TO.P,R8,1*%
%TO.N,Net-(U6-e)*%
X219826000Y-77139200D03*
%TO.P,R8,2*%
%TO.N,Net-(AFF1-e)*%
X227446000Y-77139200D03*
%TD*%
%TO.P,R23,1*%
%TO.N,Net-(U7-f)*%
X219830000Y-122050000D03*
%TO.P,R23,2*%
%TO.N,Net-(AFF3-f)*%
X227450000Y-122050000D03*
%TD*%
%TO.P,R4,1*%
%TO.N,Net-(U6-a)*%
X219826000Y-60939200D03*
%TO.P,R4,2*%
%TO.N,Net-(AFF1-a)*%
X227446000Y-60939200D03*
%TD*%
%TO.P,R31,1*%
%TO.N,Net-(U9-g)*%
X220120000Y-161950000D03*
%TO.P,R31,2*%
%TO.N,Net-(AFF4-g)*%
X227740000Y-161950000D03*
%TD*%
D19*
%TO.P,U22,1,A*%
%TO.N,Net-(ST1-QA)*%
X168600000Y-84250000D03*
D12*
%TO.P,U22,2,B*%
%TO.N,Net-(ST1-QD)*%
X166060000Y-84250000D03*
%TO.P,U22,3,D*%
%TO.N,unconnected-(U22-D-Pad3)*%
X163520000Y-84250000D03*
%TO.P,U22,4,E*%
%TO.N,unconnected-(U22-E-Pad4)*%
X160980000Y-84250000D03*
%TO.P,U22,5,F*%
%TO.N,unconnected-(U22-F-Pad5)*%
X158440000Y-84250000D03*
%TO.P,U22,6,K\u002A~(D.E.F)*%
%TO.N,unconnected-(U22-K\u002A~(D.E.F)-Pad6)*%
X155900000Y-84250000D03*
%TO.P,U22,7,VSS*%
%TO.N,GND*%
X153360000Y-84250000D03*
%TO.P,U22,8,C*%
%TO.N,+5V*%
X153360000Y-91870000D03*
%TO.P,U22,9,J\u002A~(A.B.C)*%
%TO.N,Net-(U11-1A)*%
X155900000Y-91870000D03*
%TO.P,U22,10,L\u002A~(G.H.I)*%
%TO.N,unconnected-(U22-L\u002A~(G.H.I)-Pad10)*%
X158440000Y-91870000D03*
%TO.P,U22,11,I*%
%TO.N,unconnected-(U22-I-Pad11)*%
X160980000Y-91870000D03*
%TO.P,U22,12,H*%
%TO.N,unconnected-(U22-H-Pad12)*%
X163520000Y-91870000D03*
%TO.P,U22,13,G*%
%TO.N,unconnected-(U22-G-Pad13)*%
X166060000Y-91870000D03*
%TO.P,U22,14,VDD*%
%TO.N,+5V*%
X168600000Y-91870000D03*
%TD*%
D21*
%TO.P,U20,1,1A*%
%TO.N,Net-(U20-1A)*%
X92010000Y-163750000D03*
D12*
%TO.P,U20,2,1B*%
%TO.N,Net-(U11-3A)*%
X94550000Y-163750000D03*
%TO.P,U20,3,1Y*%
%TO.N,Net-(SU1-UP)*%
X97090000Y-163750000D03*
%TO.P,U20,4,2A*%
%TO.N,Net-(U20-1A)*%
X99630000Y-163750000D03*
%TO.P,U20,5,2B*%
%TO.N,Net-(U13-1Y)*%
X102170000Y-163750000D03*
%TO.P,U20,6,2Y*%
%TO.N,Net-(SU1-DOWN)*%
X104710000Y-163750000D03*
%TO.P,U20,7,GND*%
%TO.N,GND*%
X107250000Y-163750000D03*
%TO.P,U20,8,3Y*%
%TO.N,Net-(MT1-CLR)*%
X107250000Y-156130000D03*
%TO.P,U20,9,3A*%
%TO.N,Net-(U20-3A)*%
X104710000Y-156130000D03*
%TO.P,U20,10,3B*%
%TO.N,Net-(U19-2Y)*%
X102170000Y-156130000D03*
%TO.P,U20,11,4Y*%
%TO.N,unconnected-(U20-4Y-Pad11)*%
X99630000Y-156130000D03*
%TO.P,U20,12,4A*%
%TO.N,unconnected-(U20-4A-Pad12)*%
X97090000Y-156130000D03*
%TO.P,U20,13,4B*%
%TO.N,unconnected-(U20-4B-Pad13)*%
X94550000Y-156130000D03*
%TO.P,U20,14,VCC*%
%TO.N,+5V*%
X92010000Y-156130000D03*
%TD*%
%TO.P,R41,1*%
%TO.N,Net-(MT1-C)*%
X55190000Y-56421500D03*
%TO.P,R41,2*%
%TO.N,GND*%
X65350000Y-56421500D03*
%TD*%
%TO.P,R12,1*%
%TO.N,Net-(U4-b)*%
X219804600Y-97924800D03*
%TO.P,R12,2*%
%TO.N,Net-(AFF2-b)*%
X227424600Y-97924800D03*
%TD*%
D16*
%TO.P,U10,1,S*%
%TO.N,Net-(U10-S)*%
X95730000Y-122000000D03*
D12*
%TO.P,U10,2,I0a*%
%TO.N,Net-(U10-I0a)*%
X95730000Y-124540000D03*
%TO.P,U10,3,I1a*%
%TO.N,+5V*%
X95730000Y-127080000D03*
%TO.P,U10,4,Za*%
%TO.N,Net-(ST1-A)*%
X95730000Y-129620000D03*
%TO.P,U10,5,I0b*%
%TO.N,Net-(U10-I0b)*%
X95730000Y-132160000D03*
%TO.P,U10,6,I1b*%
%TO.N,GND*%
X95730000Y-134700000D03*
%TO.P,U10,7,Zb*%
%TO.N,Net-(ST1-B)*%
X95730000Y-137240000D03*
%TO.P,U10,8,GND*%
%TO.N,GND*%
X95730000Y-139780000D03*
%TO.P,U10,9,Zc*%
%TO.N,Net-(ST1-C)*%
X103350000Y-139780000D03*
%TO.P,U10,10,I1c*%
%TO.N,+5V*%
X103350000Y-137240000D03*
%TO.P,U10,11,I0c*%
%TO.N,Net-(U10-I0c)*%
X103350000Y-134700000D03*
%TO.P,U10,12,Zd*%
%TO.N,Net-(ST1-D)*%
X103350000Y-132160000D03*
%TO.P,U10,13,I1d*%
%TO.N,GND*%
X103350000Y-129620000D03*
%TO.P,U10,14,I0d*%
%TO.N,Net-(U10-I0d)*%
X103350000Y-127080000D03*
%TO.P,U10,15,E*%
%TO.N,GND*%
X103350000Y-124540000D03*
%TO.P,U10,16,VCC*%
%TO.N,+5V*%
X103350000Y-122000000D03*
%TD*%
D21*
%TO.P,U19,1,1A*%
%TO.N,Net-(MT1-~{LOAD})*%
X153360000Y-181820000D03*
D12*
%TO.P,U19,2,1B*%
%TO.N,Net-(U13-6Y)*%
X155900000Y-181820000D03*
%TO.P,U19,3,1Y*%
%TO.N,Net-(U19-1Y)*%
X158440000Y-181820000D03*
%TO.P,U19,4,2A*%
X160980000Y-181820000D03*
%TO.P,U19,5,2B*%
%TO.N,Net-(U11-3A)*%
X163520000Y-181820000D03*
%TO.P,U19,6,2Y*%
%TO.N,Net-(U19-2Y)*%
X166060000Y-181820000D03*
%TO.P,U19,7,GND*%
%TO.N,GND*%
X168600000Y-181820000D03*
%TO.P,U19,8,3Y*%
%TO.N,unconnected-(U19-3Y-Pad8)*%
X168600000Y-174200000D03*
%TO.P,U19,9,3A*%
%TO.N,unconnected-(U19-3A-Pad9)*%
X166060000Y-174200000D03*
%TO.P,U19,10,3B*%
%TO.N,unconnected-(U19-3B-Pad10)*%
X163520000Y-174200000D03*
%TO.P,U19,11,4Y*%
%TO.N,unconnected-(U19-4Y-Pad11)*%
X160980000Y-174200000D03*
%TO.P,U19,12,4A*%
%TO.N,unconnected-(U19-4A-Pad12)*%
X158440000Y-174200000D03*
%TO.P,U19,13,4B*%
%TO.N,unconnected-(U19-4B-Pad13)*%
X155900000Y-174200000D03*
%TO.P,U19,14,VCC*%
%TO.N,+5V*%
X153360000Y-174200000D03*
%TD*%
%TO.P,R20,1*%
%TO.N,Net-(U7-c)*%
X219906200Y-139677600D03*
%TO.P,R20,2*%
%TO.N,Net-(AFF3-c)*%
X227526200Y-139677600D03*
%TD*%
%TO.P,R11,1*%
%TO.N,Net-(U4-a)*%
X219804600Y-93874800D03*
%TO.P,R11,2*%
%TO.N,Net-(AFF2-a)*%
X227424600Y-93874800D03*
%TD*%
%TO.P,C2,1*%
%TO.N,Net-(U1-CONT)*%
X41800000Y-173650000D03*
%TO.P,C2,2*%
%TO.N,GND*%
X41800000Y-178650000D03*
%TD*%
D16*
%TO.P,U7,1,B*%
%TO.N,Net-(ST1-QB)*%
X189509400Y-122047000D03*
D12*
%TO.P,U7,2,C*%
%TO.N,Net-(ST1-QC)*%
X189509400Y-124587000D03*
%TO.P,U7,3,LT*%
%TO.N,+5V*%
X189509400Y-127127000D03*
%TO.P,U7,4,BI*%
X189509400Y-129667000D03*
%TO.P,U7,5,RBI*%
X189509400Y-132207000D03*
%TO.P,U7,6,D*%
%TO.N,Net-(ST1-QD)*%
X189509400Y-134747000D03*
%TO.P,U7,7,A*%
%TO.N,Net-(ST1-QA)*%
X189509400Y-137287000D03*
%TO.P,U7,8,GND*%
%TO.N,GND*%
X189509400Y-139827000D03*
%TO.P,U7,9,e*%
%TO.N,Net-(U7-e)*%
X197129400Y-139827000D03*
%TO.P,U7,10,d*%
%TO.N,Net-(U7-d)*%
X197129400Y-137287000D03*
%TO.P,U7,11,c*%
%TO.N,Net-(U7-c)*%
X197129400Y-134747000D03*
%TO.P,U7,12,b*%
%TO.N,Net-(U7-b)*%
X197129400Y-132207000D03*
%TO.P,U7,13,a*%
%TO.N,Net-(U7-a)*%
X197129400Y-129667000D03*
%TO.P,U7,14,g*%
%TO.N,Net-(U7-g)*%
X197129400Y-127127000D03*
%TO.P,U7,15,f*%
%TO.N,Net-(U7-f)*%
X197129400Y-124587000D03*
%TO.P,U7,16,VCC*%
%TO.N,+5V*%
X197129400Y-122047000D03*
%TD*%
%TO.P,R2_Timer1,1*%
%TO.N,Net-(R1_Timer1-Pad2)*%
X27100000Y-155962600D03*
%TO.P,R2_Timer1,2*%
%TO.N,Net-(R2_Timer1-Pad2)*%
X27100000Y-148342600D03*
%TD*%
D16*
%TO.P,U9,1,B*%
%TO.N,Net-(SU1-QB)*%
X189580000Y-164020000D03*
D12*
%TO.P,U9,2,C*%
%TO.N,Net-(SU1-QC)*%
X189580000Y-166560000D03*
%TO.P,U9,3,LT*%
%TO.N,+5V*%
X189580000Y-169100000D03*
%TO.P,U9,4,BI*%
X189580000Y-171640000D03*
%TO.P,U9,5,RBI*%
X189580000Y-174180000D03*
%TO.P,U9,6,D*%
%TO.N,Net-(SU1-QD)*%
X189580000Y-176720000D03*
%TO.P,U9,7,A*%
%TO.N,Net-(SU1-QA)*%
X189580000Y-179260000D03*
%TO.P,U9,8,GND*%
%TO.N,GND*%
X189580000Y-181800000D03*
%TO.P,U9,9,e*%
%TO.N,Net-(U9-e)*%
X197200000Y-181800000D03*
%TO.P,U9,10,d*%
%TO.N,Net-(U9-d)*%
X197200000Y-179260000D03*
%TO.P,U9,11,c*%
%TO.N,Net-(U9-c)*%
X197200000Y-176720000D03*
%TO.P,U9,12,b*%
%TO.N,Net-(U9-b)*%
X197200000Y-174180000D03*
%TO.P,U9,13,a*%
%TO.N,Net-(U9-a)*%
X197200000Y-171640000D03*
%TO.P,U9,14,g*%
%TO.N,Net-(U9-g)*%
X197200000Y-169100000D03*
%TO.P,U9,15,f*%
%TO.N,Net-(U9-f)*%
X197200000Y-166560000D03*
%TO.P,U9,16,VCC*%
%TO.N,+5V*%
X197200000Y-164020000D03*
%TD*%
%TO.P,R5,1*%
%TO.N,Net-(U6-b)*%
X219826000Y-64989200D03*
%TO.P,R5,2*%
%TO.N,Net-(AFF1-b)*%
X227446000Y-64989200D03*
%TD*%
%TO.P,C1,1*%
%TO.N,Net-(U1-THRES)*%
X50850000Y-175350000D03*
%TO.P,C1,2*%
%TO.N,GND*%
X50850000Y-177350000D03*
%TD*%
%TO.P,R21,1*%
%TO.N,Net-(U7-d)*%
X219906200Y-143727600D03*
%TO.P,R21,2*%
%TO.N,Net-(AFF3-d)*%
X227526200Y-143727600D03*
%TD*%
%TO.P,R17,1*%
%TO.N,Net-(U4-g)*%
X219830000Y-90000000D03*
%TO.P,R17,2*%
%TO.N,Net-(AFF2-g)*%
X227450000Y-90000000D03*
%TD*%
%TO.P,R35,1*%
%TO.N,Net-(SU1-D)*%
X55508800Y-109877500D03*
%TO.P,R35,2*%
%TO.N,GND*%
X65668800Y-109877500D03*
%TD*%
D16*
%TO.P,U4,1,B*%
%TO.N,Net-(MU1-QB)*%
X190373000Y-86410800D03*
D12*
%TO.P,U4,2,C*%
%TO.N,Net-(MU1-QC)*%
X190373000Y-88950800D03*
%TO.P,U4,3,LT*%
%TO.N,+5V*%
X190373000Y-91490800D03*
%TO.P,U4,4,BI*%
X190373000Y-94030800D03*
%TO.P,U4,5,RBI*%
X190373000Y-96570800D03*
%TO.P,U4,6,D*%
%TO.N,Net-(MU1-QD)*%
X190373000Y-99110800D03*
%TO.P,U4,7,A*%
%TO.N,Net-(MU1-QA)*%
X190373000Y-101650800D03*
%TO.P,U4,8,GND*%
%TO.N,GND*%
X190373000Y-104190800D03*
%TO.P,U4,9,e*%
%TO.N,Net-(U4-e)*%
X197993000Y-104190800D03*
%TO.P,U4,10,d*%
%TO.N,Net-(U4-d)*%
X197993000Y-101650800D03*
%TO.P,U4,11,c*%
%TO.N,Net-(U4-c)*%
X197993000Y-99110800D03*
%TO.P,U4,12,b*%
%TO.N,Net-(U4-b)*%
X197993000Y-96570800D03*
%TO.P,U4,13,a*%
%TO.N,Net-(U4-a)*%
X197993000Y-94030800D03*
%TO.P,U4,14,g*%
%TO.N,Net-(U4-g)*%
X197993000Y-91490800D03*
%TO.P,U4,15,f*%
%TO.N,Net-(U4-f)*%
X197993000Y-88950800D03*
%TO.P,U4,16,VCC*%
%TO.N,+5V*%
X197993000Y-86410800D03*
%TD*%
D19*
%TO.P,U24,1,1A*%
%TO.N,Net-(MT1-~{LOAD})*%
X168650000Y-118600000D03*
D12*
%TO.P,U24,2,1B*%
%TO.N,Net-(U11-1A)*%
X166110000Y-118600000D03*
%TO.P,U24,3,1Y*%
%TO.N,Net-(ST1-~{LOAD})*%
X163570000Y-118600000D03*
%TO.P,U24,4,2A*%
%TO.N,Net-(U11-3Y)*%
X161030000Y-118600000D03*
%TO.P,U24,5,2B*%
%TO.N,Net-(U24-2B)*%
X158490000Y-118600000D03*
%TO.P,U24,6,2Y*%
%TO.N,Net-(U11-2A)*%
X155950000Y-118600000D03*
%TO.P,U24,7,GND*%
%TO.N,GND*%
X153410000Y-118600000D03*
%TO.P,U24,8,3Y*%
%TO.N,Net-(U24-2B)*%
X153410000Y-126220000D03*
%TO.P,U24,9,3A*%
%TO.N,Net-(ST1-QB)*%
X155950000Y-126220000D03*
%TO.P,U24,10,3B*%
%TO.N,Net-(ST1-QC)*%
X158490000Y-126220000D03*
%TO.P,U24,11,4Y*%
%TO.N,unconnected-(U24-4Y-Pad11)*%
X161030000Y-126220000D03*
%TO.P,U24,12,4A*%
%TO.N,GND*%
X163570000Y-126220000D03*
%TO.P,U24,13,4B*%
X166110000Y-126220000D03*
%TO.P,U24,14,VCC*%
%TO.N,+5V*%
X168650000Y-126220000D03*
%TD*%
%TO.P,R44,1*%
%TO.N,Net-(MU1-D)*%
X55210000Y-70135900D03*
%TO.P,R44,2*%
%TO.N,GND*%
X65370000Y-70135900D03*
%TD*%
D16*
%TO.P,ST1,1,B*%
%TO.N,Net-(ST1-B)*%
X121330000Y-121950000D03*
D12*
%TO.P,ST1,2,QB*%
%TO.N,Net-(ST1-QB)*%
X121330000Y-124490000D03*
%TO.P,ST1,3,QA*%
%TO.N,Net-(ST1-QA)*%
X121330000Y-127030000D03*
%TO.P,ST1,4,DOWN*%
%TO.N,Net-(ST1-DOWN)*%
X121330000Y-129570000D03*
%TO.P,ST1,5,UP*%
%TO.N,Net-(ST1-UP)*%
X121330000Y-132110000D03*
%TO.P,ST1,6,QC*%
%TO.N,Net-(ST1-QC)*%
X121330000Y-134650000D03*
%TO.P,ST1,7,QD*%
%TO.N,Net-(ST1-QD)*%
X121330000Y-137190000D03*
%TO.P,ST1,8,GND*%
%TO.N,GND*%
X121330000Y-139730000D03*
%TO.P,ST1,9,D*%
%TO.N,Net-(ST1-D)*%
X128950000Y-139730000D03*
%TO.P,ST1,10,C*%
%TO.N,Net-(ST1-C)*%
X128950000Y-137190000D03*
%TO.P,ST1,11,~{LOAD}*%
%TO.N,Net-(ST1-~{LOAD})*%
X128950000Y-134650000D03*
%TO.P,ST1,12,~{CO}*%
%TO.N,unconnected-(ST1-~{CO}-Pad12)*%
X128950000Y-132110000D03*
%TO.P,ST1,13,~{BO}*%
%TO.N,Net-(MU1-DOWN)*%
X128950000Y-129570000D03*
%TO.P,ST1,14,CLR*%
%TO.N,Net-(ST1-CLR)*%
X128950000Y-127030000D03*
%TO.P,ST1,15,A*%
%TO.N,Net-(ST1-A)*%
X128950000Y-124490000D03*
%TO.P,ST1,16,VCC*%
%TO.N,+5V*%
X128950000Y-121950000D03*
%TD*%
D13*
%TO.P,AFF1,1,e*%
%TO.N,Net-(AFF1-e)*%
X248031000Y-75742800D03*
D14*
%TO.P,AFF1,2,d*%
%TO.N,Net-(AFF1-d)*%
X248031000Y-78282800D03*
%TO.P,AFF1,3,C.A.*%
%TO.N,+5V*%
X248031000Y-80822800D03*
%TO.P,AFF1,4,c*%
%TO.N,Net-(AFF1-c)*%
X248031000Y-83362800D03*
%TO.P,AFF1,5,DP*%
%TO.N,+5V*%
X248031000Y-85902800D03*
%TO.P,AFF1,6,b*%
%TO.N,Net-(AFF1-b)*%
X263271000Y-85902800D03*
%TO.P,AFF1,7,a*%
%TO.N,Net-(AFF1-a)*%
X263271000Y-83362800D03*
%TO.P,AFF1,8,C.A.*%
%TO.N,+5V*%
X263271000Y-80822800D03*
%TO.P,AFF1,9,f*%
%TO.N,Net-(AFF1-f)*%
X263271000Y-78282800D03*
%TO.P,AFF1,10,g*%
%TO.N,Net-(AFF1-g)*%
X263271000Y-75742800D03*
%TD*%
D12*
%TO.P,R19,1*%
%TO.N,Net-(U7-b)*%
X219753800Y-135032000D03*
%TO.P,R19,2*%
%TO.N,Net-(AFF3-b)*%
X227373800Y-135032000D03*
%TD*%
%TO.P,R6_Timer1,1*%
%TO.N,Net-(R5_Timer1-Pad2)*%
X32925600Y-158877400D03*
%TO.P,R6_Timer1,2*%
%TO.N,Net-(U1-THRES)*%
X32925600Y-166497400D03*
%TD*%
%TO.P,R30,1*%
%TO.N,Net-(U9-f)*%
X220120000Y-157950000D03*
%TO.P,R30,2*%
%TO.N,Net-(AFF4-f)*%
X227740000Y-157950000D03*
%TD*%
D21*
%TO.P,U13,1,1A*%
%TO.N,Net-(U11-3A)*%
X91910000Y-181700000D03*
D12*
%TO.P,U13,2,1Y*%
%TO.N,Net-(U13-1Y)*%
X94450000Y-181700000D03*
%TO.P,U13,3,2A*%
%TO.N,unconnected-(U13-2A-Pad3)*%
X96990000Y-181700000D03*
%TO.P,U13,4,2Y*%
%TO.N,unconnected-(U13-2Y-Pad4)*%
X99530000Y-181700000D03*
%TO.P,U13,5,3A*%
%TO.N,unconnected-(U13-3A-Pad5)*%
X102070000Y-181700000D03*
%TO.P,U13,6,3Y*%
%TO.N,unconnected-(U13-3Y-Pad6)*%
X104610000Y-181700000D03*
%TO.P,U13,7,GND*%
%TO.N,GND*%
X107150000Y-181700000D03*
%TO.P,U13,8,4Y*%
%TO.N,unconnected-(U13-4Y-Pad8)*%
X107150000Y-174080000D03*
%TO.P,U13,9,4A*%
%TO.N,unconnected-(U13-4A-Pad9)*%
X104610000Y-174080000D03*
%TO.P,U13,10,5Y*%
%TO.N,unconnected-(U13-5Y-Pad10)*%
X102070000Y-174080000D03*
%TO.P,U13,11,5A*%
%TO.N,unconnected-(U13-5A-Pad11)*%
X99530000Y-174080000D03*
%TO.P,U13,12,6Y*%
%TO.N,Net-(U13-6Y)*%
X96990000Y-174080000D03*
%TO.P,U13,13,6A*%
%TO.N,Net-(J3-Pin_5)*%
X94450000Y-174080000D03*
%TO.P,U13,14,VCC*%
%TO.N,+5V*%
X91910000Y-174080000D03*
%TD*%
D21*
%TO.P,U1,1,GND*%
%TO.N,GND*%
X25800000Y-181720000D03*
D12*
%TO.P,U1,2,TRIG*%
%TO.N,Net-(U1-THRES)*%
X28340000Y-181720000D03*
%TO.P,U1,3,OUT*%
%TO.N,Net-(U1-OUT)*%
X30880000Y-181720000D03*
%TO.P,U1,4,~{RST}*%
%TO.N,+5V*%
X33420000Y-181720000D03*
%TO.P,U1,5,CONT*%
%TO.N,Net-(U1-CONT)*%
X33420000Y-174100000D03*
%TO.P,U1,6,THRES*%
%TO.N,Net-(U1-THRES)*%
X30880000Y-174100000D03*
%TO.P,U1,7,DISCH*%
%TO.N,Net-(U1-DISCH)*%
X28340000Y-174100000D03*
%TO.P,U1,8,VCC*%
%TO.N,+5V*%
X25800000Y-174100000D03*
%TD*%
%TO.P,R9,1*%
%TO.N,Net-(U6-f)*%
X220080000Y-52100000D03*
%TO.P,R9,2*%
%TO.N,Net-(AFF1-f)*%
X227700000Y-52100000D03*
%TD*%
D19*
%TO.P,U21,1,A*%
%TO.N,Net-(MT1-QA)*%
X107350000Y-51650000D03*
D12*
%TO.P,U21,2,B*%
%TO.N,Net-(MT1-QB)*%
X104810000Y-51650000D03*
%TO.P,U21,3,D*%
%TO.N,Net-(MT1-QD)*%
X102270000Y-51650000D03*
%TO.P,U21,4,E*%
%TO.N,Net-(MU1-QA)*%
X99730000Y-51650000D03*
%TO.P,U21,5,F*%
%TO.N,Net-(MU1-QB)*%
X97190000Y-51650000D03*
%TO.P,U21,6,K\u002AD+E+F*%
%TO.N,Net-(U18-1B)*%
X94650000Y-51650000D03*
%TO.P,U21,7,VSS*%
%TO.N,GND*%
X92110000Y-51650000D03*
%TO.P,U21,8,C*%
%TO.N,Net-(MT1-QC)*%
X92110000Y-59270000D03*
%TO.P,U21,9,J\u002AA+B+C*%
%TO.N,Net-(U18-1A)*%
X94650000Y-59270000D03*
%TO.P,U21,10,L\u002AG+H+I*%
%TO.N,Net-(U18-2A)*%
X97190000Y-59270000D03*
%TO.P,U21,11,I*%
%TO.N,Net-(ST1-QA)*%
X99730000Y-59270000D03*
%TO.P,U21,12,H*%
%TO.N,Net-(MU1-QD)*%
X102270000Y-59270000D03*
%TO.P,U21,13,G*%
%TO.N,Net-(MU1-QC)*%
X104810000Y-59270000D03*
%TO.P,U21,14,VDD*%
%TO.N,+5V*%
X107350000Y-59270000D03*
%TD*%
D19*
%TO.P,U18,1,1A*%
%TO.N,Net-(U18-1A)*%
X107300000Y-76580000D03*
D12*
%TO.P,U18,2,1B*%
%TO.N,Net-(U18-1B)*%
X104760000Y-76580000D03*
%TO.P,U18,3,1Y*%
%TO.N,Net-(U18-1Y)*%
X102220000Y-76580000D03*
%TO.P,U18,4,2A*%
%TO.N,Net-(U18-2A)*%
X99680000Y-76580000D03*
%TO.P,U18,5,2B*%
%TO.N,Net-(U12-L\u002AG+H+I)*%
X97140000Y-76580000D03*
%TO.P,U18,6,2Y*%
%TO.N,Net-(U18-2Y)*%
X94600000Y-76580000D03*
%TO.P,U18,7,GND*%
%TO.N,GND*%
X92060000Y-76580000D03*
%TO.P,U18,8,3Y*%
%TO.N,Net-(J3-Pin_5)*%
X92060000Y-84200000D03*
%TO.P,U18,9,3A*%
%TO.N,Net-(U18-1Y)*%
X94600000Y-84200000D03*
%TO.P,U18,10,3B*%
%TO.N,Net-(U18-2Y)*%
X97140000Y-84200000D03*
%TO.P,U18,11,4Y*%
%TO.N,unconnected-(U18-4Y-Pad11)*%
X99680000Y-84200000D03*
%TO.P,U18,12,4A*%
%TO.N,unconnected-(U18-4A-Pad12)*%
X102220000Y-84200000D03*
%TO.P,U18,13,4B*%
%TO.N,unconnected-(U18-4B-Pad13)*%
X104760000Y-84200000D03*
%TO.P,U18,14,VCC*%
%TO.N,+5V*%
X107300000Y-84200000D03*
%TD*%
%TO.P,R3_Timer1,1*%
%TO.N,Net-(R2_Timer1-Pad2)*%
X26900000Y-145470000D03*
%TO.P,R3_Timer1,2*%
%TO.N,Net-(R3_Timer1-Pad2)*%
X26900000Y-137850000D03*
%TD*%
%TO.P,R10,1*%
%TO.N,Net-(U6-g)*%
X220080000Y-56150000D03*
%TO.P,R10,2*%
%TO.N,Net-(AFF1-g)*%
X227700000Y-56150000D03*
%TD*%
%TO.P,R5_Timer1,1*%
%TO.N,Net-(R4_Timer1-Pad2)*%
X32900000Y-148352600D03*
%TO.P,R5_Timer1,2*%
%TO.N,Net-(R5_Timer1-Pad2)*%
X32900000Y-155972600D03*
%TD*%
D16*
%TO.P,SW2,1*%
%TO.N,+5V*%
X26080000Y-120650000D03*
D12*
%TO.P,SW2,2*%
%TO.N,unconnected-(SW2-Pad2)*%
X26080000Y-123190000D03*
%TO.P,SW2,3*%
%TO.N,unconnected-(SW2-Pad3)*%
X26080000Y-125730000D03*
%TO.P,SW2,4*%
%TO.N,unconnected-(SW2-Pad4)*%
X26080000Y-128270000D03*
%TO.P,SW2,5*%
%TO.N,unconnected-(SW2-Pad5)*%
X33700000Y-128270000D03*
%TO.P,SW2,6*%
%TO.N,unconnected-(SW2-Pad6)*%
X33700000Y-125730000D03*
%TO.P,SW2,7*%
%TO.N,unconnected-(SW2-Pad7)*%
X33700000Y-123190000D03*
%TO.P,SW2,8*%
%TO.N,Net-(U11-3A)*%
X33700000Y-120650000D03*
%TD*%
%TO.P,R43,1*%
%TO.N,Net-(MT1-A)*%
X55210000Y-65564400D03*
%TO.P,R43,2*%
%TO.N,GND*%
X65370000Y-65564400D03*
%TD*%
%TO.P,R50,1*%
%TO.N,+5V*%
X141550000Y-181850000D03*
%TO.P,R50,2*%
%TO.N,Net-(MT1-~{LOAD})*%
X141550000Y-174230000D03*
%TD*%
D13*
%TO.P,AFF2,1,e*%
%TO.N,Net-(AFF2-e)*%
X247802400Y-97409000D03*
D14*
%TO.P,AFF2,2,d*%
%TO.N,Net-(AFF2-d)*%
X247802400Y-99949000D03*
%TO.P,AFF2,3,C.A.*%
%TO.N,+5V*%
X247802400Y-102489000D03*
%TO.P,AFF2,4,c*%
%TO.N,Net-(AFF2-c)*%
X247802400Y-105029000D03*
%TO.P,AFF2,5,DP*%
%TO.N,+5V*%
X247802400Y-107569000D03*
%TO.P,AFF2,6,b*%
%TO.N,Net-(AFF2-b)*%
X263042400Y-107569000D03*
%TO.P,AFF2,7,a*%
%TO.N,Net-(AFF2-a)*%
X263042400Y-105029000D03*
%TO.P,AFF2,8,C.A.*%
%TO.N,+5V*%
X263042400Y-102489000D03*
%TO.P,AFF2,9,f*%
%TO.N,Net-(AFF2-f)*%
X263042400Y-99949000D03*
%TO.P,AFF2,10,g*%
%TO.N,Net-(AFF2-g)*%
X263042400Y-97409000D03*
%TD*%
D12*
%TO.P,R45,1*%
%TO.N,Net-(MU1-C)*%
X55190000Y-74707300D03*
%TO.P,R45,2*%
%TO.N,GND*%
X65350000Y-74707300D03*
%TD*%
D16*
%TO.P,U6,1,B*%
%TO.N,Net-(MT1-QB)*%
X190093600Y-52146200D03*
D12*
%TO.P,U6,2,C*%
%TO.N,Net-(MT1-QC)*%
X190093600Y-54686200D03*
%TO.P,U6,3,LT*%
%TO.N,+5V*%
X190093600Y-57226200D03*
%TO.P,U6,4,BI*%
X190093600Y-59766200D03*
%TO.P,U6,5,RBI*%
X190093600Y-62306200D03*
%TO.P,U6,6,D*%
%TO.N,Net-(MT1-QD)*%
X190093600Y-64846200D03*
%TO.P,U6,7,A*%
%TO.N,Net-(MT1-QA)*%
X190093600Y-67386200D03*
%TO.P,U6,8,GND*%
%TO.N,GND*%
X190093600Y-69926200D03*
%TO.P,U6,9,e*%
%TO.N,Net-(U6-e)*%
X197713600Y-69926200D03*
%TO.P,U6,10,d*%
%TO.N,Net-(U6-d)*%
X197713600Y-67386200D03*
%TO.P,U6,11,c*%
%TO.N,Net-(U6-c)*%
X197713600Y-64846200D03*
%TO.P,U6,12,b*%
%TO.N,Net-(U6-b)*%
X197713600Y-62306200D03*
%TO.P,U6,13,a*%
%TO.N,Net-(U6-a)*%
X197713600Y-59766200D03*
%TO.P,U6,14,g*%
%TO.N,Net-(U6-g)*%
X197713600Y-57226200D03*
%TO.P,U6,15,f*%
%TO.N,Net-(U6-f)*%
X197713600Y-54686200D03*
%TO.P,U6,16,VCC*%
%TO.N,+5V*%
X197713600Y-52146200D03*
%TD*%
%TO.P,R27,1*%
%TO.N,Net-(U9-c)*%
X220080000Y-173950000D03*
%TO.P,R27,2*%
%TO.N,Net-(AFF4-c)*%
X227700000Y-173950000D03*
%TD*%
D19*
%TO.P,U12,1,A*%
%TO.N,Net-(ST1-QB)*%
X168450000Y-52000000D03*
D12*
%TO.P,U12,2,B*%
%TO.N,Net-(ST1-QC)*%
X165910000Y-52000000D03*
%TO.P,U12,3,D*%
%TO.N,Net-(SU1-QA)*%
X163370000Y-52000000D03*
%TO.P,U12,4,E*%
%TO.N,Net-(SU1-QB)*%
X160830000Y-52000000D03*
%TO.P,U12,5,F*%
%TO.N,Net-(SU1-QC)*%
X158290000Y-52000000D03*
%TO.P,U12,6,K\u002AD+E+F*%
%TO.N,Net-(U12-I)*%
X155750000Y-52000000D03*
%TO.P,U12,7,VSS*%
%TO.N,GND*%
X153210000Y-52000000D03*
%TO.P,U12,8,C*%
%TO.N,Net-(ST1-QD)*%
X153210000Y-59620000D03*
%TO.P,U12,9,J\u002AA+B+C*%
%TO.N,Net-(U12-H)*%
X155750000Y-59620000D03*
%TO.P,U12,10,L\u002AG+H+I*%
%TO.N,Net-(U12-L\u002AG+H+I)*%
X158290000Y-59620000D03*
%TO.P,U12,11,I*%
%TO.N,Net-(U12-I)*%
X160830000Y-59620000D03*
%TO.P,U12,12,H*%
%TO.N,Net-(U12-H)*%
X163370000Y-59620000D03*
%TO.P,U12,13,G*%
%TO.N,Net-(SU1-QD)*%
X165910000Y-59620000D03*
%TO.P,U12,14,VDD*%
%TO.N,+5V*%
X168450000Y-59620000D03*
%TD*%
%TO.P,R42,1*%
%TO.N,Net-(MT1-B)*%
X55210000Y-60992900D03*
%TO.P,R42,2*%
%TO.N,GND*%
X65370000Y-60992900D03*
%TD*%
D15*
%TO.P,S5,1*%
%TO.N,Net-(U20-1A)*%
X45800000Y-163850000D03*
%TO.P,S5,2*%
%TO.N,+5V*%
X50800000Y-163850000D03*
%TD*%
D12*
%TO.P,R1,1*%
%TO.N,Net-(U1-DISCH)*%
X73900000Y-166400000D03*
%TO.P,R1,2*%
%TO.N,+5V*%
X66280000Y-166400000D03*
%TD*%
%TO.P,R15,1*%
%TO.N,Net-(U4-e)*%
X219804600Y-110074800D03*
%TO.P,R15,2*%
%TO.N,Net-(AFF2-e)*%
X227424600Y-110074800D03*
%TD*%
%TO.P,R38,1*%
%TO.N,Net-(SU1-A)*%
X55610000Y-123556200D03*
%TO.P,R38,2*%
%TO.N,GND*%
X65770000Y-123556200D03*
%TD*%
%TO.P,R22,1*%
%TO.N,Net-(U7-e)*%
X219906200Y-147777600D03*
%TO.P,R22,2*%
%TO.N,Net-(AFF3-e)*%
X227526200Y-147777600D03*
%TD*%
%TO.P,R28,1*%
%TO.N,Net-(U9-d)*%
X220080000Y-177950000D03*
%TO.P,R28,2*%
%TO.N,Net-(AFF4-d)*%
X227700000Y-177950000D03*
%TD*%
D22*
%TO.N,+5V*%
X167184200Y-171640000D03*
X131345100Y-89516600D03*
%TO.N,Net-(U1-OUT)*%
X53900000Y-183207500D03*
%TO.N,Net-(U10-I0d)*%
X97398000Y-93521600D03*
%TO.N,Net-(U10-I0c)*%
X77772300Y-134049500D03*
%TO.N,Net-(U10-I0a)*%
X68493400Y-123535000D03*
%TO.N,Net-(U11-2A)*%
X159170300Y-145550800D03*
X114742000Y-116216600D03*
%TO.N,Net-(U11-3A)*%
X61197600Y-129500000D03*
%TO.N,Net-(U18-1A)*%
X96957300Y-74977000D03*
%TO.N,Net-(U10-S)*%
X165525000Y-122063200D03*
%TO.N,Net-(U20-3A)*%
X74862300Y-143244600D03*
%TO.N,Net-(U12-L\u002AG+H+I)*%
X156390000Y-69005800D03*
%TO.N,GND*%
X68287000Y-104231600D03*
X163570000Y-121071800D03*
%TO.N,Net-(U10-I0b)*%
X74239300Y-132205600D03*
%TO.N,Net-(U19-2Y)*%
X163476400Y-159242000D03*
%TO.N,Net-(MT1-D)*%
X62549000Y-69005800D03*
%TO.N,Net-(MT1-CLR)*%
X100950100Y-85457800D03*
X126584200Y-85479400D03*
%TO.N,Net-(MT1-~{LOAD})*%
X136726000Y-102810000D03*
%TO.N,Net-(MT1-C)*%
X57301200Y-71776400D03*
%TO.N,Net-(MT1-QC)*%
X182163000Y-64499900D03*
%TO.N,Net-(MU1-QC)*%
X123291500Y-90786500D03*
%TO.N,Net-(MU1-D)*%
X59837900Y-97038900D03*
%TO.N,Net-(MU1-UP)*%
X116343800Y-153278200D03*
X113273300Y-101552100D03*
X161812000Y-153278200D03*
%TO.N,Net-(MU1-C)*%
X124269800Y-75505800D03*
%TO.N,Net-(SU1-A)*%
X72818000Y-169269200D03*
%TO.N,Net-(SU1-B)*%
X119252700Y-135341300D03*
%TO.N,Net-(SU1-C)*%
X119705100Y-117168300D03*
%TO.N,Net-(SU1-D)*%
X121770000Y-113574700D03*
%TO.N,Net-(ST1-~{LOAD})*%
X160830600Y-132373100D03*
%TO.N,Net-(ST1-QD)*%
X174401800Y-135920100D03*
%TO.N,Net-(ST1-B)*%
X107658700Y-126988200D03*
%TO.N,Net-(ST1-QA)*%
X103489900Y-82399400D03*
X183540500Y-138421500D03*
X111313800Y-80368000D03*
%TO.N,Net-(ST1-D)*%
X126293000Y-132099600D03*
%TO.N,Net-(ST1-CLR)*%
X124328000Y-97443200D03*
%TO.N,Net-(SU1-DOWN)*%
X123624500Y-168721500D03*
%TO.N,Net-(SU1-QD)*%
X186394300Y-167113600D03*
%TO.N,Net-(SU1-QB)*%
X187769000Y-169147000D03*
%TO.N,Net-(AFF1-f)*%
X243700000Y-70000000D03*
%TO.N,Net-(AFF2-d)*%
X235165700Y-98228600D03*
%TD*%
D23*
%TO.N,Net-(U1-THRES)*%
X50770600Y-175429400D02*
X32209400Y-175429400D01*
X50850000Y-175350000D02*
X50770600Y-175429400D01*
X32209400Y-175429400D02*
X30880000Y-174100000D01*
X28340000Y-181720000D02*
X32209400Y-177850600D01*
X32209400Y-177850600D02*
X32209400Y-175429400D01*
D24*
%TO.N,+5V*%
X199817800Y-84586000D02*
X197993000Y-86410800D01*
X131345100Y-89516600D02*
X133698500Y-91870000D01*
X168600000Y-91870000D02*
X189993800Y-91870000D01*
X53350000Y-166400000D02*
X50800000Y-163850000D01*
X128900000Y-86300000D02*
X126800000Y-84200000D01*
X247929400Y-125198800D02*
X263169400Y-125198800D01*
X103350000Y-122000000D02*
X104758300Y-120591700D01*
X197129400Y-122047000D02*
X192049400Y-127127000D01*
X34965000Y-180175000D02*
X33420000Y-181720000D01*
X248031000Y-85902800D02*
X246217300Y-85902800D01*
X153360000Y-174200000D02*
X155920000Y-171640000D01*
X168596200Y-59766200D02*
X168450000Y-59620000D01*
X95730000Y-127080000D02*
X100810000Y-122000000D01*
X116285100Y-176635100D02*
X121380000Y-181730000D01*
X192633600Y-57226200D02*
X190093600Y-57226200D01*
X153360000Y-91870000D02*
X154726300Y-90503700D01*
X247802400Y-102489000D02*
X263042400Y-102489000D01*
X197200000Y-164020000D02*
X192120000Y-169100000D01*
X60674200Y-180175000D02*
X34965000Y-180175000D01*
X197713600Y-52146200D02*
X192633600Y-57226200D01*
X189993800Y-91870000D02*
X190373000Y-91490800D01*
X188602400Y-126220000D02*
X189509400Y-127127000D01*
X168650000Y-126220000D02*
X188602400Y-126220000D01*
X83709000Y-182281000D02*
X91910000Y-174080000D01*
X66280000Y-166400000D02*
X53350000Y-166400000D01*
X104758300Y-120591700D02*
X127591700Y-120591700D01*
X127591700Y-120591700D02*
X128950000Y-121950000D01*
X192913000Y-91490800D02*
X190373000Y-91490800D01*
X189580000Y-171640000D02*
X167184200Y-171640000D01*
X94465100Y-176635100D02*
X116285100Y-176635100D01*
X71101000Y-182281000D02*
X83709000Y-182281000D01*
X246217300Y-85902800D02*
X244900500Y-84586000D01*
X133698500Y-91870000D02*
X153360000Y-91870000D01*
X167233700Y-90503700D02*
X168600000Y-91870000D01*
X126800000Y-84200000D02*
X107300000Y-84200000D01*
X61375000Y-180175000D02*
X60674200Y-180175000D01*
X100810000Y-122000000D02*
X103350000Y-122000000D01*
X154726300Y-90503700D02*
X167233700Y-90503700D01*
X155920000Y-171640000D02*
X167184200Y-171640000D01*
X197993000Y-86410800D02*
X192913000Y-91490800D01*
X244900500Y-84586000D02*
X199817800Y-84586000D01*
X190093600Y-59766200D02*
X168596200Y-59766200D01*
X192120000Y-169100000D02*
X189580000Y-169100000D01*
X192049400Y-127127000D02*
X189509400Y-127127000D01*
X91910000Y-174080000D02*
X94465100Y-176635100D01*
X263042400Y-146913600D02*
X247802400Y-146913600D01*
X68995000Y-180175000D02*
X71101000Y-182281000D01*
D23*
%TO.N,Net-(U1-DISCH)*%
X72540000Y-167760000D02*
X28398200Y-167760000D01*
X73900000Y-166400000D02*
X72540000Y-167760000D01*
X28398200Y-167760000D02*
X27125600Y-166487400D01*
%TO.N,Net-(U6-a)*%
X218653000Y-59766200D02*
X219826000Y-60939200D01*
X197713600Y-59766200D02*
X218653000Y-59766200D01*
%TO.N,Net-(U1-OUT)*%
X32367500Y-183207500D02*
X30880000Y-181720000D01*
X53900000Y-183207500D02*
X32367500Y-183207500D01*
%TO.N,Net-(U6-b)*%
X217143000Y-62306200D02*
X197713600Y-62306200D01*
X219826000Y-64989200D02*
X217143000Y-62306200D01*
%TO.N,Net-(U6-c)*%
X201906600Y-69039200D02*
X197713600Y-64846200D01*
X219826000Y-69039200D02*
X201906600Y-69039200D01*
%TO.N,Net-(U6-d)*%
X203416600Y-73089200D02*
X197713600Y-67386200D01*
X219826000Y-73089200D02*
X203416600Y-73089200D01*
%TO.N,Net-(U6-e)*%
X197713600Y-69926200D02*
X204926600Y-77139200D01*
X204926600Y-77139200D02*
X219826000Y-77139200D01*
%TO.N,Net-(U6-f)*%
X217493800Y-54686200D02*
X220080000Y-52100000D01*
X197713600Y-54686200D02*
X217493800Y-54686200D01*
%TO.N,Net-(U6-g)*%
X219003800Y-57226200D02*
X220080000Y-56150000D01*
X197713600Y-57226200D02*
X219003800Y-57226200D01*
%TO.N,Net-(U4-a)*%
X219648600Y-94030800D02*
X219804600Y-93874800D01*
X197993000Y-94030800D02*
X219648600Y-94030800D01*
%TO.N,Net-(U4-b)*%
X197993000Y-96570800D02*
X218450600Y-96570800D01*
X218450600Y-96570800D02*
X219804600Y-97924800D01*
%TO.N,Net-(U4-c)*%
X216940600Y-99110800D02*
X197993000Y-99110800D01*
X219804600Y-101974800D02*
X216940600Y-99110800D01*
%TO.N,Net-(U4-d)*%
X202367000Y-106024800D02*
X219804600Y-106024800D01*
X197993000Y-101650800D02*
X202367000Y-106024800D01*
%TO.N,Net-(U4-e)*%
X203877000Y-110074800D02*
X197993000Y-104190800D01*
X219804600Y-110074800D02*
X203877000Y-110074800D01*
%TO.N,Net-(U4-f)*%
X216829200Y-88950800D02*
X219830000Y-85950000D01*
X197993000Y-88950800D02*
X216829200Y-88950800D01*
%TO.N,Net-(U4-g)*%
X218339200Y-91490800D02*
X197993000Y-91490800D01*
X219830000Y-90000000D02*
X218339200Y-91490800D01*
%TO.N,Net-(U7-a)*%
X218438800Y-129667000D02*
X197129400Y-129667000D01*
X219753800Y-130982000D02*
X218438800Y-129667000D01*
%TO.N,Net-(U7-b)*%
X216928800Y-132207000D02*
X197129400Y-132207000D01*
X219753800Y-135032000D02*
X216928800Y-132207000D01*
%TO.N,Net-(U7-c)*%
X219906200Y-139677600D02*
X214975600Y-134747000D01*
X214975600Y-134747000D02*
X197129400Y-134747000D01*
%TO.N,Net-(U7-d)*%
X203570000Y-143727600D02*
X197129400Y-137287000D01*
X219906200Y-143727600D02*
X203570000Y-143727600D01*
%TO.N,Net-(U7-e)*%
X219906200Y-147777600D02*
X205080000Y-147777600D01*
X205080000Y-147777600D02*
X197129400Y-139827000D01*
%TO.N,Net-(U7-f)*%
X217293000Y-124587000D02*
X219830000Y-122050000D01*
X197129400Y-124587000D02*
X217293000Y-124587000D01*
%TO.N,Net-(U7-g)*%
X218803000Y-127127000D02*
X219830000Y-126100000D01*
X197129400Y-127127000D02*
X218803000Y-127127000D01*
%TO.N,Net-(U9-a)*%
X220120000Y-165950000D02*
X214430000Y-171640000D01*
X214430000Y-171640000D02*
X197200000Y-171640000D01*
%TO.N,Net-(U9-b)*%
X215890000Y-174180000D02*
X220120000Y-169950000D01*
X197200000Y-174180000D02*
X215890000Y-174180000D01*
%TO.N,Net-(U9-c)*%
X217310000Y-176720000D02*
X220080000Y-173950000D01*
X197200000Y-176720000D02*
X217310000Y-176720000D01*
%TO.N,Net-(U9-d)*%
X220080000Y-177950000D02*
X218770000Y-179260000D01*
X218770000Y-179260000D02*
X197200000Y-179260000D01*
%TO.N,Net-(U9-e)*%
X197200000Y-181800000D02*
X219930000Y-181800000D01*
X219930000Y-181800000D02*
X220080000Y-181950000D01*
%TO.N,Net-(U9-f)*%
X197200000Y-166560000D02*
X205810000Y-157950000D01*
X205810000Y-157950000D02*
X220120000Y-157950000D01*
%TO.N,Net-(U9-g)*%
X220120000Y-161950000D02*
X204350000Y-161950000D01*
X204350000Y-161950000D02*
X197200000Y-169100000D01*
%TO.N,Net-(U10-I0d)*%
X57382300Y-93521600D02*
X97398000Y-93521600D01*
X55500000Y-91639300D02*
X57382300Y-93521600D01*
X33620000Y-91600000D02*
X33659300Y-91639300D01*
%TO.N,Net-(U10-I0c)*%
X77772300Y-134049500D02*
X79711100Y-135988300D01*
X102061700Y-135988300D02*
X103350000Y-134700000D01*
X79711100Y-135988300D02*
X102061700Y-135988300D01*
%TO.N,Net-(U10-I0a)*%
X94725000Y-123535000D02*
X95730000Y-124540000D01*
X68493400Y-123535000D02*
X94725000Y-123535000D01*
%TO.N,Net-(U11-2A)*%
X162247200Y-150622800D02*
X160425400Y-150622800D01*
X159728300Y-149925700D02*
X159728300Y-146108800D01*
X163520000Y-149350000D02*
X162247200Y-150622800D01*
X160425400Y-150622800D02*
X159728300Y-149925700D01*
X155950000Y-118600000D02*
X153566600Y-116216600D01*
X153566600Y-116216600D02*
X114742000Y-116216600D01*
X159728300Y-146108800D02*
X159170300Y-145550800D01*
%TO.N,Net-(U11-3A)*%
X35400000Y-122350000D02*
X33700000Y-120650000D01*
X93322400Y-183112400D02*
X91910000Y-181700000D01*
X61197600Y-129500000D02*
X35400000Y-129500000D01*
X162227600Y-183112400D02*
X93322400Y-183112400D01*
X35400000Y-129500000D02*
X35400000Y-122350000D01*
X163520000Y-181820000D02*
X162227600Y-183112400D01*
%TO.N,Net-(U18-1A)*%
X94428700Y-74977000D02*
X96957300Y-74977000D01*
X94076500Y-77898300D02*
X93330000Y-77151800D01*
X93330000Y-77151800D02*
X93330000Y-76075700D01*
X107300000Y-76580000D02*
X105981700Y-77898300D01*
X105981700Y-77898300D02*
X94076500Y-77898300D01*
X93330000Y-76075700D02*
X94428700Y-74977000D01*
%TO.N,Net-(U12-H)*%
X162109800Y-58359800D02*
X163370000Y-59620000D01*
X157010200Y-58359800D02*
X162109800Y-58359800D01*
X155750000Y-59620000D02*
X157010200Y-58359800D01*
%TO.N,Net-(U20-1A)*%
X50050600Y-159599400D02*
X70350600Y-159599400D01*
X80539800Y-162489800D02*
X74000000Y-155950000D01*
X70350600Y-159599400D02*
X74000000Y-155950000D01*
X92010000Y-162489800D02*
X92010000Y-163750000D01*
X99630000Y-163750000D02*
X98369800Y-162489800D01*
X92010000Y-162489800D02*
X80539800Y-162489800D01*
X45800000Y-163850000D02*
X50050600Y-159599400D01*
X98369800Y-162489800D02*
X92010000Y-162489800D01*
%TO.N,Net-(U19-1Y)*%
X160980000Y-181820000D02*
X158440000Y-181820000D01*
%TO.N,Net-(U10-S)*%
X97840800Y-119889200D02*
X132926200Y-119889200D01*
X95730000Y-122000000D02*
X97840800Y-119889200D01*
X132926200Y-119889200D02*
X135100200Y-122063200D01*
X135100200Y-122063200D02*
X165525000Y-122063200D01*
%TO.N,Net-(U20-3A)*%
X52344900Y-133155100D02*
X72705100Y-133155100D01*
X91824600Y-143244600D02*
X74862300Y-143244600D01*
X104710000Y-156130000D02*
X91824600Y-143244600D01*
X50900000Y-134600000D02*
X52344900Y-133155100D01*
X72705100Y-133155100D02*
X74000000Y-134450000D01*
%TO.N,Net-(U12-L\u002AG+H+I)*%
X150843300Y-74552500D02*
X156390000Y-69005800D01*
X99167500Y-74552500D02*
X150843300Y-74552500D01*
X97140000Y-76580000D02*
X99167500Y-74552500D01*
%TO.N,Net-(R3_Timer1-Pad2)*%
X26900000Y-137850000D02*
X32900000Y-137850000D01*
D24*
%TO.N,GND*%
X95730000Y-141137800D02*
X95730000Y-139780000D01*
X92110000Y-51650000D02*
X65550000Y-51650000D01*
X153360000Y-143793500D02*
X153360000Y-149350000D01*
X153410000Y-118600000D02*
X155881800Y-121071800D01*
X65668800Y-114437100D02*
X65668800Y-109877500D01*
X63915000Y-178773300D02*
X52273300Y-178773300D01*
X153360000Y-143793500D02*
X125393500Y-143793500D01*
X95730000Y-141137800D02*
X70792200Y-141137800D01*
X168600000Y-181820000D02*
X189560000Y-181820000D01*
X63915000Y-178773300D02*
X63915000Y-180175000D01*
X166110000Y-126220000D02*
X163570000Y-126220000D01*
X65725900Y-69780000D02*
X121130000Y-69780000D01*
X66746400Y-104231600D02*
X68287000Y-104231600D01*
X45900000Y-149850000D02*
X50200000Y-145550000D01*
X189509400Y-139827000D02*
X157326500Y-139827000D01*
X129000000Y-163950000D02*
X127630300Y-162580300D01*
X41850000Y-178600000D02*
X41800000Y-178650000D01*
X112360400Y-102126600D02*
X114313800Y-104080000D01*
X119922200Y-141137800D02*
X95730000Y-141137800D01*
X70792200Y-141137800D02*
X66380000Y-145550000D01*
X114313800Y-104080000D02*
X121280000Y-104080000D01*
X91960000Y-96530000D02*
X97556600Y-102126600D01*
X155881800Y-121071800D02*
X163570000Y-121071800D01*
X65370000Y-70135900D02*
X65725900Y-69780000D01*
X52273300Y-178773300D02*
X50850000Y-177350000D01*
X189560000Y-181820000D02*
X189580000Y-181800000D01*
X65660000Y-105318000D02*
X66746400Y-104231600D01*
X127630300Y-162580300D02*
X108419700Y-162580300D01*
X49600000Y-178600000D02*
X41850000Y-178600000D01*
X50850000Y-177350000D02*
X49600000Y-178600000D01*
X50200000Y-145550000D02*
X66380000Y-145550000D01*
X97556600Y-102126600D02*
X112360400Y-102126600D01*
X121330000Y-139730000D02*
X119922200Y-141137800D01*
X108419700Y-162580300D02*
X107250000Y-163750000D01*
X157326500Y-139827000D02*
X153360000Y-143793500D01*
X65550000Y-51650000D02*
X65350000Y-51850000D01*
X72673300Y-178773300D02*
X63915000Y-178773300D01*
X74075000Y-180175000D02*
X72673300Y-178773300D01*
X125393500Y-143793500D02*
X121330000Y-139730000D01*
D23*
%TO.N,Net-(U10-I0b)*%
X95684400Y-132205600D02*
X95730000Y-132160000D01*
X74239300Y-132205600D02*
X95684400Y-132205600D01*
%TO.N,Net-(U19-2Y)*%
X105282000Y-159242000D02*
X163476400Y-159242000D01*
X102170000Y-156130000D02*
X105282000Y-159242000D01*
%TO.N,Net-(MT1-QB)*%
X122418300Y-53251700D02*
X166108300Y-53251700D01*
X104810000Y-51650000D02*
X107700000Y-54540000D01*
X188896000Y-53343800D02*
X190093600Y-52146200D01*
X166200400Y-53343800D02*
X188896000Y-53343800D01*
X166108300Y-53251700D02*
X166200400Y-53343800D01*
X107700000Y-54540000D02*
X121130000Y-54540000D01*
X121130000Y-54540000D02*
X122418300Y-53251700D01*
%TO.N,Net-(MT1-B)*%
X121130000Y-52000000D02*
X119526400Y-50396400D01*
X119526400Y-50396400D02*
X104292100Y-50396400D01*
X101499400Y-54257200D02*
X61945700Y-54257200D01*
X103540000Y-51148500D02*
X103540000Y-52216600D01*
X104292100Y-50396400D02*
X103540000Y-51148500D01*
X103540000Y-52216600D02*
X101499400Y-54257200D01*
X61945700Y-54257200D02*
X55210000Y-60992900D01*
%TO.N,Net-(MT1-QA)*%
X137050300Y-63548200D02*
X131852100Y-58350000D01*
X190093600Y-67386200D02*
X191375200Y-66104600D01*
X191375200Y-66104600D02*
X191375200Y-64345600D01*
X182567000Y-63557900D02*
X182557300Y-63548200D01*
X182557300Y-63548200D02*
X137050300Y-63548200D01*
X122400000Y-58350000D02*
X121130000Y-57080000D01*
X190587500Y-63557900D02*
X182567000Y-63557900D01*
X191375200Y-64345600D02*
X190587500Y-63557900D01*
X131852100Y-58350000D02*
X122400000Y-58350000D01*
%TO.N,Net-(MT1-D)*%
X33650000Y-51850000D02*
X33550000Y-51750000D01*
X127478600Y-68508600D02*
X63046200Y-68508600D01*
X128750000Y-69780000D02*
X127478600Y-68508600D01*
X63046200Y-68508600D02*
X62549000Y-69005800D01*
%TO.N,Net-(MT1-CLR)*%
X126152100Y-85047300D02*
X108222900Y-85047300D01*
X126584200Y-85479400D02*
X126152100Y-85047300D01*
X108222900Y-85047300D02*
X107812400Y-85457800D01*
X107812400Y-85457800D02*
X100950100Y-85457800D01*
%TO.N,Net-(MT1-~{LOAD})*%
X168650000Y-118600000D02*
X152860000Y-102810000D01*
X50900000Y-149850000D02*
X82122000Y-149850000D01*
X100900000Y-163201300D02*
X100900000Y-164324100D01*
X152860000Y-102810000D02*
X136726000Y-102810000D01*
X128396900Y-102810000D02*
X127639400Y-102052500D01*
X82122000Y-149850000D02*
X93270600Y-160998600D01*
X136726000Y-102810000D02*
X128396900Y-102810000D01*
X121380000Y-169030000D02*
X122650000Y-170300000D01*
X105605900Y-169030000D02*
X121380000Y-169030000D01*
X93270600Y-160998600D02*
X98697300Y-160998600D01*
X98697300Y-160998600D02*
X100900000Y-163201300D01*
X137620000Y-170300000D02*
X141550000Y-174230000D01*
X127639400Y-102052500D02*
X127639400Y-100260600D01*
X100900000Y-164324100D02*
X105605900Y-169030000D01*
X122650000Y-170300000D02*
X137620000Y-170300000D01*
X127639400Y-100260600D02*
X128900000Y-99000000D01*
%TO.N,Net-(MT1-QD)*%
X122400000Y-65970000D02*
X121130000Y-67240000D01*
X190093600Y-64846200D02*
X188969800Y-65970000D01*
X188969800Y-65970000D02*
X122400000Y-65970000D01*
%TO.N,Net-(MT1-C)*%
X130039800Y-70265600D02*
X130039800Y-68529800D01*
X57301200Y-71776400D02*
X128529000Y-71776400D01*
X128529000Y-71776400D02*
X130039800Y-70265600D01*
X130039800Y-68529800D02*
X128750000Y-67240000D01*
%TO.N,Net-(MT1-QC)*%
X132855100Y-64499900D02*
X131785200Y-63430000D01*
X122400000Y-63430000D02*
X121130000Y-64700000D01*
X97540000Y-64700000D02*
X92110000Y-59270000D01*
X131785200Y-63430000D02*
X122400000Y-63430000D01*
X121130000Y-64700000D02*
X97540000Y-64700000D01*
X182163000Y-64499900D02*
X132855100Y-64499900D01*
%TO.N,Net-(MT1-A)*%
X74207300Y-55810000D02*
X127480000Y-55810000D01*
X127480000Y-55810000D02*
X128750000Y-54540000D01*
X66738700Y-63278600D02*
X74207300Y-55810000D01*
X57495800Y-63278600D02*
X66738700Y-63278600D01*
X55210000Y-65564400D02*
X57495800Y-63278600D01*
%TO.N,Net-(MU1-A)*%
X61799600Y-90109900D02*
X55540000Y-83850300D01*
X128900000Y-88840000D02*
X123890500Y-88840000D01*
X123890500Y-88840000D02*
X122620600Y-90109900D01*
X122620600Y-90109900D02*
X61799600Y-90109900D01*
%TO.N,Net-(MU1-B)*%
X62320700Y-86409500D02*
X121170500Y-86409500D01*
X121170500Y-86409500D02*
X121280000Y-86300000D01*
X55190000Y-79278800D02*
X62320700Y-86409500D01*
%TO.N,Net-(MU1-QA)*%
X191662800Y-100361000D02*
X190373000Y-101650800D01*
X191662800Y-98591900D02*
X191662800Y-100361000D01*
X121280000Y-91380000D02*
X122550000Y-92650000D01*
X122550000Y-92650000D02*
X152220400Y-92650000D01*
X190911700Y-97840800D02*
X191662800Y-98591900D01*
X157411200Y-97840800D02*
X190911700Y-97840800D01*
X152220400Y-92650000D02*
X157411200Y-97840800D01*
%TO.N,Net-(MU1-QC)*%
X189980200Y-88558000D02*
X190373000Y-88950800D01*
X129384400Y-90128300D02*
X130954700Y-88558000D01*
X130954700Y-88558000D02*
X189980200Y-88558000D01*
X123291500Y-90786500D02*
X123949700Y-90128300D01*
X123949700Y-90128300D02*
X129384400Y-90128300D01*
%TO.N,Net-(MU1-QB)*%
X122551500Y-87568500D02*
X121280000Y-88840000D01*
X189215300Y-87568500D02*
X122551500Y-87568500D01*
X190373000Y-86410800D02*
X189215300Y-87568500D01*
%TO.N,Net-(MU1-D)*%
X110220300Y-102898300D02*
X65697300Y-102898300D01*
X128900000Y-104080000D02*
X127579800Y-105400200D01*
X112722200Y-105400200D02*
X110220300Y-102898300D01*
X127579800Y-105400200D02*
X112722200Y-105400200D01*
X65697300Y-102898300D02*
X59837900Y-97038900D01*
%TO.N,Net-(MU1-UP)*%
X116343800Y-153278200D02*
X161812000Y-153278200D01*
X121280000Y-96460000D02*
X118365400Y-96460000D01*
X118365400Y-96460000D02*
X113273300Y-101552100D01*
%TO.N,Net-(MU1-QD)*%
X135052600Y-97748300D02*
X136415100Y-99110800D01*
X136415100Y-99110800D02*
X190373000Y-99110800D01*
X121280000Y-101540000D02*
X121577200Y-101540000D01*
X121577200Y-101540000D02*
X125368800Y-97748400D01*
X125368800Y-97748300D02*
X135052600Y-97748300D01*
X125368800Y-97748400D02*
X125368800Y-97748300D01*
%TO.N,Net-(MU1-C)*%
X93400600Y-78500000D02*
X92798900Y-77898300D01*
X124269800Y-75505800D02*
X121275600Y-78500000D01*
X121275600Y-78500000D02*
X93400600Y-78500000D01*
X92798900Y-77898300D02*
X58381000Y-77898300D01*
X58381000Y-77898300D02*
X55190000Y-74707300D01*
%TO.N,Net-(SU1-A)*%
X91423500Y-169269200D02*
X95720000Y-173565700D01*
X97011800Y-175933400D02*
X117272500Y-175933400D01*
X95720000Y-173565700D02*
X95720000Y-174641600D01*
X72818000Y-169269200D02*
X91423500Y-169269200D01*
X117272500Y-175933400D02*
X120529100Y-179190000D01*
X55610000Y-123556200D02*
X55610000Y-123210000D01*
X95720000Y-174641600D02*
X97011800Y-175933400D01*
X120529100Y-179190000D02*
X121380000Y-179190000D01*
%TO.N,Net-(SU1-B)*%
X117341400Y-133430000D02*
X119252700Y-135341300D01*
X101801100Y-133430000D02*
X117341400Y-133430000D01*
X99242800Y-130871700D02*
X101801100Y-133430000D01*
X55508800Y-118996700D02*
X56328400Y-118996700D01*
X68203400Y-130871700D02*
X99242800Y-130871700D01*
X56328400Y-118996700D02*
X68203400Y-130871700D01*
%TO.N,Net-(SU1-C)*%
X55508800Y-114437100D02*
X58240000Y-117168300D01*
X58240000Y-117168300D02*
X119705100Y-117168300D01*
%TO.N,Net-(SU1-D)*%
X116776300Y-108581000D02*
X121770000Y-113574700D01*
X55508800Y-109877500D02*
X56805300Y-108581000D01*
X56805300Y-108581000D02*
X116776300Y-108581000D01*
%TO.N,Net-(ST1-~{LOAD})*%
X128950000Y-134650000D02*
X158553700Y-134650000D01*
X158553700Y-134650000D02*
X160830600Y-132373100D01*
%TO.N,Net-(ST1-C)*%
X127680000Y-138460000D02*
X128950000Y-137190000D01*
X103350000Y-139780000D02*
X104670000Y-138460000D01*
X104670000Y-138460000D02*
X127680000Y-138460000D01*
%TO.N,Net-(ST1-QD)*%
X188336300Y-135920100D02*
X174401800Y-135920100D01*
X189509400Y-134747000D02*
X188336300Y-135920100D01*
X121330000Y-137190000D02*
X122599900Y-135920100D01*
X122599900Y-135920100D02*
X174401800Y-135920100D01*
%TO.N,Net-(ST1-B)*%
X112696900Y-121950000D02*
X107658700Y-126988200D01*
X121330000Y-121950000D02*
X112696900Y-121950000D01*
%TO.N,Net-(ST1-A)*%
X108426900Y-128350000D02*
X111016900Y-125760000D01*
X95730000Y-129620000D02*
X97000000Y-128350000D01*
X111016900Y-125760000D02*
X127680000Y-125760000D01*
X97000000Y-128350000D02*
X108426900Y-128350000D01*
X127680000Y-125760000D02*
X128950000Y-124490000D01*
%TO.N,Net-(ST1-QA)*%
X111313800Y-80368000D02*
X105521300Y-80368000D01*
X184675000Y-137287000D02*
X183540500Y-138421500D01*
X167339900Y-85510100D02*
X152850000Y-85510100D01*
X149739300Y-82399400D02*
X103489900Y-82399400D01*
X105521300Y-80368000D02*
X103489900Y-82399400D01*
X152850000Y-85510100D02*
X149739300Y-82399400D01*
X189509400Y-137287000D02*
X184675000Y-137287000D01*
X168600000Y-84250000D02*
X167339900Y-85510100D01*
%TO.N,Net-(ST1-D)*%
X125051700Y-130858300D02*
X126293000Y-132099600D01*
X104651700Y-130858300D02*
X125051700Y-130858300D01*
X103350000Y-132160000D02*
X104651700Y-130858300D01*
%TO.N,Net-(ST1-QB)*%
X155950000Y-123220100D02*
X188336300Y-123220100D01*
X121330000Y-124490000D02*
X122599900Y-123220100D01*
X122599900Y-123220100D02*
X155950000Y-123220100D01*
X155950000Y-126220000D02*
X155950000Y-123220100D01*
X188336300Y-123220100D02*
X189509400Y-122047000D01*
%TO.N,Net-(ST1-CLR)*%
X102120000Y-96530000D02*
X103460000Y-95190000D01*
X103460000Y-95190000D02*
X122074800Y-95190000D01*
X122074800Y-95190000D02*
X124328000Y-97443200D01*
%TO.N,Net-(ST1-QC)*%
X160123000Y-124587000D02*
X158490000Y-126220000D01*
X122601600Y-133378400D02*
X121330000Y-134650000D01*
X189509400Y-124587000D02*
X160123000Y-124587000D01*
X158490000Y-126220000D02*
X151331600Y-133378400D01*
X151331600Y-133378400D02*
X122601600Y-133378400D01*
%TO.N,Net-(SU1-DOWN)*%
X123624500Y-168721500D02*
X123751700Y-168721500D01*
X122663000Y-167760000D02*
X108720000Y-167760000D01*
X123624500Y-168721500D02*
X122663000Y-167760000D01*
X123751700Y-168721500D02*
X123624500Y-168721500D01*
X108720000Y-167760000D02*
X104710000Y-163750000D01*
%TO.N,Net-(SU1-QC)*%
X189010100Y-166560000D02*
X186540100Y-169030000D01*
X186540100Y-169030000D02*
X129000000Y-169030000D01*
X189580000Y-166560000D02*
X189010100Y-166560000D01*
%TO.N,Net-(SU1-QD)*%
X186394300Y-167113600D02*
X185770700Y-166490000D01*
X185770700Y-166490000D02*
X129000000Y-166490000D01*
%TO.N,Net-(SU1-QB)*%
X186988900Y-169927100D02*
X187769000Y-169147000D01*
X140948200Y-175398300D02*
X141031600Y-175481700D01*
X148520700Y-175481700D02*
X154075300Y-169927100D01*
X141031600Y-175481700D02*
X148520700Y-175481700D01*
X154075300Y-169927100D02*
X186988900Y-169927100D01*
X129000000Y-179190000D02*
X127703000Y-177893000D01*
X127703000Y-176087000D02*
X128391700Y-175398300D01*
X127703000Y-177893000D02*
X127703000Y-176087000D01*
X128391700Y-175398300D02*
X140948200Y-175398300D01*
%TO.N,Net-(SU1-UP)*%
X107680200Y-172840000D02*
X127730000Y-172840000D01*
X107660400Y-172820200D02*
X107680200Y-172840000D01*
X97090000Y-163750000D02*
X106160200Y-172820200D01*
X106160200Y-172820200D02*
X107660400Y-172820200D01*
X127730000Y-172840000D02*
X129000000Y-171570000D01*
%TO.N,Net-(SU1-QA)*%
X131610000Y-179260000D02*
X129000000Y-176650000D01*
X189580000Y-179260000D02*
X131610000Y-179260000D01*
%TO.N,Net-(U1-CONT)*%
X33420000Y-174100000D02*
X41350000Y-174100000D01*
X41350000Y-174100000D02*
X41800000Y-173650000D01*
%TO.N,Net-(U13-6Y)*%
X123690300Y-177901700D02*
X126248000Y-180459400D01*
X120555600Y-177901700D02*
X123690300Y-177901700D01*
X117985600Y-175331700D02*
X120555600Y-177901700D01*
X126248000Y-180459400D02*
X154539400Y-180459400D01*
X96990000Y-174080000D02*
X98241700Y-175331700D01*
X98241700Y-175331700D02*
X117985600Y-175331700D01*
X154539400Y-180459400D02*
X155900000Y-181820000D01*
%TO.N,Net-(AFF1-a)*%
X260462800Y-83362800D02*
X263271000Y-83362800D01*
X250068842Y-73300000D02*
X250400000Y-73300000D01*
X249316984Y-72599000D02*
X249367842Y-72599000D01*
X227446000Y-60939200D02*
X238394000Y-71887200D01*
X250400000Y-73300000D02*
X260462800Y-83362800D01*
X238394000Y-71887200D02*
X248605184Y-71887200D01*
X249367842Y-72599000D02*
X250068842Y-73300000D01*
X248605184Y-71887200D02*
X249316984Y-72599000D01*
%TO.N,Net-(AFF1-f)*%
X243700000Y-68100000D02*
X227700000Y-52100000D01*
X243700000Y-70000000D02*
X243700000Y-68100000D01*
%TO.N,Net-(AFF1-e)*%
X227446000Y-77139200D02*
X244920900Y-77139200D01*
X248031000Y-75742800D02*
X246317300Y-75742800D01*
X244920900Y-77139200D02*
X246317300Y-75742800D01*
%TO.N,Net-(AFF1-d)*%
X248107300Y-73089200D02*
X249744700Y-74726600D01*
X227446000Y-73089200D02*
X248107300Y-73089200D01*
X248031000Y-78282800D02*
X249744700Y-78282800D01*
X249744700Y-74726600D02*
X249744700Y-78282800D01*
%TO.N,Net-(AFF1-b)*%
X261557300Y-85902800D02*
X261557300Y-85638400D01*
X249118900Y-73200000D02*
X249068042Y-73200000D01*
X261557300Y-85638400D02*
X249118900Y-73200000D01*
X234945000Y-72488200D02*
X227446000Y-64989200D01*
X249068042Y-73200000D02*
X248356242Y-72488200D01*
X248356242Y-72488200D02*
X234945000Y-72488200D01*
X263271000Y-85902800D02*
X261557300Y-85902800D01*
%TO.N,Net-(AFF1-g)*%
X242836200Y-71286200D02*
X227700000Y-56150000D01*
X250648942Y-72699000D02*
X250317784Y-72699000D01*
X248854126Y-71286200D02*
X242836200Y-71286200D01*
X249565926Y-71998000D02*
X248854126Y-71286200D01*
X249616784Y-71998000D02*
X249565926Y-71998000D01*
X263271000Y-75742800D02*
X253692742Y-75742800D01*
X250317784Y-72699000D02*
X249616784Y-71998000D01*
X253692742Y-75742800D02*
X250648942Y-72699000D01*
%TO.N,Net-(AFF2-c)*%
X227424600Y-101974800D02*
X230478800Y-105029000D01*
X230478800Y-105029000D02*
X247802400Y-105029000D01*
%TO.N,Net-(AFF2-d)*%
X235165700Y-98228600D02*
X236886100Y-99949000D01*
X236886100Y-99949000D02*
X247802400Y-99949000D01*
%TO.N,Net-(AFF2-a)*%
X264049200Y-101219000D02*
X234768800Y-101219000D01*
X264756100Y-101925900D02*
X264049200Y-101219000D01*
X234768800Y-101219000D02*
X227424600Y-93874800D01*
X263042400Y-105029000D02*
X264756100Y-105029000D01*
X264756100Y-105029000D02*
X264756100Y-101925900D01*
%TO.N,Net-(AFF2-f)*%
X226160000Y-90530100D02*
X226160000Y-87240000D01*
X263042400Y-99949000D02*
X261328700Y-99949000D01*
X231577500Y-95947600D02*
X226160000Y-90530100D01*
X257327300Y-95947600D02*
X231577500Y-95947600D01*
X261328700Y-99949000D02*
X257327300Y-95947600D01*
X226160000Y-87240000D02*
X227450000Y-85950000D01*
%TO.N,Net-(AFF2-g)*%
X261328700Y-97409000D02*
X253919700Y-90000000D01*
X253919700Y-90000000D02*
X227450000Y-90000000D01*
X263042400Y-97409000D02*
X261328700Y-97409000D01*
%TO.N,Net-(AFF2-b)*%
X263042400Y-107569000D02*
X261328700Y-107569000D01*
X233258800Y-103759000D02*
X227424600Y-97924800D01*
X257518700Y-103759000D02*
X233258800Y-103759000D01*
X261328700Y-107569000D02*
X257518700Y-103759000D01*
%TO.N,Net-(AFF3-b)*%
X263169400Y-130278800D02*
X261455700Y-130278800D01*
X261455700Y-130278800D02*
X256702500Y-135032000D01*
X256702500Y-135032000D02*
X227373800Y-135032000D01*
%TO.N,Net-(AFF3-f)*%
X264883100Y-122658800D02*
X264883100Y-119592200D01*
X264883100Y-119592200D02*
X264167800Y-118876900D01*
X264167800Y-118876900D02*
X230623100Y-118876900D01*
X263169400Y-122658800D02*
X264883100Y-122658800D01*
X230623100Y-118876900D02*
X227450000Y-122050000D01*
%TO.N,Net-(AFF3-a)*%
X261455700Y-127738800D02*
X260185700Y-126468800D01*
X263169400Y-127738800D02*
X261455700Y-127738800D01*
X231887000Y-126468800D02*
X227373800Y-130982000D01*
X260185700Y-126468800D02*
X231887000Y-126468800D01*
%TO.N,Net-(AFF3-c)*%
X232894700Y-127738800D02*
X247929400Y-127738800D01*
X227526200Y-139677600D02*
X226105700Y-138257100D01*
X226105700Y-134527800D02*
X232894700Y-127738800D01*
X226105700Y-138257100D02*
X226105700Y-134527800D01*
%TO.N,Net-(AFF3-g)*%
X261455700Y-120118800D02*
X257645800Y-123928700D01*
X263169400Y-120118800D02*
X261455700Y-120118800D01*
X229621300Y-123928700D02*
X227450000Y-126100000D01*
X257645800Y-123928700D02*
X229621300Y-123928700D01*
%TO.N,Net-(AFF4-b)*%
X261328700Y-151993600D02*
X263042400Y-151993600D01*
X227740000Y-169950000D02*
X242690000Y-155000000D01*
X242690000Y-155000000D02*
X258322300Y-155000000D01*
X258322300Y-155000000D02*
X261328700Y-151993600D01*
%TO.N,Net-(AFF4-g)*%
X264756100Y-144894100D02*
X264006600Y-145643600D01*
X264006600Y-145643600D02*
X244046400Y-145643600D01*
X263042400Y-141833600D02*
X264756100Y-141833600D01*
X264756100Y-141833600D02*
X264756100Y-144894100D01*
X244046400Y-145643600D02*
X227740000Y-161950000D01*
%TO.N,Net-(AFF4-a)*%
X263042400Y-149453600D02*
X261328700Y-149453600D01*
X256682300Y-154100000D02*
X239590000Y-154100000D01*
X261328700Y-149453600D02*
X256682300Y-154100000D01*
X239590000Y-154100000D02*
X227740000Y-165950000D01*
%TO.N,Net-(AFF4-f)*%
X263042400Y-144373600D02*
X261328700Y-144373600D01*
X227740000Y-157950000D02*
X245074000Y-140616000D01*
X257571100Y-140616000D02*
X261328700Y-144373600D01*
X245074000Y-140616000D02*
X257571100Y-140616000D01*
%TO.N,Net-(J3-Pin_5)*%
X93184600Y-172814600D02*
X89472300Y-172814600D01*
X72878800Y-181518800D02*
X71535000Y-180175000D01*
X80766600Y-181520300D02*
X78163700Y-181520300D01*
X89472300Y-172814600D02*
X80766600Y-181520300D01*
X94450000Y-174080000D02*
X93184600Y-172814600D01*
X78162200Y-181518800D02*
X72878800Y-181518800D01*
X78163700Y-181520300D02*
X78162200Y-181518800D01*
%TD*%
M02*
