%TF.GenerationSoftware,KiCad,Pcbnew,9.0.7*%
%TF.CreationDate,2026-03-05T14:01:35+02:00*%
%TF.ProjectId,Stopwatch_Timer,53746f70-7761-4746-9368-5f54696d6572,rev?*%
%TF.SameCoordinates,Original*%
%TF.FileFunction,Copper,L2,Bot*%
%TF.FilePolarity,Positive*%
%FSLAX46Y46*%
G04 Gerber Fmt 4.6, Leading zero omitted, Abs format (unit mm)*
G04 Created by KiCad (PCBNEW 9.0.7) date 2026-03-05 14:01:35*
%MOMM*%
%LPD*%
G01*
G04 APERTURE LIST*
G04 Aperture macros list*
%AMRoundRect*
0 Rectangle with rounded corners*
0 $1 Rounding radius*
0 $2 $3 $4 $5 $6 $7 $8 $9 X,Y pos of 4 corners*
0 Add a 4 corners polygon primitive as box body*
4,1,4,$2,$3,$4,$5,$6,$7,$8,$9,$2,$3,0*
0 Add four circle primitives for the rounded corners*
1,1,$1+$1,$2,$3*
1,1,$1+$1,$4,$5*
1,1,$1+$1,$6,$7*
1,1,$1+$1,$8,$9*
0 Add four rect primitives between the rounded corners*
20,1,$1+$1,$2,$3,$4,$5,0*
20,1,$1+$1,$4,$5,$6,$7,0*
20,1,$1+$1,$6,$7,$8,$9,0*
20,1,$1+$1,$8,$9,$2,$3,0*%
G04 Aperture macros list end*
%TA.AperFunction,ComponentPad*%
%ADD10C,1.600000*%
%TD*%
%TA.AperFunction,ComponentPad*%
%ADD11R,2.524000X1.524000*%
%TD*%
%TA.AperFunction,ComponentPad*%
%ADD12O,2.524000X1.524000*%
%TD*%
%TA.AperFunction,ComponentPad*%
%ADD13C,2.000000*%
%TD*%
%TA.AperFunction,ComponentPad*%
%ADD14RoundRect,0.250000X-0.550000X-0.550000X0.550000X-0.550000X0.550000X0.550000X-0.550000X0.550000X0*%
%TD*%
%TA.AperFunction,ComponentPad*%
%ADD15R,1.700000X1.700000*%
%TD*%
%TA.AperFunction,ComponentPad*%
%ADD16C,1.700000*%
%TD*%
%TA.AperFunction,ComponentPad*%
%ADD17RoundRect,0.250000X-0.550000X0.550000X-0.550000X-0.550000X0.550000X-0.550000X0.550000X0.550000X0*%
%TD*%
%TA.AperFunction,ComponentPad*%
%ADD18RoundRect,0.250000X0.550000X0.550000X-0.550000X0.550000X-0.550000X-0.550000X0.550000X-0.550000X0*%
%TD*%
%TA.AperFunction,ComponentPad*%
%ADD19RoundRect,0.250000X0.550000X-0.550000X0.550000X0.550000X-0.550000X0.550000X-0.550000X-0.550000X0*%
%TD*%
%TA.AperFunction,ViaPad*%
%ADD20C,1.000000*%
%TD*%
%TA.AperFunction,Conductor*%
%ADD21C,0.300000*%
%TD*%
%TA.AperFunction,Conductor*%
%ADD22C,0.500000*%
%TD*%
G04 APERTURE END LIST*
D10*
%TO.P,R46,1*%
%TO.N,Net-(MU1-B)*%
X55190000Y-79278800D03*
%TO.P,R46,2*%
%TO.N,GND*%
X65350000Y-79278800D03*
%TD*%
%TO.P,R24,1*%
%TO.N,Net-(U7-g)*%
X219830000Y-126100000D03*
%TO.P,R24,2*%
%TO.N,Net-(AFF3-g)*%
X227450000Y-126100000D03*
%TD*%
%TO.P,R40,1*%
%TO.N,Net-(MT1-D)*%
X55190000Y-51850000D03*
%TO.P,R40,2*%
%TO.N,GND*%
X65350000Y-51850000D03*
%TD*%
D11*
%TO.P,AFF4,1,e*%
%TO.N,Net-(AFF4-e)*%
X247802400Y-141833600D03*
D12*
%TO.P,AFF4,2,d*%
%TO.N,Net-(AFF4-d)*%
X247802400Y-144373600D03*
%TO.P,AFF4,3,C.A.*%
%TO.N,+5V*%
X247802400Y-146913600D03*
%TO.P,AFF4,4,c*%
%TO.N,Net-(AFF4-c)*%
X247802400Y-149453600D03*
%TO.P,AFF4,5,DP*%
%TO.N,+5V*%
X247802400Y-151993600D03*
%TO.P,AFF4,6,b*%
%TO.N,Net-(AFF4-b)*%
X263042400Y-151993600D03*
%TO.P,AFF4,7,a*%
%TO.N,Net-(AFF4-a)*%
X263042400Y-149453600D03*
%TO.P,AFF4,8,C.A.*%
%TO.N,+5V*%
X263042400Y-146913600D03*
%TO.P,AFF4,9,f*%
%TO.N,Net-(AFF4-f)*%
X263042400Y-144373600D03*
%TO.P,AFF4,10,g*%
%TO.N,Net-(AFF4-g)*%
X263042400Y-141833600D03*
%TD*%
D10*
%TO.P,R25,1*%
%TO.N,Net-(U9-a)*%
X220120000Y-165950000D03*
%TO.P,R25,2*%
%TO.N,Net-(AFF4-a)*%
X227740000Y-165950000D03*
%TD*%
%TO.P,R29,1*%
%TO.N,Net-(U9-e)*%
X220080000Y-181950000D03*
%TO.P,R29,2*%
%TO.N,Net-(AFF4-e)*%
X227700000Y-181950000D03*
%TD*%
D13*
%TO.P,S4,1*%
%TO.N,+5V*%
X45900000Y-134600000D03*
%TO.P,S4,2*%
%TO.N,Net-(U20-3A)*%
X50900000Y-134600000D03*
%TD*%
D14*
%TO.P,MU1,1,B*%
%TO.N,Net-(MU1-B)*%
X121280000Y-86300000D03*
D10*
%TO.P,MU1,2,QB*%
%TO.N,Net-(MU1-QB)*%
X121280000Y-88840000D03*
%TO.P,MU1,3,QA*%
%TO.N,Net-(MU1-QA)*%
X121280000Y-91380000D03*
%TO.P,MU1,4,DOWN*%
%TO.N,Net-(MU1-DOWN)*%
X121280000Y-93920000D03*
%TO.P,MU1,5,UP*%
%TO.N,Net-(MU1-UP)*%
X121280000Y-96460000D03*
%TO.P,MU1,6,QC*%
%TO.N,Net-(MU1-QC)*%
X121280000Y-99000000D03*
%TO.P,MU1,7,QD*%
%TO.N,Net-(MU1-QD)*%
X121280000Y-101540000D03*
%TO.P,MU1,8,GND*%
%TO.N,GND*%
X121280000Y-104080000D03*
%TO.P,MU1,9,D*%
%TO.N,Net-(MU1-D)*%
X128900000Y-104080000D03*
%TO.P,MU1,10,C*%
%TO.N,Net-(MU1-C)*%
X128900000Y-101540000D03*
%TO.P,MU1,11,~{LOAD}*%
%TO.N,Net-(MT1-~{LOAD})*%
X128900000Y-99000000D03*
%TO.P,MU1,12,~{CO}*%
%TO.N,Net-(MT1-UP)*%
X128900000Y-96460000D03*
%TO.P,MU1,13,~{BO}*%
%TO.N,Net-(MT1-DOWN)*%
X128900000Y-93920000D03*
%TO.P,MU1,14,CLR*%
%TO.N,Net-(MT1-CLR)*%
X128900000Y-91380000D03*
%TO.P,MU1,15,A*%
%TO.N,Net-(MU1-A)*%
X128900000Y-88840000D03*
%TO.P,MU1,16,VCC*%
%TO.N,+5V*%
X128900000Y-86300000D03*
%TD*%
D15*
%TO.P,J3,1,Pin_1*%
%TO.N,+5V*%
X61375000Y-180175000D03*
D16*
%TO.P,J3,2,Pin_2*%
%TO.N,GND*%
X63915000Y-180175000D03*
%TO.P,J3,3,Pin_3*%
%TO.N,unconnected-(J3-Pin_3-Pad3)*%
X66455000Y-180175000D03*
%TO.P,J3,4,Pin_4*%
%TO.N,+5V*%
X68995000Y-180175000D03*
%TO.P,J3,5,Pin_5*%
%TO.N,Net-(J3-Pin_5)*%
X71535000Y-180175000D03*
%TO.P,J3,6,Pin_6*%
%TO.N,GND*%
X74075000Y-180175000D03*
%TD*%
D14*
%TO.P,SW1,1*%
%TO.N,+5V*%
X26000000Y-91600000D03*
D10*
%TO.P,SW1,2*%
X26000000Y-94140000D03*
%TO.P,SW1,3*%
X26000000Y-96680000D03*
%TO.P,SW1,4*%
X26000000Y-99220000D03*
%TO.P,SW1,5*%
X26000000Y-101760000D03*
%TO.P,SW1,6*%
X26000000Y-104300000D03*
%TO.P,SW1,7*%
X26000000Y-106840000D03*
%TO.P,SW1,8*%
X26000000Y-109380000D03*
%TO.P,SW1,9*%
%TO.N,Net-(SU1-A)*%
X33620000Y-109380000D03*
%TO.P,SW1,10*%
%TO.N,Net-(SU1-B)*%
X33620000Y-106840000D03*
%TO.P,SW1,11*%
%TO.N,Net-(SU1-C)*%
X33620000Y-104300000D03*
%TO.P,SW1,12*%
%TO.N,Net-(SU1-D)*%
X33620000Y-101760000D03*
%TO.P,SW1,13*%
%TO.N,Net-(U10-I0a)*%
X33620000Y-99220000D03*
%TO.P,SW1,14*%
%TO.N,Net-(U10-I0b)*%
X33620000Y-96680000D03*
%TO.P,SW1,15*%
%TO.N,Net-(U10-I0c)*%
X33620000Y-94140000D03*
%TO.P,SW1,16*%
%TO.N,Net-(U10-I0d)*%
X33620000Y-91600000D03*
%TD*%
%TO.P,R_Mode1,1*%
%TO.N,Net-(U11-3A)*%
X74000000Y-145550000D03*
%TO.P,R_Mode1,2*%
%TO.N,GND*%
X66380000Y-145550000D03*
%TD*%
%TO.P,R14,1*%
%TO.N,Net-(U4-d)*%
X219804600Y-106024800D03*
%TO.P,R14,2*%
%TO.N,Net-(AFF2-d)*%
X227424600Y-106024800D03*
%TD*%
%TO.P,R18,1*%
%TO.N,Net-(U7-a)*%
X219753800Y-130982000D03*
%TO.P,R18,2*%
%TO.N,Net-(AFF3-a)*%
X227373800Y-130982000D03*
%TD*%
%TO.P,R39,1*%
%TO.N,Net-(U1-OUT)*%
X66380000Y-155950000D03*
%TO.P,R39,2*%
%TO.N,Net-(U20-1A)*%
X74000000Y-155950000D03*
%TD*%
%TO.P,R49,1*%
%TO.N,Net-(U20-3A)*%
X74000000Y-134450000D03*
%TO.P,R49,2*%
%TO.N,GND*%
X66380000Y-134450000D03*
%TD*%
%TO.P,R47,1*%
%TO.N,Net-(MU1-A)*%
X55540000Y-83850300D03*
%TO.P,R47,2*%
%TO.N,GND*%
X65700000Y-83850300D03*
%TD*%
%TO.P,R16,1*%
%TO.N,Net-(U4-f)*%
X219830000Y-85950000D03*
%TO.P,R16,2*%
%TO.N,Net-(AFF2-f)*%
X227450000Y-85950000D03*
%TD*%
%TO.P,R33,1*%
%TO.N,Net-(U10-I0b)*%
X55500000Y-100758400D03*
%TO.P,R33,2*%
%TO.N,GND*%
X65660000Y-100758400D03*
%TD*%
%TO.P,R26,1*%
%TO.N,Net-(U9-b)*%
X220120000Y-169950000D03*
%TO.P,R26,2*%
%TO.N,Net-(AFF4-b)*%
X227740000Y-169950000D03*
%TD*%
D17*
%TO.P,U23,1,1A*%
%TO.N,Net-(U11-2A)*%
X107200000Y-96530000D03*
D10*
%TO.P,U23,2,1B*%
%TO.N,Net-(MT1-CLR)*%
X104660000Y-96530000D03*
%TO.P,U23,3,1Y*%
%TO.N,Net-(ST1-CLR)*%
X102120000Y-96530000D03*
%TO.P,U23,4,2A*%
%TO.N,unconnected-(U23-2A-Pad4)*%
X99580000Y-96530000D03*
%TO.P,U23,5,2B*%
%TO.N,unconnected-(U23-2B-Pad5)*%
X97040000Y-96530000D03*
%TO.P,U23,6,2Y*%
%TO.N,unconnected-(U23-2Y-Pad6)*%
X94500000Y-96530000D03*
%TO.P,U23,7,GND*%
%TO.N,GND*%
X91960000Y-96530000D03*
%TO.P,U23,8,3Y*%
%TO.N,unconnected-(U23-3Y-Pad8)*%
X91960000Y-104150000D03*
%TO.P,U23,9,3A*%
%TO.N,unconnected-(U23-3A-Pad9)*%
X94500000Y-104150000D03*
%TO.P,U23,10,3B*%
%TO.N,unconnected-(U23-3B-Pad10)*%
X97040000Y-104150000D03*
%TO.P,U23,11,4Y*%
%TO.N,unconnected-(U23-4Y-Pad11)*%
X99580000Y-104150000D03*
%TO.P,U23,12,4A*%
%TO.N,unconnected-(U23-4A-Pad12)*%
X102120000Y-104150000D03*
%TO.P,U23,13,4B*%
%TO.N,unconnected-(U23-4B-Pad13)*%
X104660000Y-104150000D03*
%TO.P,U23,14,VCC*%
%TO.N,unconnected-(U23-VCC-Pad14)*%
X107200000Y-104150000D03*
%TD*%
%TO.P,R4_Timer1,1*%
%TO.N,Net-(R3_Timer1-Pad2)*%
X32900000Y-137850000D03*
%TO.P,R4_Timer1,2*%
%TO.N,Net-(R4_Timer1-Pad2)*%
X32900000Y-145470000D03*
%TD*%
%TO.P,R36,1*%
%TO.N,Net-(SU1-C)*%
X55508800Y-114437100D03*
%TO.P,R36,2*%
%TO.N,GND*%
X65668800Y-114437100D03*
%TD*%
D13*
%TO.P,S3,1*%
%TO.N,GND*%
X45900000Y-149850000D03*
%TO.P,S3,2*%
%TO.N,Net-(MT1-~{LOAD})*%
X50900000Y-149850000D03*
%TD*%
D10*
%TO.P,R34,1*%
%TO.N,Net-(U10-I0a)*%
X55500000Y-105318000D03*
%TO.P,R34,2*%
%TO.N,GND*%
X65660000Y-105318000D03*
%TD*%
D14*
%TO.P,SW3,1*%
%TO.N,+5V*%
X25930000Y-51750000D03*
D10*
%TO.P,SW3,2*%
X25930000Y-54290000D03*
%TO.P,SW3,3*%
X25930000Y-56830000D03*
%TO.P,SW3,4*%
X25930000Y-59370000D03*
%TO.P,SW3,5*%
X25930000Y-61910000D03*
%TO.P,SW3,6*%
X25930000Y-64450000D03*
%TO.P,SW3,7*%
X25930000Y-66990000D03*
%TO.P,SW3,8*%
X25930000Y-69530000D03*
%TO.P,SW3,9*%
%TO.N,Net-(MU1-A)*%
X33550000Y-69530000D03*
%TO.P,SW3,10*%
%TO.N,Net-(MU1-B)*%
X33550000Y-66990000D03*
%TO.P,SW3,11*%
%TO.N,Net-(MU1-C)*%
X33550000Y-64450000D03*
%TO.P,SW3,12*%
%TO.N,Net-(MU1-D)*%
X33550000Y-61910000D03*
%TO.P,SW3,13*%
%TO.N,Net-(MT1-A)*%
X33550000Y-59370000D03*
%TO.P,SW3,14*%
%TO.N,Net-(MT1-B)*%
X33550000Y-56830000D03*
%TO.P,SW3,15*%
%TO.N,Net-(MT1-C)*%
X33550000Y-54290000D03*
%TO.P,SW3,16*%
%TO.N,Net-(MT1-D)*%
X33550000Y-51750000D03*
%TD*%
%TO.P,R32,1*%
%TO.N,Net-(U10-I0c)*%
X55500000Y-96198800D03*
%TO.P,R32,2*%
%TO.N,GND*%
X65660000Y-96198800D03*
%TD*%
%TO.P,R3,1*%
%TO.N,Net-(U10-I0d)*%
X55500000Y-91639300D03*
%TO.P,R3,2*%
%TO.N,GND*%
X65660000Y-91639300D03*
%TD*%
%TO.P,R6,1*%
%TO.N,Net-(U6-c)*%
X219826000Y-69039200D03*
%TO.P,R6,2*%
%TO.N,Net-(AFF1-c)*%
X227446000Y-69039200D03*
%TD*%
%TO.P,R37,1*%
%TO.N,Net-(SU1-B)*%
X55508800Y-118996700D03*
%TO.P,R37,2*%
%TO.N,GND*%
X65668800Y-118996700D03*
%TD*%
%TO.P,R13,1*%
%TO.N,Net-(U4-c)*%
X219804600Y-101974800D03*
%TO.P,R13,2*%
%TO.N,Net-(AFF2-c)*%
X227424600Y-101974800D03*
%TD*%
D11*
%TO.P,AFF3,1,e*%
%TO.N,Net-(AFF3-e)*%
X247929400Y-120118800D03*
D12*
%TO.P,AFF3,2,d*%
%TO.N,Net-(AFF3-d)*%
X247929400Y-122658800D03*
%TO.P,AFF3,3,C.A.*%
%TO.N,+5V*%
X247929400Y-125198800D03*
%TO.P,AFF3,4,c*%
%TO.N,Net-(AFF3-c)*%
X247929400Y-127738800D03*
%TO.P,AFF3,5,DP*%
%TO.N,+5V*%
X247929400Y-130278800D03*
%TO.P,AFF3,6,b*%
%TO.N,Net-(AFF3-b)*%
X263169400Y-130278800D03*
%TO.P,AFF3,7,a*%
%TO.N,Net-(AFF3-a)*%
X263169400Y-127738800D03*
%TO.P,AFF3,8,C.A.*%
%TO.N,+5V*%
X263169400Y-125198800D03*
%TO.P,AFF3,9,f*%
%TO.N,Net-(AFF3-f)*%
X263169400Y-122658800D03*
%TO.P,AFF3,10,g*%
%TO.N,Net-(AFF3-g)*%
X263169400Y-120118800D03*
%TD*%
D17*
%TO.P,U11,1,1A*%
%TO.N,Net-(U11-1A)*%
X168600000Y-149350000D03*
D10*
%TO.P,U11,2,1Y*%
%TO.N,Net-(U10-S)*%
X166060000Y-149350000D03*
%TO.P,U11,3,2A*%
%TO.N,Net-(U11-2A)*%
X163520000Y-149350000D03*
%TO.P,U11,4,2Y*%
%TO.N,Net-(MU1-UP)*%
X160980000Y-149350000D03*
%TO.P,U11,5,3A*%
%TO.N,Net-(U11-3A)*%
X158440000Y-149350000D03*
%TO.P,U11,6,3Y*%
%TO.N,Net-(U11-3Y)*%
X155900000Y-149350000D03*
%TO.P,U11,7,GND*%
%TO.N,GND*%
X153360000Y-149350000D03*
%TO.P,U11,8,4Y*%
%TO.N,unconnected-(U11-4Y-Pad8)*%
X153360000Y-156970000D03*
%TO.P,U11,9,4A*%
%TO.N,unconnected-(U11-4A-Pad9)*%
X155900000Y-156970000D03*
%TO.P,U11,10,5Y*%
%TO.N,unconnected-(U11-5Y-Pad10)*%
X158440000Y-156970000D03*
%TO.P,U11,11,5A*%
%TO.N,unconnected-(U11-5A-Pad11)*%
X160980000Y-156970000D03*
%TO.P,U11,12,6Y*%
%TO.N,unconnected-(U11-6Y-Pad12)*%
X163520000Y-156970000D03*
%TO.P,U11,13,6A*%
%TO.N,unconnected-(U11-6A-Pad13)*%
X166060000Y-156970000D03*
%TO.P,U11,14,VCC*%
%TO.N,+5V*%
X168600000Y-156970000D03*
%TD*%
D14*
%TO.P,MT1,1,B*%
%TO.N,Net-(MT1-B)*%
X121130000Y-52000000D03*
D10*
%TO.P,MT1,2,QB*%
%TO.N,Net-(MT1-QB)*%
X121130000Y-54540000D03*
%TO.P,MT1,3,QA*%
%TO.N,Net-(MT1-QA)*%
X121130000Y-57080000D03*
%TO.P,MT1,4,DOWN*%
%TO.N,Net-(MT1-DOWN)*%
X121130000Y-59620000D03*
%TO.P,MT1,5,UP*%
%TO.N,Net-(MT1-UP)*%
X121130000Y-62160000D03*
%TO.P,MT1,6,QC*%
%TO.N,Net-(MT1-QC)*%
X121130000Y-64700000D03*
%TO.P,MT1,7,QD*%
%TO.N,Net-(MT1-QD)*%
X121130000Y-67240000D03*
%TO.P,MT1,8,GND*%
%TO.N,GND*%
X121130000Y-69780000D03*
%TO.P,MT1,9,D*%
%TO.N,Net-(MT1-D)*%
X128750000Y-69780000D03*
%TO.P,MT1,10,C*%
%TO.N,Net-(MT1-C)*%
X128750000Y-67240000D03*
%TO.P,MT1,11,~{LOAD}*%
%TO.N,Net-(MT1-~{LOAD})*%
X128750000Y-64700000D03*
%TO.P,MT1,12,~{CO}*%
%TO.N,unconnected-(MT1-~{CO}-Pad12)*%
X128750000Y-62160000D03*
%TO.P,MT1,13,~{BO}*%
%TO.N,unconnected-(MT1-~{BO}-Pad13)*%
X128750000Y-59620000D03*
%TO.P,MT1,14,CLR*%
%TO.N,Net-(MT1-CLR)*%
X128750000Y-57080000D03*
%TO.P,MT1,15,A*%
%TO.N,Net-(MT1-A)*%
X128750000Y-54540000D03*
%TO.P,MT1,16,VCC*%
%TO.N,+5V*%
X128750000Y-52000000D03*
%TD*%
%TO.P,R7,1*%
%TO.N,Net-(U6-d)*%
X219826000Y-73089200D03*
%TO.P,R7,2*%
%TO.N,Net-(AFF1-d)*%
X227446000Y-73089200D03*
%TD*%
%TO.P,R1_Timer1,1*%
%TO.N,Net-(U1-DISCH)*%
X27125600Y-166487400D03*
%TO.P,R1_Timer1,2*%
%TO.N,Net-(R1_Timer1-Pad2)*%
X27125600Y-158867400D03*
%TD*%
D18*
%TO.P,SU1,1,B*%
%TO.N,Net-(SU1-B)*%
X129000000Y-181730000D03*
D10*
%TO.P,SU1,2,QB*%
%TO.N,Net-(SU1-QB)*%
X129000000Y-179190000D03*
%TO.P,SU1,3,QA*%
%TO.N,Net-(SU1-QA)*%
X129000000Y-176650000D03*
%TO.P,SU1,4,DOWN*%
%TO.N,Net-(SU1-DOWN)*%
X129000000Y-174110000D03*
%TO.P,SU1,5,UP*%
%TO.N,Net-(SU1-UP)*%
X129000000Y-171570000D03*
%TO.P,SU1,6,QC*%
%TO.N,Net-(SU1-QC)*%
X129000000Y-169030000D03*
%TO.P,SU1,7,QD*%
%TO.N,Net-(SU1-QD)*%
X129000000Y-166490000D03*
%TO.P,SU1,8,GND*%
%TO.N,GND*%
X129000000Y-163950000D03*
%TO.P,SU1,9,D*%
%TO.N,Net-(SU1-D)*%
X121380000Y-163950000D03*
%TO.P,SU1,10,C*%
%TO.N,Net-(SU1-C)*%
X121380000Y-166490000D03*
%TO.P,SU1,11,~{LOAD}*%
%TO.N,Net-(MT1-~{LOAD})*%
X121380000Y-169030000D03*
%TO.P,SU1,12,~{CO}*%
%TO.N,Net-(ST1-UP)*%
X121380000Y-171570000D03*
%TO.P,SU1,13,~{BO}*%
%TO.N,Net-(ST1-DOWN)*%
X121380000Y-174110000D03*
%TO.P,SU1,14,CLR*%
%TO.N,Net-(MT1-CLR)*%
X121380000Y-176650000D03*
%TO.P,SU1,15,A*%
%TO.N,Net-(SU1-A)*%
X121380000Y-179190000D03*
%TO.P,SU1,16,VCC*%
%TO.N,+5V*%
X121380000Y-181730000D03*
%TD*%
%TO.P,R8,1*%
%TO.N,Net-(U6-e)*%
X219826000Y-77139200D03*
%TO.P,R8,2*%
%TO.N,Net-(AFF1-e)*%
X227446000Y-77139200D03*
%TD*%
%TO.P,R23,1*%
%TO.N,Net-(U7-f)*%
X219830000Y-122050000D03*
%TO.P,R23,2*%
%TO.N,Net-(AFF3-f)*%
X227450000Y-122050000D03*
%TD*%
%TO.P,R4,1*%
%TO.N,Net-(U6-a)*%
X219826000Y-60939200D03*
%TO.P,R4,2*%
%TO.N,Net-(AFF1-a)*%
X227446000Y-60939200D03*
%TD*%
%TO.P,R31,1*%
%TO.N,Net-(U9-g)*%
X220120000Y-161950000D03*
%TO.P,R31,2*%
%TO.N,Net-(AFF4-g)*%
X227740000Y-161950000D03*
%TD*%
D17*
%TO.P,U22,1,A*%
%TO.N,Net-(ST1-QA)*%
X168600000Y-84250000D03*
D10*
%TO.P,U22,2,B*%
%TO.N,Net-(ST1-QD)*%
X166060000Y-84250000D03*
%TO.P,U22,3,D*%
%TO.N,unconnected-(U22-D-Pad3)*%
X163520000Y-84250000D03*
%TO.P,U22,4,E*%
%TO.N,unconnected-(U22-E-Pad4)*%
X160980000Y-84250000D03*
%TO.P,U22,5,F*%
%TO.N,unconnected-(U22-F-Pad5)*%
X158440000Y-84250000D03*
%TO.P,U22,6,K\u002A~(D.E.F)*%
%TO.N,unconnected-(U22-K\u002A~(D.E.F)-Pad6)*%
X155900000Y-84250000D03*
%TO.P,U22,7,VSS*%
%TO.N,GND*%
X153360000Y-84250000D03*
%TO.P,U22,8,C*%
%TO.N,+5V*%
X153360000Y-91870000D03*
%TO.P,U22,9,J\u002A~(A.B.C)*%
%TO.N,Net-(U11-1A)*%
X155900000Y-91870000D03*
%TO.P,U22,10,L\u002A~(G.H.I)*%
%TO.N,unconnected-(U22-L\u002A~(G.H.I)-Pad10)*%
X158440000Y-91870000D03*
%TO.P,U22,11,I*%
%TO.N,unconnected-(U22-I-Pad11)*%
X160980000Y-91870000D03*
%TO.P,U22,12,H*%
%TO.N,unconnected-(U22-H-Pad12)*%
X163520000Y-91870000D03*
%TO.P,U22,13,G*%
%TO.N,unconnected-(U22-G-Pad13)*%
X166060000Y-91870000D03*
%TO.P,U22,14,VDD*%
%TO.N,+5V*%
X168600000Y-91870000D03*
%TD*%
D19*
%TO.P,U20,1,1A*%
%TO.N,Net-(U20-1A)*%
X92010000Y-163750000D03*
D10*
%TO.P,U20,2,1B*%
%TO.N,Net-(U11-3A)*%
X94550000Y-163750000D03*
%TO.P,U20,3,1Y*%
%TO.N,Net-(SU1-UP)*%
X97090000Y-163750000D03*
%TO.P,U20,4,2A*%
%TO.N,Net-(U20-1A)*%
X99630000Y-163750000D03*
%TO.P,U20,5,2B*%
%TO.N,Net-(U13-1Y)*%
X102170000Y-163750000D03*
%TO.P,U20,6,2Y*%
%TO.N,Net-(SU1-DOWN)*%
X104710000Y-163750000D03*
%TO.P,U20,7,GND*%
%TO.N,GND*%
X107250000Y-163750000D03*
%TO.P,U20,8,3Y*%
%TO.N,Net-(MT1-CLR)*%
X107250000Y-156130000D03*
%TO.P,U20,9,3A*%
%TO.N,Net-(U20-3A)*%
X104710000Y-156130000D03*
%TO.P,U20,10,3B*%
%TO.N,Net-(U19-2Y)*%
X102170000Y-156130000D03*
%TO.P,U20,11,4Y*%
%TO.N,unconnected-(U20-4Y-Pad11)*%
X99630000Y-156130000D03*
%TO.P,U20,12,4A*%
%TO.N,unconnected-(U20-4A-Pad12)*%
X97090000Y-156130000D03*
%TO.P,U20,13,4B*%
%TO.N,unconnected-(U20-4B-Pad13)*%
X94550000Y-156130000D03*
%TO.P,U20,14,VCC*%
%TO.N,+5V*%
X92010000Y-156130000D03*
%TD*%
%TO.P,R41,1*%
%TO.N,Net-(MT1-C)*%
X55190000Y-56421500D03*
%TO.P,R41,2*%
%TO.N,GND*%
X65350000Y-56421500D03*
%TD*%
%TO.P,R12,1*%
%TO.N,Net-(U4-b)*%
X219804600Y-97924800D03*
%TO.P,R12,2*%
%TO.N,Net-(AFF2-b)*%
X227424600Y-97924800D03*
%TD*%
D14*
%TO.P,U10,1,S*%
%TO.N,Net-(U10-S)*%
X95730000Y-122000000D03*
D10*
%TO.P,U10,2,I0a*%
%TO.N,Net-(U10-I0a)*%
X95730000Y-124540000D03*
%TO.P,U10,3,I1a*%
%TO.N,+5V*%
X95730000Y-127080000D03*
%TO.P,U10,4,Za*%
%TO.N,Net-(ST1-A)*%
X95730000Y-129620000D03*
%TO.P,U10,5,I0b*%
%TO.N,Net-(U10-I0b)*%
X95730000Y-132160000D03*
%TO.P,U10,6,I1b*%
%TO.N,GND*%
X95730000Y-134700000D03*
%TO.P,U10,7,Zb*%
%TO.N,Net-(ST1-B)*%
X95730000Y-137240000D03*
%TO.P,U10,8,GND*%
%TO.N,GND*%
X95730000Y-139780000D03*
%TO.P,U10,9,Zc*%
%TO.N,Net-(ST1-C)*%
X103350000Y-139780000D03*
%TO.P,U10,10,I1c*%
%TO.N,+5V*%
X103350000Y-137240000D03*
%TO.P,U10,11,I0c*%
%TO.N,Net-(U10-I0c)*%
X103350000Y-134700000D03*
%TO.P,U10,12,Zd*%
%TO.N,Net-(ST1-D)*%
X103350000Y-132160000D03*
%TO.P,U10,13,I1d*%
%TO.N,GND*%
X103350000Y-129620000D03*
%TO.P,U10,14,I0d*%
%TO.N,Net-(U10-I0d)*%
X103350000Y-127080000D03*
%TO.P,U10,15,E*%
%TO.N,GND*%
X103350000Y-124540000D03*
%TO.P,U10,16,VCC*%
%TO.N,+5V*%
X103350000Y-122000000D03*
%TD*%
D19*
%TO.P,U19,1,1A*%
%TO.N,Net-(MT1-~{LOAD})*%
X153360000Y-181820000D03*
D10*
%TO.P,U19,2,1B*%
%TO.N,Net-(U13-6Y)*%
X155900000Y-181820000D03*
%TO.P,U19,3,1Y*%
%TO.N,Net-(U19-1Y)*%
X158440000Y-181820000D03*
%TO.P,U19,4,2A*%
X160980000Y-181820000D03*
%TO.P,U19,5,2B*%
%TO.N,Net-(U11-3A)*%
X163520000Y-181820000D03*
%TO.P,U19,6,2Y*%
%TO.N,Net-(U19-2Y)*%
X166060000Y-181820000D03*
%TO.P,U19,7,GND*%
%TO.N,GND*%
X168600000Y-181820000D03*
%TO.P,U19,8,3Y*%
%TO.N,unconnected-(U19-3Y-Pad8)*%
X168600000Y-174200000D03*
%TO.P,U19,9,3A*%
%TO.N,unconnected-(U19-3A-Pad9)*%
X166060000Y-174200000D03*
%TO.P,U19,10,3B*%
%TO.N,unconnected-(U19-3B-Pad10)*%
X163520000Y-174200000D03*
%TO.P,U19,11,4Y*%
%TO.N,unconnected-(U19-4Y-Pad11)*%
X160980000Y-174200000D03*
%TO.P,U19,12,4A*%
%TO.N,unconnected-(U19-4A-Pad12)*%
X158440000Y-174200000D03*
%TO.P,U19,13,4B*%
%TO.N,unconnected-(U19-4B-Pad13)*%
X155900000Y-174200000D03*
%TO.P,U19,14,VCC*%
%TO.N,+5V*%
X153360000Y-174200000D03*
%TD*%
%TO.P,R20,1*%
%TO.N,Net-(U7-c)*%
X219906200Y-139677600D03*
%TO.P,R20,2*%
%TO.N,Net-(AFF3-c)*%
X227526200Y-139677600D03*
%TD*%
%TO.P,R11,1*%
%TO.N,Net-(U4-a)*%
X219804600Y-93874800D03*
%TO.P,R11,2*%
%TO.N,Net-(AFF2-a)*%
X227424600Y-93874800D03*
%TD*%
%TO.P,C2,1*%
%TO.N,Net-(U1-CONT)*%
X41800000Y-173650000D03*
%TO.P,C2,2*%
%TO.N,GND*%
X41800000Y-178650000D03*
%TD*%
D14*
%TO.P,U7,1,B*%
%TO.N,Net-(ST1-QB)*%
X189509400Y-122047000D03*
D10*
%TO.P,U7,2,C*%
%TO.N,Net-(ST1-QC)*%
X189509400Y-124587000D03*
%TO.P,U7,3,LT*%
%TO.N,+5V*%
X189509400Y-127127000D03*
%TO.P,U7,4,BI*%
X189509400Y-129667000D03*
%TO.P,U7,5,RBI*%
X189509400Y-132207000D03*
%TO.P,U7,6,D*%
%TO.N,Net-(ST1-QD)*%
X189509400Y-134747000D03*
%TO.P,U7,7,A*%
%TO.N,Net-(ST1-QA)*%
X189509400Y-137287000D03*
%TO.P,U7,8,GND*%
%TO.N,GND*%
X189509400Y-139827000D03*
%TO.P,U7,9,e*%
%TO.N,Net-(U7-e)*%
X197129400Y-139827000D03*
%TO.P,U7,10,d*%
%TO.N,Net-(U7-d)*%
X197129400Y-137287000D03*
%TO.P,U7,11,c*%
%TO.N,Net-(U7-c)*%
X197129400Y-134747000D03*
%TO.P,U7,12,b*%
%TO.N,Net-(U7-b)*%
X197129400Y-132207000D03*
%TO.P,U7,13,a*%
%TO.N,Net-(U7-a)*%
X197129400Y-129667000D03*
%TO.P,U7,14,g*%
%TO.N,Net-(U7-g)*%
X197129400Y-127127000D03*
%TO.P,U7,15,f*%
%TO.N,Net-(U7-f)*%
X197129400Y-124587000D03*
%TO.P,U7,16,VCC*%
%TO.N,+5V*%
X197129400Y-122047000D03*
%TD*%
%TO.P,R2_Timer1,1*%
%TO.N,Net-(R1_Timer1-Pad2)*%
X27100000Y-155962600D03*
%TO.P,R2_Timer1,2*%
%TO.N,Net-(R2_Timer1-Pad2)*%
X27100000Y-148342600D03*
%TD*%
D14*
%TO.P,U9,1,B*%
%TO.N,Net-(SU1-QB)*%
X189580000Y-164020000D03*
D10*
%TO.P,U9,2,C*%
%TO.N,Net-(SU1-QC)*%
X189580000Y-166560000D03*
%TO.P,U9,3,LT*%
%TO.N,+5V*%
X189580000Y-169100000D03*
%TO.P,U9,4,BI*%
X189580000Y-171640000D03*
%TO.P,U9,5,RBI*%
X189580000Y-174180000D03*
%TO.P,U9,6,D*%
%TO.N,Net-(SU1-QD)*%
X189580000Y-176720000D03*
%TO.P,U9,7,A*%
%TO.N,Net-(SU1-QA)*%
X189580000Y-179260000D03*
%TO.P,U9,8,GND*%
%TO.N,GND*%
X189580000Y-181800000D03*
%TO.P,U9,9,e*%
%TO.N,Net-(U9-e)*%
X197200000Y-181800000D03*
%TO.P,U9,10,d*%
%TO.N,Net-(U9-d)*%
X197200000Y-179260000D03*
%TO.P,U9,11,c*%
%TO.N,Net-(U9-c)*%
X197200000Y-176720000D03*
%TO.P,U9,12,b*%
%TO.N,Net-(U9-b)*%
X197200000Y-174180000D03*
%TO.P,U9,13,a*%
%TO.N,Net-(U9-a)*%
X197200000Y-171640000D03*
%TO.P,U9,14,g*%
%TO.N,Net-(U9-g)*%
X197200000Y-169100000D03*
%TO.P,U9,15,f*%
%TO.N,Net-(U9-f)*%
X197200000Y-166560000D03*
%TO.P,U9,16,VCC*%
%TO.N,+5V*%
X197200000Y-164020000D03*
%TD*%
%TO.P,R5,1*%
%TO.N,Net-(U6-b)*%
X219826000Y-64989200D03*
%TO.P,R5,2*%
%TO.N,Net-(AFF1-b)*%
X227446000Y-64989200D03*
%TD*%
%TO.P,C1,1*%
%TO.N,Net-(U1-THRES)*%
X50850000Y-175350000D03*
%TO.P,C1,2*%
%TO.N,GND*%
X50850000Y-177350000D03*
%TD*%
%TO.P,R21,1*%
%TO.N,Net-(U7-d)*%
X219906200Y-143727600D03*
%TO.P,R21,2*%
%TO.N,Net-(AFF3-d)*%
X227526200Y-143727600D03*
%TD*%
%TO.P,R17,1*%
%TO.N,Net-(U4-g)*%
X219830000Y-90000000D03*
%TO.P,R17,2*%
%TO.N,Net-(AFF2-g)*%
X227450000Y-90000000D03*
%TD*%
%TO.P,R35,1*%
%TO.N,Net-(SU1-D)*%
X55508800Y-109877500D03*
%TO.P,R35,2*%
%TO.N,GND*%
X65668800Y-109877500D03*
%TD*%
D14*
%TO.P,U4,1,B*%
%TO.N,Net-(MU1-QB)*%
X190373000Y-86410800D03*
D10*
%TO.P,U4,2,C*%
%TO.N,Net-(MU1-QC)*%
X190373000Y-88950800D03*
%TO.P,U4,3,LT*%
%TO.N,+5V*%
X190373000Y-91490800D03*
%TO.P,U4,4,BI*%
X190373000Y-94030800D03*
%TO.P,U4,5,RBI*%
X190373000Y-96570800D03*
%TO.P,U4,6,D*%
%TO.N,Net-(MU1-QD)*%
X190373000Y-99110800D03*
%TO.P,U4,7,A*%
%TO.N,Net-(MU1-QA)*%
X190373000Y-101650800D03*
%TO.P,U4,8,GND*%
%TO.N,GND*%
X190373000Y-104190800D03*
%TO.P,U4,9,e*%
%TO.N,Net-(U4-e)*%
X197993000Y-104190800D03*
%TO.P,U4,10,d*%
%TO.N,Net-(U4-d)*%
X197993000Y-101650800D03*
%TO.P,U4,11,c*%
%TO.N,Net-(U4-c)*%
X197993000Y-99110800D03*
%TO.P,U4,12,b*%
%TO.N,Net-(U4-b)*%
X197993000Y-96570800D03*
%TO.P,U4,13,a*%
%TO.N,Net-(U4-a)*%
X197993000Y-94030800D03*
%TO.P,U4,14,g*%
%TO.N,Net-(U4-g)*%
X197993000Y-91490800D03*
%TO.P,U4,15,f*%
%TO.N,Net-(U4-f)*%
X197993000Y-88950800D03*
%TO.P,U4,16,VCC*%
%TO.N,+5V*%
X197993000Y-86410800D03*
%TD*%
D17*
%TO.P,U24,1,1A*%
%TO.N,Net-(MT1-~{LOAD})*%
X168650000Y-118600000D03*
D10*
%TO.P,U24,2,1B*%
%TO.N,Net-(U11-1A)*%
X166110000Y-118600000D03*
%TO.P,U24,3,1Y*%
%TO.N,Net-(ST1-~{LOAD})*%
X163570000Y-118600000D03*
%TO.P,U24,4,2A*%
%TO.N,Net-(U11-3Y)*%
X161030000Y-118600000D03*
%TO.P,U24,5,2B*%
%TO.N,Net-(U24-2B)*%
X158490000Y-118600000D03*
%TO.P,U24,6,2Y*%
%TO.N,Net-(U11-2A)*%
X155950000Y-118600000D03*
%TO.P,U24,7,GND*%
%TO.N,GND*%
X153410000Y-118600000D03*
%TO.P,U24,8,3Y*%
%TO.N,Net-(U24-2B)*%
X153410000Y-126220000D03*
%TO.P,U24,9,3A*%
%TO.N,Net-(ST1-QB)*%
X155950000Y-126220000D03*
%TO.P,U24,10,3B*%
%TO.N,Net-(ST1-QC)*%
X158490000Y-126220000D03*
%TO.P,U24,11,4Y*%
%TO.N,unconnected-(U24-4Y-Pad11)*%
X161030000Y-126220000D03*
%TO.P,U24,12,4A*%
%TO.N,GND*%
X163570000Y-126220000D03*
%TO.P,U24,13,4B*%
X166110000Y-126220000D03*
%TO.P,U24,14,VCC*%
%TO.N,+5V*%
X168650000Y-126220000D03*
%TD*%
%TO.P,R44,1*%
%TO.N,Net-(MU1-D)*%
X55210000Y-70135900D03*
%TO.P,R44,2*%
%TO.N,GND*%
X65370000Y-70135900D03*
%TD*%
D14*
%TO.P,ST1,1,B*%
%TO.N,Net-(ST1-B)*%
X121330000Y-121950000D03*
D10*
%TO.P,ST1,2,QB*%
%TO.N,Net-(ST1-QB)*%
X121330000Y-124490000D03*
%TO.P,ST1,3,QA*%
%TO.N,Net-(ST1-QA)*%
X121330000Y-127030000D03*
%TO.P,ST1,4,DOWN*%
%TO.N,Net-(ST1-DOWN)*%
X121330000Y-129570000D03*
%TO.P,ST1,5,UP*%
%TO.N,Net-(ST1-UP)*%
X121330000Y-132110000D03*
%TO.P,ST1,6,QC*%
%TO.N,Net-(ST1-QC)*%
X121330000Y-134650000D03*
%TO.P,ST1,7,QD*%
%TO.N,Net-(ST1-QD)*%
X121330000Y-137190000D03*
%TO.P,ST1,8,GND*%
%TO.N,GND*%
X121330000Y-139730000D03*
%TO.P,ST1,9,D*%
%TO.N,Net-(ST1-D)*%
X128950000Y-139730000D03*
%TO.P,ST1,10,C*%
%TO.N,Net-(ST1-C)*%
X128950000Y-137190000D03*
%TO.P,ST1,11,~{LOAD}*%
%TO.N,Net-(ST1-~{LOAD})*%
X128950000Y-134650000D03*
%TO.P,ST1,12,~{CO}*%
%TO.N,unconnected-(ST1-~{CO}-Pad12)*%
X128950000Y-132110000D03*
%TO.P,ST1,13,~{BO}*%
%TO.N,Net-(MU1-DOWN)*%
X128950000Y-129570000D03*
%TO.P,ST1,14,CLR*%
%TO.N,Net-(ST1-CLR)*%
X128950000Y-127030000D03*
%TO.P,ST1,15,A*%
%TO.N,Net-(ST1-A)*%
X128950000Y-124490000D03*
%TO.P,ST1,16,VCC*%
%TO.N,+5V*%
X128950000Y-121950000D03*
%TD*%
D11*
%TO.P,AFF1,1,e*%
%TO.N,Net-(AFF1-e)*%
X248031000Y-75742800D03*
D12*
%TO.P,AFF1,2,d*%
%TO.N,Net-(AFF1-d)*%
X248031000Y-78282800D03*
%TO.P,AFF1,3,C.A.*%
%TO.N,+5V*%
X248031000Y-80822800D03*
%TO.P,AFF1,4,c*%
%TO.N,Net-(AFF1-c)*%
X248031000Y-83362800D03*
%TO.P,AFF1,5,DP*%
%TO.N,+5V*%
X248031000Y-85902800D03*
%TO.P,AFF1,6,b*%
%TO.N,Net-(AFF1-b)*%
X263271000Y-85902800D03*
%TO.P,AFF1,7,a*%
%TO.N,Net-(AFF1-a)*%
X263271000Y-83362800D03*
%TO.P,AFF1,8,C.A.*%
%TO.N,+5V*%
X263271000Y-80822800D03*
%TO.P,AFF1,9,f*%
%TO.N,Net-(AFF1-f)*%
X263271000Y-78282800D03*
%TO.P,AFF1,10,g*%
%TO.N,Net-(AFF1-g)*%
X263271000Y-75742800D03*
%TD*%
D10*
%TO.P,R19,1*%
%TO.N,Net-(U7-b)*%
X219753800Y-135032000D03*
%TO.P,R19,2*%
%TO.N,Net-(AFF3-b)*%
X227373800Y-135032000D03*
%TD*%
%TO.P,R6_Timer1,1*%
%TO.N,Net-(R5_Timer1-Pad2)*%
X32925600Y-158877400D03*
%TO.P,R6_Timer1,2*%
%TO.N,Net-(U1-THRES)*%
X32925600Y-166497400D03*
%TD*%
%TO.P,R30,1*%
%TO.N,Net-(U9-f)*%
X220120000Y-157950000D03*
%TO.P,R30,2*%
%TO.N,Net-(AFF4-f)*%
X227740000Y-157950000D03*
%TD*%
D19*
%TO.P,U13,1,1A*%
%TO.N,Net-(U11-3A)*%
X91910000Y-181700000D03*
D10*
%TO.P,U13,2,1Y*%
%TO.N,Net-(U13-1Y)*%
X94450000Y-181700000D03*
%TO.P,U13,3,2A*%
%TO.N,unconnected-(U13-2A-Pad3)*%
X96990000Y-181700000D03*
%TO.P,U13,4,2Y*%
%TO.N,unconnected-(U13-2Y-Pad4)*%
X99530000Y-181700000D03*
%TO.P,U13,5,3A*%
%TO.N,unconnected-(U13-3A-Pad5)*%
X102070000Y-181700000D03*
%TO.P,U13,6,3Y*%
%TO.N,unconnected-(U13-3Y-Pad6)*%
X104610000Y-181700000D03*
%TO.P,U13,7,GND*%
%TO.N,GND*%
X107150000Y-181700000D03*
%TO.P,U13,8,4Y*%
%TO.N,unconnected-(U13-4Y-Pad8)*%
X107150000Y-174080000D03*
%TO.P,U13,9,4A*%
%TO.N,unconnected-(U13-4A-Pad9)*%
X104610000Y-174080000D03*
%TO.P,U13,10,5Y*%
%TO.N,unconnected-(U13-5Y-Pad10)*%
X102070000Y-174080000D03*
%TO.P,U13,11,5A*%
%TO.N,unconnected-(U13-5A-Pad11)*%
X99530000Y-174080000D03*
%TO.P,U13,12,6Y*%
%TO.N,Net-(U13-6Y)*%
X96990000Y-174080000D03*
%TO.P,U13,13,6A*%
%TO.N,Net-(J3-Pin_5)*%
X94450000Y-174080000D03*
%TO.P,U13,14,VCC*%
%TO.N,+5V*%
X91910000Y-174080000D03*
%TD*%
D19*
%TO.P,U1,1,GND*%
%TO.N,GND*%
X25800000Y-181720000D03*
D10*
%TO.P,U1,2,TRIG*%
%TO.N,Net-(U1-THRES)*%
X28340000Y-181720000D03*
%TO.P,U1,3,OUT*%
%TO.N,Net-(U1-OUT)*%
X30880000Y-181720000D03*
%TO.P,U1,4,~{RST}*%
%TO.N,+5V*%
X33420000Y-181720000D03*
%TO.P,U1,5,CONT*%
%TO.N,Net-(U1-CONT)*%
X33420000Y-174100000D03*
%TO.P,U1,6,THRES*%
%TO.N,Net-(U1-THRES)*%
X30880000Y-174100000D03*
%TO.P,U1,7,DISCH*%
%TO.N,Net-(U1-DISCH)*%
X28340000Y-174100000D03*
%TO.P,U1,8,VCC*%
%TO.N,+5V*%
X25800000Y-174100000D03*
%TD*%
%TO.P,R9,1*%
%TO.N,Net-(U6-f)*%
X220080000Y-52100000D03*
%TO.P,R9,2*%
%TO.N,Net-(AFF1-f)*%
X227700000Y-52100000D03*
%TD*%
D17*
%TO.P,U21,1,A*%
%TO.N,Net-(MT1-QA)*%
X107350000Y-51650000D03*
D10*
%TO.P,U21,2,B*%
%TO.N,Net-(MT1-QB)*%
X104810000Y-51650000D03*
%TO.P,U21,3,D*%
%TO.N,Net-(MT1-QD)*%
X102270000Y-51650000D03*
%TO.P,U21,4,E*%
%TO.N,Net-(MU1-QA)*%
X99730000Y-51650000D03*
%TO.P,U21,5,F*%
%TO.N,Net-(MU1-QB)*%
X97190000Y-51650000D03*
%TO.P,U21,6,K\u002AD+E+F*%
%TO.N,Net-(U18-1B)*%
X94650000Y-51650000D03*
%TO.P,U21,7,VSS*%
%TO.N,GND*%
X92110000Y-51650000D03*
%TO.P,U21,8,C*%
%TO.N,Net-(MT1-QC)*%
X92110000Y-59270000D03*
%TO.P,U21,9,J\u002AA+B+C*%
%TO.N,Net-(U18-1A)*%
X94650000Y-59270000D03*
%TO.P,U21,10,L\u002AG+H+I*%
%TO.N,Net-(U18-2A)*%
X97190000Y-59270000D03*
%TO.P,U21,11,I*%
%TO.N,Net-(ST1-QA)*%
X99730000Y-59270000D03*
%TO.P,U21,12,H*%
%TO.N,Net-(MU1-QD)*%
X102270000Y-59270000D03*
%TO.P,U21,13,G*%
%TO.N,Net-(MU1-QC)*%
X104810000Y-59270000D03*
%TO.P,U21,14,VDD*%
%TO.N,+5V*%
X107350000Y-59270000D03*
%TD*%
D17*
%TO.P,U18,1,1A*%
%TO.N,Net-(U18-1A)*%
X107300000Y-76580000D03*
D10*
%TO.P,U18,2,1B*%
%TO.N,Net-(U18-1B)*%
X104760000Y-76580000D03*
%TO.P,U18,3,1Y*%
%TO.N,Net-(U18-1Y)*%
X102220000Y-76580000D03*
%TO.P,U18,4,2A*%
%TO.N,Net-(U18-2A)*%
X99680000Y-76580000D03*
%TO.P,U18,5,2B*%
%TO.N,Net-(U12-L\u002AG+H+I)*%
X97140000Y-76580000D03*
%TO.P,U18,6,2Y*%
%TO.N,Net-(U18-2Y)*%
X94600000Y-76580000D03*
%TO.P,U18,7,GND*%
%TO.N,GND*%
X92060000Y-76580000D03*
%TO.P,U18,8,3Y*%
%TO.N,Net-(J3-Pin_5)*%
X92060000Y-84200000D03*
%TO.P,U18,9,3A*%
%TO.N,Net-(U18-1Y)*%
X94600000Y-84200000D03*
%TO.P,U18,10,3B*%
%TO.N,Net-(U18-2Y)*%
X97140000Y-84200000D03*
%TO.P,U18,11,4Y*%
%TO.N,unconnected-(U18-4Y-Pad11)*%
X99680000Y-84200000D03*
%TO.P,U18,12,4A*%
%TO.N,unconnected-(U18-4A-Pad12)*%
X102220000Y-84200000D03*
%TO.P,U18,13,4B*%
%TO.N,unconnected-(U18-4B-Pad13)*%
X104760000Y-84200000D03*
%TO.P,U18,14,VCC*%
%TO.N,+5V*%
X107300000Y-84200000D03*
%TD*%
%TO.P,R3_Timer1,1*%
%TO.N,Net-(R2_Timer1-Pad2)*%
X26900000Y-145470000D03*
%TO.P,R3_Timer1,2*%
%TO.N,Net-(R3_Timer1-Pad2)*%
X26900000Y-137850000D03*
%TD*%
%TO.P,R10,1*%
%TO.N,Net-(U6-g)*%
X220080000Y-56150000D03*
%TO.P,R10,2*%
%TO.N,Net-(AFF1-g)*%
X227700000Y-56150000D03*
%TD*%
%TO.P,R5_Timer1,1*%
%TO.N,Net-(R4_Timer1-Pad2)*%
X32900000Y-148352600D03*
%TO.P,R5_Timer1,2*%
%TO.N,Net-(R5_Timer1-Pad2)*%
X32900000Y-155972600D03*
%TD*%
D14*
%TO.P,SW2,1*%
%TO.N,+5V*%
X26080000Y-120650000D03*
D10*
%TO.P,SW2,2*%
%TO.N,unconnected-(SW2-Pad2)*%
X26080000Y-123190000D03*
%TO.P,SW2,3*%
%TO.N,unconnected-(SW2-Pad3)*%
X26080000Y-125730000D03*
%TO.P,SW2,4*%
%TO.N,unconnected-(SW2-Pad4)*%
X26080000Y-128270000D03*
%TO.P,SW2,5*%
%TO.N,unconnected-(SW2-Pad5)*%
X33700000Y-128270000D03*
%TO.P,SW2,6*%
%TO.N,unconnected-(SW2-Pad6)*%
X33700000Y-125730000D03*
%TO.P,SW2,7*%
%TO.N,unconnected-(SW2-Pad7)*%
X33700000Y-123190000D03*
%TO.P,SW2,8*%
%TO.N,Net-(U11-3A)*%
X33700000Y-120650000D03*
%TD*%
%TO.P,R43,1*%
%TO.N,Net-(MT1-A)*%
X55210000Y-65564400D03*
%TO.P,R43,2*%
%TO.N,GND*%
X65370000Y-65564400D03*
%TD*%
%TO.P,R50,1*%
%TO.N,+5V*%
X141550000Y-181850000D03*
%TO.P,R50,2*%
%TO.N,Net-(MT1-~{LOAD})*%
X141550000Y-174230000D03*
%TD*%
D11*
%TO.P,AFF2,1,e*%
%TO.N,Net-(AFF2-e)*%
X247802400Y-97409000D03*
D12*
%TO.P,AFF2,2,d*%
%TO.N,Net-(AFF2-d)*%
X247802400Y-99949000D03*
%TO.P,AFF2,3,C.A.*%
%TO.N,+5V*%
X247802400Y-102489000D03*
%TO.P,AFF2,4,c*%
%TO.N,Net-(AFF2-c)*%
X247802400Y-105029000D03*
%TO.P,AFF2,5,DP*%
%TO.N,+5V*%
X247802400Y-107569000D03*
%TO.P,AFF2,6,b*%
%TO.N,Net-(AFF2-b)*%
X263042400Y-107569000D03*
%TO.P,AFF2,7,a*%
%TO.N,Net-(AFF2-a)*%
X263042400Y-105029000D03*
%TO.P,AFF2,8,C.A.*%
%TO.N,+5V*%
X263042400Y-102489000D03*
%TO.P,AFF2,9,f*%
%TO.N,Net-(AFF2-f)*%
X263042400Y-99949000D03*
%TO.P,AFF2,10,g*%
%TO.N,Net-(AFF2-g)*%
X263042400Y-97409000D03*
%TD*%
D10*
%TO.P,R45,1*%
%TO.N,Net-(MU1-C)*%
X55190000Y-74707300D03*
%TO.P,R45,2*%
%TO.N,GND*%
X65350000Y-74707300D03*
%TD*%
D14*
%TO.P,U6,1,B*%
%TO.N,Net-(MT1-QB)*%
X190093600Y-52146200D03*
D10*
%TO.P,U6,2,C*%
%TO.N,Net-(MT1-QC)*%
X190093600Y-54686200D03*
%TO.P,U6,3,LT*%
%TO.N,+5V*%
X190093600Y-57226200D03*
%TO.P,U6,4,BI*%
X190093600Y-59766200D03*
%TO.P,U6,5,RBI*%
X190093600Y-62306200D03*
%TO.P,U6,6,D*%
%TO.N,Net-(MT1-QD)*%
X190093600Y-64846200D03*
%TO.P,U6,7,A*%
%TO.N,Net-(MT1-QA)*%
X190093600Y-67386200D03*
%TO.P,U6,8,GND*%
%TO.N,GND*%
X190093600Y-69926200D03*
%TO.P,U6,9,e*%
%TO.N,Net-(U6-e)*%
X197713600Y-69926200D03*
%TO.P,U6,10,d*%
%TO.N,Net-(U6-d)*%
X197713600Y-67386200D03*
%TO.P,U6,11,c*%
%TO.N,Net-(U6-c)*%
X197713600Y-64846200D03*
%TO.P,U6,12,b*%
%TO.N,Net-(U6-b)*%
X197713600Y-62306200D03*
%TO.P,U6,13,a*%
%TO.N,Net-(U6-a)*%
X197713600Y-59766200D03*
%TO.P,U6,14,g*%
%TO.N,Net-(U6-g)*%
X197713600Y-57226200D03*
%TO.P,U6,15,f*%
%TO.N,Net-(U6-f)*%
X197713600Y-54686200D03*
%TO.P,U6,16,VCC*%
%TO.N,+5V*%
X197713600Y-52146200D03*
%TD*%
%TO.P,R27,1*%
%TO.N,Net-(U9-c)*%
X220080000Y-173950000D03*
%TO.P,R27,2*%
%TO.N,Net-(AFF4-c)*%
X227700000Y-173950000D03*
%TD*%
D17*
%TO.P,U12,1,A*%
%TO.N,Net-(ST1-QB)*%
X168450000Y-52000000D03*
D10*
%TO.P,U12,2,B*%
%TO.N,Net-(ST1-QC)*%
X165910000Y-52000000D03*
%TO.P,U12,3,D*%
%TO.N,Net-(SU1-QA)*%
X163370000Y-52000000D03*
%TO.P,U12,4,E*%
%TO.N,Net-(SU1-QB)*%
X160830000Y-52000000D03*
%TO.P,U12,5,F*%
%TO.N,Net-(SU1-QC)*%
X158290000Y-52000000D03*
%TO.P,U12,6,K\u002AD+E+F*%
%TO.N,Net-(U12-I)*%
X155750000Y-52000000D03*
%TO.P,U12,7,VSS*%
%TO.N,GND*%
X153210000Y-52000000D03*
%TO.P,U12,8,C*%
%TO.N,Net-(ST1-QD)*%
X153210000Y-59620000D03*
%TO.P,U12,9,J\u002AA+B+C*%
%TO.N,Net-(U12-H)*%
X155750000Y-59620000D03*
%TO.P,U12,10,L\u002AG+H+I*%
%TO.N,Net-(U12-L\u002AG+H+I)*%
X158290000Y-59620000D03*
%TO.P,U12,11,I*%
%TO.N,Net-(U12-I)*%
X160830000Y-59620000D03*
%TO.P,U12,12,H*%
%TO.N,Net-(U12-H)*%
X163370000Y-59620000D03*
%TO.P,U12,13,G*%
%TO.N,Net-(SU1-QD)*%
X165910000Y-59620000D03*
%TO.P,U12,14,VDD*%
%TO.N,+5V*%
X168450000Y-59620000D03*
%TD*%
%TO.P,R42,1*%
%TO.N,Net-(MT1-B)*%
X55210000Y-60992900D03*
%TO.P,R42,2*%
%TO.N,GND*%
X65370000Y-60992900D03*
%TD*%
D13*
%TO.P,S5,1*%
%TO.N,Net-(U20-1A)*%
X45800000Y-163850000D03*
%TO.P,S5,2*%
%TO.N,+5V*%
X50800000Y-163850000D03*
%TD*%
D10*
%TO.P,R1,1*%
%TO.N,Net-(U1-DISCH)*%
X73900000Y-166400000D03*
%TO.P,R1,2*%
%TO.N,+5V*%
X66280000Y-166400000D03*
%TD*%
%TO.P,R15,1*%
%TO.N,Net-(U4-e)*%
X219804600Y-110074800D03*
%TO.P,R15,2*%
%TO.N,Net-(AFF2-e)*%
X227424600Y-110074800D03*
%TD*%
%TO.P,R38,1*%
%TO.N,Net-(SU1-A)*%
X55610000Y-123556200D03*
%TO.P,R38,2*%
%TO.N,GND*%
X65770000Y-123556200D03*
%TD*%
%TO.P,R22,1*%
%TO.N,Net-(U7-e)*%
X219906200Y-147777600D03*
%TO.P,R22,2*%
%TO.N,Net-(AFF3-e)*%
X227526200Y-147777600D03*
%TD*%
%TO.P,R28,1*%
%TO.N,Net-(U9-d)*%
X220080000Y-177950000D03*
%TO.P,R28,2*%
%TO.N,Net-(AFF4-d)*%
X227700000Y-177950000D03*
%TD*%
D20*
%TO.N,+5V*%
X167184200Y-171640000D03*
X131345100Y-89516600D03*
%TO.N,Net-(U1-OUT)*%
X53900000Y-183207500D03*
%TO.N,Net-(U10-I0d)*%
X97398000Y-93521600D03*
%TO.N,Net-(U10-I0c)*%
X77772300Y-134049500D03*
%TO.N,Net-(U10-I0a)*%
X68493400Y-123535000D03*
%TO.N,Net-(U11-2A)*%
X159170300Y-145550800D03*
X114742000Y-116216600D03*
%TO.N,Net-(U11-3A)*%
X61197600Y-129500000D03*
%TO.N,Net-(U18-1A)*%
X96957300Y-74977000D03*
%TO.N,Net-(U10-S)*%
X165525000Y-122063200D03*
%TO.N,Net-(U20-3A)*%
X74862300Y-143244600D03*
%TO.N,Net-(U12-L\u002AG+H+I)*%
X156390000Y-69005800D03*
%TO.N,GND*%
X68287000Y-104231600D03*
X163570000Y-121071800D03*
%TO.N,Net-(U10-I0b)*%
X74239300Y-132205600D03*
%TO.N,Net-(U19-2Y)*%
X163476400Y-159242000D03*
%TO.N,Net-(MT1-D)*%
X62549000Y-69005800D03*
%TO.N,Net-(MT1-CLR)*%
X100950100Y-85457800D03*
X126584200Y-85479400D03*
%TO.N,Net-(MT1-~{LOAD})*%
X136726000Y-102810000D03*
%TO.N,Net-(MT1-C)*%
X57301200Y-71776400D03*
%TO.N,Net-(MT1-QC)*%
X182163000Y-64499900D03*
%TO.N,Net-(MU1-QC)*%
X123291500Y-90786500D03*
%TO.N,Net-(MU1-D)*%
X59837900Y-97038900D03*
%TO.N,Net-(MU1-UP)*%
X116343800Y-153278200D03*
X113273300Y-101552100D03*
X161812000Y-153278200D03*
%TO.N,Net-(MU1-C)*%
X124269800Y-75505800D03*
%TO.N,Net-(SU1-A)*%
X72818000Y-169269200D03*
%TO.N,Net-(SU1-B)*%
X119252700Y-135341300D03*
%TO.N,Net-(SU1-C)*%
X119705100Y-117168300D03*
%TO.N,Net-(SU1-D)*%
X121770000Y-113574700D03*
%TO.N,Net-(ST1-~{LOAD})*%
X160830600Y-132373100D03*
%TO.N,Net-(ST1-QD)*%
X174401800Y-135920100D03*
%TO.N,Net-(ST1-B)*%
X107658700Y-126988200D03*
%TO.N,Net-(ST1-QA)*%
X103489900Y-82399400D03*
X183540500Y-138421500D03*
X111313800Y-80368000D03*
%TO.N,Net-(ST1-D)*%
X126293000Y-132099600D03*
%TO.N,Net-(ST1-CLR)*%
X124328000Y-97443200D03*
%TO.N,Net-(SU1-DOWN)*%
X123624500Y-168721500D03*
%TO.N,Net-(SU1-QD)*%
X186394300Y-167113600D03*
%TO.N,Net-(SU1-QB)*%
X187769000Y-169147000D03*
%TO.N,Net-(AFF1-f)*%
X243700000Y-70000000D03*
%TO.N,Net-(AFF2-d)*%
X235165700Y-98228600D03*
%TD*%
D21*
%TO.N,Net-(U1-THRES)*%
X30880000Y-174100000D02*
X32925600Y-172054400D01*
X32925600Y-172054400D02*
X32925600Y-166497400D01*
D22*
%TO.N,+5V*%
X261457300Y-80822800D02*
X261228700Y-81051400D01*
X25800000Y-174100000D02*
X24657800Y-172957800D01*
X25930000Y-54290000D02*
X25930000Y-56830000D01*
X188741900Y-63657900D02*
X190093600Y-62306200D01*
X130880500Y-120019500D02*
X130880500Y-89516600D01*
X170050700Y-124819300D02*
X168650000Y-126220000D01*
X189509400Y-127127000D02*
X189509400Y-129667000D01*
X247929400Y-125198800D02*
X249743100Y-125198800D01*
X190093600Y-57226200D02*
X190093600Y-59766200D01*
X25930000Y-65453400D02*
X25930000Y-61910000D01*
X170050700Y-93320700D02*
X170050700Y-124819300D01*
X66280000Y-173868300D02*
X66280000Y-166400000D01*
X190373000Y-91490800D02*
X190373000Y-94030800D01*
X130114700Y-53364700D02*
X130114700Y-85085300D01*
X247802400Y-102489000D02*
X249616100Y-102489000D01*
X168600000Y-91870000D02*
X170050700Y-93320700D01*
X68995000Y-180175000D02*
X68995000Y-169115000D01*
X247554300Y-130278800D02*
X249616100Y-132340600D01*
X68995000Y-169115000D02*
X66280000Y-166400000D01*
X190373000Y-96570800D02*
X190373000Y-94030800D01*
X26080000Y-120650000D02*
X26000000Y-120570000D01*
X25930000Y-56830000D02*
X25930000Y-59370000D01*
X191726700Y-76684000D02*
X188741900Y-73699200D01*
X128750000Y-52000000D02*
X130114700Y-53364700D01*
X25930000Y-64450000D02*
X25930000Y-65453400D01*
X25930000Y-69530000D02*
X25930000Y-66990000D01*
X249743100Y-125198800D02*
X249743100Y-107696000D01*
X90656400Y-157483600D02*
X90656400Y-172826400D01*
X188741900Y-73699200D02*
X188741900Y-63657900D01*
X130880500Y-89516600D02*
X131345100Y-89516600D01*
X26000000Y-104300000D02*
X26000000Y-106840000D01*
X128950000Y-121950000D02*
X130880500Y-120019500D01*
X189580000Y-169100000D02*
X189580000Y-171640000D01*
X61375000Y-180175000D02*
X61375000Y-178773300D01*
X169984500Y-127554500D02*
X169984500Y-155585500D01*
X25930000Y-59370000D02*
X25930000Y-61910000D01*
X92010000Y-156130000D02*
X90656400Y-157483600D01*
X26000000Y-101760000D02*
X26000000Y-104300000D01*
X189509400Y-129667000D02*
X189509400Y-132207000D01*
X25930000Y-66990000D02*
X25930000Y-65453400D01*
X92010000Y-130800000D02*
X92010000Y-156130000D01*
X26000000Y-96680000D02*
X26000000Y-99220000D01*
X26000000Y-96680000D02*
X26000000Y-94140000D01*
X249616100Y-151993600D02*
X249616100Y-146913600D01*
X145710000Y-181850000D02*
X141550000Y-181850000D01*
X48400000Y-137100000D02*
X48400000Y-161450000D01*
X33420000Y-181720000D02*
X25800000Y-174100000D01*
X48400000Y-161450000D02*
X50800000Y-163850000D01*
X26000000Y-109380000D02*
X26000000Y-106840000D01*
X103350000Y-137240000D02*
X105520200Y-135069800D01*
X248031000Y-85902800D02*
X249844700Y-85902800D01*
X247554300Y-125198800D02*
X247929400Y-125198800D01*
X108657600Y-82842400D02*
X107300000Y-84200000D01*
X167184200Y-171640000D02*
X168600000Y-170224200D01*
X191726700Y-90137100D02*
X191726700Y-76684000D01*
X108657600Y-60577600D02*
X108657600Y-82842400D01*
X249844700Y-80822800D02*
X249844700Y-85902800D01*
X26000000Y-120570000D02*
X26000000Y-109380000D01*
X247929400Y-130278800D02*
X247554300Y-130278800D01*
X247554300Y-130278800D02*
X246115700Y-130278800D01*
X168600000Y-170224200D02*
X168600000Y-156970000D01*
X190093600Y-59766200D02*
X190093600Y-62306200D01*
X189580000Y-171640000D02*
X189580000Y-174180000D01*
X25930000Y-51750000D02*
X25930000Y-54290000D01*
X249616100Y-132340600D02*
X249616100Y-146913600D01*
X90656400Y-172826400D02*
X91910000Y-174080000D01*
X190373000Y-91490800D02*
X191726700Y-90137100D01*
X105520200Y-135069800D02*
X105520200Y-124170200D01*
X25930000Y-91530000D02*
X26000000Y-91600000D01*
X24657800Y-172957800D02*
X24657800Y-122072200D01*
X261228700Y-81051400D02*
X261228700Y-102489000D01*
X95730000Y-127080000D02*
X92010000Y-130800000D01*
X45900000Y-134600000D02*
X48400000Y-137100000D01*
X168650000Y-126220000D02*
X169984500Y-127554500D01*
X130880500Y-89516600D02*
X130880500Y-87980500D01*
X247802400Y-107569000D02*
X249616100Y-107569000D01*
X24657800Y-122072200D02*
X26080000Y-120650000D01*
X246115700Y-130278800D02*
X246115700Y-125198800D01*
X26000000Y-99220000D02*
X26000000Y-101760000D01*
X107350000Y-59270000D02*
X108657600Y-60577600D01*
X130880500Y-87980500D02*
X129050000Y-86150000D01*
X249844700Y-102260400D02*
X249616100Y-102489000D01*
X105520200Y-124170200D02*
X103350000Y-122000000D01*
X247802400Y-146913600D02*
X249616100Y-146913600D01*
X61375000Y-178773300D02*
X66280000Y-173868300D01*
X249743100Y-107696000D02*
X249616100Y-107569000D01*
X130114700Y-85085300D02*
X129050000Y-86150000D01*
X263271000Y-80822800D02*
X261457300Y-80822800D01*
X169984500Y-155585500D02*
X168600000Y-156970000D01*
X249616100Y-107569000D02*
X249616100Y-102489000D01*
X26000000Y-91600000D02*
X26000000Y-94140000D01*
X25930000Y-69530000D02*
X25930000Y-91530000D01*
X263042400Y-102489000D02*
X261228700Y-102489000D01*
X247554300Y-125198800D02*
X246115700Y-125198800D01*
X249844700Y-85902800D02*
X249844700Y-102260400D01*
X248031000Y-80822800D02*
X249844700Y-80822800D01*
X153360000Y-174200000D02*
X145710000Y-181850000D01*
X247802400Y-151993600D02*
X249616100Y-151993600D01*
X129050000Y-86150000D02*
X128900000Y-86300000D01*
D21*
%TO.N,Net-(U1-DISCH)*%
X28340000Y-174100000D02*
X28340000Y-167701800D01*
X28340000Y-167701800D02*
X27125600Y-166487400D01*
%TO.N,Net-(U1-OUT)*%
X60000000Y-177107500D02*
X60000000Y-162330000D01*
X60000000Y-162330000D02*
X66380000Y-155950000D01*
X53900000Y-183207500D02*
X60000000Y-177107500D01*
%TO.N,Net-(U10-I0d)*%
X97398000Y-93521600D02*
X98310000Y-94433600D01*
X98310000Y-122040000D02*
X103350000Y-127080000D01*
X55460700Y-91600000D02*
X55500000Y-91639300D01*
X33620000Y-91600000D02*
X55460700Y-91600000D01*
X98310000Y-94433600D02*
X98310000Y-122040000D01*
%TO.N,Net-(U10-I0c)*%
X57291800Y-97990600D02*
X60117300Y-97990600D01*
X60117300Y-97990600D02*
X77772300Y-115645600D01*
X55500000Y-96198800D02*
X57291800Y-97990600D01*
X77772300Y-115645600D02*
X77772300Y-134049500D01*
X33620000Y-94140000D02*
X53441200Y-94140000D01*
X53441200Y-94140000D02*
X55500000Y-96198800D01*
%TO.N,Net-(U10-I0a)*%
X58395900Y-105318000D02*
X68493400Y-115415500D01*
X68493400Y-115415500D02*
X68493400Y-123535000D01*
X55500000Y-105318000D02*
X58395900Y-105318000D01*
X49402000Y-99220000D02*
X55500000Y-105318000D01*
X33620000Y-99220000D02*
X49402000Y-99220000D01*
%TO.N,Net-(U11-3Y)*%
X160122000Y-145156500D02*
X159741700Y-144776200D01*
X155900000Y-149350000D02*
X158747500Y-146502500D01*
X158747500Y-146502500D02*
X159564600Y-146502500D01*
X159741700Y-144776200D02*
X159741700Y-119888300D01*
X159741700Y-119888300D02*
X161030000Y-118600000D01*
X160122000Y-145945100D02*
X160122000Y-145156500D01*
X159564600Y-146502500D02*
X160122000Y-145945100D01*
%TO.N,Net-(U11-2A)*%
X114742000Y-104366700D02*
X114742000Y-116216600D01*
X157238300Y-119888300D02*
X155950000Y-118600000D01*
X159170300Y-145550800D02*
X157238300Y-143618800D01*
X157238300Y-143618800D02*
X157238300Y-119888300D01*
X107200000Y-96530000D02*
X107200000Y-96824700D01*
X107200000Y-96824700D02*
X114742000Y-104366700D01*
%TO.N,Net-(U11-1A)*%
X166110000Y-102080000D02*
X166110000Y-118600000D01*
X155900000Y-91870000D02*
X166110000Y-102080000D01*
X167380000Y-119870000D02*
X166110000Y-118600000D01*
X168600000Y-149350000D02*
X167380000Y-148130000D01*
X167380000Y-148130000D02*
X167380000Y-119870000D01*
%TO.N,Net-(U11-3A)*%
X158440000Y-149350000D02*
X159710000Y-150620000D01*
X159710000Y-178010000D02*
X163520000Y-181820000D01*
X61197600Y-142137700D02*
X65883500Y-146823600D01*
X76264100Y-166054100D02*
X91910000Y-181700000D01*
X74000000Y-146823600D02*
X76264100Y-149087700D01*
X91910000Y-181700000D02*
X93180000Y-180430000D01*
X93180000Y-180430000D02*
X93180000Y-165120000D01*
X76264100Y-149087700D02*
X76264100Y-166054100D01*
X159710000Y-150620000D02*
X159710000Y-178010000D01*
X74000000Y-145550000D02*
X74000000Y-146823600D01*
X93180000Y-165120000D02*
X94550000Y-163750000D01*
X65883500Y-146823600D02*
X74000000Y-146823600D01*
X61197600Y-129500000D02*
X61197600Y-142137700D01*
%TO.N,Net-(U12-I)*%
X160830000Y-59620000D02*
X155750000Y-54540000D01*
X155750000Y-54540000D02*
X155750000Y-52000000D01*
%TO.N,Net-(U18-1A)*%
X96957300Y-74977000D02*
X94650000Y-72669700D01*
X94650000Y-72669700D02*
X94650000Y-59270000D01*
%TO.N,Net-(U18-1B)*%
X98460000Y-70280000D02*
X104760000Y-76580000D01*
X98460000Y-55460000D02*
X98460000Y-70280000D01*
X94650000Y-51650000D02*
X98460000Y-55460000D01*
%TO.N,Net-(U18-2A)*%
X99680000Y-76353700D02*
X97190000Y-73863700D01*
X97190000Y-73863700D02*
X97190000Y-59270000D01*
X99680000Y-76580000D02*
X99680000Y-76353700D01*
%TO.N,Net-(U13-1Y)*%
X102170000Y-163750000D02*
X100800000Y-165120000D01*
X100800000Y-165120000D02*
X100800000Y-175350000D01*
X100800000Y-175350000D02*
X94450000Y-181700000D01*
%TO.N,Net-(U10-S)*%
X164840000Y-148130000D02*
X164840000Y-122748200D01*
X166060000Y-149350000D02*
X164840000Y-148130000D01*
X164840000Y-122748200D02*
X165525000Y-122063200D01*
%TO.N,Net-(U20-3A)*%
X74862300Y-143244600D02*
X74000000Y-142382300D01*
X74000000Y-142382300D02*
X74000000Y-134450000D01*
%TO.N,Net-(U18-2Y)*%
X94600000Y-81660000D02*
X94600000Y-76580000D01*
X97140000Y-84200000D02*
X94600000Y-81660000D01*
%TO.N,Net-(U18-1Y)*%
X95863100Y-85463100D02*
X97655600Y-85463100D01*
X98410000Y-80390000D02*
X102220000Y-76580000D01*
X94600000Y-84200000D02*
X95863100Y-85463100D01*
X97655600Y-85463100D02*
X98410000Y-84708700D01*
X98410000Y-84708700D02*
X98410000Y-80390000D01*
%TO.N,Net-(U12-L\u002AG+H+I)*%
X156390000Y-69005800D02*
X158290000Y-67105800D01*
X158290000Y-67105800D02*
X158290000Y-59620000D01*
%TO.N,Net-(R1_Timer1-Pad2)*%
X27100000Y-158841800D02*
X27100000Y-155962600D01*
X27125600Y-158867400D02*
X27100000Y-158841800D01*
%TO.N,Net-(R2_Timer1-Pad2)*%
X26900000Y-145470000D02*
X27100000Y-145670000D01*
X27100000Y-145670000D02*
X27100000Y-148342600D01*
%TO.N,Net-(R4_Timer1-Pad2)*%
X32900000Y-148352600D02*
X32900000Y-145470000D01*
%TO.N,Net-(R5_Timer1-Pad2)*%
X32900000Y-158851800D02*
X32900000Y-155972600D01*
X32925600Y-158877400D02*
X32900000Y-158851800D01*
%TO.N,Net-(U24-2B)*%
X154680000Y-124950000D02*
X154680000Y-118061300D01*
X157232600Y-117342600D02*
X158490000Y-118600000D01*
X154680000Y-118061300D02*
X155398700Y-117342600D01*
X155398700Y-117342600D02*
X157232600Y-117342600D01*
X153410000Y-126220000D02*
X154680000Y-124950000D01*
D22*
%TO.N,GND*%
X66380000Y-124166200D02*
X65770000Y-123556200D01*
X95730000Y-139780000D02*
X94360200Y-138410200D01*
X129000000Y-163950000D02*
X129000000Y-147400000D01*
X90672100Y-53087900D02*
X92110000Y-51650000D01*
X95730000Y-134700000D02*
X98270000Y-134700000D01*
X43700000Y-176750000D02*
X43700000Y-152050000D01*
X65660000Y-109868700D02*
X65660000Y-105318000D01*
X151843900Y-53366100D02*
X153210000Y-52000000D01*
X65370000Y-65564400D02*
X65370000Y-60992900D01*
X90708300Y-77931700D02*
X90708300Y-95278300D01*
X151843900Y-82733900D02*
X151843900Y-53366100D01*
X65668800Y-109877500D02*
X65660000Y-109868700D01*
X192528400Y-72361000D02*
X190093600Y-69926200D01*
X65660000Y-91639300D02*
X65660000Y-96198800D01*
X153360000Y-84250000D02*
X152008300Y-85601700D01*
X65660000Y-83810300D02*
X65660000Y-91639300D01*
X90708300Y-95278300D02*
X91960000Y-96530000D01*
X92060000Y-76580000D02*
X90672100Y-75192100D01*
X66380000Y-134450000D02*
X66380000Y-124166200D01*
X190373000Y-104190800D02*
X192528400Y-102035400D01*
X65700000Y-83850300D02*
X65525000Y-83675300D01*
X65770000Y-123556200D02*
X65668800Y-123455000D01*
X65350000Y-56421500D02*
X65370000Y-56441500D01*
X108557200Y-180292800D02*
X107150000Y-181700000D01*
X65525000Y-83675300D02*
X65350000Y-83500300D01*
X65350000Y-83500300D02*
X65350000Y-79278800D01*
X152008300Y-147998300D02*
X153360000Y-149350000D01*
X189580000Y-181800000D02*
X190945300Y-180434700D01*
X94360200Y-138410200D02*
X94360200Y-136069800D01*
X108557200Y-165057200D02*
X108557200Y-180292800D01*
X37378300Y-183071700D02*
X41800000Y-178650000D01*
X190945300Y-141262900D02*
X189509400Y-139827000D01*
X65660000Y-100758400D02*
X65660000Y-96198800D01*
X104718400Y-128251600D02*
X104718400Y-125908400D01*
X190923800Y-104741600D02*
X190373000Y-104190800D01*
X43700000Y-152050000D02*
X45900000Y-149850000D01*
X103350000Y-129620000D02*
X104718400Y-128251600D01*
X65668800Y-114437100D02*
X65668800Y-118996700D01*
X41800000Y-178650000D02*
X43700000Y-176750000D01*
X65370000Y-70135900D02*
X65370000Y-65564400D01*
X190945300Y-180434700D02*
X190945300Y-141262900D01*
X94360200Y-136069800D02*
X95730000Y-134700000D01*
X129000000Y-147400000D02*
X121330000Y-139730000D01*
X104718400Y-125908400D02*
X103350000Y-124540000D01*
X163570000Y-121071800D02*
X163570000Y-126220000D01*
X153360000Y-84250000D02*
X151843900Y-82733900D01*
X189509400Y-139827000D02*
X190923800Y-138412600D01*
X90672100Y-75192100D02*
X90672100Y-53087900D01*
X65350000Y-79278800D02*
X65350000Y-74707300D01*
X152008300Y-118600000D02*
X152008300Y-147998300D01*
X65660000Y-101604600D02*
X65660000Y-100758400D01*
X98270000Y-134700000D02*
X103350000Y-129620000D01*
X153410000Y-118600000D02*
X152008300Y-118600000D01*
X65350000Y-74707300D02*
X65350000Y-70155900D01*
X25800000Y-181720000D02*
X27151700Y-183071700D01*
X65668800Y-123455000D02*
X65668800Y-118996700D01*
X107250000Y-163750000D02*
X108557200Y-165057200D01*
X65350000Y-70155900D02*
X65370000Y-70135900D01*
X65370000Y-56441500D02*
X65370000Y-60992900D01*
X66380000Y-145550000D02*
X66380000Y-134450000D01*
X65525000Y-83675300D02*
X65660000Y-83810300D01*
X192528400Y-102035400D02*
X192528400Y-72361000D01*
X65350000Y-51850000D02*
X65350000Y-56421500D01*
X152008300Y-85601700D02*
X152008300Y-118600000D01*
X92060000Y-76580000D02*
X90708300Y-77931700D01*
X68287000Y-104231600D02*
X65660000Y-101604600D01*
X190923800Y-138412600D02*
X190923800Y-104741600D01*
X27151700Y-183071700D02*
X37378300Y-183071700D01*
D21*
%TO.N,Net-(U10-I0b)*%
X74239300Y-120232500D02*
X55500000Y-101493200D01*
X55500000Y-101493200D02*
X55500000Y-100758400D01*
X74239300Y-132205600D02*
X74239300Y-120232500D01*
X33620000Y-96680000D02*
X51421600Y-96680000D01*
X51421600Y-96680000D02*
X55500000Y-100758400D01*
%TO.N,Net-(U19-2Y)*%
X164790000Y-160555600D02*
X164790000Y-180550000D01*
X163476400Y-159242000D02*
X164790000Y-160555600D01*
X164790000Y-180550000D02*
X166060000Y-181820000D01*
%TO.N,Net-(MT1-DOWN)*%
X125863200Y-64353200D02*
X125863200Y-84854500D01*
X121130000Y-59620000D02*
X125863200Y-64353200D01*
X125632500Y-90652500D02*
X128900000Y-93920000D01*
X125632500Y-85085200D02*
X125632500Y-90652500D01*
X125863200Y-84854500D02*
X125632500Y-85085200D01*
%TO.N,Net-(MT1-B)*%
X33550000Y-56830000D02*
X51047100Y-56830000D01*
X51047100Y-56830000D02*
X55210000Y-60992900D01*
%TO.N,Net-(MT1-QA)*%
X107350000Y-51650000D02*
X112780000Y-57080000D01*
X112780000Y-57080000D02*
X121130000Y-57080000D01*
%TO.N,Net-(MT1-D)*%
X62549000Y-69005800D02*
X62549000Y-59209000D01*
X55090000Y-51750000D02*
X55190000Y-51850000D01*
X62549000Y-59209000D02*
X55190000Y-51850000D01*
X33550000Y-51750000D02*
X55090000Y-51750000D01*
%TO.N,Net-(MT1-CLR)*%
X128900000Y-91380000D02*
X126847800Y-89327800D01*
X121380000Y-176650000D02*
X110434900Y-165704900D01*
X100950100Y-85457800D02*
X100950100Y-92820100D01*
X108463000Y-156130000D02*
X107250000Y-156130000D01*
X100950100Y-92820100D02*
X104660000Y-96530000D01*
X126847800Y-85479400D02*
X126584200Y-85479400D01*
X110434900Y-165704900D02*
X110434900Y-158101900D01*
X108610400Y-100480400D02*
X104660000Y-96530000D01*
X108610400Y-155982600D02*
X108610400Y-100480400D01*
X126847800Y-85479400D02*
X126847800Y-58982200D01*
X110434900Y-158101900D02*
X108463000Y-156130000D01*
X108463000Y-156130000D02*
X108610400Y-155982600D01*
X126847800Y-58982200D02*
X128750000Y-57080000D01*
X126847800Y-89327800D02*
X126847800Y-85479400D01*
%TO.N,Net-(MT1-~{LOAD})*%
X153861300Y-172927000D02*
X142853000Y-172927000D01*
X127535900Y-85085100D02*
X127458000Y-85007200D01*
X142853000Y-172927000D02*
X136726000Y-166800000D01*
X154630000Y-173695700D02*
X153861300Y-172927000D01*
X127535900Y-86764000D02*
X127535900Y-85085100D01*
X128900000Y-99000000D02*
X130175100Y-97724900D01*
X136726000Y-166800000D02*
X136726000Y-102810000D01*
X127458000Y-85007200D02*
X127458000Y-65992000D01*
X127458000Y-65992000D02*
X128750000Y-64700000D01*
X142853000Y-172927000D02*
X141550000Y-174230000D01*
X154630000Y-180550000D02*
X154630000Y-173695700D01*
X128341900Y-87570000D02*
X127535900Y-86764000D01*
X130175100Y-88329700D02*
X129415400Y-87570000D01*
X130175100Y-97724900D02*
X130175100Y-88329700D01*
X129415400Y-87570000D02*
X128341900Y-87570000D01*
X153360000Y-181820000D02*
X154630000Y-180550000D01*
%TO.N,Net-(MT1-UP)*%
X125030800Y-84836000D02*
X125030800Y-92590800D01*
X121130000Y-62160000D02*
X125261400Y-66291400D01*
X125261400Y-84605400D02*
X125030800Y-84836000D01*
X125261400Y-66291400D02*
X125261400Y-84605400D01*
X125030800Y-92590800D02*
X128900000Y-96460000D01*
%TO.N,Net-(MT1-QD)*%
X103719300Y-53099300D02*
X102270000Y-51650000D01*
X121130000Y-67240000D02*
X106989300Y-53099300D01*
X106989300Y-53099300D02*
X103719300Y-53099300D01*
%TO.N,Net-(MT1-C)*%
X53058500Y-54290000D02*
X55190000Y-56421500D01*
X57301200Y-58532700D02*
X57301200Y-71776400D01*
X33550000Y-54290000D02*
X53058500Y-54290000D01*
X55190000Y-56421500D02*
X57301200Y-58532700D01*
%TO.N,Net-(MT1-QC)*%
X182163000Y-62616800D02*
X182163000Y-64499900D01*
X190093600Y-54686200D02*
X182163000Y-62616800D01*
%TO.N,Net-(MT1-A)*%
X49015600Y-59370000D02*
X55210000Y-65564400D01*
X33550000Y-59370000D02*
X49015600Y-59370000D01*
%TO.N,Net-(MU1-DOWN)*%
X123376300Y-123996300D02*
X128950000Y-129570000D01*
X123376300Y-96016300D02*
X123376300Y-123996300D01*
X121280000Y-93920000D02*
X123376300Y-96016300D01*
%TO.N,Net-(MU1-A)*%
X33550000Y-69530000D02*
X41219700Y-69530000D01*
X41219700Y-69530000D02*
X55540000Y-83850300D01*
%TO.N,Net-(MU1-B)*%
X42901200Y-66990000D02*
X55190000Y-79278800D01*
X33550000Y-66990000D02*
X42901200Y-66990000D01*
%TO.N,Net-(MU1-QA)*%
X121280000Y-91380000D02*
X122541600Y-90118400D01*
X111199700Y-67307500D02*
X111199700Y-58795000D01*
X111199700Y-58795000D02*
X106705900Y-54301200D01*
X122541600Y-90118400D02*
X122541600Y-78649400D01*
X102381200Y-54301200D02*
X99730000Y-51650000D01*
X122541600Y-78649400D02*
X111199700Y-67307500D01*
X106705900Y-54301200D02*
X102381200Y-54301200D01*
%TO.N,Net-(MU1-QC)*%
X123291500Y-91207300D02*
X123291500Y-90786500D01*
X109394500Y-59542500D02*
X109394500Y-81331300D01*
X121280000Y-99000000D02*
X120028300Y-97748300D01*
X104810000Y-59270000D02*
X106103400Y-57976600D01*
X109394500Y-81331300D02*
X120731500Y-92668300D01*
X120731500Y-92668300D02*
X121830500Y-92668300D01*
X107828600Y-57976600D02*
X109394500Y-59542500D01*
X120028300Y-97748300D02*
X120028300Y-93371500D01*
X106103400Y-57976600D02*
X107828600Y-57976600D01*
X120028300Y-93371500D02*
X120731500Y-92668300D01*
X121830500Y-92668300D02*
X123291500Y-91207300D01*
%TO.N,Net-(MU1-QB)*%
X121280000Y-88840000D02*
X110598000Y-78158000D01*
X110598000Y-78158000D02*
X110598000Y-59044200D01*
X108117200Y-56563400D02*
X102103400Y-56563400D01*
X102103400Y-56563400D02*
X97190000Y-51650000D01*
X110598000Y-59044200D02*
X108117200Y-56563400D01*
%TO.N,Net-(MU1-D)*%
X59837900Y-77545300D02*
X55210000Y-72917400D01*
X33550000Y-61910000D02*
X46984100Y-61910000D01*
X46984100Y-61910000D02*
X55210000Y-70135900D01*
X59837900Y-97038900D02*
X59837900Y-77545300D01*
X55210000Y-72917400D02*
X55210000Y-70135900D01*
%TO.N,Net-(MU1-UP)*%
X161812000Y-150182000D02*
X160980000Y-149350000D01*
X161812000Y-153278200D02*
X161812000Y-150182000D01*
X116343800Y-104622600D02*
X116343800Y-153278200D01*
X113273300Y-101552100D02*
X116343800Y-104622600D01*
%TO.N,Net-(MU1-QD)*%
X106029500Y-86289500D02*
X106029500Y-63029500D01*
X106029500Y-63029500D02*
X102270000Y-59270000D01*
X121280000Y-101540000D02*
X106029500Y-86289500D01*
%TO.N,Net-(MU1-C)*%
X124269900Y-96039100D02*
X124269800Y-96039100D01*
X124269800Y-96039100D02*
X124269800Y-75505800D01*
X128900000Y-101540000D02*
X125279700Y-97919700D01*
X44932700Y-64450000D02*
X55190000Y-74707300D01*
X125279700Y-97919700D02*
X125279700Y-97048900D01*
X33550000Y-64450000D02*
X44932700Y-64450000D01*
X125279700Y-97048900D02*
X124269900Y-96039100D01*
%TO.N,Net-(SU1-A)*%
X71199000Y-158736400D02*
X71199000Y-167650200D01*
X71199000Y-167650200D02*
X72818000Y-169269200D01*
X55610000Y-123556200D02*
X55610000Y-143147400D01*
X55610000Y-143147400D02*
X71199000Y-158736400D01*
X33620000Y-109380000D02*
X41433800Y-109380000D01*
X41433800Y-109380000D02*
X55610000Y-123556200D01*
%TO.N,Net-(SU1-B)*%
X33620000Y-106840000D02*
X43352100Y-106840000D01*
X121910000Y-167760000D02*
X122672800Y-168522800D01*
X122672800Y-168522800D02*
X122672800Y-175402800D01*
X122672800Y-175402800D02*
X129000000Y-181730000D01*
X119252700Y-135341300D02*
X118835300Y-135758700D01*
X43352100Y-106840000D02*
X55508800Y-118996700D01*
X118835300Y-165751000D02*
X120844300Y-167760000D01*
X118835300Y-135758700D02*
X118835300Y-165751000D01*
X120844300Y-167760000D02*
X121910000Y-167760000D01*
%TO.N,Net-(SU1-C)*%
X33620000Y-104300000D02*
X45371700Y-104300000D01*
X121901000Y-128300000D02*
X120816200Y-128300000D01*
X45371700Y-104300000D02*
X55508800Y-114437100D01*
X119441500Y-126925300D02*
X119441500Y-117431900D01*
X122590100Y-135180800D02*
X122590100Y-128989100D01*
X119437000Y-137209200D02*
X120744500Y-135901700D01*
X120816200Y-128300000D02*
X119441500Y-126925300D01*
X119441500Y-117431900D02*
X119705100Y-117168300D01*
X121380000Y-166490000D02*
X119437000Y-164547000D01*
X122590100Y-128989100D02*
X121901000Y-128300000D01*
X120744500Y-135901700D02*
X121869200Y-135901700D01*
X119437000Y-164547000D02*
X119437000Y-137209200D01*
X121869200Y-135901700D02*
X122590100Y-135180800D01*
%TO.N,Net-(SU1-D)*%
X121380000Y-163950000D02*
X120060000Y-162630000D01*
X123191800Y-128360900D02*
X122590100Y-127759200D01*
X122590100Y-127759200D02*
X122590100Y-114394800D01*
X120060000Y-139200400D02*
X120800400Y-138460000D01*
X123191800Y-137181000D02*
X123191800Y-128360900D01*
X121912800Y-138460000D02*
X123191800Y-137181000D01*
X47391300Y-101760000D02*
X55508800Y-109877500D01*
X120060000Y-162630000D02*
X120060000Y-139200400D01*
X120800400Y-138460000D02*
X121912800Y-138460000D01*
X122590100Y-114394800D02*
X121770000Y-113574700D01*
X33620000Y-101760000D02*
X47391300Y-101760000D01*
%TO.N,Net-(ST1-DOWN)*%
X117631900Y-170361900D02*
X121380000Y-174110000D01*
X117631900Y-133268100D02*
X117631900Y-170361900D01*
X121330000Y-129570000D02*
X117631900Y-133268100D01*
%TO.N,Net-(ST1-~{LOAD})*%
X163570000Y-118600000D02*
X162300000Y-119870000D01*
X162300000Y-119870000D02*
X162300000Y-130903700D01*
X162300000Y-130903700D02*
X160830600Y-132373100D01*
%TO.N,Net-(ST1-QD)*%
X166060000Y-84250000D02*
X174401800Y-92591800D01*
X174401800Y-92591800D02*
X174401800Y-135920100D01*
X153210000Y-71400000D02*
X153210000Y-59620000D01*
X166060000Y-84250000D02*
X153210000Y-71400000D01*
%TO.N,Net-(ST1-B)*%
X103889500Y-138491700D02*
X96981700Y-138491700D01*
X96981700Y-138491700D02*
X95730000Y-137240000D01*
X107658700Y-126988200D02*
X107658700Y-134722500D01*
X107658700Y-134722500D02*
X103889500Y-138491700D01*
%TO.N,Net-(ST1-QA)*%
X120040200Y-106970800D02*
X103489900Y-90420500D01*
X120656800Y-116774000D02*
X120040300Y-116157500D01*
X109996300Y-79050500D02*
X111313800Y-80368000D01*
X109996300Y-59293400D02*
X109996300Y-79050500D01*
X120656800Y-117562600D02*
X120656800Y-116774000D01*
X120043200Y-118176200D02*
X120656800Y-117562600D01*
X183540500Y-99190500D02*
X183540500Y-138421500D01*
X121330000Y-127030000D02*
X120043200Y-125743200D01*
X103489900Y-90420500D02*
X103489900Y-82399400D01*
X108017900Y-57315000D02*
X109996300Y-59293400D01*
X99730000Y-59270000D02*
X101685000Y-57315000D01*
X120043200Y-125743200D02*
X120043200Y-118176200D01*
X168600000Y-84250000D02*
X183540500Y-99190500D01*
X120040200Y-116157500D02*
X120040200Y-106970800D01*
X120040300Y-116157500D02*
X120040200Y-116157500D01*
X101685000Y-57315000D02*
X108017900Y-57315000D01*
%TO.N,Net-(ST1-D)*%
X126293000Y-137073000D02*
X128950000Y-139730000D01*
X126293000Y-132099600D02*
X126293000Y-137073000D01*
%TO.N,Net-(ST1-QB)*%
X168450000Y-52000000D02*
X168450000Y-52132800D01*
X168450000Y-52132800D02*
X187967400Y-71650200D01*
X187967400Y-71650200D02*
X187967400Y-120505000D01*
X187967400Y-120505000D02*
X189509400Y-122047000D01*
%TO.N,Net-(ST1-UP)*%
X118233600Y-134949800D02*
X118233600Y-168423600D01*
X118233600Y-168423600D02*
X121380000Y-171570000D01*
X121330000Y-132110000D02*
X121073400Y-132110000D01*
X121073400Y-132110000D02*
X118233600Y-134949800D01*
%TO.N,Net-(ST1-CLR)*%
X124328000Y-122408000D02*
X128950000Y-127030000D01*
X124328000Y-97443200D02*
X124328000Y-122408000D01*
%TO.N,Net-(ST1-QC)*%
X165910000Y-52000000D02*
X187203600Y-73293600D01*
X187203600Y-122281200D02*
X189509400Y-124587000D01*
X187203600Y-73293600D02*
X187203600Y-122281200D01*
%TO.N,Net-(SU1-DOWN)*%
X123624500Y-168721500D02*
X123751700Y-168721500D01*
X129000000Y-174110000D02*
X129000000Y-174097000D01*
X129000000Y-174097000D02*
X123624500Y-168721500D01*
X123751700Y-168721500D02*
X123624500Y-168721500D01*
%TO.N,Net-(SU1-QC)*%
X132515000Y-165515000D02*
X132515000Y-70856800D01*
X132515000Y-70856800D02*
X152674000Y-50697800D01*
X129000000Y-169030000D02*
X132515000Y-165515000D01*
X152674000Y-50697800D02*
X156987800Y-50697800D01*
X156987800Y-50697800D02*
X158290000Y-52000000D01*
%TO.N,Net-(SU1-QD)*%
X189580000Y-176720000D02*
X186394300Y-173534300D01*
X185400200Y-166119500D02*
X186394300Y-167113600D01*
X186394300Y-173534300D02*
X186394300Y-167113600D01*
X185400200Y-79110200D02*
X185400200Y-166119500D01*
X165910000Y-59620000D02*
X185400200Y-79110200D01*
%TO.N,Net-(SU1-QB)*%
X164639900Y-51456700D02*
X163900600Y-50717400D01*
X162112600Y-50717400D02*
X160830000Y-52000000D01*
X186214100Y-160654100D02*
X186214100Y-75354300D01*
X186214100Y-75354300D02*
X164639900Y-53780100D01*
X163900600Y-50717400D02*
X162112600Y-50717400D01*
X189580000Y-164020000D02*
X186214100Y-160654100D01*
X187769000Y-169147000D02*
X187769000Y-165831000D01*
X164639900Y-53780100D02*
X164639900Y-51456700D01*
X187769000Y-165831000D02*
X189580000Y-164020000D01*
%TO.N,Net-(SU1-QA)*%
X163370000Y-53768000D02*
X164639900Y-55037900D01*
X184618700Y-174298700D02*
X189580000Y-179260000D01*
X184618700Y-97993200D02*
X184618700Y-174298700D01*
X164639900Y-55037900D02*
X164639900Y-78014400D01*
X163370000Y-52000000D02*
X163370000Y-53768000D01*
X164639900Y-78014400D02*
X184618700Y-97993200D01*
%TO.N,Net-(AFF1-f)*%
X243700000Y-70000000D02*
X248600000Y-70000000D01*
X248600000Y-70000000D02*
X256882800Y-78282800D01*
X256882800Y-78282800D02*
X263271000Y-78282800D01*
%TO.N,Net-(AFF1-c)*%
X241769600Y-83362800D02*
X248031000Y-83362800D01*
X227446000Y-69039200D02*
X241769600Y-83362800D01*
%TO.N,Net-(AFF2-e)*%
X240090400Y-97409000D02*
X247802400Y-97409000D01*
X227424600Y-110074800D02*
X240090400Y-97409000D01*
%TO.N,Net-(AFF2-d)*%
X227424600Y-106024800D02*
X235165700Y-98283700D01*
X235165700Y-98283700D02*
X235165700Y-98228600D01*
%TO.N,Net-(AFF3-e)*%
X247929400Y-120118800D02*
X246215700Y-120118800D01*
X230326000Y-136008500D02*
X230326000Y-144977800D01*
X246215700Y-120118800D02*
X230326000Y-136008500D01*
X230326000Y-144977800D02*
X227526200Y-147777600D01*
%TO.N,Net-(AFF3-d)*%
X226254000Y-148280600D02*
X227013400Y-149040000D01*
X227526200Y-143727600D02*
X226254000Y-144999800D01*
X226254000Y-144999800D02*
X226254000Y-148280600D01*
X227013400Y-149040000D02*
X228074400Y-149040000D01*
X244761900Y-124112600D02*
X246215700Y-122658800D01*
X244761900Y-132352500D02*
X244761900Y-124112600D01*
X247929400Y-122658800D02*
X246215700Y-122658800D01*
X228074400Y-149040000D02*
X244761900Y-132352500D01*
%TO.N,Net-(AFF4-d)*%
X227700000Y-177950000D02*
X226437100Y-176687100D01*
X247802400Y-144373600D02*
X246088700Y-144373600D01*
X244611700Y-155258300D02*
X244611700Y-145850600D01*
X226437100Y-173432900D02*
X244611700Y-155258300D01*
X244611700Y-145850600D02*
X246088700Y-144373600D01*
X226437100Y-176687100D02*
X226437100Y-173432900D01*
%TO.N,Net-(AFF4-c)*%
X246088700Y-155561300D02*
X246088700Y-149453600D01*
X227700000Y-173950000D02*
X246088700Y-155561300D01*
X247802400Y-149453600D02*
X246088700Y-149453600D01*
%TO.N,Net-(AFF4-e)*%
X225835400Y-180085400D02*
X227700000Y-181950000D01*
X247802400Y-141833600D02*
X246042300Y-141833600D01*
X246042300Y-141833600D02*
X225835400Y-162040500D01*
X225835400Y-162040500D02*
X225835400Y-180085400D01*
%TO.N,Net-(J3-Pin_5)*%
X97014200Y-130110200D02*
X96234400Y-130890000D01*
X96234400Y-130890000D02*
X95137800Y-130890000D01*
X95770000Y-111980800D02*
X97014200Y-113225000D01*
X95137800Y-130890000D02*
X93601200Y-132426600D01*
X92060000Y-84200000D02*
X95770000Y-87910000D01*
X97014200Y-113225000D02*
X97014200Y-130110200D01*
X95770000Y-87910000D02*
X95770000Y-111980800D01*
X95820000Y-152574900D02*
X95820000Y-172710000D01*
X93601200Y-150356100D02*
X95820000Y-152574900D01*
X93601200Y-132426600D02*
X93601200Y-150356100D01*
X95820000Y-172710000D02*
X94450000Y-174080000D01*
%TD*%
M02*
