%TF.GenerationSoftware,KiCad,Pcbnew,9.0.7*%
%TF.CreationDate,2026-03-03T21:03:45+02:00*%
%TF.ProjectId,Stopwatch_Timer,53746f70-7761-4746-9368-5f54696d6572,rev?*%
%TF.SameCoordinates,Original*%
%TF.FileFunction,Copper,L1,Top*%
%TF.FilePolarity,Positive*%
%FSLAX46Y46*%
G04 Gerber Fmt 4.6, Leading zero omitted, Abs format (unit mm)*
G04 Created by KiCad (PCBNEW 9.0.7) date 2026-03-03 21:03:45*
%MOMM*%
%LPD*%
G01*
G04 APERTURE LIST*
G04 Aperture macros list*
%AMRoundRect*
0 Rectangle with rounded corners*
0 $1 Rounding radius*
0 $2 $3 $4 $5 $6 $7 $8 $9 X,Y pos of 4 corners*
0 Add a 4 corners polygon primitive as box body*
4,1,4,$2,$3,$4,$5,$6,$7,$8,$9,$2,$3,0*
0 Add four circle primitives for the rounded corners*
1,1,$1+$1,$2,$3*
1,1,$1+$1,$4,$5*
1,1,$1+$1,$6,$7*
1,1,$1+$1,$8,$9*
0 Add four rect primitives between the rounded corners*
20,1,$1+$1,$2,$3,$4,$5,0*
20,1,$1+$1,$4,$5,$6,$7,0*
20,1,$1+$1,$6,$7,$8,$9,0*
20,1,$1+$1,$8,$9,$2,$3,0*%
G04 Aperture macros list end*
%TA.AperFunction,ComponentPad*%
%ADD10C,1.600000*%
%TD*%
%TA.AperFunction,ComponentPad*%
%ADD11RoundRect,0.250000X-0.550000X-0.550000X0.550000X-0.550000X0.550000X0.550000X-0.550000X0.550000X0*%
%TD*%
%TA.AperFunction,ComponentPad*%
%ADD12C,1.700000*%
%TD*%
%TA.AperFunction,ComponentPad*%
%ADD13R,1.700000X1.700000*%
%TD*%
%TA.AperFunction,ComponentPad*%
%ADD14R,2.524000X1.524000*%
%TD*%
%TA.AperFunction,ComponentPad*%
%ADD15O,2.524000X1.524000*%
%TD*%
%TA.AperFunction,ComponentPad*%
%ADD16RoundRect,0.250000X-0.550000X0.550000X-0.550000X-0.550000X0.550000X-0.550000X0.550000X0.550000X0*%
%TD*%
%TA.AperFunction,ComponentPad*%
%ADD17C,2.000000*%
%TD*%
%TA.AperFunction,ComponentPad*%
%ADD18RoundRect,0.250000X0.550000X0.550000X-0.550000X0.550000X-0.550000X-0.550000X0.550000X-0.550000X0*%
%TD*%
%TA.AperFunction,ComponentPad*%
%ADD19RoundRect,0.250000X0.550000X-0.550000X0.550000X0.550000X-0.550000X0.550000X-0.550000X-0.550000X0*%
%TD*%
%TA.AperFunction,ViaPad*%
%ADD20C,1.000000*%
%TD*%
%TA.AperFunction,Conductor*%
%ADD21C,0.500000*%
%TD*%
%TA.AperFunction,Conductor*%
%ADD22C,0.300000*%
%TD*%
G04 APERTURE END LIST*
D10*
%TO.P,R3,1*%
%TO.N,Net-(U10-I0d)*%
X55500000Y-91639300D03*
%TO.P,R3,2*%
%TO.N,GND*%
X65660000Y-91639300D03*
%TD*%
%TO.P,R32,1*%
%TO.N,Net-(U10-I0c)*%
X55500000Y-96198800D03*
%TO.P,R32,2*%
%TO.N,GND*%
X65660000Y-96198800D03*
%TD*%
%TO.P,R33,1*%
%TO.N,Net-(U10-I0b)*%
X55500000Y-100758400D03*
%TO.P,R33,2*%
%TO.N,GND*%
X65660000Y-100758400D03*
%TD*%
%TO.P,R34,1*%
%TO.N,Net-(U10-I0a)*%
X55500000Y-105318000D03*
%TO.P,R34,2*%
%TO.N,GND*%
X65660000Y-105318000D03*
%TD*%
%TO.P,R35,2*%
%TO.N,GND*%
X65668800Y-109877500D03*
%TO.P,R35,1*%
%TO.N,Net-(SU1-D)*%
X55508800Y-109877500D03*
%TD*%
%TO.P,R36,2*%
%TO.N,GND*%
X65668800Y-114437100D03*
%TO.P,R36,1*%
%TO.N,Net-(SU1-C)*%
X55508800Y-114437100D03*
%TD*%
%TO.P,R37,2*%
%TO.N,GND*%
X65668800Y-118996700D03*
%TO.P,R37,1*%
%TO.N,Net-(SU1-B)*%
X55508800Y-118996700D03*
%TD*%
%TO.P,R38,2*%
%TO.N,GND*%
X65770000Y-123556200D03*
%TO.P,R38,1*%
%TO.N,Net-(SU1-A)*%
X55610000Y-123556200D03*
%TD*%
%TO.P,R47,2*%
%TO.N,GND*%
X65700000Y-83850300D03*
%TO.P,R47,1*%
%TO.N,Net-(MU1-A)*%
X55540000Y-83850300D03*
%TD*%
%TO.P,R6_Timer1,1*%
%TO.N,Net-(R5_Timer1-Pad2)*%
X32925600Y-158877400D03*
%TO.P,R6_Timer1,2*%
%TO.N,Net-(U1-THRES)*%
X32925600Y-166497400D03*
%TD*%
%TO.P,R39,2*%
%TO.N,Net-(U20-1A)*%
X74000000Y-155950000D03*
%TO.P,R39,1*%
%TO.N,Net-(U1-OUT)*%
X66380000Y-155950000D03*
%TD*%
%TO.P,U6,16,VCC*%
%TO.N,+5V*%
X197713600Y-52146200D03*
%TO.P,U6,15,f*%
%TO.N,Net-(U6-f)*%
X197713600Y-54686200D03*
%TO.P,U6,14,g*%
%TO.N,Net-(U6-g)*%
X197713600Y-57226200D03*
%TO.P,U6,13,a*%
%TO.N,Net-(U6-a)*%
X197713600Y-59766200D03*
%TO.P,U6,12,b*%
%TO.N,Net-(U6-b)*%
X197713600Y-62306200D03*
%TO.P,U6,11,c*%
%TO.N,Net-(U6-c)*%
X197713600Y-64846200D03*
%TO.P,U6,10,d*%
%TO.N,Net-(U6-d)*%
X197713600Y-67386200D03*
%TO.P,U6,9,e*%
%TO.N,Net-(U6-e)*%
X197713600Y-69926200D03*
%TO.P,U6,8,GND*%
%TO.N,GND*%
X190093600Y-69926200D03*
%TO.P,U6,7,A*%
%TO.N,Net-(MT1-QA)*%
X190093600Y-67386200D03*
%TO.P,U6,6,D*%
%TO.N,Net-(MT1-QD)*%
X190093600Y-64846200D03*
%TO.P,U6,5,RBI*%
%TO.N,+5V*%
X190093600Y-62306200D03*
%TO.P,U6,4,BI*%
X190093600Y-59766200D03*
%TO.P,U6,3,LT*%
X190093600Y-57226200D03*
%TO.P,U6,2,C*%
%TO.N,Net-(MT1-QC)*%
X190093600Y-54686200D03*
D11*
%TO.P,U6,1,B*%
%TO.N,Net-(MT1-QB)*%
X190093600Y-52146200D03*
%TD*%
D10*
%TO.P,R5,2*%
%TO.N,Net-(AFF1-b)*%
X227446000Y-64989200D03*
%TO.P,R5,1*%
%TO.N,Net-(U6-b)*%
X219826000Y-64989200D03*
%TD*%
%TO.P,R9,2*%
%TO.N,Net-(AFF1-f)*%
X227700000Y-52100000D03*
%TO.P,R9,1*%
%TO.N,Net-(U6-f)*%
X220080000Y-52100000D03*
%TD*%
%TO.P,R10,2*%
%TO.N,Net-(AFF1-g)*%
X227700000Y-56150000D03*
%TO.P,R10,1*%
%TO.N,Net-(U6-g)*%
X220080000Y-56150000D03*
%TD*%
%TO.P,R6,2*%
%TO.N,Net-(AFF1-c)*%
X227446000Y-69039200D03*
%TO.P,R6,1*%
%TO.N,Net-(U6-c)*%
X219826000Y-69039200D03*
%TD*%
%TO.P,R7,2*%
%TO.N,Net-(AFF1-d)*%
X227446000Y-73089200D03*
%TO.P,R7,1*%
%TO.N,Net-(U6-d)*%
X219826000Y-73089200D03*
%TD*%
%TO.P,R4,2*%
%TO.N,Net-(AFF1-a)*%
X227446000Y-60939200D03*
%TO.P,R4,1*%
%TO.N,Net-(U6-a)*%
X219826000Y-60939200D03*
%TD*%
%TO.P,R8,2*%
%TO.N,Net-(AFF1-e)*%
X227446000Y-77139200D03*
%TO.P,R8,1*%
%TO.N,Net-(U6-e)*%
X219826000Y-77139200D03*
%TD*%
%TO.P,R2_Timer1,2*%
%TO.N,Net-(R2_Timer1-Pad2)*%
X27100000Y-148342600D03*
%TO.P,R2_Timer1,1*%
%TO.N,Net-(R1_Timer1-Pad2)*%
X27100000Y-155962600D03*
%TD*%
%TO.P,R4_Timer1,1*%
%TO.N,Net-(R3_Timer1-Pad2)*%
X32900000Y-137850000D03*
%TO.P,R4_Timer1,2*%
%TO.N,Net-(R4_Timer1-Pad2)*%
X32900000Y-145470000D03*
%TD*%
%TO.P,R5_Timer1,2*%
%TO.N,Net-(R5_Timer1-Pad2)*%
X32900000Y-155972600D03*
%TO.P,R5_Timer1,1*%
%TO.N,Net-(R4_Timer1-Pad2)*%
X32900000Y-148352600D03*
%TD*%
%TO.P,R3_Timer1,1*%
%TO.N,Net-(R2_Timer1-Pad2)*%
X26900000Y-145470000D03*
%TO.P,R3_Timer1,2*%
%TO.N,Net-(R3_Timer1-Pad2)*%
X26900000Y-137850000D03*
%TD*%
D12*
%TO.P,J3,6,Pin_6*%
%TO.N,GND*%
X74075000Y-180175000D03*
%TO.P,J3,5,Pin_5*%
%TO.N,Net-(J3-Pin_5)*%
X71535000Y-180175000D03*
%TO.P,J3,4,Pin_4*%
%TO.N,+5V*%
X68995000Y-180175000D03*
%TO.P,J3,3,Pin_3*%
%TO.N,unconnected-(J3-Pin_3-Pad3)*%
X66455000Y-180175000D03*
%TO.P,J3,2,Pin_2*%
%TO.N,GND*%
X63915000Y-180175000D03*
D13*
%TO.P,J3,1,Pin_1*%
%TO.N,+5V*%
X61375000Y-180175000D03*
%TD*%
D10*
%TO.P,R46,1*%
%TO.N,Net-(MU1-B)*%
X55190000Y-79278800D03*
%TO.P,R46,2*%
%TO.N,GND*%
X65350000Y-79278800D03*
%TD*%
%TO.P,R24,1*%
%TO.N,Net-(U7-g)*%
X219830000Y-126100000D03*
%TO.P,R24,2*%
%TO.N,Net-(AFF3-g)*%
X227450000Y-126100000D03*
%TD*%
%TO.P,R40,1*%
%TO.N,Net-(MT1-D)*%
X55190000Y-51850000D03*
%TO.P,R40,2*%
%TO.N,GND*%
X65350000Y-51850000D03*
%TD*%
D14*
%TO.P,AFF4,1,e*%
%TO.N,Net-(AFF4-e)*%
X247802400Y-141833600D03*
D15*
%TO.P,AFF4,2,d*%
%TO.N,Net-(AFF4-d)*%
X247802400Y-144373600D03*
%TO.P,AFF4,3,C.A.*%
%TO.N,+5V*%
X247802400Y-146913600D03*
%TO.P,AFF4,4,c*%
%TO.N,Net-(AFF4-c)*%
X247802400Y-149453600D03*
%TO.P,AFF4,5,DP*%
%TO.N,+5V*%
X247802400Y-151993600D03*
%TO.P,AFF4,6,b*%
%TO.N,Net-(AFF4-b)*%
X263042400Y-151993600D03*
%TO.P,AFF4,7,a*%
%TO.N,Net-(AFF4-a)*%
X263042400Y-149453600D03*
%TO.P,AFF4,8,C.A.*%
%TO.N,+5V*%
X263042400Y-146913600D03*
%TO.P,AFF4,9,f*%
%TO.N,Net-(AFF4-f)*%
X263042400Y-144373600D03*
%TO.P,AFF4,10,g*%
%TO.N,Net-(AFF4-g)*%
X263042400Y-141833600D03*
%TD*%
D10*
%TO.P,R25,1*%
%TO.N,Net-(U9-a)*%
X220120000Y-165950000D03*
%TO.P,R25,2*%
%TO.N,Net-(AFF4-a)*%
X227740000Y-165950000D03*
%TD*%
%TO.P,R29,1*%
%TO.N,Net-(U9-e)*%
X220080000Y-181950000D03*
%TO.P,R29,2*%
%TO.N,Net-(AFF4-e)*%
X227700000Y-181950000D03*
%TD*%
D11*
%TO.P,MU1,1,B*%
%TO.N,Net-(MU1-B)*%
X121280000Y-86300000D03*
D10*
%TO.P,MU1,2,QB*%
%TO.N,Net-(MU1-QB)*%
X121280000Y-88840000D03*
%TO.P,MU1,3,QA*%
%TO.N,Net-(MU1-QA)*%
X121280000Y-91380000D03*
%TO.P,MU1,4,DOWN*%
%TO.N,Net-(MU1-DOWN)*%
X121280000Y-93920000D03*
%TO.P,MU1,5,UP*%
%TO.N,Net-(MU1-UP)*%
X121280000Y-96460000D03*
%TO.P,MU1,6,QC*%
%TO.N,Net-(MU1-QC)*%
X121280000Y-99000000D03*
%TO.P,MU1,7,QD*%
%TO.N,Net-(MU1-QD)*%
X121280000Y-101540000D03*
%TO.P,MU1,8,GND*%
%TO.N,GND*%
X121280000Y-104080000D03*
%TO.P,MU1,9,D*%
%TO.N,Net-(MU1-D)*%
X128900000Y-104080000D03*
%TO.P,MU1,10,C*%
%TO.N,Net-(MU1-C)*%
X128900000Y-101540000D03*
%TO.P,MU1,11,~{LOAD}*%
%TO.N,Net-(MT1-~{LOAD})*%
X128900000Y-99000000D03*
%TO.P,MU1,12,~{CO}*%
%TO.N,Net-(MT1-UP)*%
X128900000Y-96460000D03*
%TO.P,MU1,13,~{BO}*%
%TO.N,Net-(MT1-DOWN)*%
X128900000Y-93920000D03*
%TO.P,MU1,14,CLR*%
%TO.N,Net-(MT1-CLR)*%
X128900000Y-91380000D03*
%TO.P,MU1,15,A*%
%TO.N,Net-(MU1-A)*%
X128900000Y-88840000D03*
%TO.P,MU1,16,VCC*%
%TO.N,+5V*%
X128900000Y-86300000D03*
%TD*%
D11*
%TO.P,SW1,1*%
%TO.N,+5V*%
X26000000Y-91600000D03*
D10*
%TO.P,SW1,2*%
X26000000Y-94140000D03*
%TO.P,SW1,3*%
X26000000Y-96680000D03*
%TO.P,SW1,4*%
X26000000Y-99220000D03*
%TO.P,SW1,5*%
X26000000Y-101760000D03*
%TO.P,SW1,6*%
X26000000Y-104300000D03*
%TO.P,SW1,7*%
X26000000Y-106840000D03*
%TO.P,SW1,8*%
X26000000Y-109380000D03*
%TO.P,SW1,9*%
%TO.N,Net-(SU1-A)*%
X33620000Y-109380000D03*
%TO.P,SW1,10*%
%TO.N,Net-(SU1-B)*%
X33620000Y-106840000D03*
%TO.P,SW1,11*%
%TO.N,Net-(SU1-C)*%
X33620000Y-104300000D03*
%TO.P,SW1,12*%
%TO.N,Net-(SU1-D)*%
X33620000Y-101760000D03*
%TO.P,SW1,13*%
%TO.N,Net-(U10-I0a)*%
X33620000Y-99220000D03*
%TO.P,SW1,14*%
%TO.N,Net-(U10-I0b)*%
X33620000Y-96680000D03*
%TO.P,SW1,15*%
%TO.N,Net-(U10-I0c)*%
X33620000Y-94140000D03*
%TO.P,SW1,16*%
%TO.N,Net-(U10-I0d)*%
X33620000Y-91600000D03*
%TD*%
%TO.P,R_Mode1,1*%
%TO.N,Net-(U11-3A)*%
X74000000Y-145550000D03*
%TO.P,R_Mode1,2*%
%TO.N,GND*%
X66380000Y-145550000D03*
%TD*%
%TO.P,R14,1*%
%TO.N,Net-(U4-d)*%
X219804600Y-106024800D03*
%TO.P,R14,2*%
%TO.N,Net-(AFF2-d)*%
X227424600Y-106024800D03*
%TD*%
%TO.P,R18,1*%
%TO.N,Net-(U7-a)*%
X219753800Y-130982000D03*
%TO.P,R18,2*%
%TO.N,Net-(AFF3-a)*%
X227373800Y-130982000D03*
%TD*%
%TO.P,R49,1*%
%TO.N,Net-(U20-3A)*%
X74000000Y-134450000D03*
%TO.P,R49,2*%
%TO.N,GND*%
X66380000Y-134450000D03*
%TD*%
%TO.P,R16,1*%
%TO.N,Net-(U4-f)*%
X219830000Y-85950000D03*
%TO.P,R16,2*%
%TO.N,Net-(AFF2-f)*%
X227450000Y-85950000D03*
%TD*%
%TO.P,R26,1*%
%TO.N,Net-(U9-b)*%
X220120000Y-169950000D03*
%TO.P,R26,2*%
%TO.N,Net-(AFF4-b)*%
X227740000Y-169950000D03*
%TD*%
D16*
%TO.P,U23,1,1A*%
%TO.N,Net-(U11-2A)*%
X107200000Y-96530000D03*
D10*
%TO.P,U23,2,1B*%
%TO.N,Net-(MT1-CLR)*%
X104660000Y-96530000D03*
%TO.P,U23,3,1Y*%
%TO.N,Net-(ST1-CLR)*%
X102120000Y-96530000D03*
%TO.P,U23,4,2A*%
%TO.N,unconnected-(U23-2A-Pad4)*%
X99580000Y-96530000D03*
%TO.P,U23,5,2B*%
%TO.N,unconnected-(U23-2B-Pad5)*%
X97040000Y-96530000D03*
%TO.P,U23,6,2Y*%
%TO.N,unconnected-(U23-2Y-Pad6)*%
X94500000Y-96530000D03*
%TO.P,U23,7,GND*%
%TO.N,GND*%
X91960000Y-96530000D03*
%TO.P,U23,8,3Y*%
%TO.N,unconnected-(U23-3Y-Pad8)*%
X91960000Y-104150000D03*
%TO.P,U23,9,3A*%
%TO.N,unconnected-(U23-3A-Pad9)*%
X94500000Y-104150000D03*
%TO.P,U23,10,3B*%
%TO.N,unconnected-(U23-3B-Pad10)*%
X97040000Y-104150000D03*
%TO.P,U23,11,4Y*%
%TO.N,unconnected-(U23-4Y-Pad11)*%
X99580000Y-104150000D03*
%TO.P,U23,12,4A*%
%TO.N,unconnected-(U23-4A-Pad12)*%
X102120000Y-104150000D03*
%TO.P,U23,13,4B*%
%TO.N,unconnected-(U23-4B-Pad13)*%
X104660000Y-104150000D03*
%TO.P,U23,14,VCC*%
%TO.N,unconnected-(U23-VCC-Pad14)*%
X107200000Y-104150000D03*
%TD*%
D17*
%TO.P,S3,1*%
%TO.N,GND*%
X45900000Y-149850000D03*
%TO.P,S3,2*%
%TO.N,Net-(MT1-~{LOAD})*%
X50900000Y-149850000D03*
%TD*%
D11*
%TO.P,SW3,1*%
%TO.N,+5V*%
X25930000Y-51750000D03*
D10*
%TO.P,SW3,2*%
X25930000Y-54290000D03*
%TO.P,SW3,3*%
X25930000Y-56830000D03*
%TO.P,SW3,4*%
X25930000Y-59370000D03*
%TO.P,SW3,5*%
X25930000Y-61910000D03*
%TO.P,SW3,6*%
X25930000Y-64450000D03*
%TO.P,SW3,7*%
X25930000Y-66990000D03*
%TO.P,SW3,8*%
X25930000Y-69530000D03*
%TO.P,SW3,9*%
%TO.N,Net-(MU1-A)*%
X33550000Y-69530000D03*
%TO.P,SW3,10*%
%TO.N,Net-(MU1-B)*%
X33550000Y-66990000D03*
%TO.P,SW3,11*%
%TO.N,Net-(MU1-C)*%
X33550000Y-64450000D03*
%TO.P,SW3,12*%
%TO.N,Net-(MU1-D)*%
X33550000Y-61910000D03*
%TO.P,SW3,13*%
%TO.N,Net-(MT1-A)*%
X33550000Y-59370000D03*
%TO.P,SW3,14*%
%TO.N,Net-(MT1-B)*%
X33550000Y-56830000D03*
%TO.P,SW3,15*%
%TO.N,Net-(MT1-C)*%
X33550000Y-54290000D03*
%TO.P,SW3,16*%
%TO.N,Net-(MT1-D)*%
X33550000Y-51750000D03*
%TD*%
%TO.P,R13,1*%
%TO.N,Net-(U4-c)*%
X219804600Y-101974800D03*
%TO.P,R13,2*%
%TO.N,Net-(AFF2-c)*%
X227424600Y-101974800D03*
%TD*%
D14*
%TO.P,AFF3,1,e*%
%TO.N,Net-(AFF3-e)*%
X247929400Y-120118800D03*
D15*
%TO.P,AFF3,2,d*%
%TO.N,Net-(AFF3-d)*%
X247929400Y-122658800D03*
%TO.P,AFF3,3,C.A.*%
%TO.N,+5V*%
X247929400Y-125198800D03*
%TO.P,AFF3,4,c*%
%TO.N,Net-(AFF3-c)*%
X247929400Y-127738800D03*
%TO.P,AFF3,5,DP*%
%TO.N,+5V*%
X247929400Y-130278800D03*
%TO.P,AFF3,6,b*%
%TO.N,Net-(AFF3-b)*%
X263169400Y-130278800D03*
%TO.P,AFF3,7,a*%
%TO.N,Net-(AFF3-a)*%
X263169400Y-127738800D03*
%TO.P,AFF3,8,C.A.*%
%TO.N,+5V*%
X263169400Y-125198800D03*
%TO.P,AFF3,9,f*%
%TO.N,Net-(AFF3-f)*%
X263169400Y-122658800D03*
%TO.P,AFF3,10,g*%
%TO.N,Net-(AFF3-g)*%
X263169400Y-120118800D03*
%TD*%
D16*
%TO.P,U11,1,1A*%
%TO.N,Net-(U11-1A)*%
X168600000Y-149350000D03*
D10*
%TO.P,U11,2,1Y*%
%TO.N,Net-(U10-S)*%
X166060000Y-149350000D03*
%TO.P,U11,3,2A*%
%TO.N,Net-(U11-2A)*%
X163520000Y-149350000D03*
%TO.P,U11,4,2Y*%
%TO.N,Net-(MU1-UP)*%
X160980000Y-149350000D03*
%TO.P,U11,5,3A*%
%TO.N,Net-(U11-3A)*%
X158440000Y-149350000D03*
%TO.P,U11,6,3Y*%
%TO.N,Net-(U11-3Y)*%
X155900000Y-149350000D03*
%TO.P,U11,7,GND*%
%TO.N,GND*%
X153360000Y-149350000D03*
%TO.P,U11,8,4Y*%
%TO.N,unconnected-(U11-4Y-Pad8)*%
X153360000Y-156970000D03*
%TO.P,U11,9,4A*%
%TO.N,unconnected-(U11-4A-Pad9)*%
X155900000Y-156970000D03*
%TO.P,U11,10,5Y*%
%TO.N,unconnected-(U11-5Y-Pad10)*%
X158440000Y-156970000D03*
%TO.P,U11,11,5A*%
%TO.N,unconnected-(U11-5A-Pad11)*%
X160980000Y-156970000D03*
%TO.P,U11,12,6Y*%
%TO.N,unconnected-(U11-6Y-Pad12)*%
X163520000Y-156970000D03*
%TO.P,U11,13,6A*%
%TO.N,unconnected-(U11-6A-Pad13)*%
X166060000Y-156970000D03*
%TO.P,U11,14,VCC*%
%TO.N,+5V*%
X168600000Y-156970000D03*
%TD*%
D11*
%TO.P,MT1,1,B*%
%TO.N,Net-(MT1-B)*%
X121130000Y-52000000D03*
D10*
%TO.P,MT1,2,QB*%
%TO.N,Net-(MT1-QB)*%
X121130000Y-54540000D03*
%TO.P,MT1,3,QA*%
%TO.N,Net-(MT1-QA)*%
X121130000Y-57080000D03*
%TO.P,MT1,4,DOWN*%
%TO.N,Net-(MT1-DOWN)*%
X121130000Y-59620000D03*
%TO.P,MT1,5,UP*%
%TO.N,Net-(MT1-UP)*%
X121130000Y-62160000D03*
%TO.P,MT1,6,QC*%
%TO.N,Net-(MT1-QC)*%
X121130000Y-64700000D03*
%TO.P,MT1,7,QD*%
%TO.N,Net-(MT1-QD)*%
X121130000Y-67240000D03*
%TO.P,MT1,8,GND*%
%TO.N,GND*%
X121130000Y-69780000D03*
%TO.P,MT1,9,D*%
%TO.N,Net-(MT1-D)*%
X128750000Y-69780000D03*
%TO.P,MT1,10,C*%
%TO.N,Net-(MT1-C)*%
X128750000Y-67240000D03*
%TO.P,MT1,11,~{LOAD}*%
%TO.N,Net-(MT1-~{LOAD})*%
X128750000Y-64700000D03*
%TO.P,MT1,12,~{CO}*%
%TO.N,unconnected-(MT1-~{CO}-Pad12)*%
X128750000Y-62160000D03*
%TO.P,MT1,13,~{BO}*%
%TO.N,unconnected-(MT1-~{BO}-Pad13)*%
X128750000Y-59620000D03*
%TO.P,MT1,14,CLR*%
%TO.N,Net-(MT1-CLR)*%
X128750000Y-57080000D03*
%TO.P,MT1,15,A*%
%TO.N,Net-(MT1-A)*%
X128750000Y-54540000D03*
%TO.P,MT1,16,VCC*%
%TO.N,+5V*%
X128750000Y-52000000D03*
%TD*%
D18*
%TO.P,SU1,1,B*%
%TO.N,Net-(SU1-B)*%
X129000000Y-181730000D03*
D10*
%TO.P,SU1,2,QB*%
%TO.N,Net-(SU1-QB)*%
X129000000Y-179190000D03*
%TO.P,SU1,3,QA*%
%TO.N,Net-(SU1-QA)*%
X129000000Y-176650000D03*
%TO.P,SU1,4,DOWN*%
%TO.N,Net-(SU1-DOWN)*%
X129000000Y-174110000D03*
%TO.P,SU1,5,UP*%
%TO.N,Net-(SU1-UP)*%
X129000000Y-171570000D03*
%TO.P,SU1,6,QC*%
%TO.N,Net-(SU1-QC)*%
X129000000Y-169030000D03*
%TO.P,SU1,7,QD*%
%TO.N,Net-(SU1-QD)*%
X129000000Y-166490000D03*
%TO.P,SU1,8,GND*%
%TO.N,GND*%
X129000000Y-163950000D03*
%TO.P,SU1,9,D*%
%TO.N,Net-(SU1-D)*%
X121380000Y-163950000D03*
%TO.P,SU1,10,C*%
%TO.N,Net-(SU1-C)*%
X121380000Y-166490000D03*
%TO.P,SU1,11,~{LOAD}*%
%TO.N,Net-(MT1-~{LOAD})*%
X121380000Y-169030000D03*
%TO.P,SU1,12,~{CO}*%
%TO.N,Net-(ST1-UP)*%
X121380000Y-171570000D03*
%TO.P,SU1,13,~{BO}*%
%TO.N,Net-(ST1-DOWN)*%
X121380000Y-174110000D03*
%TO.P,SU1,14,CLR*%
%TO.N,Net-(MT1-CLR)*%
X121380000Y-176650000D03*
%TO.P,SU1,15,A*%
%TO.N,Net-(SU1-A)*%
X121380000Y-179190000D03*
%TO.P,SU1,16,VCC*%
%TO.N,+5V*%
X121380000Y-181730000D03*
%TD*%
%TO.P,R23,1*%
%TO.N,Net-(U7-f)*%
X219830000Y-122050000D03*
%TO.P,R23,2*%
%TO.N,Net-(AFF3-f)*%
X227450000Y-122050000D03*
%TD*%
%TO.P,R31,1*%
%TO.N,Net-(U9-g)*%
X220120000Y-161950000D03*
%TO.P,R31,2*%
%TO.N,Net-(AFF4-g)*%
X227740000Y-161950000D03*
%TD*%
D16*
%TO.P,U22,1,A*%
%TO.N,Net-(ST1-QA)*%
X168600000Y-84250000D03*
D10*
%TO.P,U22,2,B*%
%TO.N,Net-(ST1-QD)*%
X166060000Y-84250000D03*
%TO.P,U22,3,D*%
%TO.N,unconnected-(U22-D-Pad3)*%
X163520000Y-84250000D03*
%TO.P,U22,4,E*%
%TO.N,unconnected-(U22-E-Pad4)*%
X160980000Y-84250000D03*
%TO.P,U22,5,F*%
%TO.N,unconnected-(U22-F-Pad5)*%
X158440000Y-84250000D03*
%TO.P,U22,6,K\u002A~(D.E.F)*%
%TO.N,unconnected-(U22-K\u002A~(D.E.F)-Pad6)*%
X155900000Y-84250000D03*
%TO.P,U22,7,VSS*%
%TO.N,GND*%
X153360000Y-84250000D03*
%TO.P,U22,8,C*%
%TO.N,+5V*%
X153360000Y-91870000D03*
%TO.P,U22,9,J\u002A~(A.B.C)*%
%TO.N,Net-(U11-1A)*%
X155900000Y-91870000D03*
%TO.P,U22,10,L\u002A~(G.H.I)*%
%TO.N,unconnected-(U22-L\u002A~(G.H.I)-Pad10)*%
X158440000Y-91870000D03*
%TO.P,U22,11,I*%
%TO.N,unconnected-(U22-I-Pad11)*%
X160980000Y-91870000D03*
%TO.P,U22,12,H*%
%TO.N,unconnected-(U22-H-Pad12)*%
X163520000Y-91870000D03*
%TO.P,U22,13,G*%
%TO.N,unconnected-(U22-G-Pad13)*%
X166060000Y-91870000D03*
%TO.P,U22,14,VDD*%
%TO.N,+5V*%
X168600000Y-91870000D03*
%TD*%
D19*
%TO.P,U20,1,1A*%
%TO.N,Net-(U20-1A)*%
X92010000Y-163750000D03*
D10*
%TO.P,U20,2,1B*%
%TO.N,Net-(U11-3A)*%
X94550000Y-163750000D03*
%TO.P,U20,3,1Y*%
%TO.N,Net-(SU1-UP)*%
X97090000Y-163750000D03*
%TO.P,U20,4,2A*%
%TO.N,Net-(U20-1A)*%
X99630000Y-163750000D03*
%TO.P,U20,5,2B*%
%TO.N,Net-(U13-1Y)*%
X102170000Y-163750000D03*
%TO.P,U20,6,2Y*%
%TO.N,Net-(SU1-DOWN)*%
X104710000Y-163750000D03*
%TO.P,U20,7,GND*%
%TO.N,GND*%
X107250000Y-163750000D03*
%TO.P,U20,8,3Y*%
%TO.N,Net-(MT1-CLR)*%
X107250000Y-156130000D03*
%TO.P,U20,9,3A*%
%TO.N,Net-(U20-3A)*%
X104710000Y-156130000D03*
%TO.P,U20,10,3B*%
%TO.N,Net-(U19-2Y)*%
X102170000Y-156130000D03*
%TO.P,U20,11,4Y*%
%TO.N,unconnected-(U20-4Y-Pad11)*%
X99630000Y-156130000D03*
%TO.P,U20,12,4A*%
%TO.N,unconnected-(U20-4A-Pad12)*%
X97090000Y-156130000D03*
%TO.P,U20,13,4B*%
%TO.N,unconnected-(U20-4B-Pad13)*%
X94550000Y-156130000D03*
%TO.P,U20,14,VCC*%
%TO.N,+5V*%
X92010000Y-156130000D03*
%TD*%
%TO.P,R41,1*%
%TO.N,Net-(MT1-C)*%
X55190000Y-56421500D03*
%TO.P,R41,2*%
%TO.N,GND*%
X65350000Y-56421500D03*
%TD*%
%TO.P,R12,1*%
%TO.N,Net-(U4-b)*%
X219804600Y-97924800D03*
%TO.P,R12,2*%
%TO.N,Net-(AFF2-b)*%
X227424600Y-97924800D03*
%TD*%
D11*
%TO.P,U10,1,S*%
%TO.N,Net-(U10-S)*%
X95730000Y-122000000D03*
D10*
%TO.P,U10,2,I0a*%
%TO.N,Net-(U10-I0a)*%
X95730000Y-124540000D03*
%TO.P,U10,3,I1a*%
%TO.N,+5V*%
X95730000Y-127080000D03*
%TO.P,U10,4,Za*%
%TO.N,Net-(ST1-A)*%
X95730000Y-129620000D03*
%TO.P,U10,5,I0b*%
%TO.N,Net-(U10-I0b)*%
X95730000Y-132160000D03*
%TO.P,U10,6,I1b*%
%TO.N,GND*%
X95730000Y-134700000D03*
%TO.P,U10,7,Zb*%
%TO.N,Net-(ST1-B)*%
X95730000Y-137240000D03*
%TO.P,U10,8,GND*%
%TO.N,GND*%
X95730000Y-139780000D03*
%TO.P,U10,9,Zc*%
%TO.N,Net-(ST1-C)*%
X103350000Y-139780000D03*
%TO.P,U10,10,I1c*%
%TO.N,+5V*%
X103350000Y-137240000D03*
%TO.P,U10,11,I0c*%
%TO.N,Net-(U10-I0c)*%
X103350000Y-134700000D03*
%TO.P,U10,12,Zd*%
%TO.N,Net-(ST1-D)*%
X103350000Y-132160000D03*
%TO.P,U10,13,I1d*%
%TO.N,GND*%
X103350000Y-129620000D03*
%TO.P,U10,14,I0d*%
%TO.N,Net-(U10-I0d)*%
X103350000Y-127080000D03*
%TO.P,U10,15,E*%
%TO.N,GND*%
X103350000Y-124540000D03*
%TO.P,U10,16,VCC*%
%TO.N,+5V*%
X103350000Y-122000000D03*
%TD*%
D19*
%TO.P,U19,1,1A*%
%TO.N,Net-(MT1-~{LOAD})*%
X153360000Y-181820000D03*
D10*
%TO.P,U19,2,1B*%
%TO.N,Net-(U13-6Y)*%
X155900000Y-181820000D03*
%TO.P,U19,3,1Y*%
%TO.N,Net-(U19-1Y)*%
X158440000Y-181820000D03*
%TO.P,U19,4,2A*%
X160980000Y-181820000D03*
%TO.P,U19,5,2B*%
%TO.N,Net-(U11-3A)*%
X163520000Y-181820000D03*
%TO.P,U19,6,2Y*%
%TO.N,Net-(U19-2Y)*%
X166060000Y-181820000D03*
%TO.P,U19,7,GND*%
%TO.N,GND*%
X168600000Y-181820000D03*
%TO.P,U19,8,3Y*%
%TO.N,unconnected-(U19-3Y-Pad8)*%
X168600000Y-174200000D03*
%TO.P,U19,9,3A*%
%TO.N,unconnected-(U19-3A-Pad9)*%
X166060000Y-174200000D03*
%TO.P,U19,10,3B*%
%TO.N,unconnected-(U19-3B-Pad10)*%
X163520000Y-174200000D03*
%TO.P,U19,11,4Y*%
%TO.N,unconnected-(U19-4Y-Pad11)*%
X160980000Y-174200000D03*
%TO.P,U19,12,4A*%
%TO.N,unconnected-(U19-4A-Pad12)*%
X158440000Y-174200000D03*
%TO.P,U19,13,4B*%
%TO.N,unconnected-(U19-4B-Pad13)*%
X155900000Y-174200000D03*
%TO.P,U19,14,VCC*%
%TO.N,+5V*%
X153360000Y-174200000D03*
%TD*%
%TO.P,R20,1*%
%TO.N,Net-(U7-c)*%
X219906200Y-139677600D03*
%TO.P,R20,2*%
%TO.N,Net-(AFF3-c)*%
X227526200Y-139677600D03*
%TD*%
%TO.P,R11,1*%
%TO.N,Net-(U4-a)*%
X219804600Y-93874800D03*
%TO.P,R11,2*%
%TO.N,Net-(AFF2-a)*%
X227424600Y-93874800D03*
%TD*%
%TO.P,C2,1*%
%TO.N,Net-(U1-CONT)*%
X41800000Y-173650000D03*
%TO.P,C2,2*%
%TO.N,GND*%
X41800000Y-178650000D03*
%TD*%
D11*
%TO.P,U7,1,B*%
%TO.N,Net-(ST1-QB)*%
X189509400Y-122047000D03*
D10*
%TO.P,U7,2,C*%
%TO.N,Net-(ST1-QC)*%
X189509400Y-124587000D03*
%TO.P,U7,3,LT*%
%TO.N,+5V*%
X189509400Y-127127000D03*
%TO.P,U7,4,BI*%
X189509400Y-129667000D03*
%TO.P,U7,5,RBI*%
X189509400Y-132207000D03*
%TO.P,U7,6,D*%
%TO.N,Net-(ST1-QD)*%
X189509400Y-134747000D03*
%TO.P,U7,7,A*%
%TO.N,Net-(ST1-QA)*%
X189509400Y-137287000D03*
%TO.P,U7,8,GND*%
%TO.N,GND*%
X189509400Y-139827000D03*
%TO.P,U7,9,e*%
%TO.N,Net-(U7-e)*%
X197129400Y-139827000D03*
%TO.P,U7,10,d*%
%TO.N,Net-(U7-d)*%
X197129400Y-137287000D03*
%TO.P,U7,11,c*%
%TO.N,Net-(U7-c)*%
X197129400Y-134747000D03*
%TO.P,U7,12,b*%
%TO.N,Net-(U7-b)*%
X197129400Y-132207000D03*
%TO.P,U7,13,a*%
%TO.N,Net-(U7-a)*%
X197129400Y-129667000D03*
%TO.P,U7,14,g*%
%TO.N,Net-(U7-g)*%
X197129400Y-127127000D03*
%TO.P,U7,15,f*%
%TO.N,Net-(U7-f)*%
X197129400Y-124587000D03*
%TO.P,U7,16,VCC*%
%TO.N,+5V*%
X197129400Y-122047000D03*
%TD*%
D11*
%TO.P,U9,1,B*%
%TO.N,Net-(SU1-QB)*%
X189580000Y-164020000D03*
D10*
%TO.P,U9,2,C*%
%TO.N,Net-(SU1-QC)*%
X189580000Y-166560000D03*
%TO.P,U9,3,LT*%
%TO.N,+5V*%
X189580000Y-169100000D03*
%TO.P,U9,4,BI*%
X189580000Y-171640000D03*
%TO.P,U9,5,RBI*%
X189580000Y-174180000D03*
%TO.P,U9,6,D*%
%TO.N,Net-(SU1-QD)*%
X189580000Y-176720000D03*
%TO.P,U9,7,A*%
%TO.N,Net-(SU1-QA)*%
X189580000Y-179260000D03*
%TO.P,U9,8,GND*%
%TO.N,GND*%
X189580000Y-181800000D03*
%TO.P,U9,9,e*%
%TO.N,Net-(U9-e)*%
X197200000Y-181800000D03*
%TO.P,U9,10,d*%
%TO.N,Net-(U9-d)*%
X197200000Y-179260000D03*
%TO.P,U9,11,c*%
%TO.N,Net-(U9-c)*%
X197200000Y-176720000D03*
%TO.P,U9,12,b*%
%TO.N,Net-(U9-b)*%
X197200000Y-174180000D03*
%TO.P,U9,13,a*%
%TO.N,Net-(U9-a)*%
X197200000Y-171640000D03*
%TO.P,U9,14,g*%
%TO.N,Net-(U9-g)*%
X197200000Y-169100000D03*
%TO.P,U9,15,f*%
%TO.N,Net-(U9-f)*%
X197200000Y-166560000D03*
%TO.P,U9,16,VCC*%
%TO.N,+5V*%
X197200000Y-164020000D03*
%TD*%
%TO.P,C1,1*%
%TO.N,Net-(U1-THRES)*%
X50850000Y-175350000D03*
%TO.P,C1,2*%
%TO.N,GND*%
X50850000Y-177350000D03*
%TD*%
%TO.P,R21,1*%
%TO.N,Net-(U7-d)*%
X219906200Y-143727600D03*
%TO.P,R21,2*%
%TO.N,Net-(AFF3-d)*%
X227526200Y-143727600D03*
%TD*%
%TO.P,R17,1*%
%TO.N,Net-(U4-g)*%
X219830000Y-90000000D03*
%TO.P,R17,2*%
%TO.N,Net-(AFF2-g)*%
X227450000Y-90000000D03*
%TD*%
D11*
%TO.P,U4,1,B*%
%TO.N,Net-(MU1-QB)*%
X190373000Y-86410800D03*
D10*
%TO.P,U4,2,C*%
%TO.N,Net-(MU1-QC)*%
X190373000Y-88950800D03*
%TO.P,U4,3,LT*%
%TO.N,+5V*%
X190373000Y-91490800D03*
%TO.P,U4,4,BI*%
X190373000Y-94030800D03*
%TO.P,U4,5,RBI*%
X190373000Y-96570800D03*
%TO.P,U4,6,D*%
%TO.N,Net-(MU1-QD)*%
X190373000Y-99110800D03*
%TO.P,U4,7,A*%
%TO.N,Net-(MU1-QA)*%
X190373000Y-101650800D03*
%TO.P,U4,8,GND*%
%TO.N,GND*%
X190373000Y-104190800D03*
%TO.P,U4,9,e*%
%TO.N,Net-(U4-e)*%
X197993000Y-104190800D03*
%TO.P,U4,10,d*%
%TO.N,Net-(U4-d)*%
X197993000Y-101650800D03*
%TO.P,U4,11,c*%
%TO.N,Net-(U4-c)*%
X197993000Y-99110800D03*
%TO.P,U4,12,b*%
%TO.N,Net-(U4-b)*%
X197993000Y-96570800D03*
%TO.P,U4,13,a*%
%TO.N,Net-(U4-a)*%
X197993000Y-94030800D03*
%TO.P,U4,14,g*%
%TO.N,Net-(U4-g)*%
X197993000Y-91490800D03*
%TO.P,U4,15,f*%
%TO.N,Net-(U4-f)*%
X197993000Y-88950800D03*
%TO.P,U4,16,VCC*%
%TO.N,+5V*%
X197993000Y-86410800D03*
%TD*%
D16*
%TO.P,U24,1,1A*%
%TO.N,Net-(MT1-~{LOAD})*%
X168650000Y-118600000D03*
D10*
%TO.P,U24,2,1B*%
%TO.N,Net-(U11-1A)*%
X166110000Y-118600000D03*
%TO.P,U24,3,1Y*%
%TO.N,Net-(ST1-~{LOAD})*%
X163570000Y-118600000D03*
%TO.P,U24,4,2A*%
%TO.N,Net-(U11-3Y)*%
X161030000Y-118600000D03*
%TO.P,U24,5,2B*%
%TO.N,Net-(U24-2B)*%
X158490000Y-118600000D03*
%TO.P,U24,6,2Y*%
%TO.N,Net-(U11-2A)*%
X155950000Y-118600000D03*
%TO.P,U24,7,GND*%
%TO.N,GND*%
X153410000Y-118600000D03*
%TO.P,U24,8,3Y*%
%TO.N,Net-(U24-2B)*%
X153410000Y-126220000D03*
%TO.P,U24,9,3A*%
%TO.N,Net-(ST1-QB)*%
X155950000Y-126220000D03*
%TO.P,U24,10,3B*%
%TO.N,Net-(ST1-QC)*%
X158490000Y-126220000D03*
%TO.P,U24,11,4Y*%
%TO.N,unconnected-(U24-4Y-Pad11)*%
X161030000Y-126220000D03*
%TO.P,U24,12,4A*%
%TO.N,GND*%
X163570000Y-126220000D03*
%TO.P,U24,13,4B*%
X166110000Y-126220000D03*
%TO.P,U24,14,VCC*%
%TO.N,+5V*%
X168650000Y-126220000D03*
%TD*%
%TO.P,R44,1*%
%TO.N,Net-(MU1-D)*%
X55210000Y-70135900D03*
%TO.P,R44,2*%
%TO.N,GND*%
X65370000Y-70135900D03*
%TD*%
D11*
%TO.P,ST1,1,B*%
%TO.N,Net-(ST1-B)*%
X121330000Y-121950000D03*
D10*
%TO.P,ST1,2,QB*%
%TO.N,Net-(ST1-QB)*%
X121330000Y-124490000D03*
%TO.P,ST1,3,QA*%
%TO.N,Net-(ST1-QA)*%
X121330000Y-127030000D03*
%TO.P,ST1,4,DOWN*%
%TO.N,Net-(ST1-DOWN)*%
X121330000Y-129570000D03*
%TO.P,ST1,5,UP*%
%TO.N,Net-(ST1-UP)*%
X121330000Y-132110000D03*
%TO.P,ST1,6,QC*%
%TO.N,Net-(ST1-QC)*%
X121330000Y-134650000D03*
%TO.P,ST1,7,QD*%
%TO.N,Net-(ST1-QD)*%
X121330000Y-137190000D03*
%TO.P,ST1,8,GND*%
%TO.N,GND*%
X121330000Y-139730000D03*
%TO.P,ST1,9,D*%
%TO.N,Net-(ST1-D)*%
X128950000Y-139730000D03*
%TO.P,ST1,10,C*%
%TO.N,Net-(ST1-C)*%
X128950000Y-137190000D03*
%TO.P,ST1,11,~{LOAD}*%
%TO.N,Net-(ST1-~{LOAD})*%
X128950000Y-134650000D03*
%TO.P,ST1,12,~{CO}*%
%TO.N,unconnected-(ST1-~{CO}-Pad12)*%
X128950000Y-132110000D03*
%TO.P,ST1,13,~{BO}*%
%TO.N,Net-(MU1-DOWN)*%
X128950000Y-129570000D03*
%TO.P,ST1,14,CLR*%
%TO.N,Net-(ST1-CLR)*%
X128950000Y-127030000D03*
%TO.P,ST1,15,A*%
%TO.N,Net-(ST1-A)*%
X128950000Y-124490000D03*
%TO.P,ST1,16,VCC*%
%TO.N,+5V*%
X128950000Y-121950000D03*
%TD*%
D14*
%TO.P,AFF1,1,e*%
%TO.N,Net-(AFF1-e)*%
X248031000Y-75742800D03*
D15*
%TO.P,AFF1,2,d*%
%TO.N,Net-(AFF1-d)*%
X248031000Y-78282800D03*
%TO.P,AFF1,3,C.A.*%
%TO.N,+5V*%
X248031000Y-80822800D03*
%TO.P,AFF1,4,c*%
%TO.N,Net-(AFF1-c)*%
X248031000Y-83362800D03*
%TO.P,AFF1,5,DP*%
%TO.N,+5V*%
X248031000Y-85902800D03*
%TO.P,AFF1,6,b*%
%TO.N,Net-(AFF1-b)*%
X263271000Y-85902800D03*
%TO.P,AFF1,7,a*%
%TO.N,Net-(AFF1-a)*%
X263271000Y-83362800D03*
%TO.P,AFF1,8,C.A.*%
%TO.N,+5V*%
X263271000Y-80822800D03*
%TO.P,AFF1,9,f*%
%TO.N,Net-(AFF1-f)*%
X263271000Y-78282800D03*
%TO.P,AFF1,10,g*%
%TO.N,Net-(AFF1-g)*%
X263271000Y-75742800D03*
%TD*%
D10*
%TO.P,R19,1*%
%TO.N,Net-(U7-b)*%
X219753800Y-135032000D03*
%TO.P,R19,2*%
%TO.N,Net-(AFF3-b)*%
X227373800Y-135032000D03*
%TD*%
%TO.P,R30,1*%
%TO.N,Net-(U9-f)*%
X220120000Y-157950000D03*
%TO.P,R30,2*%
%TO.N,Net-(AFF4-f)*%
X227740000Y-157950000D03*
%TD*%
D19*
%TO.P,U13,1,1A*%
%TO.N,Net-(U11-3A)*%
X91910000Y-181700000D03*
D10*
%TO.P,U13,2,1Y*%
%TO.N,Net-(U13-1Y)*%
X94450000Y-181700000D03*
%TO.P,U13,3,2A*%
%TO.N,unconnected-(U13-2A-Pad3)*%
X96990000Y-181700000D03*
%TO.P,U13,4,2Y*%
%TO.N,unconnected-(U13-2Y-Pad4)*%
X99530000Y-181700000D03*
%TO.P,U13,5,3A*%
%TO.N,unconnected-(U13-3A-Pad5)*%
X102070000Y-181700000D03*
%TO.P,U13,6,3Y*%
%TO.N,unconnected-(U13-3Y-Pad6)*%
X104610000Y-181700000D03*
%TO.P,U13,7,GND*%
%TO.N,GND*%
X107150000Y-181700000D03*
%TO.P,U13,8,4Y*%
%TO.N,unconnected-(U13-4Y-Pad8)*%
X107150000Y-174080000D03*
%TO.P,U13,9,4A*%
%TO.N,unconnected-(U13-4A-Pad9)*%
X104610000Y-174080000D03*
%TO.P,U13,10,5Y*%
%TO.N,unconnected-(U13-5Y-Pad10)*%
X102070000Y-174080000D03*
%TO.P,U13,11,5A*%
%TO.N,unconnected-(U13-5A-Pad11)*%
X99530000Y-174080000D03*
%TO.P,U13,12,6Y*%
%TO.N,Net-(U13-6Y)*%
X96990000Y-174080000D03*
%TO.P,U13,13,6A*%
%TO.N,Net-(J3-Pin_5)*%
X94450000Y-174080000D03*
%TO.P,U13,14,VCC*%
%TO.N,+5V*%
X91910000Y-174080000D03*
%TD*%
D19*
%TO.P,U1,1,GND*%
%TO.N,GND*%
X25800000Y-181720000D03*
D10*
%TO.P,U1,2,TRIG*%
%TO.N,Net-(U1-THRES)*%
X28340000Y-181720000D03*
%TO.P,U1,3,OUT*%
%TO.N,Net-(U1-OUT)*%
X30880000Y-181720000D03*
%TO.P,U1,4,~{RST}*%
%TO.N,+5V*%
X33420000Y-181720000D03*
%TO.P,U1,5,CONT*%
%TO.N,Net-(U1-CONT)*%
X33420000Y-174100000D03*
%TO.P,U1,6,THRES*%
%TO.N,Net-(U1-THRES)*%
X30880000Y-174100000D03*
%TO.P,U1,7,DISCH*%
%TO.N,Net-(U1-DISCH)*%
X28340000Y-174100000D03*
%TO.P,U1,8,VCC*%
%TO.N,+5V*%
X25800000Y-174100000D03*
%TD*%
D16*
%TO.P,U21,1,A*%
%TO.N,Net-(MT1-QA)*%
X107350000Y-51650000D03*
D10*
%TO.P,U21,2,B*%
%TO.N,Net-(MT1-QB)*%
X104810000Y-51650000D03*
%TO.P,U21,3,D*%
%TO.N,Net-(MT1-QD)*%
X102270000Y-51650000D03*
%TO.P,U21,4,E*%
%TO.N,Net-(MU1-QA)*%
X99730000Y-51650000D03*
%TO.P,U21,5,F*%
%TO.N,Net-(MU1-QB)*%
X97190000Y-51650000D03*
%TO.P,U21,6,K\u002AD+E+F*%
%TO.N,Net-(U18-1B)*%
X94650000Y-51650000D03*
%TO.P,U21,7,VSS*%
%TO.N,GND*%
X92110000Y-51650000D03*
%TO.P,U21,8,C*%
%TO.N,Net-(MT1-QC)*%
X92110000Y-59270000D03*
%TO.P,U21,9,J\u002AA+B+C*%
%TO.N,Net-(U18-1A)*%
X94650000Y-59270000D03*
%TO.P,U21,10,L\u002AG+H+I*%
%TO.N,Net-(U18-2A)*%
X97190000Y-59270000D03*
%TO.P,U21,11,I*%
%TO.N,Net-(ST1-QA)*%
X99730000Y-59270000D03*
%TO.P,U21,12,H*%
%TO.N,Net-(MU1-QD)*%
X102270000Y-59270000D03*
%TO.P,U21,13,G*%
%TO.N,Net-(MU1-QC)*%
X104810000Y-59270000D03*
%TO.P,U21,14,VDD*%
%TO.N,+5V*%
X107350000Y-59270000D03*
%TD*%
D16*
%TO.P,U18,1,1A*%
%TO.N,Net-(U18-1A)*%
X107300000Y-76580000D03*
D10*
%TO.P,U18,2,1B*%
%TO.N,Net-(U18-1B)*%
X104760000Y-76580000D03*
%TO.P,U18,3,1Y*%
%TO.N,Net-(U18-1Y)*%
X102220000Y-76580000D03*
%TO.P,U18,4,2A*%
%TO.N,Net-(U18-2A)*%
X99680000Y-76580000D03*
%TO.P,U18,5,2B*%
%TO.N,Net-(U12-L\u002AG+H+I)*%
X97140000Y-76580000D03*
%TO.P,U18,6,2Y*%
%TO.N,Net-(U18-2Y)*%
X94600000Y-76580000D03*
%TO.P,U18,7,GND*%
%TO.N,GND*%
X92060000Y-76580000D03*
%TO.P,U18,8,3Y*%
%TO.N,Net-(J3-Pin_5)*%
X92060000Y-84200000D03*
%TO.P,U18,9,3A*%
%TO.N,Net-(U18-1Y)*%
X94600000Y-84200000D03*
%TO.P,U18,10,3B*%
%TO.N,Net-(U18-2Y)*%
X97140000Y-84200000D03*
%TO.P,U18,11,4Y*%
%TO.N,unconnected-(U18-4Y-Pad11)*%
X99680000Y-84200000D03*
%TO.P,U18,12,4A*%
%TO.N,unconnected-(U18-4A-Pad12)*%
X102220000Y-84200000D03*
%TO.P,U18,13,4B*%
%TO.N,unconnected-(U18-4B-Pad13)*%
X104760000Y-84200000D03*
%TO.P,U18,14,VCC*%
%TO.N,+5V*%
X107300000Y-84200000D03*
%TD*%
D11*
%TO.P,SW2,1*%
%TO.N,+5V*%
X26080000Y-120650000D03*
D10*
%TO.P,SW2,2*%
%TO.N,unconnected-(SW2-Pad2)*%
X26080000Y-123190000D03*
%TO.P,SW2,3*%
%TO.N,unconnected-(SW2-Pad3)*%
X26080000Y-125730000D03*
%TO.P,SW2,4*%
%TO.N,unconnected-(SW2-Pad4)*%
X26080000Y-128270000D03*
%TO.P,SW2,5*%
%TO.N,unconnected-(SW2-Pad5)*%
X33700000Y-128270000D03*
%TO.P,SW2,6*%
%TO.N,unconnected-(SW2-Pad6)*%
X33700000Y-125730000D03*
%TO.P,SW2,7*%
%TO.N,unconnected-(SW2-Pad7)*%
X33700000Y-123190000D03*
%TO.P,SW2,8*%
%TO.N,Net-(U11-3A)*%
X33700000Y-120650000D03*
%TD*%
%TO.P,R43,1*%
%TO.N,Net-(MT1-A)*%
X55210000Y-65564400D03*
%TO.P,R43,2*%
%TO.N,GND*%
X65370000Y-65564400D03*
%TD*%
%TO.P,R50,1*%
%TO.N,+5V*%
X141550000Y-181850000D03*
%TO.P,R50,2*%
%TO.N,Net-(MT1-~{LOAD})*%
X141550000Y-174230000D03*
%TD*%
D14*
%TO.P,AFF2,1,e*%
%TO.N,Net-(AFF2-e)*%
X247802400Y-97409000D03*
D15*
%TO.P,AFF2,2,d*%
%TO.N,Net-(AFF2-d)*%
X247802400Y-99949000D03*
%TO.P,AFF2,3,C.A.*%
%TO.N,+5V*%
X247802400Y-102489000D03*
%TO.P,AFF2,4,c*%
%TO.N,Net-(AFF2-c)*%
X247802400Y-105029000D03*
%TO.P,AFF2,5,DP*%
%TO.N,+5V*%
X247802400Y-107569000D03*
%TO.P,AFF2,6,b*%
%TO.N,Net-(AFF2-b)*%
X263042400Y-107569000D03*
%TO.P,AFF2,7,a*%
%TO.N,Net-(AFF2-a)*%
X263042400Y-105029000D03*
%TO.P,AFF2,8,C.A.*%
%TO.N,+5V*%
X263042400Y-102489000D03*
%TO.P,AFF2,9,f*%
%TO.N,Net-(AFF2-f)*%
X263042400Y-99949000D03*
%TO.P,AFF2,10,g*%
%TO.N,Net-(AFF2-g)*%
X263042400Y-97409000D03*
%TD*%
D10*
%TO.P,R45,1*%
%TO.N,Net-(MU1-C)*%
X55190000Y-74707300D03*
%TO.P,R45,2*%
%TO.N,GND*%
X65350000Y-74707300D03*
%TD*%
%TO.P,R27,1*%
%TO.N,Net-(U9-c)*%
X220080000Y-173950000D03*
%TO.P,R27,2*%
%TO.N,Net-(AFF4-c)*%
X227700000Y-173950000D03*
%TD*%
D16*
%TO.P,U12,1,A*%
%TO.N,Net-(ST1-QB)*%
X168450000Y-52000000D03*
D10*
%TO.P,U12,2,B*%
%TO.N,Net-(ST1-QC)*%
X165910000Y-52000000D03*
%TO.P,U12,3,D*%
%TO.N,Net-(SU1-QA)*%
X163370000Y-52000000D03*
%TO.P,U12,4,E*%
%TO.N,Net-(SU1-QB)*%
X160830000Y-52000000D03*
%TO.P,U12,5,F*%
%TO.N,Net-(SU1-QC)*%
X158290000Y-52000000D03*
%TO.P,U12,6,K\u002AD+E+F*%
%TO.N,Net-(U12-I)*%
X155750000Y-52000000D03*
%TO.P,U12,7,VSS*%
%TO.N,GND*%
X153210000Y-52000000D03*
%TO.P,U12,8,C*%
%TO.N,Net-(ST1-QD)*%
X153210000Y-59620000D03*
%TO.P,U12,9,J\u002AA+B+C*%
%TO.N,Net-(U12-H)*%
X155750000Y-59620000D03*
%TO.P,U12,10,L\u002AG+H+I*%
%TO.N,Net-(U12-L\u002AG+H+I)*%
X158290000Y-59620000D03*
%TO.P,U12,11,I*%
%TO.N,Net-(U12-I)*%
X160830000Y-59620000D03*
%TO.P,U12,12,H*%
%TO.N,Net-(U12-H)*%
X163370000Y-59620000D03*
%TO.P,U12,13,G*%
%TO.N,Net-(SU1-QD)*%
X165910000Y-59620000D03*
%TO.P,U12,14,VDD*%
%TO.N,+5V*%
X168450000Y-59620000D03*
%TD*%
%TO.P,R42,1*%
%TO.N,Net-(MT1-B)*%
X55210000Y-60992900D03*
%TO.P,R42,2*%
%TO.N,GND*%
X65370000Y-60992900D03*
%TD*%
D17*
%TO.P,S5,1*%
%TO.N,Net-(U20-1A)*%
X45800000Y-163850000D03*
%TO.P,S5,2*%
%TO.N,+5V*%
X50800000Y-163850000D03*
%TD*%
D10*
%TO.P,R1,1*%
%TO.N,Net-(U1-DISCH)*%
X73900000Y-166400000D03*
%TO.P,R1,2*%
%TO.N,+5V*%
X66280000Y-166400000D03*
%TD*%
%TO.P,R15,1*%
%TO.N,Net-(U4-e)*%
X219804600Y-110074800D03*
%TO.P,R15,2*%
%TO.N,Net-(AFF2-e)*%
X227424600Y-110074800D03*
%TD*%
%TO.P,R22,1*%
%TO.N,Net-(U7-e)*%
X219906200Y-147777600D03*
%TO.P,R22,2*%
%TO.N,Net-(AFF3-e)*%
X227526200Y-147777600D03*
%TD*%
%TO.P,R28,1*%
%TO.N,Net-(U9-d)*%
X220080000Y-177950000D03*
%TO.P,R28,2*%
%TO.N,Net-(AFF4-d)*%
X227700000Y-177950000D03*
%TD*%
%TO.P,R1_Timer1,1*%
%TO.N,Net-(U1-DISCH)*%
X27125600Y-166487400D03*
%TO.P,R1_Timer1,2*%
%TO.N,Net-(R1_Timer1-Pad2)*%
X27125600Y-158867400D03*
%TD*%
D17*
%TO.P,S4,1*%
%TO.N,+5V*%
X45900000Y-134600000D03*
%TO.P,S4,2*%
%TO.N,Net-(U20-3A)*%
X50900000Y-134600000D03*
%TD*%
D20*
%TO.N,Net-(AFF2-d)*%
X235165700Y-98228600D03*
%TO.N,Net-(AFF1-f)*%
X254710000Y-54134200D03*
%TO.N,Net-(SU1-QB)*%
X187769000Y-169147000D03*
%TO.N,Net-(SU1-QD)*%
X186394300Y-167113600D03*
%TO.N,Net-(SU1-DOWN)*%
X123624500Y-168721500D03*
%TO.N,Net-(ST1-CLR)*%
X124328000Y-97443200D03*
%TO.N,Net-(ST1-D)*%
X126293000Y-132099600D03*
%TO.N,Net-(ST1-QA)*%
X183540500Y-138421500D03*
X103489900Y-82399400D03*
X111313800Y-80368000D03*
%TO.N,Net-(ST1-B)*%
X107658700Y-126988200D03*
%TO.N,Net-(ST1-QD)*%
X174401800Y-135920100D03*
%TO.N,Net-(ST1-~{LOAD})*%
X160830600Y-132373100D03*
%TO.N,Net-(SU1-D)*%
X121770000Y-113574700D03*
%TO.N,Net-(SU1-C)*%
X119705100Y-117168300D03*
%TO.N,Net-(SU1-B)*%
X119252700Y-135341300D03*
%TO.N,Net-(SU1-A)*%
X72818000Y-169269200D03*
%TO.N,Net-(MU1-C)*%
X124269800Y-75505800D03*
%TO.N,Net-(MU1-UP)*%
X113273300Y-101552100D03*
X116343800Y-153278200D03*
X161812000Y-153278200D03*
%TO.N,Net-(MU1-D)*%
X59837900Y-97038900D03*
%TO.N,Net-(MU1-QC)*%
X123291500Y-90786500D03*
%TO.N,Net-(MT1-QC)*%
X182163000Y-64499900D03*
%TO.N,Net-(MT1-C)*%
X57301200Y-71776400D03*
%TO.N,Net-(MT1-~{LOAD})*%
X136726000Y-102810000D03*
%TO.N,Net-(MT1-CLR)*%
X126584200Y-85479400D03*
X100950100Y-85457800D03*
%TO.N,Net-(MT1-D)*%
X62549000Y-69005800D03*
%TO.N,Net-(U19-2Y)*%
X163476400Y-159242000D03*
%TO.N,Net-(U10-I0b)*%
X74239300Y-132205600D03*
%TO.N,GND*%
X163570000Y-121071800D03*
X68287000Y-104231600D03*
%TO.N,Net-(U12-L\u002AG+H+I)*%
X156390000Y-69005800D03*
%TO.N,Net-(U20-3A)*%
X74862300Y-143244600D03*
%TO.N,Net-(U10-S)*%
X165525000Y-122063200D03*
%TO.N,Net-(U18-1A)*%
X96957300Y-74977000D03*
%TO.N,Net-(U11-3A)*%
X61197600Y-127000000D03*
%TO.N,Net-(U11-2A)*%
X114742000Y-116216600D03*
X159170300Y-145550800D03*
%TO.N,Net-(U10-I0a)*%
X68493400Y-123535000D03*
%TO.N,Net-(U10-I0c)*%
X77772300Y-134049500D03*
%TO.N,Net-(U10-I0d)*%
X97398000Y-93521600D03*
%TO.N,Net-(U1-OUT)*%
X60526500Y-183207500D03*
%TO.N,+5V*%
X167184200Y-171640000D03*
X131345100Y-89516600D03*
%TD*%
D21*
%TO.N,GND*%
X41850000Y-178600000D02*
X41800000Y-178650000D01*
X49600000Y-178600000D02*
X41850000Y-178600000D01*
X50850000Y-177350000D02*
X49600000Y-178600000D01*
D22*
%TO.N,Net-(U11-3A)*%
X40050000Y-127000000D02*
X33700000Y-120650000D01*
X61197600Y-127000000D02*
X40050000Y-127000000D01*
%TO.N,Net-(J3-Pin_5)*%
X72878800Y-181518800D02*
X71535000Y-180175000D01*
X78162200Y-181518800D02*
X72878800Y-181518800D01*
X78163700Y-181520300D02*
X78162200Y-181518800D01*
X80766600Y-181520300D02*
X78163700Y-181520300D01*
X89472300Y-172814600D02*
X80766600Y-181520300D01*
X93184600Y-172814600D02*
X89472300Y-172814600D01*
X94450000Y-174080000D02*
X93184600Y-172814600D01*
%TO.N,Net-(AFF4-f)*%
X257571100Y-140616000D02*
X261328700Y-144373600D01*
X245074000Y-140616000D02*
X257571100Y-140616000D01*
X227740000Y-157950000D02*
X245074000Y-140616000D01*
X263042400Y-144373600D02*
X261328700Y-144373600D01*
%TO.N,Net-(AFF4-a)*%
X263042400Y-149453600D02*
X261328700Y-149453600D01*
X244832300Y-165950000D02*
X227740000Y-165950000D01*
X261328700Y-149453600D02*
X244832300Y-165950000D01*
%TO.N,Net-(AFF4-g)*%
X244046400Y-145643600D02*
X227740000Y-161950000D01*
X264006600Y-145643600D02*
X244046400Y-145643600D01*
X264756100Y-144894100D02*
X264006600Y-145643600D01*
X264756100Y-141833600D02*
X264756100Y-144894100D01*
X263042400Y-141833600D02*
X264756100Y-141833600D01*
%TO.N,Net-(AFF4-b)*%
X243372300Y-169950000D02*
X261328700Y-151993600D01*
X227740000Y-169950000D02*
X243372300Y-169950000D01*
X263042400Y-151993600D02*
X261328700Y-151993600D01*
%TO.N,Net-(AFF3-g)*%
X229621300Y-123928700D02*
X227450000Y-126100000D01*
X257645800Y-123928700D02*
X229621300Y-123928700D01*
X261455700Y-120118800D02*
X257645800Y-123928700D01*
X263169400Y-120118800D02*
X261455700Y-120118800D01*
%TO.N,Net-(AFF3-c)*%
X232894700Y-127738800D02*
X247929400Y-127738800D01*
X226105700Y-134527800D02*
X232894700Y-127738800D01*
X226105700Y-138257100D02*
X226105700Y-134527800D01*
X227526200Y-139677600D02*
X226105700Y-138257100D01*
%TO.N,Net-(AFF3-a)*%
X231887000Y-126468800D02*
X227373800Y-130982000D01*
X260185700Y-126468800D02*
X231887000Y-126468800D01*
X261455700Y-127738800D02*
X260185700Y-126468800D01*
X263169400Y-127738800D02*
X261455700Y-127738800D01*
%TO.N,Net-(AFF3-f)*%
X230623100Y-118876900D02*
X227450000Y-122050000D01*
X264167800Y-118876900D02*
X230623100Y-118876900D01*
X264883100Y-119592200D02*
X264167800Y-118876900D01*
X264883100Y-122658800D02*
X264883100Y-119592200D01*
X263169400Y-122658800D02*
X264883100Y-122658800D01*
%TO.N,Net-(AFF3-b)*%
X256702500Y-135032000D02*
X227373800Y-135032000D01*
X261455700Y-130278800D02*
X256702500Y-135032000D01*
X263169400Y-130278800D02*
X261455700Y-130278800D01*
%TO.N,Net-(AFF2-b)*%
X233258800Y-103759000D02*
X227424600Y-97924800D01*
X257518700Y-103759000D02*
X233258800Y-103759000D01*
X261328700Y-107569000D02*
X257518700Y-103759000D01*
X263042400Y-107569000D02*
X261328700Y-107569000D01*
%TO.N,Net-(AFF2-g)*%
X263042400Y-97409000D02*
X261328700Y-97409000D01*
X253919700Y-90000000D02*
X227450000Y-90000000D01*
X261328700Y-97409000D02*
X253919700Y-90000000D01*
%TO.N,Net-(AFF2-f)*%
X263042400Y-99949000D02*
X261328700Y-99949000D01*
X226160000Y-87240000D02*
X227450000Y-85950000D01*
X226160000Y-90530100D02*
X226160000Y-87240000D01*
X231577500Y-95947600D02*
X226160000Y-90530100D01*
X257327300Y-95947600D02*
X231577500Y-95947600D01*
X261328700Y-99949000D02*
X257327300Y-95947600D01*
%TO.N,Net-(AFF2-a)*%
X234768800Y-101219000D02*
X227424600Y-93874800D01*
X264049200Y-101219000D02*
X234768800Y-101219000D01*
X264756100Y-101925900D02*
X264049200Y-101219000D01*
X264756100Y-105029000D02*
X264756100Y-101925900D01*
X263042400Y-105029000D02*
X264756100Y-105029000D01*
%TO.N,Net-(AFF2-d)*%
X236886100Y-99949000D02*
X247802400Y-99949000D01*
X235165700Y-98228600D02*
X236886100Y-99949000D01*
%TO.N,Net-(AFF2-c)*%
X230478800Y-105029000D02*
X247802400Y-105029000D01*
X227424600Y-101974800D02*
X230478800Y-105029000D01*
%TO.N,Net-(AFF1-g)*%
X241964500Y-56150000D02*
X227700000Y-56150000D01*
X261557300Y-75742800D02*
X241964500Y-56150000D01*
X263271000Y-75742800D02*
X261557300Y-75742800D01*
%TO.N,Net-(AFF1-b)*%
X263271000Y-85902800D02*
X261557300Y-85902800D01*
X240908100Y-64989200D02*
X227446000Y-64989200D01*
X261557300Y-85638400D02*
X240908100Y-64989200D01*
X261557300Y-85902800D02*
X261557300Y-85638400D01*
%TO.N,Net-(AFF1-d)*%
X249744700Y-74726600D02*
X249744700Y-78282800D01*
X248107300Y-73089200D02*
X249744700Y-74726600D01*
X227446000Y-73089200D02*
X248107300Y-73089200D01*
X248031000Y-78282800D02*
X249744700Y-78282800D01*
%TO.N,Net-(AFF1-e)*%
X244920900Y-77139200D02*
X246317300Y-75742800D01*
X227446000Y-77139200D02*
X244920900Y-77139200D01*
X248031000Y-75742800D02*
X246317300Y-75742800D01*
%TO.N,Net-(AFF1-f)*%
X229734200Y-54134200D02*
X227700000Y-52100000D01*
X254710000Y-54134200D02*
X229734200Y-54134200D01*
%TO.N,Net-(AFF1-a)*%
X263271000Y-83362800D02*
X261557300Y-83362800D01*
X239133700Y-60939200D02*
X261557300Y-83362800D01*
X227446000Y-60939200D02*
X239133700Y-60939200D01*
%TO.N,Net-(U13-6Y)*%
X154539400Y-180459400D02*
X155900000Y-181820000D01*
X126248000Y-180459400D02*
X154539400Y-180459400D01*
X123690300Y-177901700D02*
X126248000Y-180459400D01*
X120555600Y-177901700D02*
X123690300Y-177901700D01*
X117985600Y-175331700D02*
X120555600Y-177901700D01*
X98241700Y-175331700D02*
X117985600Y-175331700D01*
X96990000Y-174080000D02*
X98241700Y-175331700D01*
%TO.N,Net-(U1-CONT)*%
X41350000Y-174100000D02*
X41800000Y-173650000D01*
X33420000Y-174100000D02*
X41350000Y-174100000D01*
%TO.N,Net-(SU1-QA)*%
X131610000Y-179260000D02*
X129000000Y-176650000D01*
X189580000Y-179260000D02*
X131610000Y-179260000D01*
%TO.N,Net-(SU1-UP)*%
X127730000Y-172840000D02*
X129000000Y-171570000D01*
X107680200Y-172840000D02*
X127730000Y-172840000D01*
X107660400Y-172820200D02*
X107680200Y-172840000D01*
X106160200Y-172820200D02*
X107660400Y-172820200D01*
X97090000Y-163750000D02*
X106160200Y-172820200D01*
%TO.N,Net-(SU1-QB)*%
X186988900Y-169927100D02*
X187769000Y-169147000D01*
X154075300Y-169927100D02*
X186988900Y-169927100D01*
X148520700Y-175481700D02*
X154075300Y-169927100D01*
X141031600Y-175481700D02*
X148520700Y-175481700D01*
X140948200Y-175398300D02*
X141031600Y-175481700D01*
X128391700Y-175398300D02*
X140948200Y-175398300D01*
X127703000Y-176087000D02*
X128391700Y-175398300D01*
X127703000Y-177893000D02*
X127703000Y-176087000D01*
X129000000Y-179190000D02*
X127703000Y-177893000D01*
%TO.N,Net-(SU1-QD)*%
X185770700Y-166490000D02*
X129000000Y-166490000D01*
X186394300Y-167113600D02*
X185770700Y-166490000D01*
%TO.N,Net-(SU1-QC)*%
X186540100Y-169030000D02*
X129000000Y-169030000D01*
X189010100Y-166560000D02*
X186540100Y-169030000D01*
X189580000Y-166560000D02*
X189010100Y-166560000D01*
%TO.N,Net-(SU1-DOWN)*%
X108720000Y-167760000D02*
X104710000Y-163750000D01*
X122663000Y-167760000D02*
X108720000Y-167760000D01*
X123624500Y-168721500D02*
X122663000Y-167760000D01*
X123624500Y-168721500D02*
X123751700Y-168721500D01*
X123751700Y-168721500D02*
X123624500Y-168721500D01*
%TO.N,Net-(ST1-QC)*%
X160123000Y-124587000D02*
X158490000Y-126220000D01*
X189509400Y-124587000D02*
X160123000Y-124587000D01*
X122601600Y-133378400D02*
X121330000Y-134650000D01*
X151331600Y-133378400D02*
X122601600Y-133378400D01*
X158490000Y-126220000D02*
X151331600Y-133378400D01*
%TO.N,Net-(ST1-CLR)*%
X122074800Y-95190000D02*
X124328000Y-97443200D01*
X103460000Y-95190000D02*
X122074800Y-95190000D01*
X102120000Y-96530000D02*
X103460000Y-95190000D01*
%TO.N,Net-(ST1-QB)*%
X188336300Y-123220100D02*
X189509400Y-122047000D01*
X155950000Y-123220100D02*
X188336300Y-123220100D01*
X155950000Y-126220000D02*
X155950000Y-123220100D01*
X122599900Y-123220100D02*
X155950000Y-123220100D01*
X121330000Y-124490000D02*
X122599900Y-123220100D01*
%TO.N,Net-(ST1-D)*%
X125051700Y-130858300D02*
X126293000Y-132099600D01*
X104651700Y-130858300D02*
X125051700Y-130858300D01*
X103350000Y-132160000D02*
X104651700Y-130858300D01*
%TO.N,Net-(ST1-QA)*%
X184675000Y-137287000D02*
X183540500Y-138421500D01*
X189509400Y-137287000D02*
X184675000Y-137287000D01*
X149739300Y-82399400D02*
X103489900Y-82399400D01*
X152850000Y-85510100D02*
X149739300Y-82399400D01*
X167339900Y-85510100D02*
X152850000Y-85510100D01*
X168600000Y-84250000D02*
X167339900Y-85510100D01*
X105521300Y-80368000D02*
X103489900Y-82399400D01*
X111313800Y-80368000D02*
X105521300Y-80368000D01*
%TO.N,Net-(ST1-A)*%
X127680000Y-125760000D02*
X128950000Y-124490000D01*
X111016900Y-125760000D02*
X127680000Y-125760000D01*
X108426900Y-128350000D02*
X111016900Y-125760000D01*
X97000000Y-128350000D02*
X108426900Y-128350000D01*
X95730000Y-129620000D02*
X97000000Y-128350000D01*
%TO.N,Net-(ST1-B)*%
X112696900Y-121950000D02*
X107658700Y-126988200D01*
X121330000Y-121950000D02*
X112696900Y-121950000D01*
%TO.N,Net-(ST1-QD)*%
X122599900Y-135920100D02*
X174401800Y-135920100D01*
X121330000Y-137190000D02*
X122599900Y-135920100D01*
X188336300Y-135920100D02*
X174401800Y-135920100D01*
X189509400Y-134747000D02*
X188336300Y-135920100D01*
%TO.N,Net-(ST1-C)*%
X127680000Y-138460000D02*
X128950000Y-137190000D01*
X104670000Y-138460000D02*
X127680000Y-138460000D01*
X103350000Y-139780000D02*
X104670000Y-138460000D01*
%TO.N,Net-(ST1-~{LOAD})*%
X158553700Y-134650000D02*
X160830600Y-132373100D01*
X128950000Y-134650000D02*
X158553700Y-134650000D01*
%TO.N,Net-(SU1-D)*%
X47391300Y-101760000D02*
X55508800Y-109877500D01*
X33620000Y-101760000D02*
X47391300Y-101760000D01*
X116776300Y-108581000D02*
X121770000Y-113574700D01*
X56805300Y-108581000D02*
X116776300Y-108581000D01*
X55508800Y-109877500D02*
X56805300Y-108581000D01*
%TO.N,Net-(SU1-C)*%
X45371700Y-104300000D02*
X55508800Y-114437100D01*
X33620000Y-104300000D02*
X45371700Y-104300000D01*
X58240000Y-117168300D02*
X119705100Y-117168300D01*
X55508800Y-114437100D02*
X58240000Y-117168300D01*
%TO.N,Net-(SU1-B)*%
X43352100Y-106840000D02*
X55508800Y-118996700D01*
X33620000Y-106840000D02*
X43352100Y-106840000D01*
X117341400Y-133430000D02*
X119252700Y-135341300D01*
X101801100Y-133430000D02*
X117341400Y-133430000D01*
X99242800Y-130871700D02*
X101801100Y-133430000D01*
X68203400Y-130871700D02*
X99242800Y-130871700D01*
X56328400Y-118996700D02*
X68203400Y-130871700D01*
X55508800Y-118996700D02*
X56328400Y-118996700D01*
%TO.N,Net-(SU1-A)*%
X120529100Y-179190000D02*
X121380000Y-179190000D01*
X117272500Y-175933400D02*
X120529100Y-179190000D01*
X97011800Y-175933400D02*
X117272500Y-175933400D01*
X95720000Y-174641600D02*
X97011800Y-175933400D01*
X95720000Y-173565700D02*
X95720000Y-174641600D01*
X91423500Y-169269200D02*
X95720000Y-173565700D01*
X72818000Y-169269200D02*
X91423500Y-169269200D01*
X47796200Y-123556200D02*
X33620000Y-109380000D01*
X55610000Y-123556200D02*
X47796200Y-123556200D01*
%TO.N,Net-(MU1-C)*%
X43807300Y-74707300D02*
X33550000Y-64450000D01*
X55190000Y-74707300D02*
X43807300Y-74707300D01*
X58381000Y-77898300D02*
X55190000Y-74707300D01*
X92798900Y-77898300D02*
X58381000Y-77898300D01*
X93400600Y-78500000D02*
X92798900Y-77898300D01*
X121275600Y-78500000D02*
X93400600Y-78500000D01*
X124269800Y-75505800D02*
X121275600Y-78500000D01*
%TO.N,Net-(MU1-QD)*%
X136415100Y-99110800D02*
X190373000Y-99110800D01*
X135052600Y-97748300D02*
X136415100Y-99110800D01*
X125368800Y-97748300D02*
X135052600Y-97748300D01*
X125368800Y-97748400D02*
X125368800Y-97748300D01*
X121577200Y-101540000D02*
X125368800Y-97748400D01*
X121280000Y-101540000D02*
X121577200Y-101540000D01*
%TO.N,Net-(MU1-UP)*%
X118365400Y-96460000D02*
X113273300Y-101552100D01*
X121280000Y-96460000D02*
X118365400Y-96460000D01*
X116343800Y-153278200D02*
X161812000Y-153278200D01*
%TO.N,Net-(MU1-D)*%
X41775900Y-70135900D02*
X33550000Y-61910000D01*
X55210000Y-70135900D02*
X41775900Y-70135900D01*
X65697300Y-102898300D02*
X59837900Y-97038900D01*
X110220300Y-102898300D02*
X65697300Y-102898300D01*
X112722200Y-105400200D02*
X110220300Y-102898300D01*
X127579800Y-105400200D02*
X112722200Y-105400200D01*
X128900000Y-104080000D02*
X127579800Y-105400200D01*
%TO.N,Net-(MU1-QB)*%
X122551500Y-87568500D02*
X121280000Y-88840000D01*
X189215300Y-87568500D02*
X122551500Y-87568500D01*
X190373000Y-86410800D02*
X189215300Y-87568500D01*
%TO.N,Net-(MU1-QC)*%
X189980200Y-88558000D02*
X190373000Y-88950800D01*
X130954700Y-88558000D02*
X189980200Y-88558000D01*
X129384400Y-90128300D02*
X130954700Y-88558000D01*
X123949700Y-90128300D02*
X129384400Y-90128300D01*
X123291500Y-90786500D02*
X123949700Y-90128300D01*
%TO.N,Net-(MU1-QA)*%
X191662800Y-100361000D02*
X190373000Y-101650800D01*
X191662800Y-98591900D02*
X191662800Y-100361000D01*
X190911700Y-97840800D02*
X191662800Y-98591900D01*
X157411200Y-97840800D02*
X190911700Y-97840800D01*
X152220400Y-92650000D02*
X157411200Y-97840800D01*
X122550000Y-92650000D02*
X152220400Y-92650000D01*
X121280000Y-91380000D02*
X122550000Y-92650000D01*
%TO.N,Net-(MU1-B)*%
X45838800Y-79278800D02*
X55190000Y-79278800D01*
X33550000Y-66990000D02*
X45838800Y-79278800D01*
X121170500Y-86409500D02*
X121280000Y-86300000D01*
X62320700Y-86409500D02*
X121170500Y-86409500D01*
X55190000Y-79278800D02*
X62320700Y-86409500D01*
%TO.N,Net-(MU1-A)*%
X47870300Y-83850300D02*
X55540000Y-83850300D01*
X33550000Y-69530000D02*
X47870300Y-83850300D01*
X61799600Y-90109900D02*
X55540000Y-83850300D01*
X122620600Y-90109900D02*
X61799600Y-90109900D01*
X123890500Y-88840000D02*
X122620600Y-90109900D01*
X128900000Y-88840000D02*
X123890500Y-88840000D01*
%TO.N,Net-(MT1-A)*%
X39744400Y-65564400D02*
X55210000Y-65564400D01*
X33550000Y-59370000D02*
X39744400Y-65564400D01*
X127480000Y-55810000D02*
X128750000Y-54540000D01*
X74207300Y-55810000D02*
X127480000Y-55810000D01*
X66738700Y-63278600D02*
X74207300Y-55810000D01*
X57495800Y-63278600D02*
X66738700Y-63278600D01*
X55210000Y-65564400D02*
X57495800Y-63278600D01*
%TO.N,Net-(MT1-QC)*%
X97540000Y-64700000D02*
X92110000Y-59270000D01*
X121130000Y-64700000D02*
X97540000Y-64700000D01*
X122400000Y-63430000D02*
X121130000Y-64700000D01*
X131785200Y-63430000D02*
X122400000Y-63430000D01*
X132855100Y-64499900D02*
X131785200Y-63430000D01*
X182163000Y-64499900D02*
X132855100Y-64499900D01*
%TO.N,Net-(MT1-C)*%
X53058500Y-54290000D02*
X55190000Y-56421500D01*
X33550000Y-54290000D02*
X53058500Y-54290000D01*
X130039800Y-68529800D02*
X128750000Y-67240000D01*
X130039800Y-70265600D02*
X130039800Y-68529800D01*
X128529000Y-71776400D02*
X130039800Y-70265600D01*
X57301200Y-71776400D02*
X128529000Y-71776400D01*
%TO.N,Net-(MT1-QD)*%
X122400000Y-65970000D02*
X121130000Y-67240000D01*
X188969800Y-65970000D02*
X122400000Y-65970000D01*
X190093600Y-64846200D02*
X188969800Y-65970000D01*
%TO.N,Net-(MT1-~{LOAD})*%
X105605900Y-169030000D02*
X121380000Y-169030000D01*
X100900000Y-164324100D02*
X105605900Y-169030000D01*
X100900000Y-163201300D02*
X100900000Y-164324100D01*
X98697300Y-160998600D02*
X100900000Y-163201300D01*
X93270600Y-160998600D02*
X98697300Y-160998600D01*
X82122000Y-149850000D02*
X93270600Y-160998600D01*
X50900000Y-149850000D02*
X82122000Y-149850000D01*
X137620000Y-170300000D02*
X141550000Y-174230000D01*
X122650000Y-170300000D02*
X137620000Y-170300000D01*
X121380000Y-169030000D02*
X122650000Y-170300000D01*
X152860000Y-102810000D02*
X136726000Y-102810000D01*
X168650000Y-118600000D02*
X152860000Y-102810000D01*
X127639400Y-100260600D02*
X128900000Y-99000000D01*
X127639400Y-102052500D02*
X127639400Y-100260600D01*
X128396900Y-102810000D02*
X127639400Y-102052500D01*
X136726000Y-102810000D02*
X128396900Y-102810000D01*
%TO.N,Net-(MT1-CLR)*%
X107812400Y-85457800D02*
X100950100Y-85457800D01*
X108222900Y-85047300D02*
X107812400Y-85457800D01*
X126152100Y-85047300D02*
X108222900Y-85047300D01*
X126584200Y-85479400D02*
X126152100Y-85047300D01*
%TO.N,Net-(MT1-D)*%
X33650000Y-51850000D02*
X33550000Y-51750000D01*
X55190000Y-51850000D02*
X33650000Y-51850000D01*
X63046200Y-68508600D02*
X62549000Y-69005800D01*
X127478600Y-68508600D02*
X63046200Y-68508600D01*
X128750000Y-69780000D02*
X127478600Y-68508600D01*
%TO.N,Net-(MT1-QA)*%
X122400000Y-58350000D02*
X121130000Y-57080000D01*
X131852100Y-58350000D02*
X122400000Y-58350000D01*
X137050300Y-63548200D02*
X131852100Y-58350000D01*
X182557300Y-63548200D02*
X137050300Y-63548200D01*
X182567000Y-63557900D02*
X182557300Y-63548200D01*
X190587500Y-63557900D02*
X182567000Y-63557900D01*
X191375200Y-64345600D02*
X190587500Y-63557900D01*
X191375200Y-66104600D02*
X191375200Y-64345600D01*
X190093600Y-67386200D02*
X191375200Y-66104600D01*
%TO.N,Net-(MT1-B)*%
X51047100Y-56830000D02*
X33550000Y-56830000D01*
X55210000Y-60992900D02*
X51047100Y-56830000D01*
X61945700Y-54257200D02*
X55210000Y-60992900D01*
X101499400Y-54257200D02*
X61945700Y-54257200D01*
X103540000Y-52216600D02*
X101499400Y-54257200D01*
X103540000Y-51148500D02*
X103540000Y-52216600D01*
X104292100Y-50396400D02*
X103540000Y-51148500D01*
X119526400Y-50396400D02*
X104292100Y-50396400D01*
X121130000Y-52000000D02*
X119526400Y-50396400D01*
%TO.N,Net-(MT1-QB)*%
X107700000Y-54540000D02*
X121130000Y-54540000D01*
X104810000Y-51650000D02*
X107700000Y-54540000D01*
X188896000Y-53343800D02*
X190093600Y-52146200D01*
X166200400Y-53343800D02*
X188896000Y-53343800D01*
X166108300Y-53251700D02*
X166200400Y-53343800D01*
X122418300Y-53251700D02*
X166108300Y-53251700D01*
X121130000Y-54540000D02*
X122418300Y-53251700D01*
%TO.N,Net-(U19-2Y)*%
X105282000Y-159242000D02*
X163476400Y-159242000D01*
X102170000Y-156130000D02*
X105282000Y-159242000D01*
%TO.N,Net-(U10-I0b)*%
X51421600Y-96680000D02*
X55500000Y-100758400D01*
X33620000Y-96680000D02*
X51421600Y-96680000D01*
X95684400Y-132205600D02*
X95730000Y-132160000D01*
X74239300Y-132205600D02*
X95684400Y-132205600D01*
D21*
%TO.N,GND*%
X189560000Y-181820000D02*
X189580000Y-181800000D01*
X168600000Y-181820000D02*
X189560000Y-181820000D01*
X108419700Y-162580300D02*
X107250000Y-163750000D01*
X127630300Y-162580300D02*
X108419700Y-162580300D01*
X129000000Y-163950000D02*
X127630300Y-162580300D01*
X50200000Y-145550000D02*
X66380000Y-145550000D01*
X45900000Y-149850000D02*
X50200000Y-145550000D01*
X166110000Y-126220000D02*
X163570000Y-126220000D01*
X72673300Y-178773300D02*
X63915000Y-178773300D01*
X74075000Y-180175000D02*
X72673300Y-178773300D01*
X63915000Y-178773300D02*
X63915000Y-180175000D01*
X52273300Y-178773300D02*
X50850000Y-177350000D01*
X63915000Y-178773300D02*
X52273300Y-178773300D01*
X65550000Y-51650000D02*
X65350000Y-51850000D01*
X92110000Y-51650000D02*
X65550000Y-51650000D01*
X119922200Y-141137800D02*
X95730000Y-141137800D01*
X121330000Y-139730000D02*
X119922200Y-141137800D01*
X95730000Y-141137800D02*
X95730000Y-139780000D01*
X70792200Y-141137800D02*
X66380000Y-145550000D01*
X95730000Y-141137800D02*
X70792200Y-141137800D01*
X157326500Y-139827000D02*
X153360000Y-143793500D01*
X189509400Y-139827000D02*
X157326500Y-139827000D01*
X153360000Y-143793500D02*
X153360000Y-149350000D01*
X125393500Y-143793500D02*
X121330000Y-139730000D01*
X153360000Y-143793500D02*
X125393500Y-143793500D01*
X65725900Y-69780000D02*
X121130000Y-69780000D01*
X65370000Y-70135900D02*
X65725900Y-69780000D01*
X65668800Y-114437100D02*
X65668800Y-109877500D01*
X155881800Y-121071800D02*
X163570000Y-121071800D01*
X153410000Y-118600000D02*
X155881800Y-121071800D01*
X66746400Y-104231600D02*
X68287000Y-104231600D01*
X65660000Y-105318000D02*
X66746400Y-104231600D01*
X114313800Y-104080000D02*
X121280000Y-104080000D01*
X112360400Y-102126600D02*
X114313800Y-104080000D01*
X97556600Y-102126600D02*
X112360400Y-102126600D01*
X91960000Y-96530000D02*
X97556600Y-102126600D01*
D22*
%TO.N,Net-(R3_Timer1-Pad2)*%
X26900000Y-137850000D02*
X32900000Y-137850000D01*
%TO.N,Net-(U12-L\u002AG+H+I)*%
X150843300Y-74552500D02*
X156390000Y-69005800D01*
X99167500Y-74552500D02*
X150843300Y-74552500D01*
X97140000Y-76580000D02*
X99167500Y-74552500D01*
%TO.N,Net-(U20-3A)*%
X72705100Y-133155100D02*
X74000000Y-134450000D01*
X52344900Y-133155100D02*
X72705100Y-133155100D01*
X50900000Y-134600000D02*
X52344900Y-133155100D01*
X91824600Y-143244600D02*
X74862300Y-143244600D01*
X104710000Y-156130000D02*
X91824600Y-143244600D01*
%TO.N,Net-(U10-S)*%
X135100200Y-122063200D02*
X165525000Y-122063200D01*
X132926200Y-119889200D02*
X135100200Y-122063200D01*
X97840800Y-119889200D02*
X132926200Y-119889200D01*
X95730000Y-122000000D02*
X97840800Y-119889200D01*
%TO.N,Net-(U19-1Y)*%
X160980000Y-181820000D02*
X158440000Y-181820000D01*
%TO.N,Net-(U20-1A)*%
X70350600Y-159599400D02*
X74000000Y-155950000D01*
X50050600Y-159599400D02*
X70350600Y-159599400D01*
X45800000Y-163850000D02*
X50050600Y-159599400D01*
X98369800Y-162489800D02*
X92010000Y-162489800D01*
X99630000Y-163750000D02*
X98369800Y-162489800D01*
X92010000Y-162489800D02*
X92010000Y-163750000D01*
X80539800Y-162489800D02*
X74000000Y-155950000D01*
X92010000Y-162489800D02*
X80539800Y-162489800D01*
%TO.N,Net-(U12-H)*%
X162109800Y-58359800D02*
X163370000Y-59620000D01*
X157010200Y-58359800D02*
X162109800Y-58359800D01*
X155750000Y-59620000D02*
X157010200Y-58359800D01*
%TO.N,Net-(U18-1A)*%
X94428700Y-74977000D02*
X96957300Y-74977000D01*
X93330000Y-76075700D02*
X94428700Y-74977000D01*
X93330000Y-77151800D02*
X93330000Y-76075700D01*
X94076500Y-77898300D02*
X93330000Y-77151800D01*
X105981700Y-77898300D02*
X94076500Y-77898300D01*
X107300000Y-76580000D02*
X105981700Y-77898300D01*
%TO.N,Net-(U11-3A)*%
X93322400Y-183112400D02*
X91910000Y-181700000D01*
X162227600Y-183112400D02*
X93322400Y-183112400D01*
X163520000Y-181820000D02*
X162227600Y-183112400D01*
%TO.N,Net-(U11-2A)*%
X153566600Y-116216600D02*
X114742000Y-116216600D01*
X155950000Y-118600000D02*
X153566600Y-116216600D01*
X159728300Y-146108800D02*
X159170300Y-145550800D01*
X159728300Y-149925700D02*
X159728300Y-146108800D01*
X160425400Y-150622800D02*
X159728300Y-149925700D01*
X162247200Y-150622800D02*
X160425400Y-150622800D01*
X163520000Y-149350000D02*
X162247200Y-150622800D01*
%TO.N,Net-(U10-I0a)*%
X49402000Y-99220000D02*
X33620000Y-99220000D01*
X55500000Y-105318000D02*
X49402000Y-99220000D01*
X94725000Y-123535000D02*
X95730000Y-124540000D01*
X68493400Y-123535000D02*
X94725000Y-123535000D01*
%TO.N,Net-(U10-I0c)*%
X53441200Y-94140000D02*
X33620000Y-94140000D01*
X55500000Y-96198800D02*
X53441200Y-94140000D01*
X102061700Y-135988300D02*
X103350000Y-134700000D01*
X79711100Y-135988300D02*
X102061700Y-135988300D01*
X77772300Y-134049500D02*
X79711100Y-135988300D01*
%TO.N,Net-(U10-I0d)*%
X33659300Y-91639300D02*
X55500000Y-91639300D01*
X33620000Y-91600000D02*
X33659300Y-91639300D01*
X57382300Y-93521600D02*
X97398000Y-93521600D01*
X55500000Y-91639300D02*
X57382300Y-93521600D01*
%TO.N,Net-(U9-g)*%
X204350000Y-161950000D02*
X197200000Y-169100000D01*
X220120000Y-161950000D02*
X204350000Y-161950000D01*
%TO.N,Net-(U9-f)*%
X205810000Y-157950000D02*
X220120000Y-157950000D01*
X197200000Y-166560000D02*
X205810000Y-157950000D01*
%TO.N,Net-(U9-e)*%
X219930000Y-181800000D02*
X220080000Y-181950000D01*
X197200000Y-181800000D02*
X219930000Y-181800000D01*
%TO.N,Net-(U9-d)*%
X218770000Y-179260000D02*
X197200000Y-179260000D01*
X220080000Y-177950000D02*
X218770000Y-179260000D01*
%TO.N,Net-(U9-c)*%
X217310000Y-176720000D02*
X220080000Y-173950000D01*
X197200000Y-176720000D02*
X217310000Y-176720000D01*
%TO.N,Net-(U9-b)*%
X215890000Y-174180000D02*
X220120000Y-169950000D01*
X197200000Y-174180000D02*
X215890000Y-174180000D01*
%TO.N,Net-(U9-a)*%
X214430000Y-171640000D02*
X197200000Y-171640000D01*
X220120000Y-165950000D02*
X214430000Y-171640000D01*
%TO.N,Net-(U7-g)*%
X218803000Y-127127000D02*
X219830000Y-126100000D01*
X197129400Y-127127000D02*
X218803000Y-127127000D01*
%TO.N,Net-(U7-f)*%
X217293000Y-124587000D02*
X219830000Y-122050000D01*
X197129400Y-124587000D02*
X217293000Y-124587000D01*
%TO.N,Net-(U7-e)*%
X205080000Y-147777600D02*
X197129400Y-139827000D01*
X219906200Y-147777600D02*
X205080000Y-147777600D01*
%TO.N,Net-(U7-d)*%
X203570000Y-143727600D02*
X197129400Y-137287000D01*
X219906200Y-143727600D02*
X203570000Y-143727600D01*
%TO.N,Net-(U7-c)*%
X214975600Y-134747000D02*
X197129400Y-134747000D01*
X219906200Y-139677600D02*
X214975600Y-134747000D01*
%TO.N,Net-(U7-b)*%
X216928800Y-132207000D02*
X197129400Y-132207000D01*
X219753800Y-135032000D02*
X216928800Y-132207000D01*
%TO.N,Net-(U7-a)*%
X218438800Y-129667000D02*
X197129400Y-129667000D01*
X219753800Y-130982000D02*
X218438800Y-129667000D01*
%TO.N,Net-(U4-g)*%
X218339200Y-91490800D02*
X197993000Y-91490800D01*
X219830000Y-90000000D02*
X218339200Y-91490800D01*
%TO.N,Net-(U4-f)*%
X216829200Y-88950800D02*
X219830000Y-85950000D01*
X197993000Y-88950800D02*
X216829200Y-88950800D01*
%TO.N,Net-(U4-e)*%
X203877000Y-110074800D02*
X197993000Y-104190800D01*
X219804600Y-110074800D02*
X203877000Y-110074800D01*
%TO.N,Net-(U4-d)*%
X202367000Y-106024800D02*
X219804600Y-106024800D01*
X197993000Y-101650800D02*
X202367000Y-106024800D01*
%TO.N,Net-(U4-c)*%
X216940600Y-99110800D02*
X197993000Y-99110800D01*
X219804600Y-101974800D02*
X216940600Y-99110800D01*
%TO.N,Net-(U4-b)*%
X218450600Y-96570800D02*
X219804600Y-97924800D01*
X197993000Y-96570800D02*
X218450600Y-96570800D01*
%TO.N,Net-(U4-a)*%
X219648600Y-94030800D02*
X219804600Y-93874800D01*
X197993000Y-94030800D02*
X219648600Y-94030800D01*
%TO.N,Net-(U6-g)*%
X219003800Y-57226200D02*
X220080000Y-56150000D01*
X197713600Y-57226200D02*
X219003800Y-57226200D01*
%TO.N,Net-(U6-f)*%
X217493800Y-54686200D02*
X220080000Y-52100000D01*
X197713600Y-54686200D02*
X217493800Y-54686200D01*
%TO.N,Net-(U6-e)*%
X204926600Y-77139200D02*
X219826000Y-77139200D01*
X197713600Y-69926200D02*
X204926600Y-77139200D01*
%TO.N,Net-(U6-d)*%
X203416600Y-73089200D02*
X197713600Y-67386200D01*
X219826000Y-73089200D02*
X203416600Y-73089200D01*
%TO.N,Net-(U6-c)*%
X201906600Y-69039200D02*
X197713600Y-64846200D01*
X219826000Y-69039200D02*
X201906600Y-69039200D01*
%TO.N,Net-(U6-b)*%
X217143000Y-62306200D02*
X197713600Y-62306200D01*
X219826000Y-64989200D02*
X217143000Y-62306200D01*
%TO.N,Net-(U1-OUT)*%
X32367500Y-183207500D02*
X30880000Y-181720000D01*
X60526500Y-183207500D02*
X32367500Y-183207500D01*
%TO.N,Net-(U6-a)*%
X218653000Y-59766200D02*
X219826000Y-60939200D01*
X197713600Y-59766200D02*
X218653000Y-59766200D01*
%TO.N,Net-(U1-DISCH)*%
X28398200Y-167760000D02*
X27125600Y-166487400D01*
X72540000Y-167760000D02*
X28398200Y-167760000D01*
X73900000Y-166400000D02*
X72540000Y-167760000D01*
D21*
%TO.N,+5V*%
X192120000Y-169100000D02*
X189580000Y-169100000D01*
X197200000Y-164020000D02*
X192120000Y-169100000D01*
X189993800Y-91870000D02*
X190373000Y-91490800D01*
X168600000Y-91870000D02*
X189993800Y-91870000D01*
X53350000Y-166400000D02*
X50800000Y-163850000D01*
X66280000Y-166400000D02*
X53350000Y-166400000D01*
X192913000Y-91490800D02*
X190373000Y-91490800D01*
X197993000Y-86410800D02*
X192913000Y-91490800D01*
X247802400Y-102489000D02*
X263042400Y-102489000D01*
X263042400Y-146913600D02*
X247802400Y-146913600D01*
X192633600Y-57226200D02*
X190093600Y-57226200D01*
X197713600Y-52146200D02*
X192633600Y-57226200D01*
X61375000Y-180175000D02*
X60674200Y-180175000D01*
X34965000Y-180175000D02*
X33420000Y-181720000D01*
X60674200Y-180175000D02*
X34965000Y-180175000D01*
X247929400Y-125198800D02*
X263169400Y-125198800D01*
X168596200Y-59766200D02*
X168450000Y-59620000D01*
X190093600Y-59766200D02*
X168596200Y-59766200D01*
X126800000Y-84200000D02*
X107300000Y-84200000D01*
X128900000Y-86300000D02*
X126800000Y-84200000D01*
X167233700Y-90503700D02*
X168600000Y-91870000D01*
X154726300Y-90503700D02*
X167233700Y-90503700D01*
X153360000Y-91870000D02*
X154726300Y-90503700D01*
X100810000Y-122000000D02*
X103350000Y-122000000D01*
X95730000Y-127080000D02*
X100810000Y-122000000D01*
X192049400Y-127127000D02*
X189509400Y-127127000D01*
X197129400Y-122047000D02*
X192049400Y-127127000D01*
X199817800Y-84586000D02*
X197993000Y-86410800D01*
X244900500Y-84586000D02*
X199817800Y-84586000D01*
X246217300Y-85902800D02*
X244900500Y-84586000D01*
X248031000Y-85902800D02*
X246217300Y-85902800D01*
X188602400Y-126220000D02*
X189509400Y-127127000D01*
X168650000Y-126220000D02*
X188602400Y-126220000D01*
X83709000Y-182281000D02*
X91910000Y-174080000D01*
X71101000Y-182281000D02*
X83709000Y-182281000D01*
X68995000Y-180175000D02*
X71101000Y-182281000D01*
X116285100Y-176635100D02*
X121380000Y-181730000D01*
X94465100Y-176635100D02*
X116285100Y-176635100D01*
X91910000Y-174080000D02*
X94465100Y-176635100D01*
X189580000Y-171640000D02*
X167184200Y-171640000D01*
X133698500Y-91870000D02*
X153360000Y-91870000D01*
X131345100Y-89516600D02*
X133698500Y-91870000D01*
X127591700Y-120591700D02*
X128950000Y-121950000D01*
X104758300Y-120591700D02*
X127591700Y-120591700D01*
X103350000Y-122000000D02*
X104758300Y-120591700D01*
X155920000Y-171640000D02*
X167184200Y-171640000D01*
X153360000Y-174200000D02*
X155920000Y-171640000D01*
D22*
%TO.N,Net-(U1-THRES)*%
X50770600Y-175429400D02*
X32209400Y-175429400D01*
X50850000Y-175350000D02*
X50770600Y-175429400D01*
X32209400Y-175429400D02*
X30880000Y-174100000D01*
X32209400Y-177850600D02*
X32209400Y-175429400D01*
X28340000Y-181720000D02*
X32209400Y-177850600D01*
%TD*%
M02*
