M48
; DRILL file {KiCad 9.0.7} date 2026-03-03T21:03:48+0200
; FORMAT={-:-/ absolute / metric / decimal}
; #@! TF.CreationDate,2026-03-03T21:03:48+02:00
; #@! TF.GenerationSoftware,Kicad,Pcbnew,9.0.7
; #@! TF.FileFunction,Plated,1,2,PTH
FMAT,2
METRIC
; #@! TA.AperFunction,Plated,PTH,ViaDrill
T1C0.400
; #@! TA.AperFunction,Plated,PTH,ComponentDrill
T2C0.800
; #@! TA.AperFunction,Plated,PTH,ComponentDrill
T3C1.000
%
G90
G05
T1
X57.301Y-71.776
X59.838Y-97.039
X60.526Y-183.207
X61.198Y-127.0
X62.549Y-69.006
X68.287Y-104.232
X68.493Y-123.535
X72.818Y-169.269
X74.239Y-132.206
X74.862Y-143.245
X77.772Y-134.049
X96.957Y-74.977
X97.398Y-93.522
X100.95Y-85.458
X103.49Y-82.399
X107.659Y-126.988
X111.314Y-80.368
X113.273Y-101.552
X114.742Y-116.217
X116.344Y-153.278
X119.253Y-135.341
X119.705Y-117.168
X121.77Y-113.575
X123.291Y-90.786
X123.624Y-168.721
X124.27Y-75.506
X124.328Y-97.443
X126.293Y-132.1
X126.584Y-85.479
X131.345Y-89.517
X136.726Y-102.81
X156.39Y-69.006
X159.17Y-145.551
X160.831Y-132.373
X161.812Y-153.278
X163.476Y-159.242
X163.57Y-121.072
X165.525Y-122.063
X167.184Y-171.64
X174.402Y-135.92
X182.163Y-64.5
X183.54Y-138.421
X186.394Y-167.114
X187.769Y-169.147
X235.166Y-98.229
X254.71Y-54.134
T2
X25.8Y-174.1
X25.8Y-181.72
X25.93Y-51.75
X25.93Y-54.29
X25.93Y-56.83
X25.93Y-59.37
X25.93Y-61.91
X25.93Y-64.45
X25.93Y-66.99
X25.93Y-69.53
X26.0Y-91.6
X26.0Y-94.14
X26.0Y-96.68
X26.0Y-99.22
X26.0Y-101.76
X26.0Y-104.3
X26.0Y-106.84
X26.0Y-109.38
X26.08Y-120.65
X26.08Y-123.19
X26.08Y-125.73
X26.08Y-128.27
X26.9Y-137.85
X26.9Y-145.47
X27.1Y-148.343
X27.1Y-155.963
X27.126Y-158.867
X27.126Y-166.487
X28.34Y-174.1
X28.34Y-181.72
X30.88Y-174.1
X30.88Y-181.72
X32.9Y-137.85
X32.9Y-145.47
X32.9Y-148.353
X32.9Y-155.973
X32.926Y-158.877
X32.926Y-166.497
X33.42Y-174.1
X33.42Y-181.72
X33.55Y-51.75
X33.55Y-54.29
X33.55Y-56.83
X33.55Y-59.37
X33.55Y-61.91
X33.55Y-64.45
X33.55Y-66.99
X33.55Y-69.53
X33.62Y-91.6
X33.62Y-94.14
X33.62Y-96.68
X33.62Y-99.22
X33.62Y-101.76
X33.62Y-104.3
X33.62Y-106.84
X33.62Y-109.38
X33.7Y-120.65
X33.7Y-123.19
X33.7Y-125.73
X33.7Y-128.27
X41.8Y-173.65
X41.8Y-178.65
X50.85Y-175.35
X50.85Y-177.35
X55.19Y-51.85
X55.19Y-56.421
X55.19Y-74.707
X55.19Y-79.279
X55.21Y-60.993
X55.21Y-65.564
X55.21Y-70.136
X55.5Y-91.639
X55.5Y-96.199
X55.5Y-100.758
X55.5Y-105.318
X55.509Y-109.877
X55.509Y-114.437
X55.509Y-118.997
X55.54Y-83.85
X55.61Y-123.556
X65.35Y-51.85
X65.35Y-56.421
X65.35Y-74.707
X65.35Y-79.279
X65.37Y-60.993
X65.37Y-65.564
X65.37Y-70.136
X65.66Y-91.639
X65.66Y-96.199
X65.66Y-100.758
X65.66Y-105.318
X65.669Y-109.877
X65.669Y-114.437
X65.669Y-118.997
X65.7Y-83.85
X65.77Y-123.556
X66.28Y-166.4
X66.38Y-134.45
X66.38Y-145.55
X66.38Y-155.95
X73.9Y-166.4
X74.0Y-134.45
X74.0Y-145.55
X74.0Y-155.95
X91.91Y-174.08
X91.91Y-181.7
X91.96Y-96.53
X91.96Y-104.15
X92.01Y-156.13
X92.01Y-163.75
X92.06Y-76.58
X92.06Y-84.2
X92.11Y-51.65
X92.11Y-59.27
X94.45Y-174.08
X94.45Y-181.7
X94.5Y-96.53
X94.5Y-104.15
X94.55Y-156.13
X94.55Y-163.75
X94.6Y-76.58
X94.6Y-84.2
X94.65Y-51.65
X94.65Y-59.27
X95.73Y-122.0
X95.73Y-124.54
X95.73Y-127.08
X95.73Y-129.62
X95.73Y-132.16
X95.73Y-134.7
X95.73Y-137.24
X95.73Y-139.78
X96.99Y-174.08
X96.99Y-181.7
X97.04Y-96.53
X97.04Y-104.15
X97.09Y-156.13
X97.09Y-163.75
X97.14Y-76.58
X97.14Y-84.2
X97.19Y-51.65
X97.19Y-59.27
X99.53Y-174.08
X99.53Y-181.7
X99.58Y-96.53
X99.58Y-104.15
X99.63Y-156.13
X99.63Y-163.75
X99.68Y-76.58
X99.68Y-84.2
X99.73Y-51.65
X99.73Y-59.27
X102.07Y-174.08
X102.07Y-181.7
X102.12Y-96.53
X102.12Y-104.15
X102.17Y-156.13
X102.17Y-163.75
X102.22Y-76.58
X102.22Y-84.2
X102.27Y-51.65
X102.27Y-59.27
X103.35Y-122.0
X103.35Y-124.54
X103.35Y-127.08
X103.35Y-129.62
X103.35Y-132.16
X103.35Y-134.7
X103.35Y-137.24
X103.35Y-139.78
X104.61Y-174.08
X104.61Y-181.7
X104.66Y-96.53
X104.66Y-104.15
X104.71Y-156.13
X104.71Y-163.75
X104.76Y-76.58
X104.76Y-84.2
X104.81Y-51.65
X104.81Y-59.27
X107.15Y-174.08
X107.15Y-181.7
X107.2Y-96.53
X107.2Y-104.15
X107.25Y-156.13
X107.25Y-163.75
X107.3Y-76.58
X107.3Y-84.2
X107.35Y-51.65
X107.35Y-59.27
X121.13Y-52.0
X121.13Y-54.54
X121.13Y-57.08
X121.13Y-59.62
X121.13Y-62.16
X121.13Y-64.7
X121.13Y-67.24
X121.13Y-69.78
X121.28Y-86.3
X121.28Y-88.84
X121.28Y-91.38
X121.28Y-93.92
X121.28Y-96.46
X121.28Y-99.0
X121.28Y-101.54
X121.28Y-104.08
X121.33Y-121.95
X121.33Y-124.49
X121.33Y-127.03
X121.33Y-129.57
X121.33Y-132.11
X121.33Y-134.65
X121.33Y-137.19
X121.33Y-139.73
X121.38Y-163.95
X121.38Y-166.49
X121.38Y-169.03
X121.38Y-171.57
X121.38Y-174.11
X121.38Y-176.65
X121.38Y-179.19
X121.38Y-181.73
X128.75Y-52.0
X128.75Y-54.54
X128.75Y-57.08
X128.75Y-59.62
X128.75Y-62.16
X128.75Y-64.7
X128.75Y-67.24
X128.75Y-69.78
X128.9Y-86.3
X128.9Y-88.84
X128.9Y-91.38
X128.9Y-93.92
X128.9Y-96.46
X128.9Y-99.0
X128.9Y-101.54
X128.9Y-104.08
X128.95Y-121.95
X128.95Y-124.49
X128.95Y-127.03
X128.95Y-129.57
X128.95Y-132.11
X128.95Y-134.65
X128.95Y-137.19
X128.95Y-139.73
X129.0Y-163.95
X129.0Y-166.49
X129.0Y-169.03
X129.0Y-171.57
X129.0Y-174.11
X129.0Y-176.65
X129.0Y-179.19
X129.0Y-181.73
X141.55Y-174.23
X141.55Y-181.85
X153.21Y-52.0
X153.21Y-59.62
X153.36Y-84.25
X153.36Y-91.87
X153.36Y-149.35
X153.36Y-156.97
X153.36Y-174.2
X153.36Y-181.82
X153.41Y-118.6
X153.41Y-126.22
X155.75Y-52.0
X155.75Y-59.62
X155.9Y-84.25
X155.9Y-91.87
X155.9Y-149.35
X155.9Y-156.97
X155.9Y-174.2
X155.9Y-181.82
X155.95Y-118.6
X155.95Y-126.22
X158.29Y-52.0
X158.29Y-59.62
X158.44Y-84.25
X158.44Y-91.87
X158.44Y-149.35
X158.44Y-156.97
X158.44Y-174.2
X158.44Y-181.82
X158.49Y-118.6
X158.49Y-126.22
X160.83Y-52.0
X160.83Y-59.62
X160.98Y-84.25
X160.98Y-91.87
X160.98Y-149.35
X160.98Y-156.97
X160.98Y-174.2
X160.98Y-181.82
X161.03Y-118.6
X161.03Y-126.22
X163.37Y-52.0
X163.37Y-59.62
X163.52Y-84.25
X163.52Y-91.87
X163.52Y-149.35
X163.52Y-156.97
X163.52Y-174.2
X163.52Y-181.82
X163.57Y-118.6
X163.57Y-126.22
X165.91Y-52.0
X165.91Y-59.62
X166.06Y-84.25
X166.06Y-91.87
X166.06Y-149.35
X166.06Y-156.97
X166.06Y-174.2
X166.06Y-181.82
X166.11Y-118.6
X166.11Y-126.22
X168.45Y-52.0
X168.45Y-59.62
X168.6Y-84.25
X168.6Y-91.87
X168.6Y-149.35
X168.6Y-156.97
X168.6Y-174.2
X168.6Y-181.82
X168.65Y-118.6
X168.65Y-126.22
X189.509Y-122.047
X189.509Y-124.587
X189.509Y-127.127
X189.509Y-129.667
X189.509Y-132.207
X189.509Y-134.747
X189.509Y-137.287
X189.509Y-139.827
X189.58Y-164.02
X189.58Y-166.56
X189.58Y-169.1
X189.58Y-171.64
X189.58Y-174.18
X189.58Y-176.72
X189.58Y-179.26
X189.58Y-181.8
X190.094Y-52.146
X190.094Y-54.686
X190.094Y-57.226
X190.094Y-59.766
X190.094Y-62.306
X190.094Y-64.846
X190.094Y-67.386
X190.094Y-69.926
X190.373Y-86.411
X190.373Y-88.951
X190.373Y-91.491
X190.373Y-94.031
X190.373Y-96.571
X190.373Y-99.111
X190.373Y-101.651
X190.373Y-104.191
X197.129Y-122.047
X197.129Y-124.587
X197.129Y-127.127
X197.129Y-129.667
X197.129Y-132.207
X197.129Y-134.747
X197.129Y-137.287
X197.129Y-139.827
X197.2Y-164.02
X197.2Y-166.56
X197.2Y-169.1
X197.2Y-171.64
X197.2Y-174.18
X197.2Y-176.72
X197.2Y-179.26
X197.2Y-181.8
X197.714Y-52.146
X197.714Y-54.686
X197.714Y-57.226
X197.714Y-59.766
X197.714Y-62.306
X197.714Y-64.846
X197.714Y-67.386
X197.714Y-69.926
X197.993Y-86.411
X197.993Y-88.951
X197.993Y-91.491
X197.993Y-94.031
X197.993Y-96.571
X197.993Y-99.111
X197.993Y-101.651
X197.993Y-104.191
X219.754Y-130.982
X219.754Y-135.032
X219.805Y-93.875
X219.805Y-97.925
X219.805Y-101.975
X219.805Y-106.025
X219.805Y-110.075
X219.826Y-60.939
X219.826Y-64.989
X219.826Y-69.039
X219.826Y-73.089
X219.826Y-77.139
X219.83Y-85.95
X219.83Y-90.0
X219.83Y-122.05
X219.83Y-126.1
X219.906Y-139.678
X219.906Y-143.728
X219.906Y-147.778
X220.08Y-52.1
X220.08Y-56.15
X220.08Y-173.95
X220.08Y-177.95
X220.08Y-181.95
X220.12Y-157.95
X220.12Y-161.95
X220.12Y-165.95
X220.12Y-169.95
X227.374Y-130.982
X227.374Y-135.032
X227.425Y-93.875
X227.425Y-97.925
X227.425Y-101.975
X227.425Y-106.025
X227.425Y-110.075
X227.446Y-60.939
X227.446Y-64.989
X227.446Y-69.039
X227.446Y-73.089
X227.446Y-77.139
X227.45Y-85.95
X227.45Y-90.0
X227.45Y-122.05
X227.45Y-126.1
X227.526Y-139.678
X227.526Y-143.728
X227.526Y-147.778
X227.7Y-52.1
X227.7Y-56.15
X227.7Y-173.95
X227.7Y-177.95
X227.7Y-181.95
X227.74Y-157.95
X227.74Y-161.95
X227.74Y-165.95
X227.74Y-169.95
X247.802Y-97.409
X247.802Y-99.949
X247.802Y-102.489
X247.802Y-105.029
X247.802Y-107.569
X247.802Y-141.834
X247.802Y-144.374
X247.802Y-146.914
X247.802Y-149.454
X247.802Y-151.994
X247.929Y-120.119
X247.929Y-122.659
X247.929Y-125.199
X247.929Y-127.739
X247.929Y-130.279
X248.031Y-75.743
X248.031Y-78.283
X248.031Y-80.823
X248.031Y-83.363
X248.031Y-85.903
X263.042Y-97.409
X263.042Y-99.949
X263.042Y-102.489
X263.042Y-105.029
X263.042Y-107.569
X263.042Y-141.834
X263.042Y-144.374
X263.042Y-146.914
X263.042Y-149.454
X263.042Y-151.994
X263.169Y-120.119
X263.169Y-122.659
X263.169Y-125.199
X263.169Y-127.739
X263.169Y-130.279
X263.271Y-75.743
X263.271Y-78.283
X263.271Y-80.823
X263.271Y-83.363
X263.271Y-85.903
T3
X45.8Y-163.85
X45.9Y-134.6
X45.9Y-149.85
X50.8Y-163.85
X50.9Y-134.6
X50.9Y-149.85
X61.375Y-180.175
X63.915Y-180.175
X66.455Y-180.175
X68.995Y-180.175
X71.535Y-180.175
X74.075Y-180.175
M30
