M48
; DRILL file {KiCad 9.0.7} date 2026-03-02T13:41:29+0200
; FORMAT={-:-/ absolute / metric / decimal}
; #@! TF.CreationDate,2026-03-02T13:41:29+02:00
; #@! TF.GenerationSoftware,Kicad,Pcbnew,9.0.7
; #@! TF.FileFunction,MixedPlating,1,2
FMAT,2
METRIC
; #@! TA.AperFunction,Plated,PTH,ViaDrill
T1C0.400
; #@! TA.AperFunction,Plated,PTH,ComponentDrill
T2C0.800
; #@! TA.AperFunction,Plated,PTH,ComponentDrill
T3C1.000
%
G90
G05
T1
X30.916Y-175.887
X60.481Y-113.386
X65.767Y-197.349
X74.206Y-157.503
X75.928Y-171.838
X76.423Y-160.401
X80.673Y-64.297
X82.111Y-23.907
X85.677Y-73.131
X85.682Y-152.522
X95.867Y-106.214
X97.866Y-28.005
X98.99Y-125.812
X104.482Y-133.716
X110.576Y-147.541
X112.659Y-38.236
X113.742Y-42.947
X116.196Y-43.148
X116.196Y-62.306
X119.348Y-108.842
X119.894Y-195.505
X120.985Y-139.557
X121.262Y-57.947
X121.403Y-96.434
X123.609Y-134.148
X124.015Y-128.781
X124.034Y-152.522
X126.496Y-146.734
X126.674Y-23.825
X130.492Y-37.913
X130.492Y-42.947
X130.492Y-100.52
X131.523Y-165.029
X135.1Y-147.917
X135.605Y-117.792
X146.71Y-115.921
X150.407Y-132.599
X150.563Y-182.406
X153.411Y-39.297
X155.874Y-165.029
X156.863Y-138.913
X159.055Y-163.792
X159.711Y-113.997
X164.871Y-112.675
X165.343Y-179.299
X259.94Y-52.908
T2
X9.144Y-163.627
X16.764Y-163.627
X24.287Y-172.079
X24.287Y-179.699
X24.297Y-185.989
X24.968Y-56.363
X24.968Y-58.903
X24.968Y-61.443
X24.968Y-63.983
X24.968Y-66.523
X24.968Y-69.063
X24.968Y-71.603
X24.968Y-74.143
X26.297Y-185.989
X26.695Y-118.237
X26.695Y-125.857
X26.772Y-136.423
X26.772Y-144.043
X26.827Y-172.079
X26.827Y-179.699
X27.026Y-151.917
X27.026Y-159.537
X29.367Y-172.079
X29.367Y-179.699
X30.977Y-185.289
X31.907Y-172.079
X31.907Y-179.699
X32.572Y-136.433
X32.572Y-144.053
X32.588Y-56.363
X32.588Y-58.903
X32.588Y-61.443
X32.588Y-63.983
X32.588Y-66.523
X32.588Y-69.063
X32.588Y-71.603
X32.588Y-74.143
X32.695Y-118.237
X32.695Y-125.857
X32.826Y-151.927
X32.826Y-159.547
X38.597Y-185.289
X39.197Y-172.089
X39.197Y-177.089
X43.988Y-56.363
X43.988Y-60.363
X43.988Y-76.363
X43.988Y-80.363
X43.988Y-84.363
X44.008Y-64.363
X44.008Y-68.363
X44.008Y-72.363
X48.616Y-101.956
X48.616Y-104.496
X48.616Y-107.036
X48.616Y-109.576
X48.616Y-112.116
X48.616Y-114.656
X48.616Y-117.196
X48.616Y-119.736
X54.148Y-56.363
X54.148Y-60.363
X54.148Y-76.363
X54.148Y-80.363
X54.148Y-84.363
X54.168Y-64.363
X54.168Y-68.363
X54.168Y-72.363
X55.41Y-154.6
X55.41Y-162.22
X56.236Y-101.956
X56.236Y-104.496
X56.236Y-107.036
X56.236Y-109.576
X56.236Y-112.116
X56.236Y-114.656
X56.236Y-117.196
X56.236Y-119.736
X57.95Y-154.6
X57.95Y-162.22
X60.49Y-148.92
X60.49Y-154.6
X60.49Y-162.22
X62.11Y-167.5
X62.11Y-175.12
X63.03Y-154.6
X63.03Y-162.22
X65.41Y-180.8
X65.41Y-188.42
X65.57Y-154.6
X65.57Y-162.22
X66.599Y-115.99
X66.599Y-119.99
X66.599Y-123.99
X66.599Y-127.99
X67.95Y-180.8
X67.95Y-188.42
X68.11Y-148.92
X68.11Y-154.6
X68.11Y-162.22
X70.49Y-180.8
X70.49Y-188.42
X70.65Y-154.6
X70.65Y-162.22
X73.03Y-180.8
X73.03Y-188.42
X75.662Y-37.541
X75.662Y-45.161
X76.759Y-115.99
X76.759Y-119.99
X76.759Y-123.99
X76.759Y-127.99
X78.202Y-37.541
X78.202Y-45.161
X79.019Y-90.602
X79.019Y-98.222
X80.742Y-37.541
X80.742Y-45.161
X81.559Y-90.602
X81.559Y-98.222
X83.282Y-37.541
X83.282Y-45.161
X84.099Y-90.602
X84.099Y-98.222
X85.822Y-37.541
X85.822Y-45.161
X86.639Y-90.602
X86.639Y-98.222
X87.401Y-122.987
X87.401Y-130.607
X88.362Y-37.541
X88.362Y-45.161
X89.179Y-90.602
X89.179Y-98.222
X89.41Y-175.12
X89.41Y-177.66
X89.41Y-180.2
X89.41Y-182.74
X89.41Y-185.28
X89.41Y-187.82
X89.41Y-190.36
X89.941Y-122.987
X89.941Y-130.607
X90.902Y-37.541
X90.902Y-45.161
X91.719Y-90.602
X91.719Y-98.222
X92.481Y-122.987
X92.481Y-130.607
X93.867Y-105.689
X93.867Y-115.849
X94.259Y-90.602
X94.259Y-98.222
X95.021Y-122.987
X95.021Y-130.607
X97.03Y-175.12
X97.03Y-177.66
X97.03Y-180.2
X97.03Y-182.74
X97.03Y-185.28
X97.03Y-187.82
X97.03Y-190.36
X97.561Y-122.987
X97.561Y-130.607
X97.867Y-105.689
X97.867Y-115.849
X100.101Y-122.987
X100.101Y-130.607
X101.867Y-105.689
X101.867Y-115.849
X102.641Y-122.987
X102.641Y-130.607
X105.181Y-122.987
X105.181Y-130.607
X105.867Y-105.689
X105.867Y-115.849
X118.567Y-52.934
X118.567Y-55.474
X118.567Y-58.014
X118.567Y-60.554
X118.567Y-63.094
X118.567Y-65.634
X118.567Y-68.174
X118.567Y-70.714
X118.847Y-122.403
X118.847Y-124.943
X118.847Y-127.483
X118.847Y-130.023
X118.847Y-132.563
X118.847Y-135.103
X118.847Y-137.643
X118.847Y-140.183
X119.202Y-88.265
X119.202Y-90.805
X119.202Y-93.345
X119.202Y-95.885
X119.202Y-98.425
X119.202Y-100.965
X119.202Y-103.505
X119.202Y-106.045
X120.472Y-20.904
X120.472Y-28.524
X121.183Y-163.093
X121.183Y-165.633
X121.183Y-168.173
X121.183Y-170.713
X121.183Y-173.253
X121.183Y-175.793
X121.183Y-178.333
X121.183Y-180.873
X123.012Y-20.904
X123.012Y-28.524
X125.552Y-20.904
X125.552Y-28.524
X126.187Y-52.934
X126.187Y-55.474
X126.187Y-58.014
X126.187Y-60.554
X126.187Y-63.094
X126.187Y-65.634
X126.187Y-68.174
X126.187Y-70.714
X126.467Y-122.403
X126.467Y-124.943
X126.467Y-127.483
X126.467Y-130.023
X126.467Y-132.563
X126.467Y-135.103
X126.467Y-137.643
X126.467Y-140.183
X126.822Y-88.265
X126.822Y-90.805
X126.822Y-93.345
X126.822Y-95.885
X126.822Y-98.425
X126.822Y-100.965
X126.822Y-103.505
X126.822Y-106.045
X128.092Y-20.904
X128.092Y-28.524
X128.803Y-163.093
X128.803Y-165.633
X128.803Y-168.173
X128.803Y-170.713
X128.803Y-173.253
X128.803Y-175.793
X128.803Y-178.333
X128.803Y-180.873
X130.632Y-20.904
X130.632Y-28.524
X133.172Y-20.904
X133.172Y-28.524
X135.712Y-20.904
X135.712Y-28.524
X138.019Y-149.2
X138.019Y-156.82
X140.335Y-76.352
X140.335Y-83.972
X140.36Y-110.465
X140.36Y-118.085
X140.559Y-149.2
X140.559Y-156.82
X142.672Y-194.996
X142.875Y-76.352
X142.875Y-83.972
X142.9Y-110.465
X142.9Y-118.085
X143.099Y-149.2
X143.099Y-156.82
X145.415Y-76.352
X145.415Y-83.972
X145.44Y-110.465
X145.44Y-118.085
X145.639Y-149.2
X145.639Y-156.82
X147.955Y-76.352
X147.955Y-83.972
X147.98Y-110.465
X147.98Y-118.085
X148.179Y-149.2
X148.179Y-156.82
X150.292Y-194.996
X150.495Y-76.352
X150.495Y-83.972
X150.52Y-110.465
X150.52Y-118.085
X150.719Y-149.2
X150.719Y-156.82
X152.806Y-37.338
X152.806Y-44.958
X153.035Y-76.352
X153.035Y-83.972
X153.06Y-110.465
X153.06Y-118.085
X153.259Y-149.2
X153.259Y-156.82
X155.346Y-37.338
X155.346Y-44.958
X155.575Y-76.352
X155.575Y-83.972
X155.6Y-110.465
X155.6Y-118.085
X157.886Y-37.338
X157.886Y-44.958
X160.426Y-37.338
X160.426Y-44.958
X162.966Y-37.338
X162.966Y-44.958
X165.506Y-37.338
X165.506Y-44.958
X168.046Y-37.338
X168.046Y-44.958
X171.374Y-192.634
X171.374Y-195.174
X171.374Y-197.714
X171.374Y-200.254
X171.374Y-202.794
X171.374Y-205.334
X171.374Y-207.874
X178.994Y-192.634
X178.994Y-195.174
X178.994Y-197.714
X178.994Y-200.254
X178.994Y-202.794
X178.994Y-205.334
X178.994Y-207.874
X189.509Y-122.047
X189.509Y-124.587
X189.509Y-127.127
X189.509Y-129.667
X189.509Y-132.207
X189.509Y-134.747
X189.509Y-137.287
X189.509Y-139.827
X190.094Y-52.146
X190.094Y-54.686
X190.094Y-57.226
X190.094Y-59.766
X190.094Y-62.306
X190.094Y-64.846
X190.094Y-67.386
X190.094Y-69.926
X190.373Y-86.411
X190.373Y-88.951
X190.373Y-91.491
X190.373Y-94.031
X190.373Y-96.571
X190.373Y-99.111
X190.373Y-101.651
X190.373Y-104.191
X190.983Y-164.059
X190.983Y-166.599
X190.983Y-169.139
X190.983Y-171.679
X190.983Y-174.219
X190.983Y-176.759
X190.983Y-179.299
X190.983Y-181.839
X197.129Y-122.047
X197.129Y-124.587
X197.129Y-127.127
X197.129Y-129.667
X197.129Y-132.207
X197.129Y-134.747
X197.129Y-137.287
X197.129Y-139.827
X197.714Y-52.146
X197.714Y-54.686
X197.714Y-57.226
X197.714Y-59.766
X197.714Y-62.306
X197.714Y-64.846
X197.714Y-67.386
X197.714Y-69.926
X197.993Y-86.411
X197.993Y-88.951
X197.993Y-91.491
X197.993Y-94.031
X197.993Y-96.571
X197.993Y-99.111
X197.993Y-101.651
X197.993Y-104.191
X198.603Y-164.059
X198.603Y-166.599
X198.603Y-169.139
X198.603Y-171.679
X198.603Y-174.219
X198.603Y-176.759
X198.603Y-179.299
X198.603Y-181.839
X219.481Y-57.226
X219.481Y-61.276
X219.481Y-65.326
X219.481Y-69.376
X219.481Y-73.426
X219.735Y-48.387
X219.735Y-52.437
X220.015Y-92.1
X220.015Y-96.15
X220.015Y-100.2
X220.015Y-104.25
X220.015Y-108.3
X220.04Y-84.176
X220.04Y-88.226
X220.548Y-176.531
X220.548Y-180.531
X220.548Y-184.531
X220.588Y-160.531
X220.588Y-164.531
X220.588Y-168.531
X220.588Y-172.531
X220.98Y-129.049
X220.98Y-133.099
X221.056Y-120.117
X221.056Y-124.167
X221.132Y-137.744
X221.132Y-141.794
X221.132Y-145.844
X227.101Y-57.226
X227.101Y-61.276
X227.101Y-65.326
X227.101Y-69.376
X227.101Y-73.426
X227.355Y-48.387
X227.355Y-52.437
X227.635Y-92.1
X227.635Y-96.15
X227.635Y-100.2
X227.635Y-104.25
X227.635Y-108.3
X227.66Y-84.176
X227.66Y-88.226
X228.168Y-176.531
X228.168Y-180.531
X228.168Y-184.531
X228.208Y-160.531
X228.208Y-164.531
X228.208Y-168.531
X228.208Y-172.531
X228.6Y-129.049
X228.6Y-133.099
X228.676Y-120.117
X228.676Y-124.167
X228.752Y-137.744
X228.752Y-141.794
X228.752Y-145.844
X247.802Y-97.409
X247.802Y-99.949
X247.802Y-102.489
X247.802Y-105.029
X247.802Y-107.569
X247.802Y-141.834
X247.802Y-144.374
X247.802Y-146.914
X247.802Y-149.454
X247.802Y-151.994
X247.929Y-120.119
X247.929Y-122.659
X247.929Y-125.199
X247.929Y-127.739
X247.929Y-130.279
X248.031Y-75.743
X248.031Y-78.283
X248.031Y-80.823
X248.031Y-83.363
X248.031Y-85.903
X263.042Y-97.409
X263.042Y-99.949
X263.042Y-102.489
X263.042Y-105.029
X263.042Y-107.569
X263.042Y-141.834
X263.042Y-144.374
X263.042Y-146.914
X263.042Y-149.454
X263.042Y-151.994
X263.169Y-120.119
X263.169Y-122.659
X263.169Y-125.199
X263.169Y-127.739
X263.169Y-130.279
X263.271Y-75.743
X263.271Y-78.283
X263.271Y-80.823
X263.271Y-83.363
X263.271Y-85.903
T3
X12.397Y-177.149
X12.397Y-179.689
X49.577Y-137.16
X54.577Y-137.16
X55.499Y-195.747
X55.499Y-200.747
X97.866Y-11.43
X100.406Y-11.43
X102.946Y-11.43
X120.258Y-206.35
X125.258Y-206.35
M30
